<svg width="248" height="289" viewBox="0 0 248 289" fill="none" xmlns="http://www.w3.org/2000/svg">
<g opacity="0.14" clip-path="url(#clip0_1561_29992)">
<path d="M180.939 88.8987C173.448 85.2939 164.004 83.9509 156.095 85.7379C148.187 87.5248 141.136 91.9846 136.016 98.4388C130.896 104.893 127.987 112.988 127.731 121.493C127.474 129.998 129.886 138.447 134.597 145.555C139.309 152.663 146.063 158.04 153.833 160.869C161.602 163.698 169.961 163.824 177.638 161.228C185.316 158.631 191.891 153.454 196.364 146.485C200.837 139.515 202.931 130.298 202.386 121.781L200.686 123.108C201.203 131.199 199.048 138.738 194.799 145.358C190.55 151.979 184.304 156.897 177.011 159.363C169.718 161.83 161.777 161.71 154.397 159.023C147.016 156.335 140.6 151.227 136.124 144.475C131.649 137.723 129.358 129.697 129.601 121.618C129.845 113.538 132.608 105.848 137.472 99.7171C142.336 93.5859 149.034 89.3493 156.546 87.6518C164.059 85.9543 171.975 86.8889 179.091 90.3132L180.939 88.8987Z" fill="#8B6546"/>
<path fill-rule="evenodd" clip-rule="evenodd" d="M185.863 86.1318C187.509 86.9239 187.74 89.1737 186.29 90.2838L180.563 94.6675C179.83 95.2286 178.844 95.3299 178.012 94.9296L176.419 94.1632C170.209 91.1747 163.517 90.4538 157.349 91.8475C151.197 93.2376 145.596 96.7223 141.436 101.967C137.253 107.24 134.756 114.02 134.535 121.328C134.315 128.633 136.392 135.919 140.448 142.039C144.507 148.161 150.242 152.661 156.636 154.99C163.004 157.308 169.65 157.35 175.621 155.33C181.594 153.31 186.872 149.233 190.551 143.501C194.292 137.673 196.22 131.005 195.756 123.749L195.697 122.828C195.645 122.02 195.996 121.239 196.634 120.741L203.126 115.671C204.678 114.459 206.952 115.48 207.078 117.445L207.314 121.138C207.902 130.322 205.68 140.44 200.61 148.34C195.567 156.198 188.024 162.216 179.027 165.259C170.027 168.302 160.373 168.098 151.591 164.9C142.836 161.712 135.4 155.726 130.271 147.989C125.14 140.249 122.515 131.06 122.795 121.78C123.074 112.505 126.25 103.499 132.051 96.1863C137.874 88.846 146.022 83.6343 155.29 81.54C164.636 79.4283 175.303 81.0499 183.608 85.0465L185.863 86.1318ZM202.44 122.879C202.423 122.412 201.886 122.17 201.518 122.457L201.056 122.818C200.824 122.999 200.697 123.283 200.712 123.577C201.118 131.49 198.965 138.865 194.798 145.357C194.724 145.473 194.65 145.588 194.574 145.702C190.331 152.149 184.176 156.939 177.01 159.362L176.996 159.367C169.834 161.786 162.047 161.711 154.781 159.16C154.653 159.114 154.524 159.068 154.396 159.022C147.074 156.356 140.701 151.307 136.23 144.634C136.194 144.581 136.159 144.527 136.123 144.474C131.648 137.722 129.357 129.696 129.6 121.617C129.603 121.539 129.605 121.461 129.608 121.383C129.897 113.389 132.654 105.788 137.471 99.716C137.554 99.6121 137.637 99.5088 137.72 99.4059C142.545 93.4637 149.112 89.3496 156.464 87.6691C156.491 87.663 156.518 87.6568 156.545 87.6507C163.855 85.999 171.548 86.8393 178.513 90.0406C178.868 90.204 179.285 90.1623 179.596 89.9245L180.364 89.3369C180.627 89.1357 180.585 88.7283 180.283 88.5907C178.983 87.9964 177.628 87.4691 176.237 87.0131C169.758 84.8899 162.483 84.3121 156.175 85.7186C156.148 85.7246 156.121 85.7307 156.094 85.7368C148.186 87.5237 141.135 91.9835 136.015 98.4377C135.933 98.5414 135.851 98.6455 135.77 98.75C130.802 105.152 127.982 113.124 127.73 121.492C127.727 121.57 127.725 121.648 127.723 121.726C127.519 130.088 129.891 138.385 134.49 145.394C134.526 145.447 134.561 145.501 134.596 145.554C139.23 152.545 145.84 157.862 153.449 160.726C153.576 160.774 153.704 160.822 153.832 160.868C161.601 163.697 169.96 163.823 177.637 161.227L177.651 161.222C185.323 158.624 191.893 153.449 196.363 146.484C196.437 146.369 196.51 146.253 196.582 146.137C200.37 140.067 202.387 132.363 202.467 124.913C202.474 124.232 202.466 123.554 202.44 122.879Z" fill="#8B6546"/>
<path d="M107.337 168.632L225.522 79.0963L197.782 77.2766" stroke="#8B6546" stroke-width="10.3422" stroke-linecap="round"/>
<circle cx="165" cy="124" r="121.838" transform="rotate(-17.8058 165 124)" stroke="#8B6546" stroke-width="2.89724"/>
<circle cx="164.999" cy="124.01" r="111.871" transform="rotate(-17.8058 164.999 124.01)" stroke="#8B6546" stroke-width="4.56615"/>
<line x1="121.914" y1="18.8781" x2="127.418" y2="36.0158" stroke="#8B6546" stroke-width="2.9755"/>
<line x1="183.854" y1="211.734" x2="189.358" y2="228.871" stroke="#8B6546" stroke-width="2.9755"/>
<line x1="77.5701" y1="154.26" x2="60.4323" y2="159.764" stroke="#8B6546" stroke-width="2.9755"/>
</g>
<defs>
<clipPath id="clip0_1561_29992">
<rect width="248" height="289" fill="white"/>
</clipPath>
</defs>
</svg>
