<svg width="26" height="22" viewBox="0 0 26 22" fill="none" xmlns="http://www.w3.org/2000/svg">
<path d="M25.8676 11.2172C25.4033 9.41264 24.1721 8.58736 23.0238 8.21494C21.741 3.93678 18.4307 0.5 12.9002 0.5C7.36967 0.5 4.03924 3.97126 2.79677 8.27701C1.70233 8.67701 0.572002 9.5069 0.13243 11.2172C-0.520199 13.7506 1.38386 15.431 2.68912 16.0517C2.76538 16.0885 2.84836 16.123 2.93134 16.1552C4.47881 19.7184 8.36768 21.5 12.9249 21.5C17.4821 21.5 21.3261 19.7368 22.8915 16.2172C23.0395 16.169 23.1808 16.1138 23.3109 16.0517C24.6161 15.4287 26.5202 13.7506 25.8676 11.2172Z" fill="#FFD6AB"/>
<rect x="9.80225" y="11.8242" width="2" height="3.1377" rx="1" fill="black" fill-opacity="0.55"/>
<rect x="14.1978" y="11.8242" width="2" height="3.1377" rx="1" fill="black" fill-opacity="0.55"/>
</svg>
