<svg width="132" height="251" viewBox="0 0 132 251" fill="none" xmlns="http://www.w3.org/2000/svg">
<path d="M52.1616 74.1688C52.1617 73.0816 53.0121 72.1842 54.0979 72.1259L69.9843 71.2724C71.0731 71.2139 72.0165 72.0195 72.1291 73.1041L73.3165 84.5348C73.4418 85.7419 72.495 86.7922 71.2814 86.7922H54.2068C53.0768 86.7922 52.1607 85.876 52.1608 84.746L52.1616 74.1688Z" fill="#FFD1A5"/>
<path d="M37.2171 180.843C37.1493 178.434 39.0836 176.444 41.4934 176.444H55.1746C57.5939 176.444 59.5319 178.449 59.4503 180.867L58.2759 215.649C58.1981 217.954 56.3068 219.783 54.0003 219.783H42.4725C40.1566 219.783 38.2613 217.94 38.1961 215.625L37.2171 180.843Z" fill="url(#paint0_radial_1172_10954)"/>
<path d="M66.6331 180.843C66.5653 178.434 68.4996 176.444 70.9094 176.444H84.5906C87.0099 176.444 88.9479 178.449 88.8663 180.867L87.6919 215.649C87.6141 217.954 85.7228 219.783 83.4163 219.783H71.8885C69.5727 219.783 67.6773 217.94 67.6121 215.625L66.6331 180.843Z" fill="url(#paint1_radial_1172_10954)"/>
<path d="M29.9758 158.352C30.0029 157.859 30.4106 157.473 30.9044 157.473H33.0001C33.5138 157.473 33.9301 157.889 33.9301 158.403V172.725C33.9301 173.238 33.5138 173.655 33.0001 173.655H30.1173C29.5836 173.655 29.1594 173.207 29.1887 172.674L29.9758 158.352Z" fill="#BBAC57"/>
<path d="M31.9678 141.001C32.0238 138.679 33.9221 136.826 36.2446 136.826H58.5422C60.9298 136.826 62.8552 138.78 62.8198 141.168L62.3029 175.95C62.2681 178.288 60.3632 180.165 58.0253 180.165H35.4055C33.0024 180.165 31.0707 178.186 31.1286 175.784L31.9678 141.001Z" fill="#8B8446"/>
<path d="M96.4576 158.313C96.4115 157.836 96.0109 157.473 95.5319 157.473H93.2673C92.7537 157.473 92.3373 157.889 92.3373 158.403V172.725C92.3373 173.238 92.7537 173.655 93.2673 173.655H96.9189C97.468 173.655 97.8975 173.182 97.8446 172.635L96.4576 158.313Z" fill="#BBAC57"/>
<path d="M94.4111 140.944C94.3251 138.645 92.4365 136.826 90.136 136.826H67.7617C65.3702 136.826 63.4431 138.787 63.4842 141.178L64.0825 175.96C64.1226 178.294 66.0259 180.165 68.3599 180.165H91.4373C93.8627 180.165 95.8031 178.15 95.7124 175.727L94.4111 140.944Z" fill="#8B8446"/>
<path fill-rule="evenodd" clip-rule="evenodd" d="M86.1752 95.3966L98.5707 94.0207L111.362 150.811C113.697 152.236 115.454 154.602 116.025 157.48C117.1 162.898 113.595 168.242 108.177 169.316C102.759 170.391 97.4795 166.789 96.4051 161.371C95.8951 158.799 96.417 156.244 97.6857 154.154L86.1752 95.3966Z" fill="url(#paint2_linear_1172_10954)"/>
<path fill-rule="evenodd" clip-rule="evenodd" d="M45.9589 97.4172L33.8362 94.4877L13.9797 149.209C11.4825 150.326 9.43906 152.452 8.50911 155.237C6.75942 160.476 9.56211 166.219 14.8011 167.968C20.0402 169.718 25.7316 166.812 27.4813 161.573C28.3115 159.087 28.1168 156.487 27.1231 154.255L45.9589 97.4172Z" fill="url(#paint3_linear_1172_10954)"/>
<path fill-rule="evenodd" clip-rule="evenodd" d="M30.0554 117.342L21.5943 108.374C20.3531 107.059 20.3307 104.944 21.5436 103.599L32.1108 91.8789C35.0085 87.7079 39.8346 84.9598 45.33 84.9598H63.9471L79.8033 83.4998C85.0187 83.0196 89.8316 85.0748 93.0945 88.6034L107.324 102.349C108.666 103.645 108.743 105.842 107.495 107.23L97.0854 118.812L96.6537 148.684C96.6222 150.866 94.5954 152.468 92.4654 151.996C74.1627 147.934 55.2371 147.536 36.7799 150.825L35.7873 151.002C33.6747 151.378 31.7107 149.817 31.6015 147.674L30.0554 117.342Z" fill="url(#paint4_linear_1172_10954)"/>
<path fill-rule="evenodd" clip-rule="evenodd" d="M81.763 83.3207C82.1195 82.9246 82.2457 82.4839 82.233 82.0495C83.1118 82.0899 84.097 82.1241 85.1981 82.1512C103.031 82.5897 96.77 67.3445 95.966 69.0986C94.6583 71.9516 92.2343 72.6359 90.1105 73.2355C89.1437 73.5084 88.2391 73.7638 87.5303 74.1982C87.289 74.3461 87.0132 74.5105 86.7129 74.6895C84.7576 75.8551 81.7636 77.6399 80.4867 79.5193C78.279 78.4834 76.5459 79.6883 75.5345 80.9941C75.4349 80.4918 74.8664 79.9974 74.3792 80.1144C67.8548 81.6816 55.1011 84.4125 52.5314 80.7142C52.3784 80.4941 52.129 80.3371 51.8876 80.4535C50.8219 80.9677 49.175 82.9715 49.1465 85.1188C49.1447 85.2592 49.1935 85.3935 49.2899 85.4955C51.7409 88.0882 61.5115 89.1772 75.2525 84.9438C75.6232 84.8296 75.8982 84.3506 75.9489 83.9131C77.8542 85.8136 80.4848 84.4591 81.763 83.3207Z" fill="#E57A2C"/>
<path d="M35.6712 213.206C35.7082 210.87 37.6124 208.996 39.9487 208.996H56.4644C58.7837 208.996 60.6807 210.844 60.741 213.163L61.346 236.413C61.4086 238.819 59.4757 240.803 57.0694 240.803H39.5803C37.1911 240.803 35.2649 238.846 35.3028 236.457L35.6712 213.206Z" fill="#8B6546"/>
<path d="M34.9808 236.628C35.1231 234.374 36.9923 232.619 39.2504 232.619H57.4666C59.7152 232.619 61.5801 234.36 61.7345 236.603L62.3621 245.717C62.5324 248.19 60.5726 250.289 58.0942 250.289H38.6752C36.2065 250.289 34.2502 248.206 34.4056 245.742L34.9808 236.628Z" fill="#353028"/>
<circle cx="40.5594" cy="216.368" r="1.41874" fill="#1D1E18"/>
<circle cx="56.3685" cy="216.368" r="1.41874" fill="#1D1E18"/>
<circle cx="40.5594" cy="221.516" r="1.41874" fill="#1D1E18"/>
<circle cx="56.3685" cy="221.516" r="1.41874" fill="#1D1E18"/>
<circle cx="40.5594" cy="226.597" r="1.41874" fill="#1D1E18"/>
<circle cx="56.3685" cy="226.597" r="1.41874" fill="#1D1E18"/>
<path d="M40.5347 216.437L55.2389 221.107C55.5838 221.217 55.5851 221.704 55.2408 221.816L40.5347 226.574" stroke="#353028" stroke-width="1.30202" stroke-linecap="round"/>
<path d="M56.438 226.575L41.7337 221.904C41.3888 221.795 41.3875 221.307 41.7318 221.196L56.438 216.438" stroke="#353028" stroke-width="1.30202" stroke-linecap="round"/>
<path d="M65.5654 213.157C65.6287 210.841 67.5247 208.996 69.8418 208.996H85.7608C88.0634 208.996 89.9529 210.819 90.0361 213.12L90.8758 236.37C90.9633 238.792 89.0238 240.803 86.6006 240.803H69.2062C66.7977 240.803 64.8639 238.815 64.9297 236.408L65.5654 213.157Z" fill="#8B6546"/>
<path d="M64.5475 236.617C64.6949 234.368 66.5623 232.619 68.8164 232.619H87.0951C89.3219 232.619 91.1763 234.327 91.3588 236.547L92.1081 245.661C92.313 248.153 90.3453 250.289 87.8444 250.289H68.219C65.7462 250.289 63.7884 248.199 63.9501 245.732L64.5475 236.617Z" fill="#353028"/>
<circle cx="70.1311" cy="216.368" r="1.41874" fill="#1D1E18"/>
<circle cx="85.9402" cy="216.368" r="1.41874" fill="#1D1E18"/>
<circle cx="70.1311" cy="221.516" r="1.41874" fill="#1D1E18"/>
<circle cx="85.9402" cy="221.516" r="1.41874" fill="#1D1E18"/>
<circle cx="70.1311" cy="226.597" r="1.41874" fill="#1D1E18"/>
<circle cx="85.9402" cy="226.597" r="1.41874" fill="#1D1E18"/>
<path d="M70.1064 216.437L84.8107 221.107C85.1556 221.217 85.1569 221.704 84.8126 221.816L70.1064 226.574" stroke="#353028" stroke-width="1.30202" stroke-linecap="round"/>
<path d="M86.0098 226.575L71.3055 221.904C70.9606 221.795 70.9593 221.307 71.3036 221.196L86.0098 216.438" stroke="#353028" stroke-width="1.30202" stroke-linecap="round"/>
<path fill-rule="evenodd" clip-rule="evenodd" d="M86.5726 50.4669C86.5726 52.4934 86.3569 54.4682 85.9474 56.3684C87.2181 57.0946 88.0612 58.3705 88.0612 59.8232C88.0612 62.0832 86.0209 63.9153 83.5041 63.9153C83.3747 63.9153 83.2465 63.9104 83.1197 63.9009C78.5547 72.1295 69.9179 77.6792 59.9787 77.6792C49.0416 77.6792 40.8674 71.9624 36.8029 63.5302C36.6851 63.5384 36.5659 63.5426 36.4457 63.5426C33.9289 63.5426 31.8887 61.7105 31.8887 59.4505C31.8887 57.8607 32.8983 56.4827 34.3732 55.8052C34.0829 54.079 33.9339 52.294 33.9339 50.4669C33.9339 37.9121 45.2913 33.2246 59.9787 33.2246C74.6662 33.2246 84.9365 37.2871 86.5726 50.4669Z" fill="url(#paint5_linear_1172_10954)"/>
<rect width="1.66618" height="3.05474" rx="0.833091" transform="matrix(0.958156 -0.286245 0.274972 0.961452 49.7427 61.1904)" fill="#1D1E18"/>
<rect width="1.66618" height="3.05474" rx="0.833091" transform="matrix(0.958156 -0.286245 0.274972 0.961452 56.9419 61.2812)" fill="#1D1E18"/>
<path d="M31.5858 46.0112L31.8507 45.547C33.4831 42.687 36.5638 40.9648 39.8551 41.0723L80.7153 42.4076C82.7147 42.473 84.3347 44.0513 84.4522 46.0483C84.4988 46.8409 84.7881 47.6 85.2808 48.2226L86.8555 50.2123C89.4099 53.44 85.9744 57.9451 82.1859 56.3357L71.1316 52.9105C65.2584 51.0907 58.9494 51.2555 53.1792 53.3794L43.3045 57.0142C40.2155 58.1513 36.7565 57.5862 34.1899 55.5251L33.2503 54.7705C31.627 53.467 30.6826 51.4975 30.6826 49.4155C30.6826 48.2215 30.9939 47.0482 31.5858 46.0112Z" fill="url(#paint6_linear_1172_10954)"/>
<path d="M58.4854 145.085H68.1575V161.453L64.9454 160.798C63.8613 160.576 62.7436 160.577 61.6598 160.8L58.4854 161.453V145.085Z" fill="#8B8446"/>
<path d="M93.9069 153.986C66.1855 148.228 42.6215 150.963 33.3753 153.661C32.5768 153.894 31.6642 153.854 31.2654 153.124C30.0994 150.989 30.4627 146.316 32.1196 145.569C32.1384 145.56 32.158 145.554 32.1781 145.55C56.9391 139.731 83.3575 143.29 94.9689 145.892C96.2542 146.18 97.2056 147.266 97.2845 148.581C97.3448 149.587 97.3677 150.553 97.3575 151.433C97.3369 153.219 95.6554 154.35 93.9069 153.986Z" fill="#8B6546"/>
<path d="M55.2899 150.219L55.2896 143.716C55.2896 142.792 56.0391 142.042 56.9637 142.042L69.287 142.042C70.2115 142.042 70.961 142.792 70.961 143.716V150.219C70.961 151.143 70.2115 151.893 69.287 151.893H56.9639C56.0394 151.893 55.2899 151.143 55.2899 150.219Z" fill="#EDC662"/>
<path d="M17.381 37.2994L34.8612 37.7817C35.7274 37.8056 36.5212 37.3006 36.8666 36.5059L42.2275 24.1703L47.2525 12.3244C47.3404 12.1172 47.4581 11.9238 47.6164 11.7638C48.5828 10.7873 50.5564 9.44279 52.2982 10.3862C54.6672 11.6695 55.1095 13.3297 59.0382 14.0051C62.9019 14.6692 82.8554 10.9286 87.1361 18.5333C87.279 18.7871 87.3433 19.0778 87.3514 19.3689L88.0934 45.9451C100.026 46.2971 108.449 51.4926 108.19 52.0992C107.96 52.6354 97.0732 52.3418 89.6093 52.0503C88.1524 51.9934 86.6937 50.2797 85.5677 49.3536C84.3661 48.3653 82.0773 47.3954 77.9909 46.8554C61.0158 50.481 48.3068 49.9239 33.7618 48.2135C25.1884 47.2053 19.2623 43.384 15.9667 40.2006C14.7509 39.0262 15.6913 37.2528 17.381 37.2994Z" fill="#353028"/>
<path d="M35.826 37.5385L37.4952 33.1049C37.5763 32.8893 37.8047 32.7747 38.0232 32.8477C48.9942 36.5147 75.7095 39.2583 88.0764 40.2009C88.2333 40.2129 88.3639 40.3089 88.423 40.4547C89.0449 41.9892 89.7796 44.8265 88.3557 45.5489C86.87 46.3028 53.2525 40.9537 36.143 38.105C35.8792 38.0611 35.7317 37.7888 35.826 37.5385Z" fill="#8B6546"/>
<path d="M30.2669 175.188C30.3668 174.034 31.3325 173.148 32.4906 173.148H60.2947C61.4878 173.148 62.4699 174.087 62.5244 175.278L62.6627 178.3C62.7208 179.571 61.7057 180.634 60.433 180.634H32.229C30.9203 180.634 29.8924 179.513 30.0053 178.209L30.2669 175.188Z" fill="#827B3F"/>
<path d="M63.6307 175.213C63.7181 174.049 64.6886 173.148 65.8565 173.148H93.7399C94.8906 173.148 95.8527 174.023 95.9619 175.169L96.25 178.19C96.375 179.501 95.3445 180.634 94.0281 180.634H65.6296C64.331 180.634 63.3066 179.53 63.4038 178.235L63.6307 175.213Z" fill="#827B3F"/>
<path d="M77.8961 45.499C82.1524 57.5891 88.4166 77.2607 78.2016 85.9546C71.3667 91.7718 69.8353 98.8921 71.028 103.839C71.1881 104.503 69.1089 106.92 68.4882 106.635C54.0651 100.015 33.4021 86.434 35.806 63.425" stroke="#353028" stroke-width="2.0415"/>
<g style="mix-blend-mode:soft-light">
<path d="M82.1833 126.566C83.59 126.566 84.6215 127.551 84.6215 128.911C84.6215 130.261 83.59 131.255 82.1833 131.255H79.9979C79.9101 131.255 79.8389 131.184 79.8389 131.096V126.725C79.8389 126.638 79.9101 126.566 79.9979 126.566H82.1833ZM80.9357 127.41C80.8479 127.41 80.7766 127.482 80.7766 127.569V130.252C80.7766 130.34 80.8479 130.411 80.9357 130.411H82.1833C83.0273 130.411 83.6369 129.783 83.6369 128.911C83.6369 128.048 83.0273 127.41 82.1833 127.41H80.9357Z" fill="#1D1E18"/>
<path d="M74.6366 131.157C74.6121 131.216 74.5539 131.255 74.4894 131.255H73.8392C73.7261 131.255 73.6491 131.141 73.692 131.036L75.484 126.665C75.5085 126.605 75.5667 126.566 75.6312 126.566H76.8245C76.889 126.566 76.9472 126.605 76.9716 126.665L78.7637 131.036C78.8066 131.141 78.7296 131.255 78.6165 131.255H77.9475C77.883 131.255 77.8248 131.216 77.8003 131.157L77.4968 130.416C77.4723 130.357 77.4142 130.318 77.3496 130.318H75.0873C75.0227 130.318 74.9646 130.357 74.9401 130.416L74.6366 131.157ZM75.4173 129.254C75.3745 129.359 75.4514 129.474 75.5645 129.474H76.8724C76.9855 129.474 77.0624 129.359 77.0196 129.254L76.2831 127.454C76.2724 127.428 76.2468 127.41 76.2185 127.41C76.1901 127.41 76.1646 127.428 76.1538 127.454L75.4173 129.254Z" fill="#1D1E18"/>
<path d="M70.7419 126.473C72.1486 126.473 73.1802 127.504 73.1802 128.911C73.1802 130.318 72.1486 131.349 70.7419 131.349C69.3353 131.349 68.3037 130.318 68.3037 128.911C68.3037 127.504 69.3353 126.473 70.7419 126.473ZM70.7419 130.458C71.5859 130.458 72.1955 129.802 72.1955 128.911C72.1955 128.02 71.5859 127.364 70.7419 127.364C69.8979 127.364 69.2884 128.02 69.2884 128.911C69.2884 129.802 69.8979 130.458 70.7419 130.458Z" fill="#1D1E18"/>
<path d="M62.8363 131.255C62.7485 131.255 62.6772 131.184 62.6772 131.096V126.725C62.6772 126.638 62.7485 126.566 62.8363 126.566H66.0533C66.8973 126.566 67.4599 127.129 67.4599 127.973C67.4599 128.625 67.0913 129.108 66.5081 129.272C66.3944 129.304 66.3416 129.446 66.4002 129.549L67.3091 131.012C67.3749 131.118 67.2987 131.255 67.1739 131.255H66.4888C66.4337 131.255 66.3826 131.227 66.3536 131.18L65.2559 129.408C65.2269 129.361 65.1757 129.333 65.1207 129.333H63.7741C63.6862 129.333 63.615 129.404 63.615 129.492V131.096C63.615 131.184 63.5438 131.255 63.456 131.255H62.8363ZM63.615 128.33C63.615 128.418 63.6862 128.489 63.7741 128.489H66.0533C66.3346 128.489 66.5221 128.301 66.5221 128.02V127.879C66.5221 127.598 66.3346 127.41 66.0533 127.41H63.7741C63.6862 127.41 63.615 127.482 63.615 127.569V128.33Z" fill="#1D1E18"/>
<path d="M57.9373 128.33C57.9373 128.418 58.0085 128.489 58.0964 128.489H60.404C60.4919 128.489 60.5631 128.56 60.5631 128.648V129.174C60.5631 129.262 60.4919 129.333 60.404 129.333H58.0964C58.0085 129.333 57.9373 129.404 57.9373 129.492V131.096C57.9373 131.184 57.8661 131.255 57.7782 131.255H57.1586C57.0707 131.255 56.9995 131.184 56.9995 131.096V126.725C56.9995 126.638 57.0707 126.566 57.1586 126.566H61.3418C61.4296 126.566 61.5009 126.638 61.5009 126.725V127.251C61.5009 127.339 61.4296 127.41 61.3418 127.41H58.0964C58.0085 127.41 57.9373 127.482 57.9373 127.569V128.33Z" fill="#1D1E18"/>
<path d="M52.2596 128.33C52.2596 128.418 52.3308 128.489 52.4186 128.489H54.7263C54.8141 128.489 54.8853 128.56 54.8853 128.648V129.174C54.8853 129.262 54.8141 129.333 54.7263 129.333H52.4186C52.3308 129.333 52.2596 129.404 52.2596 129.492V131.096C52.2596 131.184 52.1883 131.255 52.1005 131.255H51.4808C51.393 131.255 51.3218 131.184 51.3218 131.096V126.725C51.3218 126.638 51.393 126.566 51.4808 126.566H55.6641C55.7519 126.566 55.8231 126.638 55.8231 126.725V127.251C55.8231 127.339 55.7519 127.41 55.6641 127.41H52.4186C52.3308 127.41 52.2596 127.482 52.2596 127.569V128.33Z" fill="#1D1E18"/>
<path d="M47.7102 126.473C49.1169 126.473 50.1484 127.504 50.1484 128.911C50.1484 130.318 49.1169 131.349 47.7102 131.349C46.3035 131.349 45.272 130.318 45.272 128.911C45.272 127.504 46.3035 126.473 47.7102 126.473ZM47.7102 130.458C48.5542 130.458 49.1638 129.802 49.1638 128.911C49.1638 128.02 48.5542 127.364 47.7102 127.364C46.8662 127.364 46.2566 128.02 46.2566 128.911C46.2566 129.802 46.8662 130.458 47.7102 130.458Z" fill="#1D1E18"/>
<path d="M68.9232 106.549C67.7485 105.434 66.0766 104.623 64.5032 104.483C62.9297 104.343 61.3562 104.75 60.0219 105.643C58.6876 106.535 57.6656 107.863 57.1114 109.426C56.5572 110.988 56.5011 112.699 56.9516 114.298C57.4022 115.897 58.3347 117.297 59.6073 118.285C60.88 119.272 62.4231 119.794 64.0019 119.77C65.5807 119.745 67.1088 119.177 68.3537 118.15C69.5986 117.124 70.5362 115.539 70.9425 113.927L70.5481 114.072C70.1621 115.603 69.3132 116.873 68.1306 117.848C66.948 118.823 65.4964 119.363 63.9966 119.386C62.4968 119.409 61.031 118.914 59.822 117.976C58.6131 117.038 57.7272 115.708 57.2992 114.189C56.8712 112.67 56.9245 111.044 57.451 109.56C57.9775 108.076 58.9483 106.814 60.2158 105.967C61.4833 105.119 62.9781 104.732 64.4728 104.865C65.9675 104.998 67.3802 105.643 68.4961 106.702L68.9232 106.549Z" fill="#1D1E18"/>
<path fill-rule="evenodd" clip-rule="evenodd" d="M70.0014 106.329C70.2595 106.574 70.1683 107.005 69.8332 107.124L68.5096 107.596C68.3402 107.657 68.1513 107.617 68.0208 107.493L67.7711 107.256C66.7972 106.331 65.5988 105.799 64.3716 105.69C63.1476 105.581 61.9011 105.894 60.8168 106.619C59.7268 107.348 58.8596 108.457 58.3833 109.8C57.9074 111.141 57.8584 112.617 58.2463 113.993C58.6344 115.371 59.4301 116.547 60.4776 117.36C61.5206 118.17 62.7509 118.573 63.9788 118.554C65.2072 118.536 66.4292 118.094 67.4531 117.25C68.4942 116.391 69.2491 115.269 69.5953 113.896L69.6392 113.721C69.6778 113.569 69.7893 113.445 69.9373 113.39L71.4437 112.836C71.8037 112.704 72.1648 113.029 72.0711 113.401L71.8949 114.1C71.4567 115.839 70.4417 117.583 69.0307 118.747C67.6271 119.904 65.8693 120.571 64.0192 120.599C62.1684 120.628 60.3898 120.014 58.9513 118.898C57.5171 117.785 56.4944 116.232 56.004 114.491C55.5134 112.75 55.5738 110.889 56.1785 109.184C56.783 107.48 57.9086 105.999 59.4204 104.988C60.9379 103.973 62.7597 103.492 64.6038 103.655C66.4632 103.82 68.3453 104.757 69.6477 105.993L70.0014 106.329ZM70.8871 114.133C70.9117 114.045 70.8265 113.968 70.7411 113.999L70.6339 114.039C70.58 114.059 70.5396 114.104 70.5249 114.159C70.1288 115.651 69.29 116.891 68.1304 117.847C68.1097 117.864 68.089 117.881 68.0682 117.898C66.8971 118.841 65.47 119.363 63.9963 119.385L63.9935 119.385C62.5208 119.407 61.0809 118.929 59.885 118.023C59.8638 118.007 59.8427 117.991 59.8217 117.975C58.6224 117.044 57.741 115.728 57.3092 114.224C57.3058 114.212 57.3024 114.2 57.299 114.188C56.871 112.668 56.9243 111.043 57.4507 109.559C57.4558 109.545 57.461 109.53 57.4661 109.516C57.996 108.05 58.9603 106.805 60.2155 105.965C60.237 105.951 60.2586 105.937 60.2802 105.923C61.5291 105.108 62.9924 104.736 64.4564 104.862C64.4618 104.863 64.4672 104.863 64.4725 104.864C65.9269 104.993 67.3037 105.607 68.405 106.616C68.4612 106.667 68.5411 106.684 68.6129 106.659L68.7903 106.596C68.8511 106.574 68.8675 106.496 68.8198 106.452C68.614 106.265 68.3941 106.086 68.1632 105.919C67.088 105.139 65.7729 104.598 64.519 104.483C64.5136 104.483 64.5082 104.482 64.5029 104.482C62.9294 104.342 61.3559 104.749 60.0216 105.642C60.0002 105.656 59.9788 105.67 59.9576 105.685C58.6546 106.576 57.6564 107.887 57.1111 109.424C57.1061 109.439 57.101 109.453 57.096 109.467C56.56 111.006 56.5058 112.687 56.9413 114.261C56.9446 114.273 56.948 114.285 56.9514 114.297C57.3945 115.87 58.3038 117.25 59.5445 118.235C59.5652 118.251 59.5861 118.267 59.6071 118.284C60.8797 119.271 62.4228 119.793 64.0016 119.768L64.0044 119.768C65.5822 119.743 67.1093 119.175 68.3534 118.149C68.374 118.132 68.3945 118.115 68.4148 118.098C69.479 117.198 70.3121 115.889 70.7708 114.512C70.8128 114.386 70.8516 114.259 70.8871 114.133Z" fill="#1D1E18"/>
<path fill-rule="evenodd" clip-rule="evenodd" d="M71.9501 104.033C71.5849 104.168 71.5265 104.66 71.8499 104.877L74.3023 106.521C74.6264 106.739 74.5669 107.232 74.2002 107.366C65.6733 110.475 52.871 115.071 50.1083 116.059C49.8398 116.155 49.7229 116.46 49.848 116.716L50.5401 118.134C50.6465 118.352 50.8963 118.456 51.1246 118.375C53.9913 117.35 70.1174 111.561 78.3462 108.537L79.5862 108.082C79.9521 107.947 80.0111 107.455 79.6873 107.238L78.4957 106.438L74.0593 103.464C73.932 103.378 73.7716 103.359 73.628 103.412L71.9501 104.033Z" fill="#1D1E18"/>
</g>
<defs>
<radialGradient id="paint0_radial_1172_10954" cx="0" cy="0" r="1" gradientUnits="userSpaceOnUse" gradientTransform="translate(48.3464 198.114) rotate(90) scale(21.6693)">
<stop stop-color="#F8C180"/>
<stop offset="1" stop-color="#FFDBAF"/>
</radialGradient>
<radialGradient id="paint1_radial_1172_10954" cx="0" cy="0" r="1" gradientUnits="userSpaceOnUse" gradientTransform="translate(77.7624 198.114) rotate(90) scale(21.6693)">
<stop stop-color="#F8C180"/>
<stop offset="1" stop-color="#FFDBAF"/>
</radialGradient>
<linearGradient id="paint2_linear_1172_10954" x1="101.093" y1="143.817" x2="122.02" y2="204.524" gradientUnits="userSpaceOnUse">
<stop stop-color="#FFD19C"/>
<stop offset="0.774647" stop-color="#ECA552"/>
</linearGradient>
<linearGradient id="paint3_linear_1172_10954" x1="25.0478" y1="143.568" x2="-3.37348" y2="201.149" gradientUnits="userSpaceOnUse">
<stop stop-color="#FFD19C"/>
<stop offset="0.774647" stop-color="#ECA552"/>
</linearGradient>
<linearGradient id="paint4_linear_1172_10954" x1="62.8941" y1="83.4307" x2="62.8941" y2="1013.32" gradientUnits="userSpaceOnUse">
<stop stop-color="#8B8446"/>
<stop offset="1" stop-color="#252313"/>
</linearGradient>
<linearGradient id="paint5_linear_1172_10954" x1="59.975" y1="33.2246" x2="77.7415" y2="85.364" gradientUnits="userSpaceOnUse">
<stop offset="0.375733" stop-color="#FFDAAF"/>
<stop offset="0.845963" stop-color="#FFC48D"/>
</linearGradient>
<linearGradient id="paint6_linear_1172_10954" x1="64.5783" y1="34.9454" x2="64.5783" y2="66.7518" gradientUnits="userSpaceOnUse">
<stop stop-color="#BA8F4F"/>
<stop offset="0.937065" stop-color="#4A3A2F"/>
</linearGradient>
</defs>
</svg>
