<svg width="26" height="25" viewBox="0 0 26 25" fill="none" xmlns="http://www.w3.org/2000/svg">
<g clip-path="url(#clip0_966_12009)">
<path d="M18.3901 13.0938L18.9058 17.4485H7.53418L7.95398 13.1952L18.3901 13.0938Z" fill="#333333"/>
<path d="M21.8983 22.1539L13.3074 18.3867L5.86831 21.5946L4.32862 21.3512L3.9838 23.1933C3.96844 23.3402 4.08337 23.468 4.23151 23.468H22.7134C22.7134 22.8896 22.3907 22.3703 21.8983 22.1539Z" fill="#D1D1D1"/>
<path d="M19.3059 14.4214C19.3059 15.1713 18.722 15.7798 17.9906 15.8351C17.1915 17.8081 15.3414 19.1911 13.1779 19.1911C11.0327 19.1911 9.18878 17.8266 8.38359 15.872C7.68904 15.7798 7.1543 15.1897 7.1543 14.4706C7.1543 13.9051 7.48006 13.4257 7.95334 13.1921C7.95334 13.1921 8.39589 13.0938 8.78926 13.8989L9.43464 13.3396L12.6738 10.543C12.6738 10.543 14.8558 12.8909 17.0256 13.2904C17.2837 13.3335 17.548 13.3642 17.8 13.3458C17.8553 13.3396 17.9168 13.3273 17.9721 13.3027C18.1319 13.2167 18.261 13.0692 18.3839 13.0938C18.9187 13.2966 19.3059 13.8129 19.3059 14.4214Z" fill="#FFCCA8"/>
<path d="M11.9322 14.3948C12.2156 14.3948 12.4454 14.1191 12.4454 13.779C12.4454 13.4388 12.2156 13.1631 11.9322 13.1631C11.6487 13.1631 11.4189 13.4388 11.4189 13.779C11.4189 14.1191 11.6487 14.3948 11.9322 14.3948Z" fill="black"/>
<path d="M14.6421 14.3948C14.9256 14.3948 15.1554 14.1191 15.1554 13.779C15.1554 13.4388 14.9256 13.1631 14.6421 13.1631C14.3587 13.1631 14.1289 13.4388 14.1289 13.779C14.1289 14.1191 14.3587 14.3948 14.6421 14.3948Z" fill="black"/>
<path d="M18.3178 23.4686L17.6705 21.5398C17.5753 21.2159 17.7603 20.8754 18.0842 20.7801C18.2016 20.7457 18.3215 20.7482 18.4309 20.7808L18.2907 20.3044C18.1954 19.9805 18.3805 19.64 18.7044 19.5447C18.8863 19.4912 19.0732 19.5263 19.2188 19.6246C19.1322 19.297 19.3289 18.9571 19.6638 18.8747C19.9835 18.7961 20.3074 18.9934 20.4002 19.3099L20.4727 19.5564C20.493 19.3124 20.6596 19.0935 20.9091 19.0204C21.233 18.9251 21.5736 19.1101 21.6688 19.4341L22.1562 21.3843C22.1624 21.4095 22.1784 21.4311 22.1993 21.4452C22.2153 21.4556 22.238 21.4476 22.2423 21.4286L22.3456 21.0002C22.4291 20.6529 22.7789 20.4396 23.1262 20.5238C23.4734 20.6074 23.6867 20.9572 23.6025 21.3044L23.1034 23.4686H18.3165H18.3178Z" fill="#FFCCA8"/>
<path d="M14.4249 19.4703V18.3867H12.0303V19.4703L13.0451 20.2073C13.1539 20.2866 13.3014 20.2866 13.4102 20.2073L14.4249 19.4703Z" fill="#FFCCA8"/>
<path d="M14.3254 16.3604C14.3254 16.8982 13.889 17.3346 13.3512 17.3346C12.8134 17.3346 12.377 16.8982 12.377 16.3604H14.3254Z" fill="#FF7D7D"/>
<path d="M14.5122 19.3549L13.3278 19.9388C13.2675 19.9757 13.1882 19.9757 13.128 19.9388L11.9436 19.3549C11.8262 19.2836 11.667 19.358 11.667 19.4846V21.149C11.667 21.275 11.8262 21.35 11.9436 21.2787L13.128 20.6948C13.1882 20.6579 13.2675 20.6579 13.3278 20.6948L14.5122 21.2787C14.6296 21.35 14.7888 21.2757 14.7888 21.149V19.4846C14.7888 19.3586 14.6296 19.2836 14.5122 19.3549Z" fill="#E57A2C"/>
<path d="M4.40628 14.5235C5.34421 14.5235 6.10455 13.7632 6.10455 12.8252C6.10455 11.8873 5.34421 11.127 4.40628 11.127C3.46835 11.127 2.70801 11.8873 2.70801 12.8252C2.70801 13.7632 3.46835 14.5235 4.40628 14.5235Z" fill="#E57A2C"/>
<path d="M14.7891 5.3526C15.727 5.3526 16.4874 4.59226 16.4874 3.65433C16.4874 2.7164 15.727 1.95605 14.7891 1.95605C13.8512 1.95605 13.0908 2.7164 13.0908 3.65433C13.0908 4.59226 13.8512 5.3526 14.7891 5.3526Z" fill="#FF901C"/>
<path d="M21.7168 17.8018C22.6548 17.8018 23.4151 17.0415 23.4151 16.1035C23.4151 15.1656 22.6548 14.4053 21.7168 14.4053C20.7789 14.4053 20.0186 15.1656 20.0186 16.1035C20.0186 17.0415 20.7789 17.8018 21.7168 17.8018Z" fill="#1D1E18"/>
<path d="M7.97416 12.5041C7.95081 12.7371 7.94466 12.9663 7.95511 13.1925C7.95511 13.1925 7.95511 13.1931 7.95511 13.1937C7.95511 13.1937 8.39766 13.0948 8.79165 13.8981L9.4358 13.3413L10.1973 12.683C9.35036 12.6203 8.5968 12.5459 7.97847 12.4746C7.97724 12.4844 7.97478 12.4943 7.97416 12.5041Z" fill="#333333"/>
<path d="M17.0263 13.2876C17.2857 13.3349 17.5451 13.3601 17.8008 13.3448C17.8536 13.3417 17.9145 13.3245 17.9747 13.2999C18.1315 13.2169 18.2636 13.0657 18.3847 13.0928C18.3865 13.0928 18.389 13.0921 18.3908 13.0928C18.3939 12.9108 18.3859 12.7307 18.3681 12.5537C17.4566 12.6723 16.5321 12.7473 15.6182 12.7867C16.073 13.0172 16.5494 13.2009 17.0263 13.2876Z" fill="#333333"/>
<path d="M18.493 9.9607C18.0302 7.49596 15.8703 5.62988 13.2716 5.62988H13.1831C10.5874 5.62988 8.42879 7.49165 7.96289 9.95209C8.07476 9.96008 13.0792 10.3092 18.493 9.9607Z" fill="#333333"/>
<path d="M18.5884 10.8863C18.5871 10.5698 18.5582 10.2606 18.5054 9.96003C18.5017 9.96003 18.498 9.96003 18.4949 9.96003C13.0811 10.3085 8.07664 9.9588 7.96477 9.95081C7.96354 9.95081 7.95432 9.9502 7.95432 9.9502C7.90146 10.2495 7.87196 10.5575 7.87012 10.8722C12.4978 11.5348 16.4586 11.1899 18.589 10.8857L18.5884 10.8863Z" fill="#BFBFBF"/>
<path d="M19.5986 10.7249C19.3349 10.7723 18.9901 10.8282 18.5875 10.886C16.4572 11.1902 12.497 11.5344 7.86867 10.8724C7.53307 10.8245 7.19502 10.7723 6.85266 10.7133C6.50538 10.6536 6.18945 10.9278 6.18945 11.2886V11.4588C6.18945 11.9069 6.51214 12.2855 6.94547 12.3451C7.22268 12.3833 7.57426 12.4281 7.97808 12.4742C8.59642 12.5455 9.34998 12.6199 10.197 12.6826C11.7717 12.7988 13.6642 12.8694 15.6182 12.7858C16.5321 12.7465 17.4572 12.6721 18.3681 12.5529C18.7645 12.5013 19.1585 12.4441 19.547 12.3746C19.9631 12.2997 20.2661 11.9272 20.2661 11.4939V11.3002C20.2661 10.9376 19.9471 10.6622 19.5986 10.7249Z" fill="#333333"/>
<path d="M9.05334 19.1815C9.16213 18.8619 8.99187 18.514 8.67164 18.4052C8.55547 18.3658 8.43623 18.3634 8.32559 18.391L8.48602 17.9208C8.59481 17.6012 8.42455 17.2533 8.10432 17.1445C7.92484 17.0831 7.73676 17.1101 7.58679 17.2023C7.68697 16.8784 7.50504 16.5311 7.17374 16.434C6.85781 16.3418 6.5259 16.5256 6.41957 16.8372L6.33659 17.0806C6.32676 16.8354 6.16941 16.6104 5.92355 16.5268C5.60393 16.418 5.25604 16.5883 5.14725 16.9085L4.57747 18.8367C4.57009 18.8612 4.5535 18.8821 4.53137 18.8957C4.51477 18.9055 4.49265 18.8963 4.48896 18.8772L4.40414 18.4445C4.3353 18.0942 3.99478 17.8661 3.64443 17.9356C3.29408 18.0044 3.06605 18.3449 3.1355 18.6953L3.57682 21.023C3.72741 21.8116 4.32854 22.5202 5.19949 22.8171C6.44538 23.2418 7.77057 22.6635 8.15902 21.5239C8.16517 21.5067 8.16947 21.4895 8.175 21.4723L9.05334 19.1815Z" fill="#FFCCA8"/>
<path d="M8.80078 20.33L10.067 19.7842L11 23.4684H9.5359L8.80078 20.33Z" fill="#E57A2C"/>
<path d="M17.7471 20.33L16.4809 19.7842L15.5479 23.4684H17.0119L17.7471 20.33Z" fill="#E57A2C"/>
</g>
<defs>
<clipPath id="clip0_966_12009">
<rect width="24.5859" height="24.5859" fill="white" transform="translate(0.871094 0.420898)"/>
</clipPath>
</defs>
</svg>
