<svg width="86" height="85" viewBox="0 0 86 85" fill="none" xmlns="http://www.w3.org/2000/svg">
<circle cx="43.4294" cy="42.5" r="42.5" fill="#E57A2C"/>
<path d="M51.1783 34.2634C49.1831 32.3697 46.3435 30.9909 43.6711 30.7537C40.9987 30.5164 38.3262 31.2081 36.06 32.7234C33.7938 34.2387 32.058 36.4948 31.1167 39.1484C30.1755 41.802 30.0802 44.7079 30.8454 47.424C31.6106 50.14 33.1944 52.5177 35.3559 54.1951C37.5174 55.8726 40.1382 56.7581 42.8197 56.7169C45.5012 56.6756 48.0966 55.71 50.211 53.9668C52.3254 52.2237 53.9178 49.5316 54.608 46.7932L53.9381 47.0394C53.2825 49.6408 51.8407 51.7977 49.8321 53.4536C47.8235 55.1095 45.3581 56.0269 42.8108 56.066C40.2635 56.1051 37.7738 55.264 35.7205 53.6705C33.6672 52.077 32.1627 49.8184 31.4358 47.2382C30.7088 44.6581 30.7994 41.8977 31.6935 39.3769C32.5877 36.8561 34.2366 34.713 36.3894 33.2735C38.5421 31.834 41.0809 31.1769 43.6195 31.4023C46.1581 31.6277 48.5576 32.7231 50.4529 34.522L51.1783 34.2634Z" fill="#FFF7E7"/>
<path fill-rule="evenodd" clip-rule="evenodd" d="M53.0105 33.8905C53.4489 34.3065 53.2941 35.0387 52.7248 35.2417L50.4768 36.0433C50.1891 36.1459 49.8682 36.078 49.6466 35.8678L49.2225 35.4652C47.5684 33.8953 45.533 32.991 43.4487 32.8059C41.3698 32.6214 39.2527 33.1525 37.4111 34.384C35.5599 35.6218 34.0869 37.5052 33.2781 39.7855C32.4696 42.0646 32.3865 44.5702 33.0454 46.9086C33.7045 49.2483 35.0559 51.2463 36.8349 52.6269C38.6065 54.0018 40.6961 54.6872 42.7815 54.6552C44.8679 54.6231 46.9434 53.8729 48.6824 52.4392C50.4507 50.9814 51.7328 49.0759 52.3207 46.743L52.3954 46.4466C52.4608 46.1869 52.6504 45.9763 52.9017 45.8839L55.4602 44.9436C56.0716 44.7189 56.6849 45.2707 56.5257 45.9024L56.2264 47.0897C55.4822 50.0427 53.7584 53.0056 51.3618 54.9814C48.9779 56.9468 45.9925 58.0795 42.8501 58.1278C39.7068 58.1761 36.6858 57.1349 34.2426 55.2388C31.8068 53.3485 30.0698 50.7102 29.2369 47.7536C28.4036 44.7959 28.5063 41.6352 29.5333 38.7399C30.5599 35.8458 32.4717 33.33 35.0394 31.613C37.6167 29.8897 40.711 29.0721 43.843 29.3502C47.0011 29.6306 50.1978 31.2209 52.4098 33.3203L53.0105 33.8905ZM54.5148 47.145C54.5566 46.9963 54.4118 46.8655 54.2668 46.9188L54.0847 46.9858C53.9933 47.0194 53.9246 47.0961 53.8996 47.1903C53.2269 49.7243 51.8023 51.8299 49.8327 53.4537C49.7976 53.4826 49.7625 53.5112 49.7272 53.5396C47.7381 55.1413 45.3142 56.0276 42.8113 56.0661L42.8065 56.0661C40.3052 56.1035 37.8596 55.292 35.8285 53.7529C35.7925 53.7257 35.7567 53.6982 35.7211 53.6705C33.684 52.0897 32.1871 49.8541 31.4537 47.2995C31.4479 47.2791 31.4421 47.2587 31.4363 47.2383C30.7094 44.6581 30.7999 41.8977 31.6941 39.3769C31.7027 39.3526 31.7114 39.3283 31.7202 39.304C32.6202 36.8148 34.258 34.6991 36.3899 33.2735C36.4264 33.2491 36.463 33.225 36.4997 33.201C38.6209 31.8171 41.1063 31.1854 43.5928 31.4C43.6019 31.4008 43.611 31.4016 43.6201 31.4024C46.0903 31.6217 48.4287 32.6648 50.2991 34.3781C50.3945 34.4656 50.5303 34.4947 50.6522 34.4512L50.9535 34.3438C51.0568 34.307 51.0847 34.1744 51.0037 34.1005C50.6541 33.7817 50.2807 33.4785 49.8885 33.194C48.0623 31.8696 45.8287 30.9514 43.699 30.7562C43.6899 30.7554 43.6808 30.7546 43.6717 30.7537C40.9993 30.5165 38.3267 31.2081 36.0605 32.7235C36.0241 32.7478 35.9879 32.7723 35.9518 32.7971C33.7388 34.3114 32.0435 36.5375 31.1173 39.1485C31.1087 39.1728 31.1001 39.1972 31.0916 39.2215C30.1813 41.8354 30.0891 44.6892 30.8288 47.3627C30.8345 47.3832 30.8402 47.4036 30.8459 47.424C31.5985 50.0954 33.143 52.4393 35.2502 54.1118C35.2854 54.1398 35.3209 54.1676 35.3564 54.1952C37.5179 55.8726 40.1388 56.7581 42.8203 56.7169L42.8251 56.7168C45.5049 56.6746 48.0984 55.709 50.2116 53.9669C50.2465 53.9381 50.2812 53.9091 50.3158 53.8798C52.1232 52.3507 53.5382 50.1277 54.3173 47.7887C54.3885 47.575 54.4544 47.3603 54.5148 47.145Z" fill="#FFF7E7"/>
<path fill-rule="evenodd" clip-rule="evenodd" d="M56.0694 31.6795C56.4167 30.8006 57.4107 30.3696 58.2896 30.7169L71.113 35.7834L20.4887 53.5526C19.597 53.8656 18.6204 53.3965 18.3074 52.5048C17.9944 51.6131 18.4635 50.6365 19.3552 50.3235L61.3199 35.5938L57.0321 33.8997C56.1532 33.5525 55.7222 32.5584 56.0694 31.6795Z" fill="#FFF7E7"/>
<path fill-rule="evenodd" clip-rule="evenodd" d="M43.0789 10.0459L43.0789 4.5459L44.0789 4.5459L44.0789 10.0459L43.0789 10.0459Z" fill="#FFF7E7"/>
<path fill-rule="evenodd" clip-rule="evenodd" d="M43.0789 80.4219L43.0789 74.9219L44.0789 74.9219L44.0789 80.4219L43.0789 80.4219Z" fill="#FFF7E7"/>
<path fill-rule="evenodd" clip-rule="evenodd" d="M5.50855 42.1504L11.0085 42.1504L11.0085 43.1504L5.50854 43.1504L5.50855 42.1504Z" fill="#FFF7E7"/>
<path fill-rule="evenodd" clip-rule="evenodd" d="M75.8582 42.1504L81.3582 42.1504L81.3582 43.1504L75.8582 43.1504L75.8582 42.1504Z" fill="#FFF7E7"/>
<circle cx="43.4294" cy="42.5" r="38.712" stroke="#EB9A5F" stroke-width="1.57604"/>
</svg>
