<svg width="155" height="281" viewBox="0 0 155 281" fill="none" xmlns="http://www.w3.org/2000/svg">
<path d="M74.2061 234.225L74.1348 262.748C74.1633 264.214 74.0066 265.409 73.3367 266.219C72.2394 267.571 70.344 267.485 69.6029 267.471C66.3109 267.4 60.4821 267.941 52.1736 268.965C51.746 257.385 51.3042 245.791 50.8767 234.211H74.2061V234.225Z" fill="#FFB141"/>
<path d="M68.6488 249.363H57.2763C53.3803 249.363 50.2219 252.447 50.2219 256.251V272.544C50.2219 276.347 53.3803 279.431 57.2763 279.431H68.6488C72.5449 279.431 75.7032 276.347 75.7032 272.544V256.251C75.7032 252.447 72.5449 249.363 68.6488 249.363Z" fill="#5A3E2C"/>
<path d="M71.2283 264.693H54.7396C52.2445 264.693 50.2219 266.712 50.2219 269.203V275.548C50.2219 278.038 52.2445 280.057 54.7396 280.057H71.2283C73.7234 280.057 75.746 278.038 75.746 275.548V269.203C75.746 266.712 73.7234 264.693 71.2283 264.693Z" fill="#8F6340"/>
<path d="M80.5344 234.225L80.6057 262.748C80.5772 264.214 80.7339 265.409 81.4038 266.219C82.5011 267.571 84.3965 267.485 85.1376 267.471C88.4296 267.4 94.2584 267.941 102.567 268.965C102.994 257.385 103.436 245.791 103.864 234.211H80.5344V234.225Z" fill="#FFB141"/>
<path d="M86.0924 279.43H97.4649C101.361 279.43 104.519 276.345 104.519 272.539V256.238C104.519 252.432 101.361 249.347 97.4649 249.347H86.0924C82.1963 249.347 79.038 252.432 79.038 256.238V272.539C79.038 276.345 82.1963 279.43 86.0924 279.43Z" fill="#5A3E2C"/>
<path d="M83.5129 280.061H100.002C102.497 280.061 104.519 278.042 104.519 275.551V269.206C104.519 266.716 102.497 264.696 100.002 264.696H83.5129C81.0179 264.696 78.9952 266.716 78.9952 269.206V275.551C78.9952 278.042 81.0179 280.061 83.5129 280.061Z" fill="#8F6340"/>
<path d="M77.6556 149.892C83.8184 149.892 88.8143 145.147 88.8143 139.294C88.8143 133.44 83.8184 128.695 77.6556 128.695C71.4928 128.695 66.4968 133.44 66.4968 139.294C66.4968 145.147 71.4928 149.892 77.6556 149.892Z" fill="#FFB141"/>
<path d="M116.091 210.976C120.932 210.976 124.856 207.059 124.856 202.227C124.856 197.396 120.932 193.479 116.091 193.479C111.251 193.479 107.327 197.396 107.327 202.227C107.327 207.059 111.251 210.976 116.091 210.976Z" fill="#FFB141"/>
<path d="M39.2201 210.976C44.0606 210.976 47.9847 207.059 47.9847 202.227C47.9847 197.396 44.0606 193.479 39.2201 193.479C34.3796 193.479 30.4556 197.396 30.4556 202.227C30.4556 207.059 34.3796 210.976 39.2201 210.976Z" fill="#FFB141"/>
<path d="M77.9836 220.95C77.9836 220.95 63.6895 220.793 50.3076 221.263C46.9158 221.377 44.0655 218.788 43.98 215.473C43.6522 202.413 44.322 171.415 56.4641 152.537C65.0719 139.136 77.7413 139.919 77.7413 139.919H77.5133C77.5133 139.919 90.1827 139.136 98.7905 152.537C110.933 171.415 111.588 202.413 111.275 215.473C111.189 218.788 108.339 221.391 104.947 221.263C91.5651 220.793 77.271 220.95 77.271 220.95" fill="#FFB141"/>
<path d="M82.6294 140.662C82.6294 140.662 115.992 143.891 117.388 194.138C117.388 194.138 126.067 196.727 124.614 204.067C123.274 210.796 114.923 212.66 108.467 207.297C102.011 201.919 82.6294 140.676 82.6294 140.676V140.662Z" fill="#FFB141"/>
<path d="M72.596 140.662C72.596 140.662 39.2337 143.891 37.8371 194.138C37.8371 194.138 29.158 196.727 30.6117 204.067C31.9513 210.796 40.3025 212.66 46.7584 207.297C53.2142 201.919 72.596 140.676 72.596 140.676V140.662Z" fill="#FFB141"/>
<path d="M64.3447 142.604C65.2425 143.813 68.5631 147.939 74.3633 149.077C80.3774 150.258 86.7192 147.768 90.8948 142.689C92.833 143.458 94.5289 144.425 96.0396 145.506C116.519 160.315 106.229 203.975 104.804 209.751H50.1789C47.7847 196.236 47.6279 184.926 47.9842 176.917C48.8678 157.271 53.1004 151.339 55.9792 148.366C58.915 145.321 62.1072 143.586 64.3447 142.59V142.604Z" fill="#9E8930"/>
<path d="M53.6566 226.753C55.4951 226.753 55.4951 223.908 53.6566 223.908C51.8182 223.908 51.8182 226.753 53.6566 226.753Z" fill="#FF5B00"/>
<path d="M106.785 207.122C99.0893 207.435 90.4245 207.733 81.831 208.16C79.793 208.26 77.6839 208.274 77.6839 208.274C77.6839 208.274 75.2326 208.274 72.8384 208.16C64.2021 207.733 55.6799 207.449 47.9699 207.122C46.6873 207.065 45.6327 208.032 45.6897 209.213C46.217 218.929 46.73 228.66 47.2573 238.376C47.3144 239.443 48.2834 240.282 49.452 240.268L73.9785 240.097C75.1756 240.097 76.1447 239.201 76.1447 238.106V227.394C76.1447 226.711 76.7005 226.142 77.3846 226.142C78.0686 226.142 78.6244 226.711 78.6102 227.394V238.106C78.6102 239.201 79.5793 240.097 80.7764 240.097L105.303 240.268C106.471 240.268 107.441 239.443 107.498 238.376C108.025 228.66 108.538 218.929 109.065 209.213C109.122 208.032 108.068 207.065 106.785 207.122Z" fill="#4C3115"/>
<path d="M57.1195 147.471C57.1195 147.471 42.8682 154.285 38.0655 175.012C37.923 175.61 38.1938 176.25 38.7211 176.577L44.8349 180.318C45.804 180.916 46.3313 182.011 46.1888 183.149C45.4192 189.366 43.0535 209.453 43.9798 216.666C44.0938 217.633 44.4501 219.283 45.7185 220.663C45.7185 220.663 46.6733 221.702 48.2124 222.342C50.8347 223.423 58.0743 223.622 67.6512 222.541C69.2331 222.555 70.53 221.275 70.53 219.696L70.4302 169.734C70.4302 169.734 65.4708 147.713 57.1195 147.471Z" fill="#FF8500"/>
<path d="M98.1206 147.471C98.1206 147.471 112.372 154.285 117.175 175.012C117.317 175.624 117.046 176.25 116.519 176.577L110.419 180.318C109.45 180.916 108.923 182.026 109.066 183.164C109.835 189.38 112.201 209.468 111.275 216.68C111.16 217.647 110.804 219.298 109.536 220.678C109.536 220.678 108.581 221.716 107.042 222.356C104.42 223.437 97.18 223.637 87.6031 222.555C86.0212 222.57 84.7244 221.289 84.7244 219.71L84.8241 169.749C84.8241 169.749 89.7836 147.727 98.1348 147.485L98.1206 147.471Z" fill="#FF8500"/>
<path d="M114.695 76.1695C114.695 76.1695 135.117 74.0214 139.734 91.5051C142.869 103.355 133.72 111.194 127.464 114.096C121.977 116.642 112.357 117.226 104.719 108.676C97.8496 100.994 98.89 93.9804 98.89 93.9804" fill="#FFB141"/>
<path d="M41.2579 76.1695C41.2579 76.1695 20.8358 74.0214 16.2184 91.5051C13.0831 103.355 22.2325 111.194 28.4888 114.096C33.9755 116.642 43.5951 117.226 51.2338 108.676C58.1029 100.994 57.0626 93.9804 57.0626 93.9804" fill="#FFB141"/>
<path d="M109.892 52.3264C111.246 50.1641 114.239 46.067 118.6 44.1323C124.072 41.6854 128.134 44.2603 128.918 42.6243C129.944 40.4762 123.987 34.103 116.505 31.6561C114.752 31.087 105.845 28.4126 97.8497 33.7331C97.0517 34.2594 91.8214 37.759 90.0115 42.7239C86.1352 41.8703 81.9738 41.4009 77.4989 41.4009C42.2412 41.4009 26.2085 69.3834 26.2085 97.4512C26.2085 125.519 49.2243 139.546 77.6129 139.546C106.001 139.546 129.017 125.519 129.017 97.4512C129.017 80.2094 122.789 63.0244 109.878 52.3122L109.892 52.3264Z" fill="#FFB141"/>
<path d="M86.2447 101.584H86.1877C84.6765 101.584 83.4515 102.807 83.4516 104.315L83.4519 109.593C83.452 111.102 84.6771 112.325 86.1883 112.325H86.2453C87.7565 112.325 88.9815 111.102 88.9814 109.593L88.9811 104.315C88.981 102.807 87.7559 101.584 86.2447 101.584Z" fill="#242424"/>
<path d="M69.0462 101.584H68.9892C67.478 101.584 66.2529 102.807 66.2529 104.315V109.593C66.2529 111.102 67.478 112.325 68.9892 112.325H69.0462C70.5574 112.325 71.7824 111.102 71.7824 109.593V104.315C71.7824 102.807 70.5574 101.584 69.0462 101.584Z" fill="#242424"/>
<path opacity="0.55" d="M46.7303 128.578C54.8136 128.578 61.3664 122.036 61.3664 113.968C61.3664 105.899 54.8136 99.3574 46.7303 99.3574C38.647 99.3574 32.0942 105.899 32.0942 113.968C32.0942 122.036 38.647 128.578 46.7303 128.578Z" fill="#FF840E"/>
<path opacity="0.55" d="M108.51 128.578C116.593 128.578 123.146 122.036 123.146 113.968C123.146 105.899 116.593 99.3574 108.51 99.3574C100.426 99.3574 93.8735 105.899 93.8735 113.968C93.8735 122.036 100.426 128.578 108.51 128.578Z" fill="#FF840E"/>
<path opacity="0.35" d="M58.0885 80.5815C66.5968 80.5815 73.4941 75.2187 73.4941 68.6033C73.4941 61.9879 66.5968 56.625 58.0885 56.625C49.5802 56.625 42.6829 61.9879 42.6829 68.6033C42.6829 75.2187 49.5802 80.5815 58.0885 80.5815Z" fill="#81614D"/>
<path d="M27.676 75.2274C27.676 75.2274 31.6806 70.2767 41.8988 68.0859" stroke="#644C2D" stroke-width="5.69834" stroke-miterlimit="10" stroke-linecap="round"/>
<path d="M127.649 75.2274C127.649 75.2274 123.645 70.2767 113.427 68.0859" stroke="#644C2D" stroke-width="5.69834" stroke-miterlimit="10" stroke-linecap="round"/>
<path opacity="0.35" d="M97.3937 80.5815C105.902 80.5815 112.799 75.2187 112.799 68.6033C112.799 61.9879 105.902 56.625 97.3937 56.625C88.8854 56.625 81.988 61.9879 81.988 68.6033C81.988 75.2187 88.8854 80.5815 97.3937 80.5815Z" fill="#81614D"/>
<path d="M73.8652 68.6035C73.8652 68.6035 77.7416 66.3843 81.6322 68.6035" stroke="#644C2D" stroke-width="5.69834" stroke-miterlimit="10" stroke-linecap="round"/>
<path d="M65.6276 57.8594H50.3644C46.429 57.8594 43.2388 61.044 43.2388 64.9724V72.2134C43.2388 76.1418 46.429 79.3264 50.3644 79.3264H65.6276C69.5629 79.3264 72.7532 76.1418 72.7532 72.2134V64.9724C72.7532 61.044 69.5629 57.8594 65.6276 57.8594Z" stroke="#644C2D" stroke-width="5.69834" stroke-miterlimit="10"/>
<path d="M104.933 57.8594H89.6696C85.7342 57.8594 82.5439 61.044 82.5439 64.9724V72.2134C82.5439 76.1418 85.7342 79.3264 89.6696 79.3264H104.933C108.868 79.3264 112.058 76.1418 112.058 72.2134V64.9724C112.058 61.044 108.868 57.8594 104.933 57.8594Z" stroke="#644C2D" stroke-width="5.69834" stroke-miterlimit="10"/>
<path d="M62.0791 144.175C61.5803 143.421 60.6539 143.094 59.8131 143.407C58.673 143.834 57.3619 144.431 55.9795 145.257C55.3382 145.641 54.9677 145.897 54.5116 146.224C51.7041 148.23 46.5879 153.052 47.2862 154.034C47.4287 154.233 47.842 154.347 49.1246 153.949C51.3193 153.65 56.3215 153.323 60.6254 156.339C64.2025 158.828 65.5279 162.385 67.4518 167.506C68.6204 170.593 69.8888 174.946 70.3306 180.395C70.8864 176.113 71.2854 169.085 69.2617 160.777C67.466 153.394 64.4305 147.803 62.0506 144.175H62.0791Z" fill="#936032"/>
<path d="M92.8332 144.175C93.332 143.421 94.2583 143.094 95.0992 143.407C96.2393 143.834 97.5504 144.431 98.9328 145.257C99.5741 145.641 99.9446 145.897 100.401 146.224C103.208 148.23 108.324 153.052 107.626 154.034C107.484 154.233 107.07 154.347 105.788 153.949C103.593 153.65 98.5907 153.323 94.2868 156.339C90.7098 158.828 89.3844 162.385 87.4605 167.506C86.2919 170.593 85.0235 174.946 84.5817 180.395C84.0259 176.113 83.6269 169.085 85.6506 160.777C87.4462 153.394 90.4817 147.803 92.8617 144.175H92.8332Z" fill="#936032"/>
<path opacity="0.35" d="M102.21 173.326H91.522C90.4043 173.326 89.4983 174.231 89.4983 175.346V190.824C89.4983 191.94 90.4043 192.844 91.522 192.844H102.21C103.328 192.844 104.234 191.94 104.234 190.824V175.346C104.234 174.231 103.328 173.326 102.21 173.326Z" fill="#BC5500"/>
<path d="M101.541 174.955H92.1919C91.515 174.955 90.9663 175.503 90.9663 176.179V177.957C90.9663 178.632 91.515 179.18 92.1919 179.18H101.541C102.218 179.18 102.766 178.632 102.766 177.957V176.179C102.766 175.503 102.218 174.955 101.541 174.955Z" fill="#B76421"/>
<path d="M64.5015 143.52C66.5536 146.465 69.6034 148.784 73.0095 149.936C78.1399 151.657 83.6267 150.263 87.7453 146.892C88.8997 145.938 89.94 144.843 90.8093 143.62C91.2511 142.994 90.9234 142.04 90.2963 141.671C89.5837 141.258 88.7857 141.557 88.3439 142.183C88.2726 142.282 88.2014 142.368 88.1301 142.467C88.4151 142.097 87.9733 142.666 87.8593 142.78C87.4175 143.292 86.9472 143.79 86.4485 144.246C85.0803 145.497 83.4557 146.536 81.7028 147.148C77.4274 148.627 72.7957 147.574 69.3897 144.658C68.7626 144.117 68.1783 143.548 67.6367 142.923C67.5227 142.794 67.423 142.666 67.309 142.524C67.1522 142.339 67.1522 142.325 67.252 142.453C67.1522 142.325 67.0667 142.197 66.9669 142.069C65.9266 140.575 63.4469 141.998 64.5015 143.506V143.52Z" fill="#937E28"/>
</svg>
