<?xml version="1.0" encoding="UTF-8"?>
<svg id="_레이어_1" data-name="레이어 1" xmlns="http://www.w3.org/2000/svg" xmlns:xlink="http://www.w3.org/1999/xlink" version="1.1" viewBox="0 0 45 45">
  <defs>
    <style>
      .cls-1 {
        clip-path: url(#clippath);
      }

      .cls-2, .cls-3, .cls-4 {
        fill: none;
      }

      .cls-2, .cls-5 {
        stroke-width: 0px;
      }

      .cls-3 {
        stroke: #000;
        stroke-opacity: .2;
      }

      .cls-5 {
        fill: #fff;
      }

      .cls-4 {
        stroke: #1d1e18;
        stroke-width: 1.9px;
      }
    </style>
    <clipPath id="clippath">
      <path class="cls-2" d="M22.4.7h0c12.2,0,22,9.8,22,22s-9.8,22-22,22S.4,34.9.4,22.7,10.3.7,22.4.7Z"/>
    </clipPath>
  </defs>
  <g class="cls-1">
    <g>
      <path class="cls-5" d="M22.4.7h0c12.2,0,22,9.8,22,22h0c0,12.2-9.8,22-22,22h0C10.3,44.7.4,34.9.4,22.7H.4C.4,10.6,10.3.7,22.4.7Z"/>
      <path class="cls-4" d="M20.2,16.9l1.3-3.5c.3-.8,1.5-.8,1.8,0l1.4,3.6c.6,1.5,1.8,2.7,3.3,3.3l3.7,1.4c.8.3.8,1.5,0,1.8l-3.6,1.4c-1.6.6-2.8,1.8-3.4,3.4l-1.4,3.7c-.3.8-1.5.8-1.8,0l-1.3-3.7c-.6-1.6-1.8-2.9-3.4-3.5l-3.6-1.3c-.8-.3-.8-1.5,0-1.8l3.6-1.4c1.5-.6,2.8-1.8,3.3-3.4Z"/>
    </g>
  </g>
  <path class="cls-3" d="M22.4,1.2h0c11.9,0,21.5,9.6,21.5,21.5h0c0,11.9-9.6,21.5-21.5,21.5h0C10.5,44.2.9,34.6.9,22.7h0C.9,10.8,10.5,1.2,22.4,1.2Z"/>
</svg>