<svg width="41" height="40" viewBox="0 0 41 40" fill="none" xmlns="http://www.w3.org/2000/svg">
<circle cx="20.312" cy="20" r="20" fill="#5E59FF"/>
<path d="M20.3106 11.7656L21.1945 10.8817C20.7064 10.3936 19.9149 10.3936 19.4268 10.8817L20.3106 11.7656ZM25.3088 18.5316C25.797 19.0197 26.5884 19.0197 27.0766 18.5316C27.5647 18.0434 27.5647 17.2519 27.0766 16.7638L25.3088 18.5316ZM13.5447 16.7638C13.0566 17.2519 13.0566 18.0434 13.5447 18.5316C14.0329 19.0197 14.8243 19.0197 15.3125 18.5316L13.5447 16.7638ZM19.0606 28.2354C19.0606 28.9257 19.6203 29.4854 20.3106 29.4854C21.001 29.4854 21.5606 28.9257 21.5606 28.2354H19.0606ZM19.4268 12.6495L25.3088 18.5316L27.0766 16.7638L21.1945 10.8817L19.4268 12.6495ZM19.4268 10.8817L13.5447 16.7638L15.3125 18.5316L21.1945 12.6495L19.4268 10.8817ZM19.0606 11.7656V20.0005H21.5606V11.7656H19.0606ZM19.0606 20.0005V28.2354H21.5606V20.0005H19.0606Z" fill="white"/>
</svg>
