<svg width="28" height="28" viewBox="0 0 28 28" fill="none" xmlns="http://www.w3.org/2000/svg">
<g clip-path="url(#clip0_8890_106785)">
<mask id="path-1-outside-1_8890_106785" maskUnits="userSpaceOnUse" x="0.953125" y="2.8125" width="27" height="22" fill="black">
<rect fill="white" x="0.953125" y="2.8125" width="27" height="22"/>
<path fill-rule="evenodd" clip-rule="evenodd" d="M14.5011 22.2817C17.6858 22.2817 20.4906 20.9866 22.1299 18.7641C23.7555 19.363 25.4512 18.8508 25.9515 17.593C26.432 16.0401 25.0641 14.4821 23.6405 13.4802C23.3885 8.651 19.3929 4.8125 14.501 4.8125C9.60895 4.8125 5.61347 8.65119 5.36166 13.4806C3.93819 14.4825 2.57074 16.0403 3.05117 17.593C3.55137 18.8507 5.24686 19.3629 6.87232 18.7642C8.51165 20.9867 11.3164 22.2817 14.5011 22.2817Z"/>
</mask>
<path fill-rule="evenodd" clip-rule="evenodd" d="M14.5011 22.2817C17.6858 22.2817 20.4906 20.9866 22.1299 18.7641C23.7555 19.363 25.4512 18.8508 25.9515 17.593C26.432 16.0401 25.0641 14.4821 23.6405 13.4802C23.3885 8.651 19.3929 4.8125 14.501 4.8125C9.60895 4.8125 5.61347 8.65119 5.36166 13.4806C3.93819 14.4825 2.57074 16.0403 3.05117 17.593C3.55137 18.8507 5.24686 19.3629 6.87232 18.7642C8.51165 20.9867 11.3164 22.2817 14.5011 22.2817Z" fill="#D2E0FF"/>
<path d="M22.1299 18.7641L22.776 17.0104L21.459 16.5252L20.6259 17.6547L22.1299 18.7641ZM25.9515 17.593L27.6881 18.2837L27.7152 18.2155L27.7369 18.1454L25.9515 17.593ZM23.6405 13.4802L21.7741 13.5776L21.8215 14.4854L22.5649 15.0086L23.6405 13.4802ZM5.36166 13.4806L6.43739 15.0089L7.18073 14.4857L7.22806 13.5779L5.36166 13.4806ZM3.05117 17.593L1.26573 18.1454L1.28742 18.2155L1.31454 18.2837L3.05117 17.593ZM6.87232 18.7642L8.37636 17.6548L7.5433 16.5254L6.2264 17.0105L6.87232 18.7642ZM20.6259 17.6547C19.3956 19.3227 17.1947 20.4128 14.5011 20.4128V24.1507C18.1769 24.1507 21.5857 22.6505 23.634 19.8735L20.6259 17.6547ZM24.2149 16.9024C24.2106 16.9132 24.2009 16.9335 24.1647 16.9641C24.1247 16.998 24.047 17.0477 23.9174 17.0872C23.6509 17.1685 23.2397 17.1812 22.776 17.0104L21.4839 20.5178C23.6326 21.3094 26.6649 20.8565 27.6881 18.2837L24.2149 16.9024ZM22.5649 15.0086C23.1588 15.4266 23.6553 15.905 23.9421 16.3471C24.2251 16.7833 24.185 16.9794 24.1661 17.0406L27.7369 18.1454C28.1985 16.6538 27.7147 15.2944 27.0779 14.3128C26.4451 13.3373 25.5458 12.5358 24.7161 11.9518L22.5649 15.0086ZM14.501 6.68144C18.3933 6.68144 21.5736 9.73606 21.7741 13.5776L25.5069 13.3828C25.2033 7.56593 20.3926 2.94356 14.501 2.94356V6.68144ZM7.22806 13.5779C7.42837 9.73617 10.6087 6.68144 14.501 6.68144V2.94356C8.60924 2.94356 3.79857 7.5662 3.49525 13.3833L7.22806 13.5779ZM4.8366 17.0406C4.81765 16.9794 4.7776 16.7833 5.06043 16.3473C5.34715 15.9053 5.84354 15.4269 6.43739 15.0089L4.28592 11.9523C3.4563 12.5362 2.55724 13.3377 1.92448 14.3132C1.28782 15.2947 0.804258 16.6539 1.26573 18.1454L4.8366 17.0406ZM6.2264 17.0105C5.76274 17.1812 5.3516 17.1685 5.08523 17.0872C4.9556 17.0476 4.8779 16.998 4.83795 16.9641C4.80171 16.9335 4.7921 16.9132 4.7878 16.9024L1.31454 18.2837C2.33769 20.8563 5.36956 21.3094 7.51824 20.518L6.2264 17.0105ZM14.5011 20.4128C11.8075 20.4128 9.6067 19.3228 8.37636 17.6548L5.36828 19.8736C7.41659 22.6505 10.8253 24.1507 14.5011 24.1507V20.4128Z" fill="#D2E0FF" mask="url(#path-1-outside-1_8890_106785)"/>
<path d="M9.0255 13.5906C8.60016 13.5618 8.2239 13.8936 8.35327 14.3019C8.36305 14.3327 8.37353 14.3634 8.38471 14.394C8.48559 14.6692 8.64143 14.9236 8.84333 15.1427C9.04522 15.3618 9.28921 15.5413 9.56138 15.6708C9.83355 15.8004 10.1286 15.8776 10.4296 15.8979C10.7306 15.9182 11.0317 15.8813 11.3157 15.7893C11.5997 15.6973 11.8611 15.552 12.0849 15.3617C12.3087 15.1714 12.4905 14.9398 12.62 14.6801C12.6343 14.6513 12.648 14.6222 12.661 14.5929C12.833 14.205 12.4948 13.8249 12.0694 13.7962L10.5475 13.6934L9.0255 13.5906Z" fill="#282C75" fill-opacity="0.8"/>
<path d="M16.7013 13.7963C16.276 13.825 15.9378 14.205 16.1097 14.593C16.1227 14.6223 16.1364 14.6514 16.1508 14.6801C16.2803 14.9398 16.4621 15.1714 16.6859 15.3618C16.9097 15.5521 17.171 15.6974 17.4551 15.7894C17.7391 15.8814 18.0402 15.9183 18.3412 15.898C18.6422 15.8777 18.9372 15.8005 19.2094 15.6709C19.4815 15.5414 19.7255 15.3619 19.9274 15.1428C20.1293 14.9237 20.2852 14.6693 20.386 14.3941C20.3972 14.3636 20.4077 14.3329 20.4175 14.302C20.5469 13.8937 20.1706 13.5619 19.7453 13.5907L18.2233 13.6935L16.7013 13.7963Z" fill="#282C75" fill-opacity="0.8"/>
</g>
<defs>
<clipPath id="clip0_8890_106785">
<rect width="27" height="27" fill="white" transform="translate(0.953125 0.227539)"/>
</clipPath>
</defs>
</svg>
