<svg width="25" height="25" viewBox="0 0 25 25" fill="none" xmlns="http://www.w3.org/2000/svg">
<g clip-path="url(#clip0_4358_604)">
<path d="M20.3125 5.625H14.0625V23.3331H20.3125C21.4631 23.3331 22.3956 22.4006 22.3956 21.25V7.70813C22.3956 6.5575 21.4631 5.625 20.3125 5.625Z" fill="#FF901C"/>
<path d="M10.9376 5.625H4.68762C3.53699 5.625 2.60449 6.5575 2.60449 7.70813V21.25C2.60449 22.4006 3.53699 23.3331 4.68762 23.3331H10.9376V5.625Z" fill="#FF901C"/>
<path d="M18.4124 2.70541V5.62416H14.0624V23.3367H10.9374V5.62416H6.5874V2.70541C6.5874 1.96791 7.34365 1.46166 8.0249 1.74291L12.4999 3.58041L16.9749 1.74291C17.6562 1.46166 18.4124 1.96791 18.4124 2.70541Z" fill="#FFCD00"/>
</g>
<defs>
<clipPath id="clip0_4358_604">
<rect width="25" height="25" fill="white"/>
</clipPath>
</defs>
</svg>
