<svg width="24" height="24" viewBox="0 0 24 24" fill="none" xmlns="http://www.w3.org/2000/svg">
<path d="M19.8125 5.12524H13.5625V22.8334H19.8125C20.9631 22.8334 21.8956 21.9009 21.8956 20.7502V7.20837C21.8956 6.05774 20.9631 5.12524 19.8125 5.12524Z" fill="#5E59FF"/>
<path d="M10.4376 5.12524H4.18762C3.03699 5.12524 2.10449 6.05774 2.10449 7.20837V20.7502C2.10449 21.9009 3.03699 22.8334 4.18762 22.8334H10.4376V5.12524Z" fill="#5E59FF"/>
<path d="M17.9124 2.20516V5.12391H13.5624V22.8364H10.4374V5.12391H6.0874V2.20516C6.0874 1.46766 6.84365 0.961415 7.5249 1.24266L11.9999 3.08016L16.4749 1.24266C17.1562 0.961415 17.9124 1.46766 17.9124 2.20516Z" fill="#ABA8FF"/>
</svg>
