<svg width="25" height="24" viewBox="0 0 25 24" fill="none" xmlns="http://www.w3.org/2000/svg">
<path fill-rule="evenodd" clip-rule="evenodd" d="M12.2266 17.118C11.9083 17.118 11.6031 16.9916 11.378 16.7665C11.153 16.5415 11.0266 16.2363 11.0266 15.918C11.0266 15.5997 11.153 15.2945 11.378 15.0695C11.6031 14.8444 11.9083 14.718 12.2266 14.718C12.5448 14.718 12.85 14.8444 13.0751 15.0695C13.3001 15.2945 13.4266 15.5997 13.4266 15.918C13.4266 16.2363 13.3001 16.5415 13.0751 16.7665C12.85 16.9916 12.5448 17.118 12.2266 17.118ZM11.2266 7.283C11.2266 7.01778 11.3319 6.76343 11.5195 6.57589C11.707 6.38836 11.9613 6.283 12.2266 6.283C12.4918 6.283 12.7461 6.38836 12.9337 6.57589C13.1212 6.76343 13.2266 7.01778 13.2266 7.283V12.283C13.2266 12.5482 13.1212 12.8026 12.9337 12.9901C12.7461 13.1776 12.4918 13.283 12.2266 13.283C11.9613 13.283 11.707 13.1776 11.5195 12.9901C11.3319 12.8026 11.2266 12.5482 11.2266 12.283V7.283ZM12.2266 1C6.15156 1 1.22656 5.925 1.22656 12C1.22656 18.076 6.15156 23 12.2266 23C18.3016 23 23.2266 18.076 23.2266 12C23.2266 5.925 18.3016 1 12.2266 1Z" fill="#F72585"/>
</svg>
