<svg width="23" height="19" viewBox="0 0 23 19" fill="none" xmlns="http://www.w3.org/2000/svg">
<path d="M5.20146 13.1973C5.17816 13.2993 5.16406 13.4035 5.16406 13.5086C5.16406 15.0613 7.76083 16.3195 10.9645 16.3195C14.1682 16.3195 16.7649 15.0608 16.7649 13.5086C16.7649 13.403 16.7508 13.2993 16.7275 13.1973C15.1839 14.3216 13.172 15.0079 10.9645 15.0079C8.757 15.0079 6.74444 14.3221 5.20146 13.1973Z" fill="#AFB7C0"/>
<path d="M10.9638 3.78372C7.38985 3.78372 4.40749 5.00861 3.70312 6.63924C5.00703 7.87132 7.80364 8.74793 10.9638 8.74793C14.1239 8.74793 16.9211 7.87132 18.2244 6.63924C18.1846 6.54794 18.1349 6.45818 18.081 6.36893C17.1792 4.87525 14.3366 3.7832 10.9632 3.7832L10.9638 3.78372Z" fill="#6E4944"/>
<path d="M19.0115 5.11525C19.0115 5.29478 18.9686 5.46918 18.9073 5.64358C18.7908 5.99237 18.5579 6.32578 18.2269 6.63868C18.1901 6.54635 18.141 6.45915 18.0859 6.37195C17.1847 4.87417 14.3403 3.78674 10.9687 3.78674C7.39473 3.78674 4.4093 5.00753 3.70432 6.63868C3.2139 6.1719 2.92578 5.65383 2.92578 5.11525C2.92578 3.14557 6.61006 1.47852 10.9687 1.47852C15.3273 1.47852 19.0115 3.14557 19.0115 5.11525Z" fill="#D0D5DA"/>
<path d="M19.7512 5.67209V5.2207L19.7389 5.25148C19.7205 5.49769 19.6715 5.73877 19.5734 5.97472C19.5182 6.11322 19.4447 6.25171 19.3588 6.38507C18.2431 8.11881 14.9083 9.3755 10.9665 9.3755C7.0248 9.3755 3.68382 8.11881 2.57425 6.38507C2.48842 6.25171 2.41486 6.11322 2.35356 5.97472C2.25547 5.73877 2.20643 5.49769 2.18804 5.25148L2.17578 5.2207V7.66229C2.17578 8.49838 2.35356 9.29856 2.66007 10.0526C3.16888 11.2836 4.05163 12.3659 5.20412 13.202C6.74894 14.3254 8.75966 15.0127 10.9665 15.0127C13.1734 15.0127 15.1842 14.3254 16.729 13.202C17.4707 12.6583 18.1083 12.012 18.5987 11.2888H19.3098C19.7941 11.2888 20.2539 11.2016 20.6707 11.0477C21.8539 10.6117 22.6876 9.62172 22.6876 8.4676C22.6876 7.03651 21.4063 5.85675 19.7512 5.67209ZM19.3098 10.0628H19.2608C19.2648 10.0594 19.2669 10.056 19.2669 10.0526C19.5795 9.29856 19.7512 8.49838 19.7512 7.66229V6.92366C20.591 7.0878 21.2163 7.71871 21.2163 8.4676C21.2163 9.34986 20.3642 10.0628 19.3098 10.0628Z" fill="#D0D5DA"/>
<path d="M19.2665 10.0488C19.2647 10.0529 19.2629 10.0565 19.2617 10.0606H19.2885C19.2814 10.0565 19.273 10.0529 19.2665 10.0488Z" fill="#E5E8EB"/>
<path d="M19.3109 11.2876H18.5998C18.1069 12.0113 17.4718 12.6566 16.7257 13.2003C16.749 13.3029 16.7631 13.4065 16.7631 13.5117C16.7631 15.0643 14.1664 16.3226 10.9627 16.3226C7.75904 16.3226 5.16227 15.0638 5.16227 13.5117C5.16227 13.406 5.17637 13.3024 5.19967 13.2003C4.05025 12.3627 3.16566 11.2809 2.65868 10.0488C1.00536 10.9793 0 12.1873 0 13.5117C0 16.4457 4.90787 18.8247 10.9621 18.8247C17.0163 18.8247 21.9248 16.4462 21.9248 13.5117C21.9248 12.6212 21.4675 11.7836 20.6687 11.0465C20.2525 11.2004 19.7939 11.2876 19.3109 11.2876Z" fill="#E5E8EB"/>
<path d="M19.7083 4.68004C19.647 4.39279 19.5305 4.1158 19.3588 3.84908C19.1872 3.58235 18.9604 3.32588 18.6906 3.0848C18.5558 2.96169 18.4087 2.84885 18.2554 2.73087C17.9366 2.50518 17.5749 2.29487 17.1765 2.10509C15.5887 1.33055 13.3941 0.853516 10.9665 0.853516C8.53897 0.853516 6.33821 1.33055 4.75048 2.10509C4.35202 2.29487 3.99646 2.50518 3.67769 2.73087C3.5183 2.84885 3.37118 2.96169 3.23631 3.0848C2.96658 3.32588 2.74589 3.58235 2.57425 3.84908C2.4026 4.1158 2.28 4.39279 2.22482 4.68004C2.19417 4.82366 2.17578 4.96728 2.17578 5.11603C2.17578 5.1622 2.18804 5.20323 2.18804 5.2494C2.20643 5.49561 2.25547 5.73669 2.35356 5.97264C2.41486 6.11113 2.48842 6.24963 2.57425 6.38299C3.68382 8.11672 7.01867 9.37342 10.9665 9.37342C14.9144 9.37342 18.2431 8.11672 19.3588 6.38299C19.4447 6.24963 19.5182 6.11113 19.5734 5.97264C19.6715 5.73669 19.7205 5.49561 19.7389 5.2494C19.745 5.20323 19.7512 5.1622 19.7512 5.11603C19.7512 4.96728 19.7389 4.82366 19.7083 4.68004ZM18.9052 5.64436C18.7887 5.99316 18.5558 6.32657 18.2248 6.63946C16.9251 7.87051 14.1236 8.74764 10.9665 8.74764C7.80947 8.74764 5.00795 7.87051 3.70221 6.63946C3.21179 6.17269 2.92367 5.65462 2.92367 5.11603C2.92367 3.14635 6.60794 1.4793 10.9665 1.4793C15.3251 1.4793 19.0094 3.14635 19.0094 5.11603C19.0094 5.29556 18.9665 5.46996 18.9052 5.64436Z" fill="#E5E8EB"/>
</svg>
