<svg width="50" height="51" viewBox="0 0 50 51" fill="none" xmlns="http://www.w3.org/2000/svg">
<ellipse cx="24.9999" cy="25.058" rx="24.9994" ry="24.9994" fill="#FFF4CC"/>
<mask id="mask0_4521_3303" style="mask-type:alpha" maskUnits="userSpaceOnUse" x="0" y="0" width="50" height="51">
<circle cx="25" cy="25.0586" r="25" fill="#D4AC90"/>
</mask>
<g mask="url(#mask0_4521_3303)">
<path d="M25.0374 40.4905C25.0374 40.4905 14.9545 40.0049 13.7825 53.4994C13.7825 53.4994 11.968 53.9238 11.7336 55.9355C11.7013 56.2293 11.7417 56.5313 11.8589 56.8006C12.6267 58.5185 14.805 58.9959 16.3447 57.3188C17.9854 55.5315 25.0374 40.4905 25.0374 40.4905Z" fill="#F79928"/>
<path d="M25.1587 40.4905C25.1587 40.4905 35.2416 40.0049 36.4135 53.4994C36.4135 53.4994 38.228 53.9238 38.4624 55.9355C38.4948 56.2293 38.4543 56.5313 38.3371 56.8006C37.5693 58.5185 35.3911 58.9959 33.8514 57.3188C32.2106 55.5315 25.1587 40.4905 25.1587 40.4905Z" fill="#F79928"/>
<path d="M15.2372 20.459C15.2372 20.459 9.10257 19.8061 7.71642 25.115C6.77482 28.7141 9.52285 31.0971 11.402 31.9785C13.0508 32.7539 15.9363 32.9293 18.2317 30.33C20.2968 27.9959 19.9816 25.8658 19.9816 25.8658" fill="#FFDF5A"/>
<path d="M35.4152 20.459C35.4152 20.459 41.5498 19.8061 42.9359 25.115C43.8775 28.7141 41.1295 31.0971 39.2503 31.9785C37.6015 32.7539 34.7161 32.9293 32.4207 30.33C30.3556 27.9959 30.6708 25.8658 30.6708 25.8658" fill="#FFDF5A"/>
<path d="M25.1142 44.9998C27.018 44.9998 28.5613 43.3738 28.5613 41.368C28.5613 39.3623 27.018 37.7363 25.1142 37.7363C23.2103 37.7363 21.667 39.3623 21.667 41.368C21.667 43.3738 23.2103 44.9998 25.1142 44.9998Z" fill="#FFDF5A"/>
<path d="M25.2313 56.8572C25.2313 56.8572 21.1255 56.8246 17.2823 56.9184C16.3043 56.9429 15.4879 56.4165 15.4637 55.7432C15.3707 53.099 15.5607 46.8231 19.0483 42.9996C21.5215 40.286 25.1586 40.4451 25.1586 40.4451H25.0939C25.0939 40.4451 28.7311 40.286 31.2043 42.9996C34.6878 46.8231 34.8818 53.099 34.7889 55.7432C34.7646 56.4165 33.9483 56.9388 32.9703 56.9184C29.1271 56.8246 25.0212 56.8572 25.0212 56.8572" fill="#FFB300"/>
<path d="M45.0009 13.5299L41.9054 10.2899C41.7841 10.1594 41.5255 10.2328 41.3962 10.4368L38.6077 14.244L38.3612 10.849C38.3935 10.6613 38.3006 10.4736 38.1794 10.4776L35.0959 10.5633C34.9706 10.5633 34.8898 10.7633 34.9342 10.951L35.9324 15.1581C33.4875 12.1956 29.8342 10.2328 24.8918 10.2328C20.3171 10.2328 16.878 11.8936 14.4695 14.4603L15.302 10.951C15.3464 10.7633 15.2656 10.5674 15.1403 10.5633L12.0568 10.4776C11.9356 10.4776 11.8427 10.6613 11.875 10.849L11.6285 14.244L8.84003 10.4368C8.71071 10.2369 8.45207 10.1634 8.33083 10.2899L5.23525 13.5299C5.10997 13.6605 5.19484 13.9217 5.40498 14.0441L9.32093 16.574L5.91418 17.0882C5.72828 17.0637 5.54643 17.1616 5.55451 17.2881L5.74849 20.3935C5.75657 20.52 5.95459 20.5934 6.13644 20.5444L11.5881 19.0183C10.6303 21.3402 10.1656 23.9273 10.1656 26.5143C10.1656 34.6714 16.777 38.7479 24.9322 38.7479C33.0874 38.7479 39.6989 34.6714 39.6989 26.5143C39.6989 23.8783 39.2018 21.2422 38.1874 18.8877L44.1119 20.5485C44.2937 20.6016 44.4918 20.524 44.4998 20.3975L44.6938 17.2922C44.7019 17.1698 44.52 17.0678 44.3341 17.0923L40.9274 16.5781L44.8433 14.0482C45.0494 13.9257 45.1343 13.6646 45.0131 13.534L45.0009 13.5299Z" fill="#FFDF5A"/>
<path d="M27.5879 27.6875H27.5838C27.1464 27.6875 26.7916 28.0456 26.7915 28.4873L26.791 30.0093C26.7908 30.4511 27.1453 30.8091 27.5828 30.8091H27.5868C28.0243 30.8091 28.379 30.4511 28.3792 30.0093L28.3797 28.4873C28.3798 28.0456 28.0253 27.6875 27.5879 27.6875Z" fill="#292929"/>
<path d="M22.6501 27.6855H22.6461C22.2086 27.6855 21.8539 28.0436 21.8538 28.4853L21.8534 30.0074C21.8533 30.4491 22.2079 30.8072 22.6453 30.8072H22.6494C23.0868 30.8072 23.4415 30.4491 23.4416 30.0074L23.442 28.4853C23.4421 28.0436 23.0876 27.6855 22.6501 27.6855Z" fill="#292929"/>
<path d="M15.4478 34.7323C17.8226 34.7323 19.7477 32.7885 19.7477 30.3906C19.7477 27.9927 17.8226 26.0488 15.4478 26.0488C13.0731 26.0488 11.1479 27.9927 11.1479 30.3906C11.1479 32.7885 13.0731 34.7323 15.4478 34.7323Z" fill="#FFCA45"/>
<path d="M34.4332 34.7323C36.8079 34.7323 38.733 32.7885 38.733 30.3906C38.733 27.9927 36.8079 26.0488 34.4332 26.0488C32.0584 26.0488 30.1333 27.9927 30.1333 30.3906C30.1333 32.7885 32.0584 34.7323 34.4332 34.7323Z" fill="#FFCA45"/>
<path d="M25.1141 45.3306C25.4422 45.3306 25.7081 45.062 25.7081 44.7307C25.7081 44.3994 25.4422 44.1309 25.1141 44.1309C24.786 44.1309 24.52 44.3994 24.52 44.7307C24.52 45.062 24.786 45.3306 25.1141 45.3306Z" fill="#644D31"/>
<path d="M25.1141 49.3833C25.4422 49.3833 25.7081 49.1147 25.7081 48.7834C25.7081 48.4522 25.4422 48.1836 25.1141 48.1836C24.786 48.1836 24.52 48.4522 24.52 48.7834C24.52 49.1147 24.786 49.3833 25.1141 49.3833Z" fill="#644D31"/>
<path d="M14.4129 14.7012C13.8915 15.2357 13.3136 15.9131 12.76 16.7496C12.2953 17.4515 11.9518 18.1166 11.6931 18.7001" stroke="#FFB339" stroke-width="0.986708" stroke-miterlimit="10" stroke-linecap="round"/>
<path d="M35.8193 14.7012C36.3407 15.2357 36.9185 15.9131 37.4722 16.7496C37.9369 17.4515 38.2804 18.1166 38.5391 18.7001" stroke="#FFB339" stroke-width="0.986708" stroke-miterlimit="10" stroke-linecap="round"/>
<path d="M25.2636 40.8865C21.2426 40.8171 18.7451 43.4327 18.3572 43.849C18.5916 43.5266 21.1658 40.0663 25.2636 40.1846C27.9713 40.2621 29.9676 41.8617 30.5576 42.38C31.2527 42.988 31.7296 43.6001 32.0367 44.0489C31.6609 43.6164 29.2604 40.9558 25.2636 40.8865Z" fill="#FFC239"/>
</g>
</svg>
