<svg width="23" height="23" viewBox="0 0 23 23" fill="none" xmlns="http://www.w3.org/2000/svg">
<path d="M5.08301 9.68579C5.08301 14.1333 8.97378 17.8112 10.6959 19.2213C10.9424 19.4231 11.0671 19.5252 11.251 19.577C11.3942 19.6173 11.6049 19.6173 11.7481 19.577C11.9323 19.5251 12.0562 19.424 12.3035 19.2214C14.0257 17.8113 17.9163 14.1337 17.9163 9.6862C17.9163 8.00309 17.2403 6.38872 16.0369 5.19859C14.8335 4.00845 13.2016 3.33984 11.4997 3.33984C9.79794 3.33984 8.16576 4.00856 6.96241 5.19869C5.75905 6.38882 5.08301 8.00269 5.08301 9.68579Z" stroke="white" stroke-width="1.83639" stroke-linecap="round" stroke-linejoin="round"/>
<path d="M9.66634 8.83984C9.66634 9.85237 10.4872 10.6732 11.4997 10.6732C12.5122 10.6732 13.333 9.85237 13.333 8.83984C13.333 7.82732 12.5122 7.00651 11.4997 7.00651C10.4872 7.00651 9.66634 7.82732 9.66634 8.83984Z" stroke="white" stroke-width="1.83639" stroke-linecap="round" stroke-linejoin="round"/>
</svg>
