<svg width="30" height="30" viewBox="0 0 30 30" fill="none" xmlns="http://www.w3.org/2000/svg">
<path d="M0 9C0 4.02944 4.02944 0 9 0H21C25.9706 0 30 4.02944 30 9V21C30 25.9706 25.9706 30 21 30H9C4.02944 30 0 25.9706 0 21V9Z" fill="#FFFBF4"/>
<path d="M0.340909 9C0.340909 4.21772 4.21772 0.340909 9 0.340909H21C25.7823 0.340909 29.6591 4.21772 29.6591 9V21C29.6591 25.7823 25.7823 29.6591 21 29.6591H9C4.21772 29.6591 0.340909 25.7823 0.340909 21V9Z" stroke="white" stroke-opacity="0.25" stroke-width="0.681818"/>
<path d="M13.6363 17.7269H10.2272V21.136M16.3635 12.2724H19.7726V8.86328M9.94287 12.9565C10.3252 12.0103 10.9652 11.1904 11.7903 10.5898C12.6154 9.98925 13.5932 9.63204 14.6111 9.55908C15.629 9.48612 16.6463 9.70015 17.5486 10.1769C18.4509 10.6536 19.2007 11.3741 19.7141 12.2561M20.0573 17.0431C19.675 17.9893 19.035 18.8093 18.2099 19.4098C17.3848 20.0104 16.408 20.3671 15.3901 20.4401C14.3722 20.513 13.354 20.299 12.4517 19.8223C11.5495 19.3456 10.7991 18.6252 10.2858 17.7432" stroke="#1D1E18" stroke-width="1.36364" stroke-linecap="round" stroke-linejoin="round"/>
</svg>
