<svg width="25" height="25" viewBox="0 0 25 25" fill="none" xmlns="http://www.w3.org/2000/svg">
<g clip-path="url(#clip0_4358_596)">
<path d="M17.8125 2.1875H7.1875C4.42608 2.1875 2.1875 4.42608 2.1875 7.1875V17.8125C2.1875 20.5739 4.42608 22.8125 7.1875 22.8125H17.8125C20.5739 22.8125 22.8125 20.5739 22.8125 17.8125V7.1875C22.8125 4.42608 20.5739 2.1875 17.8125 2.1875Z" fill="#FF901C"/>
<path d="M11.3143 16.6788C11.0262 16.6788 10.7387 16.5695 10.5187 16.3495L6.78241 12.6132C6.34304 12.1738 6.34304 11.4613 6.78241 11.022C7.22179 10.5832 7.93429 10.5832 8.37366 11.022L11.3143 13.9632L16.6262 8.65133C17.0662 8.21258 17.7787 8.21258 18.2174 8.65133C18.6568 9.0907 18.6568 9.8032 18.2174 10.2426L12.1099 16.3495C11.8899 16.5688 11.6024 16.6788 11.3143 16.6788Z" fill="white"/>
</g>
<defs>
<clipPath id="clip0_4358_596">
<rect width="25" height="25" fill="white"/>
</clipPath>
</defs>
</svg>
