<svg width="24" height="24" viewBox="0 0 24 24" fill="none" xmlns="http://www.w3.org/2000/svg">
<path d="M17.3125 1.6875H6.6875C3.92608 1.6875 1.6875 3.92608 1.6875 6.6875V17.3125C1.6875 20.0739 3.92608 22.3125 6.6875 22.3125H17.3125C20.0739 22.3125 22.3125 20.0739 22.3125 17.3125V6.6875C22.3125 3.92608 20.0739 1.6875 17.3125 1.6875Z" fill="#5E59FF"/>
<path d="M10.8145 16.1783C10.5264 16.1783 10.2389 16.069 10.0189 15.849L6.28266 12.1127C5.84328 11.6733 5.84328 10.9608 6.28266 10.5215C6.72203 10.0827 7.43453 10.0827 7.87391 10.5215L10.8145 13.4627L16.1264 8.15084C16.5664 7.71209 17.2789 7.71209 17.7177 8.15084C18.157 8.59021 18.157 9.30272 17.7177 9.74209L11.6102 15.849C11.3902 16.0683 11.1027 16.1783 10.8145 16.1783Z" fill="white"/>
</svg>
