<svg width="25" height="25" viewBox="0 0 25 25" fill="none" xmlns="http://www.w3.org/2000/svg">
<path d="M3.73047 14.4909C9.21914 13.6332 10.6501 8.27239 10.6796 5.69922C11.6327 12.7081 15.7439 14.4653 17.9087 14.4954C17.9916 14.4924 18.0754 14.4909 18.16 14.4909C18.0796 14.495 17.9957 14.4966 17.9087 14.4954C12.7887 14.6803 10.9555 20.5068 10.6796 23.4434C10.2192 16.3671 5.85501 14.5266 3.73047 14.4909Z" fill="#5E59FF"/>
<path d="M14.3711 5.66085C17.254 5.25548 18.0056 2.72195 18.0211 1.50586C18.5217 4.81828 20.6811 5.64875 21.8182 5.66298C21.8617 5.66156 21.9057 5.66085 21.9502 5.66085C21.9079 5.66281 21.8639 5.66355 21.8182 5.66298C19.1289 5.75039 18.166 8.50399 18.0211 9.89184C17.7793 6.54758 15.487 5.67774 14.3711 5.66085Z" fill="#AFACFF"/>
</svg>
