<svg width="25" height="25" viewBox="0 0 25 25" fill="none" xmlns="http://www.w3.org/2000/svg">
<path d="M12.6504 21.9609C18.2002 21.9609 22.6992 17.4619 22.6992 11.9121C22.6992 6.3623 18.2002 1.86328 12.6504 1.86328C7.10058 1.86328 2.60156 6.3623 2.60156 11.9121C2.60156 17.4619 7.10058 21.9609 12.6504 21.9609Z" fill="#E3E9F0"/>
<path d="M12.6504 19.5703C16.8799 19.5703 20.3086 16.1416 20.3086 11.9121C20.3086 7.6826 16.8799 4.25391 12.6504 4.25391C8.42088 4.25391 4.99219 7.6826 4.99219 11.9121C4.99219 16.1416 8.42088 19.5703 12.6504 19.5703Z" fill="#F1F4F8"/>
<path fill-rule="evenodd" clip-rule="evenodd" d="M10.935 11.6175C10.7533 11.6173 10.606 11.47 10.606 11.2883V8.04774C10.606 7.7739 10.3845 7.55167 10.1106 7.55081C9.8367 7.54995 9.61373 7.77094 9.61215 8.04488L9.59348 11.2943C9.59245 11.4734 9.4469 11.618 9.26779 11.6179C9.08828 11.6178 8.94275 11.4724 8.94251 11.2929L8.93797 8.02154C8.9376 7.76036 8.72578 7.54883 8.4646 7.54883C8.21655 7.54883 8.01056 7.74032 7.99249 7.98772L7.66096 12.5275C7.61312 13.1826 7.88999 13.8194 8.40168 14.2312L8.8328 14.5782C9.20831 14.8804 9.42741 15.3359 9.42913 15.8179L9.45494 23.0658C9.45627 23.4391 9.75978 23.7408 10.1331 23.7398C10.5069 23.7388 10.809 23.4348 10.8077 23.061L10.7819 15.8239C10.7802 15.3385 10.9991 14.8786 11.377 14.5738L11.7965 14.2355C12.3101 13.8212 12.5864 13.1803 12.5349 12.5225L12.1785 7.97268C12.1599 7.73517 11.9623 7.55163 11.724 7.55068C11.4705 7.54966 11.2644 7.75489 11.2644 8.00842V11.2883C11.2644 11.4702 11.1169 11.6176 10.935 11.6175Z" fill="#C1C9D1"/>
<path fill-rule="evenodd" clip-rule="evenodd" d="M10.1112 23.7422C9.63071 23.7422 9.24473 23.346 9.25728 22.8656L9.43119 16.209H10.7867L10.9652 22.865C10.9781 23.3456 10.592 23.7422 10.1112 23.7422Z" fill="#7F8690"/>
<path d="M16.7344 18.3313L16.9034 7.73824C16.905 7.6364 16.8296 7.54789 16.7277 7.54889C15.4407 7.56158 14.2403 9.46917 14.1575 11.639C14.074 13.8263 14.9879 14.9428 15.5666 15.1776L15.4414 18.3313H16.7344Z" fill="#C1C9D1"/>
<path fill-rule="evenodd" clip-rule="evenodd" d="M16.1111 23.7422C16.5892 23.7422 16.9727 23.3471 16.9586 22.8693L16.7617 16.209H15.5195L15.2639 22.8618C15.2454 23.3424 15.6301 23.7422 16.1111 23.7422Z" fill="#7F8690"/>
</svg>
