<svg width="21" height="22" viewBox="0 0 21 22" fill="none" xmlns="http://www.w3.org/2000/svg">
<g clip-path="url(#clip0_14908_27393)">
<path d="M14.9615 2.17578H6.03613C3.71643 2.17578 1.83594 4.05627 1.83594 6.37598V15.3014C1.83594 17.6211 3.71643 19.5016 6.03613 19.5016H14.9615C17.2813 19.5016 19.1617 17.6211 19.1617 15.3014V6.37598C19.1617 4.05627 17.2813 2.17578 14.9615 2.17578Z" fill="#B8E0FF"/>
<path d="M15.7918 6.16212C15.5161 5.63867 14.7669 5.63867 14.4913 6.16212L9.58178 15.4876C9.324 15.9769 9.67891 16.565 10.2318 16.565H18.9671C19.0931 16.1654 19.1619 15.7407 19.1619 15.2991V12.5653L15.7918 6.16212Z" fill="#23B169"/>
<path d="M9.71452 9.80248L6.72241 15.4864C6.46462 15.9757 6.81954 16.5637 7.37239 16.5637H14.5741L11.015 9.80301C10.7394 9.27956 9.99016 9.27903 9.71452 9.80248Z" fill="#0A9F60"/>
<path d="M1.83594 10.5352V15.2987C1.83594 15.7397 1.90472 16.165 2.03072 16.5645H3.7927C4.34555 16.5645 4.70047 15.9765 4.44268 15.4872L1.83594 10.5352Z" fill="#0A9F60"/>
<path d="M1.94374 15.5195C1.91066 15.5195 1.88021 15.5216 1.84766 15.5222C1.96211 17.7399 3.79077 19.5039 6.03683 19.5039H14.9622C17.2093 19.5039 19.0385 17.7383 19.1514 15.5195H1.94374Z" fill="#7BD58F"/>
<path d="M13.8103 10.2015C14.4734 10.2015 14.4734 10.8929 15.1365 10.8929C15.7996 10.8929 15.8001 10.2015 16.4638 10.2015C17.1274 10.2015 17.1279 10.8929 17.7921 10.8929C17.9743 10.8929 18.105 10.8388 18.2147 10.7632L15.8001 6.17662C15.5198 5.64425 14.758 5.64425 14.4776 6.17662L12.0625 10.7638C12.1717 10.8388 12.3019 10.8929 12.4836 10.8929C13.1467 10.8929 13.1472 10.2015 13.8103 10.2015Z" fill="#4FC578"/>
<path d="M4.44584 15.4888C4.44584 15.4888 5.33628 16.1971 6.42991 16.5047C7.62486 16.8413 11.3415 16.9415 11.3415 18.1155C11.3415 19.1446 7.869 19.5 7.869 19.5H14.7221C14.7221 19.5 15.5254 19.0416 15.3968 18.2394C15.285 17.5417 14.4302 16.9011 12.1296 16.5063C9.82891 16.1115 7.08199 15.9808 6.72444 15.4883H4.44531L4.44584 15.4888Z" fill="#64A7FF"/>
</g>
<defs>
<clipPath id="clip0_14908_27393">
<rect width="21.001" height="21.001" fill="white" transform="translate(0 0.339844)"/>
</clipPath>
</defs>
</svg>
