<svg width="50" height="50" viewBox="0 0 50 50" fill="none" xmlns="http://www.w3.org/2000/svg">
<ellipse cx="24.9999" cy="24.9994" rx="24.9994" ry="24.9994" fill="#F9E5D2"/>
<mask id="mask0_4521_11771" style="mask-type:alpha" maskUnits="userSpaceOnUse" x="0" y="0" width="50" height="50">
<circle cx="25" cy="25" r="25" fill="#D4AC90"/>
</mask>
<g mask="url(#mask0_4521_11771)">
<path d="M23.1742 34.679C23.1742 34.679 12.7436 36.1398 12.7917 54.5963C12.6473 54.6864 11.0233 55.7386 10.9688 57.637C10.9591 57.9588 10.9688 59.1879 11.9187 60.1468C12.6858 60.919 13.6101 61.0509 13.8829 61.0863C15.1924 61.2537 16.5114 60.6487 17.1822 59.7671C18.3023 58.2966 17.5737 56.0121 17.4197 55.449C16.6623 52.714 17.3362 47.1056 23.171 34.6758L23.1742 34.679Z" fill="#FFCAA2"/>
<path d="M26.6528 34.679C26.6528 34.679 37.0834 36.1398 37.0353 54.5963C37.1797 54.6864 38.8037 55.7386 38.8583 57.637C38.8679 57.9588 38.8583 59.1879 37.9083 60.1468C37.1412 60.919 36.2169 61.0509 35.9441 61.0863C34.6347 61.2537 33.3156 60.6487 32.6448 59.7671C31.5247 58.2966 32.2533 56.0121 32.4073 55.449C33.1647 52.714 32.4908 47.1056 26.656 34.6758L26.6528 34.679Z" fill="#FFCAA2"/>
<path d="M25.0259 58.6758C25.0259 58.6758 20.7638 58.6276 16.7744 58.7692C15.7603 58.8045 14.913 58.0259 14.8873 57.0348C14.791 53.1254 14.99 43.8424 18.607 38.1922C21.1746 34.1798 24.952 34.4147 24.952 34.4147H24.8847C24.8847 34.4147 28.6621 34.1798 31.2297 38.1922C34.8467 43.8456 35.0457 53.1254 34.9494 57.0348C34.9237 58.0291 34.0764 58.8045 33.0623 58.7692C29.0729 58.6308 24.8108 58.6758 24.8108 58.6758" fill="#B3C127"/>
<path d="M32.5793 43.2063L29.066 43.4347C28.8095 43.4513 28.615 43.6733 28.6317 43.9304L28.8738 47.6744C28.8904 47.9315 29.1118 48.1264 29.3683 48.1098L32.8817 47.8814C33.1382 47.8647 33.3326 47.6427 33.316 47.3856L33.0738 43.6416C33.0572 43.3845 32.8358 43.1896 32.5793 43.2063Z" fill="#C5A08A"/>
<path d="M26.5313 34.0547C25.96 33.9228 25.4369 34.4183 25.546 34.9975C25.7418 36.0464 25.9344 37.2112 26.1077 38.4757C26.4061 40.6702 26.5377 42.3659 26.5827 43.0159C26.7431 45.294 26.7175 46.7548 26.7399 48.5567C26.7816 51.7872 26.5088 55.0145 26.3805 58.2418C26.3676 58.5604 26.3291 59.2103 26.7399 59.6415C27.2631 60.1885 28.1906 60.0662 30.0745 59.7541C32.61 59.3358 33.8745 59.1267 34.0478 59.0109C34.5837 58.6537 35.7744 57.579 34.9946 49.4415C34.25 41.6838 32.963 39.293 32.0643 37.9899C30.8063 36.1623 29.5385 35.3482 29.0218 35.0425C28.1328 34.5212 27.2663 34.2252 26.5345 34.0547H26.5313Z" fill="#8F705B"/>
<path d="M22.2623 34.282C22.84 34.089 23.408 34.5941 23.2989 35.1926C23.1063 36.2448 22.9009 37.4933 22.7116 38.9058C22.5319 40.2283 22.2655 41.9014 22.227 43.4524C22.1307 47.3457 22.7501 52.0403 23.2989 56.1074C23.4786 57.4492 23.6937 58.9454 22.8592 59.6436C22.4773 59.9622 22.2911 59.7691 19.5246 59.7562C17.8493 59.7466 16.6939 59.7723 15.5514 59.013C15.0154 58.6558 13.8247 57.5811 14.6046 49.4436C15.3492 41.6859 16.6361 39.2951 17.5348 37.992C18.0002 37.3131 18.902 36.0292 20.5773 35.0446C21.1711 34.6971 21.7455 34.4526 22.2623 34.282Z" fill="#8F705B"/>
<path d="M17.3427 37.1762C17.0988 37.4208 16.8517 37.6685 16.6078 37.9131C16.2676 38.2541 16.2226 38.7851 16.4922 39.184C18.4275 42.0285 20.9052 45.23 24.044 48.4927C27.6899 52.2831 31.3101 55.1951 34.4586 57.3992C34.8983 57.7081 35.5016 57.6116 35.8226 57.1804C36.0119 56.9262 36.2045 56.672 36.3939 56.4146C36.7212 55.977 36.6378 55.356 36.2045 55.0278C33.0304 52.6081 29.5193 49.5835 25.9664 45.8414C23.155 42.8811 20.8025 39.9788 18.8447 37.2921C18.4853 36.7998 17.7728 36.7483 17.3427 37.1794V37.1762Z" fill="#C08969"/>
<path d="M27.2277 46.2556L23.3251 41.9278C22.879 41.4323 22.1183 41.3937 21.6241 41.841L20.0162 43.3018C19.5219 43.749 19.4834 44.5116 19.9295 45.0071L23.8322 49.3349C24.2783 49.8304 25.0389 49.869 25.5332 49.4218L27.1411 47.9609C27.6353 47.5137 27.6739 46.7511 27.2277 46.2556ZM25.668 46.8283L24.5575 47.8355C24.2173 48.1444 23.691 48.1186 23.3829 47.7775L20.6902 44.7916C20.382 44.4505 20.4077 43.9228 20.7479 43.6139L21.8584 42.6068C22.1986 42.2979 22.7249 42.3236 23.033 42.6647L25.7257 45.6507C26.0338 45.9917 26.0082 46.5194 25.668 46.8283Z" fill="#87583E"/>
<path d="M28.3127 42.3208C28.6388 42.3208 28.9032 42.0557 28.9032 41.7288C28.9032 41.4018 28.6388 41.1367 28.3127 41.1367C27.9866 41.1367 27.7222 41.4018 27.7222 41.7288C27.7222 42.0557 27.9866 42.3208 28.3127 42.3208Z" fill="#5A3E2C"/>
<path d="M28.7678 46.4204C29.0939 46.4204 29.3583 46.1554 29.3583 45.8284C29.3583 45.5014 29.0939 45.2363 28.7678 45.2363C28.4416 45.2363 28.1772 45.5014 28.1772 45.8284C28.1772 46.1554 28.4416 46.4204 28.7678 46.4204Z" fill="#5A3E2C"/>
<path d="M11.6587 23.9577C12.4899 27.8897 13.3212 31.8185 14.1524 35.7504C14.1877 35.9113 14.3 36.0239 14.4252 36.0272L15.5357 36.0432C15.6287 36.0432 15.7058 35.9853 15.7507 35.8952C15.8181 35.7601 15.786 35.6089 15.7764 35.567C15.7058 35.2871 14.637 30.3126 13.1671 23.459C12.6632 23.6231 12.1626 23.7904 11.6587 23.9545V23.9577Z" fill="#9A745B"/>
<path d="M38.1716 23.9577C37.3404 27.8897 36.5091 31.8185 35.6779 35.7504C35.6426 35.9113 35.5303 36.0239 35.4051 36.0272L34.2946 36.0432C34.2016 36.0432 34.1245 35.9853 34.0796 35.8952C34.0122 35.7601 34.0443 35.6089 34.0539 35.567C34.1245 35.2871 35.1933 30.3126 36.6632 23.459C37.1671 23.6231 37.6677 23.7904 38.1716 23.9545V23.9577Z" fill="#9A745B"/>
<path d="M24.9359 36.8787C26.6552 36.8787 28.049 35.5504 28.049 33.912C28.049 32.2735 26.6552 30.9453 24.9359 30.9453C23.2166 30.9453 21.8228 32.2735 21.8228 33.912C21.8228 35.5504 23.2166 36.8787 24.9359 36.8787Z" fill="#FFCAA2"/>
<path d="M34.1851 28.146C34.3905 28.146 34.3905 27.8242 34.1851 27.8242C33.9797 27.8242 33.9797 28.146 34.1851 28.146Z" fill="#FCBE92"/>
<path d="M33.5893 17.1994C33.5893 17.1994 38.3681 16.6942 39.4465 20.8031C40.1782 23.5864 38.0408 25.4301 36.5773 26.1123C35.2935 26.7108 33.0437 26.8491 31.256 24.8381C29.6481 23.033 29.8953 21.3855 29.8953 21.3855" fill="#FFCAA2"/>
<path d="M16.4123 17.1994C16.4123 17.1994 11.6335 16.6942 10.5551 20.8031C9.82334 23.5864 11.9608 25.4301 13.4243 26.1123C14.7081 26.7108 16.9579 26.8491 18.7455 24.8381C20.3534 23.033 20.1063 21.3855 20.1063 21.3855" fill="#FFCAA2"/>
<path d="M34.1765 13.3902C34.9307 13.1618 35.579 12.6051 36.0187 11.9101C36.866 10.578 36.2017 9.22014 34.8601 8.36103C33.5186 7.50513 32.0102 7.47295 31.1629 8.80506C30.8612 9.27806 30.6622 9.81219 30.6012 10.3528C29.0093 9.51938 27.1094 9.03352 24.8884 9.03352C22.6675 9.03352 20.8029 9.50651 19.227 10.3206C19.1596 9.78967 18.9639 9.26841 18.6686 8.80506C17.8213 7.47295 16.3129 7.50191 14.9713 8.36103C13.6298 9.21692 12.9687 10.578 13.8127 11.9101C14.246 12.5922 14.8783 13.1457 15.6164 13.3806C13.771 15.8196 12.8884 19.0083 12.8884 22.2066C12.8884 28.8028 18.2738 32.0977 24.9141 32.0977C31.5544 32.0977 36.9398 28.8028 36.9398 22.2066C36.9398 19.0147 36.0348 15.8324 34.1733 13.3934L34.1765 13.3902Z" fill="#FFCAA2"/>
<path d="M26.908 23.1176L26.9048 23.1176C26.5485 23.1239 26.2648 23.4184 26.271 23.7756L26.2925 25.0077C26.2987 25.3649 26.5925 25.6493 26.9487 25.6431L26.9519 25.643C27.3082 25.6368 27.5919 25.3422 27.5857 24.9851L27.5642 23.7529C27.558 23.3958 27.2642 23.1113 26.908 23.1176Z" fill="#292929"/>
<path d="M22.8865 23.1176L22.8833 23.1176C22.5271 23.1239 22.2433 23.4184 22.2495 23.7756L22.271 25.0077C22.2772 25.3649 22.571 25.6493 22.9272 25.6431L22.9305 25.643C23.2867 25.6368 23.5704 25.3422 23.5642 24.9851L23.5427 23.7529C23.5365 23.3958 23.2427 23.1113 22.8865 23.1176Z" fill="#292929"/>
<path d="M17.978 29.8161C19.7983 29.8161 21.274 28.3366 21.274 26.5116C21.274 24.6865 19.7983 23.207 17.978 23.207C16.1576 23.207 14.6819 24.6865 14.6819 26.5116C14.6819 28.3366 16.1576 29.8161 17.978 29.8161Z" fill="#FFB089"/>
<path d="M31.8937 29.8161C33.7141 29.8161 35.1898 28.3366 35.1898 26.5116C35.1898 24.6865 33.7141 23.207 31.8937 23.207C30.0734 23.207 28.5977 24.6865 28.5977 26.5116C28.5977 28.3366 30.0734 29.8161 31.8937 29.8161Z" fill="#FFB089"/>
<path d="M37.7509 18.4877C37.4749 17.4388 36.9678 15.8846 35.9857 14.0924C36.2842 13.8672 36.7881 13.4199 37.109 12.6991C37.8793 10.968 36.8715 9.29486 36.7881 9.15972C35.9568 7.82761 34.3264 7.05215 32.7249 7.33852C31.0432 7.63777 30.1735 8.96666 30.029 9.19833C29.4192 8.89587 28.6522 8.57411 27.7343 8.32956C26.6495 8.03676 25.6803 7.93701 24.9196 7.91449C24.159 7.93701 23.1898 8.03997 22.105 8.32956C21.1871 8.57732 20.42 8.89587 19.8102 9.19833C19.6626 8.96666 18.7928 7.63777 17.1143 7.33852C15.5096 7.05215 13.8824 7.83083 13.0512 9.15972C12.9677 9.29486 11.96 10.9648 12.7303 12.6991C13.0512 13.4231 13.5551 13.8672 13.8535 14.0924C12.8715 15.8846 12.3644 17.4388 12.0884 18.4877C10.7436 23.6006 11.8252 28.2501 12.5698 31.4613C12.772 32.3333 12.9742 33.0669 13.1282 33.5946C13.1796 33.7652 13.324 33.8906 13.5005 33.9164C14.1777 34.0129 14.8549 34.1094 15.5321 34.206C15.853 34.251 16.1162 33.9614 16.0392 33.6493C15.6187 31.9247 15.2496 29.8139 15.1373 27.3878C15.0154 24.7847 15.2176 22.5162 15.5032 20.7079C16.7549 20.1834 18.3403 19.6429 20.2178 19.2664C22.0087 18.9092 23.6102 18.7966 24.9228 18.787C26.2355 18.7934 27.837 18.9092 29.6278 19.2664C31.5054 19.6396 33.0908 20.1834 34.3425 20.7079C34.6281 22.5162 34.8303 24.7847 34.7084 27.3878C34.5928 29.8139 34.2269 31.9279 33.8033 33.6525C33.7263 33.9647 33.9894 34.251 34.3072 34.206C34.9844 34.1094 35.6648 34.0129 36.342 33.9132C36.5185 33.8874 36.6629 33.7652 36.7142 33.5914C36.8683 33.0637 37.0705 32.3333 37.2727 31.4581C38.0173 28.2469 39.0988 23.5974 37.7541 18.4845L37.7509 18.4877Z" fill="#D4AC90"/>
<path d="M37.527 16.2122C37.3088 15.4625 37.0456 14.8222 36.7889 14.2912C36.7504 14.2108 36.6926 14.1465 36.6252 14.1046C36.6252 14.1046 36.5803 14.0757 36.5225 14.0564C32.6936 12.7757 29.2756 12.5054 29.2756 12.5054C28.117 12.4154 26.6375 12.3285 24.914 12.3027C23.1906 12.3285 21.711 12.4154 20.5524 12.5054C20.5524 12.5054 17.1376 12.7757 13.3055 14.0564C13.251 14.0757 13.2028 14.1046 13.2028 14.1046C13.1322 14.1497 13.0777 14.214 13.0392 14.2912C12.7856 14.8189 12.5192 15.4625 12.301 16.2122C12.0475 17.081 11.9159 17.8757 11.8485 18.5353C11.8356 18.6737 11.8774 18.8088 11.9672 18.9118C12.6187 19.6519 14.14 21.1416 16.4989 21.6339C20.0646 22.374 22.8536 20.2729 23.7618 19.4781C23.9544 19.3108 24.1951 19.2207 24.4422 19.2207H25.373C25.6233 19.2207 25.864 19.3108 26.0534 19.4781C26.9616 20.2729 29.7506 22.374 33.3163 21.6339C35.6752 21.1449 37.1997 19.6551 37.848 18.9118C37.9378 18.8088 37.9796 18.6737 37.9667 18.5353C37.9025 17.8757 37.771 17.081 37.5142 16.2122H37.527Z" fill="#80614E"/>
<path d="M23.3541 15.2364C23.9125 16.4044 22.3496 19.3968 20.119 19.2198C18.2254 19.0686 16.9256 16.7262 17.4006 15.5517C18.0746 13.8785 22.6641 13.7788 23.3573 15.2364H23.3541Z" fill="#614C40"/>
<path d="M26.5276 15.2364C25.9692 16.4044 27.5322 19.3968 29.7627 19.2198C31.6563 19.0686 32.9561 16.7262 32.4811 15.5517C31.8071 13.8785 27.2177 13.7788 26.5244 15.2364H26.5276Z" fill="#614C40"/>
<path d="M20.407 34.4478C20.208 34.6988 19.6849 35.3648 19.8453 35.9826C20.1855 37.2697 23.2666 37.4177 23.9887 37.4241C24.4669 37.4241 25.0959 37.4306 25.8662 37.2954C26.1486 37.2471 26.4343 37.1699 26.6846 37.1088C27.4324 36.9222 27.6089 36.8385 28.039 36.7355C28.5429 36.6197 28.9119 36.594 29.4736 36.5554C30.9275 36.4556 31.0751 36.6648 31.4185 36.4331C32.07 35.9923 32.2882 34.7181 31.7715 34.1067C31.6207 33.9297 31.4506 33.8557 31.335 33.8043C31.335 33.8043 30.231 33.3216 28.8574 34.6312C28.806 34.6795 28.8028 34.6988 28.806 34.7052C28.8349 34.7535 29.2906 34.5443 29.7753 34.3062C29.6533 34.126 29.3901 33.7946 28.9472 33.6305C28.7964 33.5758 28.5717 33.4921 28.3214 33.5565C28.0037 33.6369 27.8657 33.8944 27.6731 34.1132C27.2912 34.5443 26.8098 34.6891 26.2513 34.8532C26.2224 34.8629 26.1839 34.8725 26.1358 34.8854C25.2917 35.1106 24.4894 34.9497 24.2711 34.9015C23.3051 34.6859 22.2428 34.0938 21.8191 33.7753C21.7934 33.756 21.7357 33.7109 21.649 33.6884C21.1227 33.5372 20.484 34.3513 20.4038 34.451L20.407 34.4478Z" fill="#FF8500"/>
</g>
</svg>
