<svg width="16" height="18" viewBox="0 0 16 18" fill="none" xmlns="http://www.w3.org/2000/svg">
<path d="M10.4691 2.87814C9.86557 3.60928 8.84429 4.15474 8.03191 4.15474C7.93907 4.15474 7.84623 4.14313 7.7882 4.13153C7.7766 4.08511 7.75339 3.94584 7.75339 3.80658C7.75339 2.87814 8.22921 1.94971 8.73985 1.36944C9.38975 0.603482 10.4807 0.0348162 11.3859 0C11.4091 0.104449 11.4207 0.232108 11.4207 0.359768C11.4207 1.2882 11.0261 2.20503 10.4691 2.87814ZM11.1074 4.35203C11.618 4.35203 13.4632 4.39845 14.6702 6.13927C14.5658 6.2205 12.7321 7.25339 12.7321 9.56286C12.7321 12.2321 15.0648 13.1838 15.1344 13.207C15.1228 13.265 14.7631 14.4952 13.9043 15.7602C13.1383 16.8627 12.3259 17.9768 11.1074 17.9768C9.87718 17.9768 9.56383 17.2573 8.15957 17.2573C6.77853 17.2573 6.2911 18 5.17698 18C4.05126 18 3.27369 16.9671 2.38008 15.7137C1.33559 14.2282 0.5 11.9304 0.5 9.74855C0.5 6.25532 2.77466 4.39845 5.01451 4.39845C6.19826 4.39845 7.18472 5.17602 7.93907 5.17602C8.647 5.17602 9.74952 4.35203 11.1074 4.35203Z" fill="white"/>
</svg>
