<svg width="33" height="32" viewBox="0 0 33 32" fill="none" xmlns="http://www.w3.org/2000/svg">
<path fill-rule="evenodd" clip-rule="evenodd" d="M23.4426 13.6207L15.9986 21.066C15.7478 21.3151 15.4087 21.4548 15.0553 21.4548C14.7018 21.4548 14.3627 21.3151 14.1119 21.066L9.55725 16.5113C9.43346 16.3875 9.33526 16.2406 9.26826 16.0788C9.20127 15.9171 9.16679 15.7437 9.16679 15.5686C9.16679 15.2151 9.30724 14.876 9.55725 14.626C9.80726 14.376 10.1463 14.2355 10.4999 14.2355C10.8535 14.2355 11.1926 14.376 11.4426 14.626L15.0546 18.238L21.5573 11.7353C21.681 11.6115 21.828 11.5133 21.9897 11.4463C22.1515 11.3793 22.3248 11.3449 22.4999 11.3449C22.675 11.3449 22.8483 11.3793 23.0101 11.4463C23.1718 11.5133 23.3188 11.6115 23.4426 11.7353C23.5664 11.8591 23.6646 12.0061 23.7316 12.1678C23.7986 12.3296 23.833 12.5029 23.833 12.678C23.833 12.8531 23.7986 13.0264 23.7316 13.1882C23.6646 13.3499 23.5664 13.4969 23.4426 13.6207ZM16.4999 1.33398C8.39992 1.33398 1.83325 7.90065 1.83325 16.0007C1.83325 24.1006 8.39992 30.6673 16.4999 30.6673C24.5999 30.6673 31.1666 24.1006 31.1666 16.0007C31.1666 7.90065 24.5999 1.33398 16.4999 1.33398Z" fill="#FFFBF4"/>
</svg>
