<svg width="21" height="21" viewBox="0 0 21 21" fill="none" xmlns="http://www.w3.org/2000/svg">
<g clip-path="url(#clip0_966_11971)">
<path d="M13.4845 3.89173C13.4949 3.71944 13.5371 3.55758 13.6081 3.40962C11.8202 3.22889 10.0233 3.22542 8.23438 3.39969C8.30687 3.54716 8.35056 3.70902 8.36247 3.88131C10.0675 3.72044 11.7794 3.72391 13.4845 3.89173Z" fill="#4E5968"/>
<path d="M4.75074 5.24218C4.84011 5.75855 4.49256 6.24513 3.97619 6.3345L3.08247 6.48842C2.5661 6.57282 2.07952 6.23023 1.99015 5.71386L1.66246 3.78244C1.57308 3.26608 1.92064 2.7795 2.43204 2.69012L3.33072 2.53621C3.84213 2.4518 4.33367 2.79439 4.41808 3.31076L4.52731 3.94629L5.80334 3.73776C5.78844 3.81223 5.77851 3.88671 5.77851 3.97112C5.77851 4.06049 5.78844 4.14986 5.8083 4.23427L4.61172 4.43287L4.75074 5.24218Z" fill="#4E5968"/>
<path d="M20.0618 3.78244L19.7341 5.71386C19.6448 6.23023 19.1582 6.57282 18.6418 6.48842L17.7481 6.3345C17.2317 6.24513 16.8892 5.75855 16.9736 5.24218L17.1126 4.43287L16.0352 4.24916C16.055 4.15979 16.0649 4.06545 16.0649 3.97112C16.0649 3.89664 16.055 3.82216 16.0451 3.75265L17.197 3.94629L17.3062 3.31076C17.3906 2.79439 17.8822 2.4518 18.3936 2.53621L19.2923 2.69012C19.8037 2.7795 20.1512 3.26608 20.0618 3.78244Z" fill="#4E5968"/>
<path d="M12.4379 9.98682C12.4021 9.84829 12.3718 9.71026 12.351 9.57869C12.3425 9.58614 12.3366 9.59557 12.3276 9.60302C11.5009 10.3076 10.3009 10.2718 9.50846 9.57422C9.48612 9.72019 9.45335 9.87411 9.41263 10.029C9.20509 10.8219 8.73043 11.6377 7.64258 11.5672L7.71358 11.9004L7.90027 12.7767L8.48069 15.5001L8.48217 15.5075L9.38086 15.7036C10.4002 15.9261 11.4553 15.9261 12.4746 15.7026L13.3728 15.506L13.3778 15.4817L13.9542 12.7767L14.2178 11.5384H14.2169C13.1166 11.6089 12.6429 10.7812 12.4379 9.98682Z" fill="#FF901C"/>
<path d="M6.52826 12.7764C5.43892 12.7764 4.56705 13.6805 4.60677 14.7694L4.69565 17.1878L4.66288 16.2981L7.1057 16.2286V16.2296L7.09726 16.0007C7.08535 15.6809 7.35346 15.4213 7.67272 15.4436L8.48103 15.4997L7.90061 12.7764H6.52777H6.52826Z" fill="#FFCCA8"/>
<path d="M13.3794 15.5002L14.1922 15.4441C14.5114 15.4217 14.7796 15.6814 14.7676 16.0012L14.7562 16.3175L14.7607 16.2291L17.2025 16.2986L17.2586 14.7703C17.2988 13.6815 16.427 12.7773 15.3371 12.7773H13.9554L13.3789 15.4823V15.5012L13.3794 15.5002Z" fill="#FFCCA8"/>
<path d="M9.51003 9.57628C9.49017 9.72026 9.45542 9.87418 9.41569 10.0281C9.20716 10.8225 8.73051 11.6368 7.64316 11.5673L7.71763 11.8999L5.95999 4.61119C5.89048 4.49699 5.83587 4.3679 5.81104 4.23384C5.79118 4.14944 5.78125 4.06006 5.78125 3.97069C5.78125 3.88629 5.79118 3.81181 5.80608 3.73733C5.91531 3.13159 6.44161 2.6748 7.07714 2.6748C7.58854 2.6748 8.02547 2.97271 8.234 3.39971C8.30848 3.54866 8.35317 3.70754 8.3631 3.88132C8.36806 3.91111 8.37303 3.93594 8.37303 3.97069C8.37303 4.24874 8.27869 4.51189 8.12477 4.72539L8.81988 7.53563C8.81492 7.57038 8.80002 7.60514 8.79506 7.63989C8.53191 7.76898 8.3482 8.03213 8.3482 8.34493C8.3482 8.77193 8.69576 9.12445 9.12275 9.12445C9.16248 9.18403 9.2022 9.24362 9.24688 9.29823C9.26178 9.31809 9.27171 9.34292 9.2866 9.35781C9.35611 9.44222 9.43555 9.50677 9.51003 9.57628Z" fill="#FFCCA8"/>
<path d="M16.0694 3.97069C16.0694 4.06503 16.0594 4.15937 16.0396 4.24874C16.0098 4.38279 15.9552 4.50196 15.8906 4.61615L14.2174 11.5375C13.1201 11.607 12.6434 10.7828 12.4399 9.98838C12.4051 9.84936 12.3753 9.71033 12.3555 9.57628C12.4448 9.5018 12.5243 9.41243 12.5938 9.32306C12.6484 9.25851 12.6931 9.189 12.7378 9.11949C13.1499 9.09963 13.4776 8.762 13.4776 8.34493C13.4776 8.04703 13.3088 7.78885 13.0605 7.65975V7.64982L13.0655 7.65479C13.0605 7.6101 13.0456 7.56542 13.0357 7.52073L13.7258 4.72042C13.5719 4.51189 13.4776 4.24874 13.4776 3.97069C13.4776 3.9409 13.4875 3.91608 13.4875 3.89125C13.4974 3.71747 13.5421 3.55859 13.6116 3.40964C13.8202 2.97271 14.2621 2.6748 14.7735 2.6748C15.4189 2.6748 15.9452 3.14152 16.0495 3.75223C16.0594 3.82174 16.0694 3.89622 16.0694 3.97069Z" fill="#FFCCA8"/>
<path d="M13.0629 7.65471L13.058 7.64975L10.928 6.39855L8.84758 7.61996C8.82772 7.62492 8.81283 7.63485 8.79297 7.63982C8.79793 7.60506 8.81283 7.57031 8.81779 7.53555C8.82276 7.52562 8.82276 7.51569 8.82772 7.50576C8.83765 7.44618 8.85255 7.3866 8.86744 7.32702C8.89227 7.25751 8.9171 7.18799 8.94689 7.12345C8.97171 7.06387 8.99654 7.00429 9.02633 6.94967C9.05612 6.89009 9.09584 6.83051 9.13556 6.77093C9.17528 6.71631 9.20507 6.66169 9.24479 6.61204C9.30934 6.5326 9.38381 6.45813 9.45829 6.38861C9.48312 6.36875 9.50298 6.33896 9.5278 6.3191C9.57249 6.27938 9.61717 6.25456 9.66186 6.22477C9.72144 6.18008 9.78102 6.1354 9.84557 6.09567C9.90515 6.06092 9.96969 6.03609 10.0293 6.0063C10.0938 5.98148 10.1534 5.95169 10.2179 5.92686C10.2775 5.907 10.3421 5.89211 10.4066 5.87721C10.4712 5.85735 10.5407 5.84246 10.6102 5.83253C10.6747 5.82259 10.7393 5.81763 10.7989 5.81266C10.8435 5.81266 10.8833 5.80273 10.928 5.80273C10.9577 5.80273 10.9875 5.8077 11.0173 5.8077C11.0819 5.81266 11.1415 5.81763 11.206 5.82756C11.2755 5.83749 11.345 5.84742 11.4145 5.86232C11.4791 5.87721 11.5387 5.89707 11.6032 5.91693C11.6628 5.93679 11.7224 5.96162 11.782 5.98644C11.8465 6.01623 11.911 6.04602 11.9756 6.08078C12.0252 6.11057 12.0749 6.14036 12.1245 6.17512C12.1841 6.21484 12.2487 6.25952 12.3083 6.30917C12.3579 6.34889 12.3976 6.39358 12.4423 6.43827C12.4671 6.45813 12.487 6.47799 12.5069 6.50281C12.5317 6.52267 12.5515 6.54253 12.5714 6.56239C12.5764 6.57232 12.5813 6.58225 12.5913 6.59218C12.6459 6.65673 12.6906 6.73121 12.7352 6.80072C12.7899 6.88512 12.8395 6.9745 12.8842 7.06883C12.914 7.14331 12.9487 7.21282 12.9736 7.2873C12.9984 7.34688 13.0083 7.41639 13.0232 7.48093C13.0232 7.49086 13.0282 7.50576 13.0332 7.52065C13.0431 7.56534 13.058 7.61003 13.0629 7.65471Z" fill="#333333"/>
<path d="M13.0576 7.65957V7.64964L10.9275 6.39844L8.84718 7.61985C8.82732 7.62481 8.81242 7.63474 8.79256 7.63971C8.52941 7.7688 8.3457 8.03195 8.3457 8.34475C8.3457 8.77175 8.69326 9.12427 9.12026 9.12427C9.15998 9.18385 9.1997 9.24343 9.24438 9.29805C9.25928 9.31791 9.26921 9.34273 9.2841 9.35763C9.35362 9.44204 9.43306 9.50658 9.50753 9.57609C10.3019 10.2712 11.4985 10.306 12.3277 9.60092C12.3376 9.59595 12.3426 9.58602 12.3525 9.57609C12.4419 9.50162 12.5213 9.41225 12.5909 9.32287C12.6455 9.25833 12.6902 9.18882 12.7348 9.11931C13.1469 9.09945 13.4746 8.76182 13.4746 8.34475C13.4746 8.04685 13.3058 7.78866 13.0576 7.65957ZM10.5651 8.01706C10.4608 8.01706 10.3764 7.88796 10.3764 7.72908C10.3764 7.56523 10.4608 7.44111 10.5651 7.44111C10.6743 7.44111 10.7587 7.56523 10.7587 7.72908C10.7587 7.88796 10.6743 8.01706 10.5651 8.01706ZM11.3297 8.01706C11.2255 8.01706 11.1361 7.88796 11.1361 7.72908C11.1361 7.56523 11.2255 7.44111 11.3297 7.44111C11.434 7.44111 11.5184 7.56523 11.5184 7.72908C11.5184 7.88796 11.434 8.01706 11.3297 8.01706Z" fill="#FFA49B"/>
<path d="M4.66244 16.298L4.69521 17.1878L4.70811 17.5348L3.53437 18.286C3.13369 18.5393 2.90331 18.9901 2.9321 19.4633L2.94154 19.6167C2.94998 19.7537 3.06368 19.8605 3.20071 19.8605H6.99305C7.14051 19.8605 7.25868 19.7378 7.25272 19.5899L7.16881 17.5328L7.10526 16.2295V16.2285L4.66244 16.298Z" fill="#4E5968"/>
<path d="M14.755 16.3174L14.6955 17.5333L14.6115 19.5904C14.6056 19.7378 14.7233 19.861 14.8712 19.861H18.6636C18.8006 19.861 18.9143 19.7542 18.9227 19.6172L18.9322 19.4638C18.9615 18.9911 18.7306 18.5398 18.3299 18.2865L17.1562 17.5353L17.2013 16.298H17.2003L14.7585 16.2285L14.754 16.3169L14.755 16.3174Z" fill="#4E5968"/>
<path d="M10.5667 8.01443C10.6724 8.01443 10.7578 7.88533 10.7578 7.72645C10.7578 7.56757 10.6719 7.43848 10.5667 7.43848C10.4614 7.43848 10.375 7.56757 10.375 7.72645C10.375 7.88533 10.4609 8.01443 10.5667 8.01443Z" fill="black"/>
<path d="M11.3284 8.01443C11.4341 8.01443 11.5195 7.88533 11.5195 7.72645C11.5195 7.56757 11.4336 7.43848 11.3284 7.43848C11.2231 7.43848 11.1367 7.56757 11.1367 7.72645C11.1367 7.88533 11.2226 8.01443 11.3284 8.01443Z" fill="black"/>
</g>
<defs>
<clipPath id="clip0_966_11971">
<rect width="19.8604" height="19.8604" fill="white" transform="translate(0.828125 0.783203)"/>
</clipPath>
</defs>
</svg>
