<svg width="30" height="30" viewBox="0 0 30 30" fill="none" xmlns="http://www.w3.org/2000/svg">
<path fill-rule="evenodd" clip-rule="evenodd" d="M5.6383 3.33333C5.02698 3.33333 4.44071 3.57618 4.00844 4.00844C3.57618 4.44071 3.33333 5.02698 3.33333 5.6383V8.90071C3.33333 9.82118 2.58714 10.5674 1.66667 10.5674C0.746192 10.5674 0 9.82118 0 8.90071V5.6383C0 4.14293 0.594034 2.70881 1.65142 1.65142C2.70881 0.594034 4.14293 0 5.6383 0H8.90071C9.82118 0 10.5674 0.746192 10.5674 1.66667C10.5674 2.58714 9.82118 3.33333 8.90071 3.33333H5.6383ZM19.4326 1.66667C19.4326 0.746192 20.1788 0 21.0993 0H24.3617C25.8571 0 27.2912 0.594033 28.3486 1.65142C29.406 2.70881 30 4.14293 30 5.6383V8.90071C30 9.82118 29.2538 10.5674 28.3333 10.5674C27.4129 10.5674 26.6667 9.82118 26.6667 8.90071V5.6383C26.6667 5.02698 26.4238 4.44071 25.9916 4.00844C25.5593 3.57618 24.973 3.33333 24.3617 3.33333H21.0993C20.1788 3.33333 19.4326 2.58714 19.4326 1.66667ZM1.66667 19.4326C2.58714 19.4326 3.33333 20.1788 3.33333 21.0993V24.3617C3.33333 24.973 3.57618 25.5593 4.00844 25.9916C4.44071 26.4238 5.02698 26.6667 5.6383 26.6667H8.90071C9.82118 26.6667 10.5674 27.4129 10.5674 28.3333C10.5674 29.2538 9.82118 30 8.90071 30H5.6383C4.14293 30 2.70881 29.406 1.65142 28.3486C0.594033 27.2912 0 25.8571 0 24.3617V21.0993C0 20.1788 0.746192 19.4326 1.66667 19.4326ZM28.3333 19.4326C29.2538 19.4326 30 20.1788 30 21.0993V24.3617C30 25.8571 29.406 27.2912 28.3486 28.3486C27.2912 29.406 25.8571 30 24.3617 30H21.0993C20.1788 30 19.4326 29.2538 19.4326 28.3333C19.4326 27.4129 20.1788 26.6667 21.0993 26.6667H24.3617C24.973 26.6667 25.5593 26.4238 25.9916 25.9916C26.4238 25.5593 26.6667 24.973 26.6667 24.3617V21.0993C26.6667 20.1788 27.4129 19.4326 28.3333 19.4326Z" fill="white"/>
</svg>
