<svg width="120" height="48" viewBox="0 0 120 48" fill="none" xmlns="http://www.w3.org/2000/svg">
<rect width="120" height="48" rx="5" fill="#1D1E18"/>
<path d="M32.4902 18.4824V25.7773C33.8379 25.7554 35.105 25.6748 36.5625 25.3672L36.7529 26.5537C35.0464 26.9126 33.5889 26.9785 31.9629 26.9785H31.0986V18.4824H32.4902ZM34.7754 22.584V21.4414H37.6465V17.4131H38.9648V29.6006H37.6465V22.584H34.7754ZM40.459 30.2451V17.1201H41.7773V30.2451H40.459ZM45.8203 27.9893L44.6484 32.0322H43.4033L44.1797 27.9893H45.8203ZM54.1406 21.0312V22.4668H59.4727V23.5947H47.4609V22.4668H52.7637V21.0312H54.1406ZM48.0762 20.7676C50.4126 20.6064 52.2803 19.6982 52.5073 18.5703H48.5742V17.501H58.374V18.5703H54.397C54.624 19.7056 56.4697 20.6064 58.8428 20.7676L58.3887 21.8076C56.0742 21.6099 54.1553 20.7676 53.4668 19.4565C52.7637 20.7603 50.8447 21.6099 48.5303 21.8076L48.0762 20.7676ZM48.5742 26.2754V25.2061H52.7637V24.0488H54.1406V25.2061H58.3301V26.2754H48.5742ZM49.4678 28.5605C49.4604 27.4253 50.8887 26.8394 53.4375 26.832C55.9863 26.8394 57.4438 27.4253 57.4512 28.5605C57.4438 29.7104 55.9863 30.311 53.4375 30.3037C50.8887 30.311 49.4604 29.7104 49.4678 28.5605ZM50.8887 28.5605C50.874 29.0879 51.7969 29.3662 53.4375 29.3516C55.1074 29.3662 56.0083 29.0879 56.0156 28.5605C56.0083 28.0332 55.1074 27.7915 53.4375 27.7842C51.7969 27.7915 50.874 28.0332 50.8887 28.5605ZM63.9551 18.1016C65.918 18.1089 67.3169 19.896 67.3242 22.7012C67.3169 25.5356 65.918 27.3228 63.9551 27.3154C61.9922 27.3228 60.5933 25.5356 60.6006 22.7012C60.5933 19.896 61.9922 18.1089 63.9551 18.1016ZM61.9336 22.7012C61.9263 24.7886 62.7612 26.0703 63.9551 26.0703C65.1709 26.0703 65.9912 24.7886 65.9912 22.7012C65.9912 20.6431 65.1709 19.354 63.9551 19.3467C62.7612 19.354 61.9263 20.6431 61.9336 22.7012ZM69.2725 30.2451V17.1201H70.6641V22.2617H72.7734V23.4336H70.6641V30.2451H69.2725ZM85.415 27.4473V28.6045H73.4033V27.4473H76.2744V24.0195C75.1978 23.4263 74.5386 22.4888 74.5459 21.3096C74.5386 19.2441 76.5674 17.8892 79.3799 17.8818C82.1997 17.8892 84.2285 19.2441 84.2285 21.3096C84.2285 22.4668 83.5986 23.397 82.5439 23.9902V27.4473H85.415ZM75.8936 21.3096C75.8936 22.7158 77.3218 23.6313 79.3799 23.6387C81.4233 23.6313 82.8735 22.7158 82.8809 21.3096C82.8735 19.896 81.4233 18.9951 79.3799 18.9951C77.3218 18.9951 75.8936 19.896 75.8936 21.3096ZM77.6514 27.4473H81.1377V24.5322C80.603 24.6567 80.0098 24.7227 79.3799 24.7227C78.7646 24.7227 78.1787 24.6567 77.6514 24.5322V27.4473ZM88.7842 18.3945L88.6523 25.9385H87.2021L87.0703 18.3945H88.7842ZM86.8945 28.0625C86.8872 27.4912 87.3633 27.0225 87.9346 27.0225C88.4985 27.0225 88.9673 27.4912 88.9746 28.0625C88.9673 28.6338 88.4985 29.0952 87.9346 29.1025C87.3633 29.0952 86.8872 28.6338 86.8945 28.0625Z" fill="white"/>
</svg>
