<?xml version="1.0" encoding="UTF-8"?>
<svg id="_레이어_1" data-name="레이어 1" xmlns="http://www.w3.org/2000/svg" viewBox="0 0 44 44">
  <defs>
    <style>
      .cls-1 {
        stroke: #1d1e18;
        stroke-linecap: round;
        stroke-linejoin: round;
        stroke-width: 2px;
      }

      .cls-1, .cls-2 {
        fill: none;
      }

      .cls-3 {
        fill: #1d1e18;
      }

      .cls-3, .cls-4 {
        stroke-width: 0px;
      }

      .cls-4 {
        fill: #fff;
      }

      .cls-2 {
        stroke: rgba(0, 0, 0, .15);
      }
    </style>
  </defs>
  <g>
    <path class="cls-4" d="M22,0h0c12.15,0,22,9.85,22,22h0c0,12.15-9.85,22-22,22h0C9.85,44,0,34.15,0,22h0C0,9.85,9.85,0,22,0Z" shape-rendering="crispEdges"/>
    <path class="cls-2" d="M22,.5h0c11.87,0,21.5,9.63,21.5,21.5h0c0,11.87-9.63,21.5-21.5,21.5h0C10.13,43.5.5,33.87.5,22h0C.5,10.13,10.13.5,22,.5Z" shape-rendering="crispEdges"/>
  </g>
  <g>
    <path class="cls-1" d="M17.51,29.8c1.32.76,2.85,1.2,4.49,1.2,4.97,0,9-4.03,9-9s-4.03-9-9-9-9,4.03-9,9c0,1.64.44,3.17,1.2,4.49h0c.07.13.11.2.13.26.02.06.02.11.02.17,0,.06-.03.13-.07.26l-.77,2.31h0c-.16.49-.24.73-.19.9.05.14.16.25.3.3.16.06.4-.02.89-.18h0s2.31-.77,2.31-.77c.13-.04.2-.07.26-.07.06,0,.11,0,.17.02.06.02.12.05.25.13h0Z"/>
    <circle class="cls-3" cx="18" cy="22" r="1"/>
    <circle class="cls-3" cx="22" cy="22" r="1"/>
    <circle class="cls-3" cx="26" cy="22" r="1"/>
  </g>
</svg>