<svg width="45" height="44" viewBox="0 0 45 44" fill="none" xmlns="http://www.w3.org/2000/svg">
<rect x="0.75" width="44" height="44" rx="22" fill="white"/>
<rect x="1.25" y="0.5" width="43" height="43" rx="21.5" stroke="black" stroke-opacity="0.15"/>
<path d="M18.2598 29.8018C19.5813 30.5639 21.1145 31 22.7496 31C27.7202 31 31.75 26.9706 31.75 22C31.75 17.0294 27.7206 13 22.75 13C17.7794 13 13.75 17.0294 13.75 22C13.75 23.6351 14.186 25.1684 14.9482 26.4899L14.9511 26.495C15.0245 26.6221 15.0615 26.6863 15.0782 26.7469C15.094 26.804 15.0984 26.8554 15.0944 26.9146C15.09 26.9781 15.0686 27.044 15.0247 27.1758L14.2559 29.4823L14.2549 29.4853C14.0927 29.9719 14.0116 30.2152 14.0694 30.3774C14.1198 30.5187 14.2317 30.6303 14.373 30.6807C14.5348 30.7384 14.777 30.6577 15.2615 30.4962L15.2676 30.4939L17.574 29.7251C17.7054 29.6813 17.7721 29.6591 17.8356 29.6548C17.8948 29.6507 17.9458 29.6561 18.0029 29.6719C18.0637 29.6887 18.1278 29.7257 18.2556 29.7994L18.2598 29.8018Z" stroke="black" stroke-width="2" stroke-linecap="round" stroke-linejoin="round"/>
</svg>
