<svg width="44" height="44" viewBox="0 0 44 44" fill="none" xmlns="http://www.w3.org/2000/svg">
<rect width="44" height="44" rx="22" fill="white"/>
<rect x="0.5" y="0.5" width="43" height="43" rx="21.5" stroke="black" stroke-opacity="0.15"/>
<path d="M19 16L22 13M22 13L25 16M22 13V23M17.0002 20C16.0683 20 15.6024 20 15.2349 20.1522C14.7448 20.3552 14.3552 20.7448 14.1522 21.2349C14 21.6024 14 22.0681 14 23V27.8C14 28.9201 14 29.4798 14.218 29.9076C14.4097 30.2839 14.7155 30.5905 15.0918 30.7822C15.5192 31 16.079 31 17.1969 31H26.8036C27.9215 31 28.4805 31 28.9079 30.7822C29.2842 30.5905 29.5905 30.2839 29.7822 29.9076C30 29.4802 30 28.921 30 27.8031V23C30 22.0681 29.9999 21.6024 29.8477 21.2349C29.6447 20.7448 29.2554 20.3552 28.7654 20.1522C28.3978 20 27.9319 20 27 20" stroke="#1D1E18" stroke-width="2" stroke-linecap="round" stroke-linejoin="round"/>
</svg>
