<svg width="52" height="53" viewBox="0 0 52 53" fill="none" xmlns="http://www.w3.org/2000/svg">
<g filter="url(#filter0_bd_1576_32875)">
<rect x="4" y="3.21289" width="44" height="44" rx="22" fill="white" fill-opacity="0.75" shape-rendering="crispEdges"/>
<path d="M23 19.2129L26 16.2129M26 16.2129L29 19.2129M26 16.2129V26.2129M21.0002 23.2129C20.0683 23.2129 19.6024 23.2129 19.2349 23.3651C18.7448 23.5681 18.3552 23.9577 18.1522 24.4478C18 24.8153 18 25.281 18 26.2129V31.0129C18 32.133 18 32.6927 18.218 33.1205C18.4097 33.4968 18.7155 33.8034 19.0918 33.9951C19.5192 34.2129 20.079 34.2129 21.1969 34.2129H30.8036C31.9215 34.2129 32.4805 34.2129 32.9079 33.9951C33.2842 33.8034 33.5905 33.4968 33.7822 33.1205C34 32.6931 34 32.1339 34 31.016V26.2129C34 25.281 33.9999 24.8153 33.8477 24.4478C33.6447 23.9577 33.2554 23.5681 32.7654 23.3651C32.3978 23.2129 31.9319 23.2129 31 23.2129" stroke="#1D1E18" stroke-width="2" stroke-linecap="round" stroke-linejoin="round"/>
</g>
<defs>
<filter id="filter0_bd_1576_32875" x="0" y="-0.787109" width="52" height="53" filterUnits="userSpaceOnUse" color-interpolation-filters="sRGB">
<feFlood flood-opacity="0" result="BackgroundImageFix"/>
<feGaussianBlur in="BackgroundImageFix" stdDeviation="2"/>
<feComposite in2="SourceAlpha" operator="in" result="effect1_backgroundBlur_1576_32875"/>
<feColorMatrix in="SourceAlpha" type="matrix" values="0 0 0 0 0 0 0 0 0 0 0 0 0 0 0 0 0 0 127 0" result="hardAlpha"/>
<feOffset dy="1"/>
<feGaussianBlur stdDeviation="2"/>
<feComposite in2="hardAlpha" operator="out"/>
<feColorMatrix type="matrix" values="0 0 0 0 0 0 0 0 0 0 0 0 0 0 0 0 0 0 0.1 0"/>
<feBlend mode="normal" in2="effect1_backgroundBlur_1576_32875" result="effect2_dropShadow_1576_32875"/>
<feBlend mode="normal" in="SourceGraphic" in2="effect2_dropShadow_1576_32875" result="shape"/>
</filter>
</defs>
</svg>
