<svg width="52" height="52" viewBox="0 0 52 52" fill="none" xmlns="http://www.w3.org/2000/svg">
<g filter="url(#filter0_bd_1541_1822)">
<rect x="4" y="3" width="44" height="44" rx="22" fill="white" fill-opacity="0.75" shape-rendering="crispEdges"/>
<path d="M23 19L26 16M26 16L29 19M26 16V26M21.0002 23C20.0683 23 19.6024 23 19.2349 23.1522C18.7448 23.3552 18.3552 23.7448 18.1522 24.2349C18 24.6024 18 25.0681 18 26V30.8C18 31.9201 18 32.4798 18.218 32.9076C18.4097 33.2839 18.7155 33.5905 19.0918 33.7822C19.5192 34 20.079 34 21.1969 34H30.8036C31.9215 34 32.4805 34 32.9079 33.7822C33.2842 33.5905 33.5905 33.2839 33.7822 32.9076C34 32.4802 34 31.921 34 30.8031V26C34 25.0681 33.9999 24.6024 33.8477 24.2349C33.6447 23.7448 33.2554 23.3552 32.7654 23.1522C32.3978 23 31.9319 23 31 23" stroke="#353028" stroke-width="2" stroke-linecap="round" stroke-linejoin="round"/>
</g>
<defs>
<filter id="filter0_bd_1541_1822" x="0" y="-1" width="52" height="53" filterUnits="userSpaceOnUse" color-interpolation-filters="sRGB">
<feFlood flood-opacity="0" result="BackgroundImageFix"/>
<feGaussianBlur in="BackgroundImageFix" stdDeviation="2"/>
<feComposite in2="SourceAlpha" operator="in" result="effect1_backgroundBlur_1541_1822"/>
<feColorMatrix in="SourceAlpha" type="matrix" values="0 0 0 0 0 0 0 0 0 0 0 0 0 0 0 0 0 0 127 0" result="hardAlpha"/>
<feOffset dy="1"/>
<feGaussianBlur stdDeviation="2"/>
<feComposite in2="hardAlpha" operator="out"/>
<feColorMatrix type="matrix" values="0 0 0 0 0 0 0 0 0 0 0 0 0 0 0 0 0 0 0.05 0"/>
<feBlend mode="normal" in2="effect1_backgroundBlur_1541_1822" result="effect2_dropShadow_1541_1822"/>
<feBlend mode="normal" in="SourceGraphic" in2="effect2_dropShadow_1541_1822" result="shape"/>
</filter>
</defs>
</svg>
