<svg width="1231" height="309" viewBox="0 0 1231 309" fill="none" xmlns="http://www.w3.org/2000/svg">
<g filter="url(#filter0_d_11408_24232)">
<path fill-rule="evenodd" clip-rule="evenodd" d="M64.7153 149.778C44.5768 163.962 25.2444 186.002 32.0415 207.97C36.5285 219.252 47.8099 226.296 61.3279 227.786C47.815 226.293 36.5389 219.25 32.0532 207.971C25.2561 186.003 44.5884 163.963 64.727 149.779C68.2818 81.4058 124.846 27.0554 194.103 27.0554C199.026 27.0554 203.884 27.33 208.664 27.8646C203.88 27.3291 199.018 27.0541 194.092 27.0541C124.834 27.0541 68.2701 81.4045 64.7153 149.778ZM315.597 227.762C311.148 227.271 306.603 226.216 302.095 224.557C302.094 224.558 302.093 224.559 302.093 224.559C306.601 226.217 311.148 227.272 315.597 227.762ZM176.484 273.393C138.788 269.256 106.247 251.847 86.1175 224.561C86.1146 224.562 86.1118 224.563 86.109 224.564C106.241 251.85 138.785 269.259 176.484 273.393ZM7.45795 217.747C19.103 247.027 49.132 256.912 76.261 253.839C105.642 284.435 148.411 300.803 194.093 300.803C239.776 300.803 282.545 284.435 311.926 253.838C339.059 256.914 369.094 247.031 380.741 217.747L381.125 216.782L381.432 215.79C387.962 194.683 381.124 175.448 372.116 161.555C365.68 151.629 357.296 142.975 348.729 135.823C338.555 59.4804 273.207 0.597656 194.092 0.597656C114.971 0.597656 49.6236 59.4873 39.4553 135.836C30.8912 142.987 22.5104 151.64 16.077 161.565C7.07226 175.457 0.23822 194.688 6.76713 215.79L7.07412 216.782L7.45795 217.747Z" fill="url(#paint0_linear_11408_24232)"/>
<path d="M1155.51 151.965C1151.19 152.748 1147.89 148.432 1149.5 144.347V144.347C1150.4 142.067 1152.63 140.581 1155.08 140.704C1170.46 141.476 1183.24 144.375 1193.43 149.399C1204.7 154.642 1213.11 162.07 1218.65 171.683C1224.19 181.078 1226.96 192.001 1226.96 204.455C1226.96 217.782 1224.19 229.689 1218.65 240.175C1213.11 250.444 1204.8 258.637 1193.72 264.754C1182.84 270.653 1169.2 273.602 1152.78 273.602H1007.43C997.364 273.602 989.61 264.719 990.971 254.743L1005.29 149.739C1005.5 148.209 1005.5 146.657 1005.28 145.128L991.129 46.7966C989.688 36.7825 997.457 27.8164 1007.57 27.8164H1146.84C1167.41 27.8164 1183.44 33.1691 1194.91 43.8744C1206.38 54.3613 1212.12 68.9992 1212.12 87.7882C1212.12 98.0566 1209.94 107.888 1205.59 117.283C1201.24 126.677 1194.22 134.651 1184.53 141.206C1176.98 146.241 1167.31 149.828 1155.51 151.965ZM1052.19 236.241C1051.1 244.169 1040.95 246.79 1036.16 240.378V240.378C1031.76 234.48 1035.97 226.084 1043.33 226.084H1136.16C1145.06 226.084 1151.99 223.681 1156.93 218.874C1161.88 214.068 1164.35 207.404 1164.35 198.883C1164.35 190.363 1161.68 183.59 1156.34 178.565C1151 173.322 1143.08 170.7 1132.6 170.7H1057.83C1048.65 170.7 1041.21 163.262 1041.21 154.086V140.779C1041.21 131.603 1048.65 124.165 1057.83 124.165H1124.29C1131.41 124.165 1137.35 121.871 1142.1 117.283C1147.04 112.476 1149.51 106.031 1149.51 97.9473C1149.51 91.393 1147.44 86.0404 1143.28 81.8893C1139.13 77.5198 1133.19 75.335 1125.48 75.335H1043.51C1036.16 75.335 1031.94 66.9815 1036.3 61.0719V61.0719C1041.05 54.6351 1051.21 57.1799 1052.36 65.0939L1064.02 145.109C1064.24 146.65 1064.25 148.215 1064.04 149.759L1052.19 236.241Z" fill="#1D1E18"/>
<path d="M791.117 151.921C791.117 142.745 798.556 135.307 807.732 135.307H872.12C882.01 135.307 889.725 132.794 895.263 127.769C900.802 122.744 903.571 115.753 903.571 106.796C903.571 97.6196 900.802 90.6284 895.263 85.8219C889.725 80.7969 882.01 78.2845 872.12 78.2845H801.384C793.947 78.2845 789.921 69.5747 794.739 63.9096V63.9096C799.997 57.7279 810.107 61.446 810.107 69.5612V256.988C810.107 266.164 802.669 273.602 793.493 273.602H765.302C756.126 273.602 748.688 266.164 748.688 256.988V44.4306C748.688 35.2548 756.126 27.8164 765.302 27.8164H880.725C897.736 27.8164 912.572 31.2028 925.231 37.9756C937.891 44.5299 947.782 53.7059 954.903 65.5036C962.024 77.0828 965.584 90.8469 965.584 106.796C965.584 122.307 962.024 135.962 954.903 147.76C947.782 159.558 937.891 168.734 925.231 175.288C912.572 181.842 897.736 185.119 880.725 185.119H807.732C798.556 185.119 791.117 177.681 791.117 168.505V151.921ZM841.865 184.492C834.408 173.458 842.313 158.575 855.63 158.575H884.789C890.235 158.575 895.335 161.243 898.439 165.717L955.198 247.517C962.843 258.534 954.959 273.602 941.548 273.602H910.912C905.394 273.602 900.236 270.863 897.147 266.291L841.865 184.492Z" fill="#1D1E18"/>
<path d="M590.185 278.839C563.877 278.839 540.733 273.487 520.755 262.781C500.974 252.076 485.545 237.11 474.468 217.884C463.588 198.658 458.148 176.265 458.148 150.703C458.148 125.141 463.588 102.747 474.468 83.5213C485.545 64.2954 500.974 49.3298 520.755 38.6244C540.733 27.9191 563.877 22.5664 590.185 22.5664C616.692 22.5664 639.835 27.9191 659.616 38.6244C679.397 49.3298 694.826 64.2954 705.903 83.5213C716.981 102.747 722.519 125.141 722.519 150.703C722.519 176.265 716.981 198.658 705.903 217.884C694.826 237.11 679.397 252.076 659.616 262.781C639.835 273.487 616.692 278.839 590.185 278.839ZM590.185 218.212C604.625 218.212 617.087 215.481 627.571 210.019C638.055 204.557 646.066 196.801 651.605 186.751C657.341 176.702 660.21 164.685 660.21 150.703C660.21 136.72 657.341 124.704 651.605 114.654C646.066 104.604 638.055 96.8484 627.571 91.3865C617.087 85.9246 604.625 83.1936 590.185 83.1936C575.943 83.1936 563.58 85.9246 553.096 91.3865C542.613 96.8484 534.502 104.604 528.766 114.654C523.03 124.704 520.161 136.72 520.161 150.703C520.161 164.685 523.03 176.702 528.766 186.751C534.502 196.801 542.613 204.557 553.096 210.019C563.58 215.481 575.943 218.212 590.185 218.212Z" fill="#1D1E18"/>
</g>
<defs>
<filter id="filter0_d_11408_24232" x="0.179688" y="0.597656" width="1230.78" height="308.205" filterUnits="userSpaceOnUse" color-interpolation-filters="sRGB">
<feFlood flood-opacity="0" result="BackgroundImageFix"/>
<feColorMatrix in="SourceAlpha" type="matrix" values="0 0 0 0 0 0 0 0 0 0 0 0 0 0 0 0 0 0 127 0" result="hardAlpha"/>
<feOffset dy="4"/>
<feGaussianBlur stdDeviation="2"/>
<feComposite in2="hardAlpha" operator="out"/>
<feColorMatrix type="matrix" values="0 0 0 0 0 0 0 0 0 0 0 0 0 0 0 0 0 0 0.25 0"/>
<feBlend mode="normal" in2="BackgroundImageFix" result="effect1_dropShadow_11408_24232"/>
<feBlend mode="normal" in="SourceGraphic" in2="effect1_dropShadow_11408_24232" result="shape"/>
</filter>
<linearGradient id="paint0_linear_11408_24232" x1="194.1" y1="0.597663" x2="904.358" y2="1041.31" gradientUnits="userSpaceOnUse">
<stop stop-color="#5E59FF"/>
<stop offset="1" stop-color="#383699"/>
</linearGradient>
</defs>
</svg>
