<svg width="18" height="17" viewBox="0 0 18 17" fill="none" xmlns="http://www.w3.org/2000/svg">
<path d="M7.46368 3.54232H6.18868C5.39527 3.54232 4.99827 3.54232 4.69523 3.69673C4.42867 3.83255 4.2121 4.04911 4.07628 4.31567C3.92188 4.61872 3.92188 5.01571 3.92188 5.80912V11.1925C3.92188 11.9859 3.92188 12.3824 4.07628 12.6854C4.2121 12.952 4.42867 13.1689 4.69523 13.3047C4.99798 13.459 5.3945 13.459 6.18635 13.459H11.5741C12.3659 13.459 12.7619 13.459 13.0646 13.3047C13.3312 13.1689 13.5485 12.9518 13.6843 12.6852C13.8385 12.3824 13.8385 11.9864 13.8385 11.1945V9.91732M14.5469 6.37565V2.83398M14.5469 2.83398H11.0052M14.5469 2.83398L9.58854 7.79232" stroke="#1D1E18" stroke-width="1.41667" stroke-linecap="round" stroke-linejoin="round"/>
</svg>
