<svg width="25" height="25" viewBox="0 0 25 25" fill="none" xmlns="http://www.w3.org/2000/svg">
<path d="M20.5002 17.8874V12.3394C20.5002 11.8051 20.4998 11.5378 20.4348 11.2891C20.3772 11.0688 20.2827 10.8603 20.1548 10.6718C20.0105 10.4592 19.8098 10.2829 19.4077 9.93103L14.6077 5.73103C13.8611 5.07775 13.4878 4.75127 13.0676 4.62703C12.6974 4.51755 12.3029 4.51755 11.9327 4.62703C11.5129 4.75118 11.1401 5.07735 10.3946 5.72964L5.59302 9.93103C5.19088 10.2829 4.99029 10.4592 4.84595 10.6718C4.71804 10.8603 4.62279 11.0688 4.56522 11.2891C4.50024 11.5378 4.50024 11.8051 4.50024 12.3394V17.8874C4.50024 18.8193 4.50024 19.285 4.65249 19.6526C4.85547 20.1426 5.24456 20.5324 5.73462 20.7354C6.10216 20.8877 6.5681 20.8877 7.49999 20.8877C8.43187 20.8877 8.89833 20.8877 9.26587 20.7354C9.75593 20.5324 10.1449 20.1427 10.3479 19.6526C10.5001 19.2851 10.5002 18.8192 10.5002 17.8873V16.8873C10.5002 15.7827 11.3957 14.8873 12.5002 14.8873C13.6048 14.8873 14.5002 15.7827 14.5002 16.8873V17.8873C14.5002 18.8192 14.5002 19.2851 14.6525 19.6526C14.8555 20.1427 15.2446 20.5324 15.7346 20.7354C16.1022 20.8877 16.5681 20.8877 17.5 20.8877C18.4319 20.8877 18.8983 20.8877 19.2659 20.7354C19.7559 20.5324 20.1449 20.1426 20.3479 19.6526C20.5001 19.285 20.5002 18.8193 20.5002 17.8874Z" stroke="#FFF7E7" stroke-width="2" stroke-linecap="round" stroke-linejoin="round"/>
</svg>
