<svg width="777" height="1020" viewBox="0 0 777 1020" fill="none" xmlns="http://www.w3.org/2000/svg">
<g filter="url(#filter0_d_11408_24233)">
<path fill-rule="evenodd" clip-rule="evenodd" d="M135.343 288.182C96.5207 315.526 59.2525 358.014 72.3556 400.363C72.4622 400.631 72.5708 400.898 72.6814 401.164C72.5723 400.902 72.4652 400.638 72.36 400.374C59.2569 358.024 96.5251 315.536 135.347 288.193C142.2 156.385 251.242 51.6098 384.755 51.6098C484.881 51.6098 571.247 110.535 611.071 195.598C571.249 110.53 484.881 51.5996 384.751 51.5996C251.238 51.5996 142.196 156.374 135.343 288.182ZM634.166 288.167C634.166 288.169 634.166 288.171 634.167 288.174C658.312 305.175 681.86 328.035 693.068 353.078C681.862 328.033 658.313 305.17 634.166 288.167ZM24.9643 419.212C47.4131 475.656 105.302 494.711 157.601 488.789C214.241 547.771 296.689 579.324 384.753 579.324C472.819 579.324 555.268 547.77 611.908 488.786C664.214 494.717 722.115 475.665 744.567 419.212L745.307 417.351L745.899 415.438C758.488 374.75 745.305 337.668 727.94 310.886C715.532 291.75 699.37 275.068 682.855 261.281C663.242 114.11 537.267 0.597656 384.751 0.597656C232.225 0.597656 106.25 114.123 86.6478 261.305C70.138 275.092 53.9818 291.772 41.5799 310.904C24.2207 337.685 11.0463 374.759 23.6325 415.438L24.2243 417.351L24.9643 419.212Z" fill="url(#paint0_linear_11408_24233)"/>
<path d="M701.379 884.172C697.059 884.955 693.752 880.639 695.364 876.554V876.554C696.264 874.274 698.495 872.788 700.943 872.911C716.32 873.683 729.103 876.582 739.292 881.606C750.567 886.849 758.974 894.277 764.512 903.89C770.051 913.285 772.82 924.208 772.82 936.662C772.82 949.989 770.051 961.896 764.512 972.383C758.974 982.651 750.666 990.844 739.589 996.961C728.709 1002.86 715.06 1005.81 698.642 1005.81H553.298C543.23 1005.81 535.475 996.926 536.836 986.95L551.158 881.946C551.367 880.416 551.361 878.864 551.141 877.335L536.994 779.004C535.554 768.99 543.322 760.023 553.439 760.023H692.708C713.28 760.023 729.303 765.376 740.776 776.081C752.248 786.568 757.985 801.206 757.985 819.995C757.985 830.264 755.809 840.095 751.457 849.49C747.105 858.884 740.083 866.858 730.391 873.413C722.844 878.448 713.174 882.035 701.379 884.172ZM598.054 968.448C596.967 976.376 586.814 978.997 582.027 972.585V972.585C577.622 966.687 581.832 958.291 589.193 958.291H682.026C690.928 958.291 697.851 955.888 702.796 951.081C707.742 946.275 710.214 939.611 710.214 931.09C710.214 922.57 707.544 915.797 702.203 910.772C696.862 905.529 688.95 902.907 678.466 902.907H603.693C594.517 902.907 587.078 895.469 587.078 886.293V872.986C587.078 863.81 594.517 856.372 603.693 856.372H670.158C677.279 856.372 683.213 854.078 687.961 849.49C692.906 844.683 695.379 838.238 695.379 830.154C695.379 823.6 693.302 818.247 689.148 814.096C684.994 809.727 679.059 807.542 671.345 807.542H589.371C582.028 807.542 577.809 799.189 582.167 793.279V793.279C586.913 786.842 597.076 789.387 598.228 797.301L609.884 877.316C610.108 878.857 610.115 880.422 609.903 881.966L598.054 968.448Z" fill="white"/>
<path d="M336.967 884.128C336.967 874.952 344.405 867.514 353.581 867.514H417.97C427.86 867.514 435.574 865.001 441.113 859.976C446.652 854.951 449.421 847.96 449.421 839.003C449.421 829.827 446.652 822.835 441.113 818.029C435.574 813.004 427.86 810.492 417.97 810.492H347.233C339.796 810.492 335.77 801.782 340.589 796.117V796.117C345.846 789.935 355.957 793.653 355.957 801.768V989.195C355.957 998.371 348.518 1005.81 339.342 1005.81H311.151C301.976 1005.81 294.537 998.371 294.537 989.195V776.638C294.537 767.462 301.976 760.023 311.151 760.023H426.574C443.586 760.023 458.421 763.41 471.081 770.183C483.741 776.737 493.631 785.913 500.752 797.711C507.873 809.29 511.434 823.054 511.434 839.003C511.434 854.515 507.873 868.169 500.752 879.967C493.631 891.765 483.741 900.941 471.081 907.495C458.421 914.049 443.586 917.326 426.574 917.326H353.581C344.405 917.326 336.967 909.888 336.967 900.712V884.128ZM387.714 916.699C380.257 905.665 388.162 890.782 401.48 890.782H430.639C436.085 890.782 441.185 893.45 444.289 897.924L501.048 979.724C508.693 990.741 500.808 1005.81 487.398 1005.81H456.762C451.244 1005.81 446.086 1003.07 442.996 998.498L387.714 916.699Z" fill="white"/>
<path d="M136.037 1011.05C109.729 1011.05 86.585 1005.69 66.6063 994.988C46.8255 984.283 31.3965 969.317 20.3192 950.091C9.43973 930.865 4 908.472 4 882.91C4 857.348 9.43973 834.954 20.3192 815.728C31.3965 796.502 46.8255 781.537 66.6063 770.831C86.585 760.126 109.729 754.773 136.037 754.773C162.543 754.773 185.687 760.126 205.468 770.831C225.249 781.537 240.678 796.502 251.755 815.728C262.832 834.954 268.371 857.348 268.371 882.91C268.371 908.472 262.832 930.865 251.755 950.091C240.678 969.317 225.249 984.283 205.468 994.988C185.687 1005.69 162.543 1011.05 136.037 1011.05ZM136.037 950.419C150.477 950.419 162.939 947.688 173.423 942.226C183.907 936.764 191.918 929.008 197.457 918.958C203.193 908.909 206.061 896.892 206.061 882.91C206.061 868.927 203.193 856.911 197.457 846.861C191.918 836.811 183.907 829.055 173.423 823.594C162.939 818.132 150.477 815.401 136.037 815.401C121.795 815.401 109.432 818.132 98.948 823.594C88.4641 829.055 80.354 836.811 74.6176 846.861C68.8811 856.911 66.0129 868.927 66.0129 882.91C66.0129 896.892 68.8811 908.909 74.6176 918.958C80.354 929.008 88.4641 936.764 98.948 942.226C109.432 947.688 121.795 950.419 136.037 950.419Z" fill="white"/>
</g>
<defs>
<filter id="filter0_d_11408_24233" x="0" y="0.597656" width="776.82" height="1018.45" filterUnits="userSpaceOnUse" color-interpolation-filters="sRGB">
<feFlood flood-opacity="0" result="BackgroundImageFix"/>
<feColorMatrix in="SourceAlpha" type="matrix" values="0 0 0 0 0 0 0 0 0 0 0 0 0 0 0 0 0 0 127 0" result="hardAlpha"/>
<feOffset dy="4"/>
<feGaussianBlur stdDeviation="2"/>
<feComposite in2="hardAlpha" operator="out"/>
<feColorMatrix type="matrix" values="0 0 0 0 0 0 0 0 0 0 0 0 0 0 0 0 0 0 0.25 0"/>
<feBlend mode="normal" in2="BackgroundImageFix" result="effect1_dropShadow_11408_24233"/>
<feBlend mode="normal" in="SourceGraphic" in2="effect1_dropShadow_11408_24233" result="shape"/>
</filter>
<linearGradient id="paint0_linear_11408_24233" x1="384.766" y1="0.597669" x2="1753.98" y2="2006.85" gradientUnits="userSpaceOnUse">
<stop stop-color="#5E59FF"/>
<stop offset="1" stop-color="#383699"/>
</linearGradient>
</defs>
</svg>
