<svg width="44" height="45" viewBox="0 0 44 45" fill="none" xmlns="http://www.w3.org/2000/svg">
<path d="M20 26.2129H15V31.2129M24 18.2129H29V13.2129M14.583 19.2163C15.1437 17.8286 16.0824 16.6259 17.2926 15.7451C18.5027 14.8643 19.9369 14.3404 21.4298 14.2334C22.9227 14.1264 24.4147 14.4403 25.7381 15.1395C27.0615 15.8387 28.1612 16.8954 28.9141 18.189M29.4176 25.21C28.8569 26.5977 27.9181 27.8003 26.708 28.6811C25.4979 29.562 24.0652 30.0852 22.5723 30.1922C21.0794 30.2992 19.5861 29.9853 18.2627 29.2861C16.9393 28.5869 15.8388 27.5304 15.0859 26.2368" stroke="#1D1E18" stroke-width="2" stroke-linecap="round" stroke-linejoin="round"/>
</svg>
