<svg width="137" height="76" viewBox="0 0 137 76" fill="none" xmlns="http://www.w3.org/2000/svg">
<path d="M127.908 59.1504C132.756 59.1504 136.311 62.5441 136.311 67.2308C136.311 71.8851 132.756 75.3111 127.908 75.3111H120.375C120.073 75.3111 119.827 75.0657 119.827 74.7629V59.6986C119.827 59.3958 120.073 59.1504 120.375 59.1504H127.908ZM123.608 62.0593C123.305 62.0593 123.059 62.3048 123.059 62.6075V71.854C123.059 72.1567 123.305 72.4022 123.608 72.4022H127.908C130.817 72.4022 132.917 70.2367 132.917 67.2308C132.917 64.2572 130.817 62.0593 127.908 62.0593H123.608Z" fill="#1D1E18"/>
<path d="M101.896 74.9709C101.812 75.1767 101.612 75.3111 101.389 75.3111H99.1481C98.7582 75.3111 98.493 74.9157 98.6409 74.5549L104.817 59.4906C104.902 59.2848 105.102 59.1504 105.324 59.1504H109.437C109.66 59.1504 109.86 59.2848 109.944 59.4906L116.121 74.5549C116.269 74.9157 116.003 75.3111 115.614 75.3111H113.308C113.085 75.3111 112.885 75.1767 112.801 74.9709L111.754 72.4192C111.67 72.2134 111.47 72.079 111.247 72.079H103.45C103.227 72.079 103.027 72.2134 102.943 72.4192L101.896 74.9709ZM104.587 68.4142C104.44 68.7749 104.705 69.17 105.095 69.17H109.602C109.992 69.17 110.257 68.7749 110.11 68.4142L107.571 62.2089C107.534 62.1184 107.446 62.0593 107.349 62.0593C107.251 62.0593 107.163 62.1184 107.126 62.2089L104.587 68.4142Z" fill="#1D1E18"/>
<path d="M88.4738 58.8271C93.322 58.8271 96.8774 62.3825 96.8774 67.2307C96.8774 72.079 93.322 75.6343 88.4738 75.6343C83.6256 75.6343 80.0702 72.079 80.0702 67.2307C80.0702 62.3825 83.6256 58.8271 88.4738 58.8271ZM88.4738 72.5638C91.3827 72.5638 93.4836 70.3013 93.4836 67.2307C93.4836 64.1602 91.3827 61.8977 88.4738 61.8977C85.5648 61.8977 83.4639 64.1602 83.4639 67.2307C83.4639 70.3013 85.5648 72.5638 88.4738 72.5638Z" fill="#1D1E18"/>
<path d="M61.226 75.3111C60.9232 75.3111 60.6777 75.0657 60.6777 74.7629V59.6986C60.6777 59.3958 60.9232 59.1504 61.226 59.1504H72.3135C75.2224 59.1504 77.1617 61.0897 77.1617 63.9986C77.1617 66.2468 75.8911 67.9086 73.8811 68.4741C73.4892 68.5843 73.3074 69.0752 73.5094 69.4286L76.6418 74.4737C76.8685 74.8389 76.6059 75.3111 76.176 75.3111H73.8146C73.6248 75.3111 73.4485 75.213 73.3486 75.0516L69.5653 68.9447C69.4653 68.7834 69.2891 68.6852 69.0993 68.6852H64.4581C64.1553 68.6852 63.9099 68.9307 63.9099 69.2335V74.7629C63.9099 75.0657 63.6644 75.3111 63.3617 75.3111H61.226ZM63.9099 65.2281C63.9099 65.5308 64.1553 65.7763 64.4581 65.7763H72.3135C73.2831 65.7763 73.9295 65.1299 73.9295 64.1602V63.6754C73.9295 62.7058 73.2831 62.0593 72.3135 62.0593H64.4581C64.1553 62.0593 63.9099 62.3048 63.9099 62.6075V65.2281Z" fill="#1D1E18"/>
<path d="M44.3404 65.2281C44.3404 65.5308 44.5859 65.7763 44.8887 65.7763H52.8422C53.145 65.7763 53.3904 66.0217 53.3904 66.3245V68.137C53.3904 68.4398 53.145 68.6852 52.8422 68.6852H44.8887C44.5859 68.6852 44.3404 68.9307 44.3404 69.2335V74.7629C44.3404 75.0657 44.095 75.3111 43.7922 75.3111H41.6565C41.3537 75.3111 41.1083 75.0657 41.1083 74.7629V59.6986C41.1083 59.3958 41.3537 59.1504 41.6565 59.1504H56.0744C56.3771 59.1504 56.6226 59.3958 56.6226 59.6986V61.5111C56.6226 61.8139 56.3771 62.0593 56.0744 62.0593H44.8887C44.5859 62.0593 44.3404 62.3048 44.3404 62.6075V65.2281Z" fill="#1D1E18"/>
<path d="M24.7722 65.2281C24.7722 65.5308 25.0176 65.7763 25.3204 65.7763H33.274C33.5767 65.7763 33.8222 66.0217 33.8222 66.3245V68.137C33.8222 68.4398 33.5767 68.6852 33.274 68.6852H25.3204C25.0176 68.6852 24.7722 68.9307 24.7722 69.2335V74.7629C24.7722 75.0657 24.5267 75.3111 24.224 75.3111H22.0883C21.7855 75.3111 21.54 75.0657 21.54 74.7629V59.6986C21.54 59.3958 21.7855 59.1504 22.0883 59.1504H36.5061C36.8089 59.1504 37.0543 59.3958 37.0543 59.6986V61.5111C37.0543 61.8139 36.8089 62.0593 36.5061 62.0593H25.3204C25.0176 62.0593 24.7722 62.3048 24.7722 62.6075V65.2281Z" fill="#1D1E18"/>
<path d="M9.0923 58.8271C13.9405 58.8271 17.4959 62.3825 17.4959 67.2307C17.4959 72.079 13.9405 75.6343 9.0923 75.6343C4.24408 75.6343 0.688721 72.079 0.688721 67.2307C0.688721 62.3825 4.24408 58.8271 9.0923 58.8271ZM9.0923 72.5638C12.0012 72.5638 14.1021 70.3013 14.1021 67.2307C14.1021 64.1602 12.0012 61.8977 9.0923 61.8977C6.18337 61.8977 4.08248 64.1602 4.08248 67.2307C4.08248 70.3013 6.18337 72.5638 9.0923 72.5638Z" fill="#1D1E18"/>
<path d="M78.3394 7.06339C75.5032 4.37147 71.4665 2.41146 67.6676 2.0742C63.8687 1.73693 60.0695 2.72015 56.848 4.87427C53.6265 7.0284 51.1591 10.2355 49.821 14.0077C48.4829 17.78 48.3474 21.9108 49.4352 25.7718C50.523 29.6329 52.7745 33.0128 55.8471 35.3974C58.9198 37.782 62.6455 39.0407 66.4573 38.9822C70.2692 38.9236 73.9587 37.5509 76.9644 35.0729C79.9702 32.5949 82.2338 28.768 83.2149 24.8752L82.2626 25.2252C81.3306 28.9232 79.2811 31.9893 76.4258 34.3433C73.5705 36.6973 70.0657 38.0013 66.4446 38.0569C62.8235 38.1126 59.2843 36.9168 56.3655 34.6516C53.4466 32.3863 51.3078 29.1756 50.2745 25.5078C49.2411 21.84 49.3698 17.9159 50.6409 14.3325C51.912 10.7491 54.256 7.70251 57.3163 5.6562C60.3765 3.6099 63.9856 2.67589 67.5943 2.99628C71.2031 3.31666 74.614 4.87389 77.3083 7.43107L78.3394 7.06339Z" fill="#1D1E18"/>
<path fill-rule="evenodd" clip-rule="evenodd" d="M80.9428 6.53296C81.566 7.12441 81.3459 8.16526 80.5366 8.45382L77.341 9.59331C76.932 9.73913 76.4758 9.64266 76.1609 9.34376L75.5579 8.77147C73.2066 6.53977 70.3132 5.25427 67.3503 4.99123C64.3949 4.72886 61.3854 5.48394 58.7674 7.23449C56.1358 8.99415 54.042 11.6715 52.8921 14.913C51.7429 18.1529 51.6248 21.7147 52.5614 25.039C53.4984 28.3649 55.4194 31.2051 57.9484 33.1678C60.4668 35.1222 63.4372 36.0966 66.4018 36.051C69.3677 36.0054 72.3181 34.939 74.7902 32.9009C77.3039 30.8285 79.1264 28.1198 79.9622 24.8034L80.0684 24.3821C80.1614 24.0129 80.4308 23.7136 80.7882 23.5823L84.4251 22.2455C85.2943 21.9261 86.1661 22.7106 85.9398 23.6085L85.5144 25.2964C84.4565 29.4942 82.006 33.7061 78.5991 36.5148C75.2102 39.3087 70.9663 40.9189 66.4993 40.9876C62.0309 41.0562 57.7364 39.5761 54.2633 36.8807C50.8007 34.1935 48.3315 30.443 47.1474 26.2402C45.9628 22.0356 46.1088 17.5425 47.5688 13.4267C49.0282 9.31257 51.7458 5.73623 55.396 3.29547C59.0598 0.8456 63.4584 -0.316543 67.9108 0.0787307C72.4002 0.477296 76.9444 2.73796 80.0889 5.72248L80.9428 6.53296ZM83.0813 25.375C83.1406 25.1635 82.9349 24.9777 82.7287 25.0534L82.4698 25.1486C82.3399 25.1963 82.2422 25.3055 82.2067 25.4393C81.2504 29.0415 79.2253 32.0347 76.4254 34.3431C76.3756 34.3841 76.3256 34.4248 76.2754 34.4653C73.4478 36.7421 70.0021 38.002 66.4442 38.0567L66.4373 38.0568C62.8815 38.1099 59.405 36.9563 56.5177 34.7684C56.4666 34.7297 56.4157 34.6907 56.365 34.6513C53.4692 32.404 51.3412 29.2261 50.2987 25.5946C50.2904 25.5656 50.2822 25.5366 50.274 25.5075C49.2407 21.8398 49.3693 17.9157 50.6405 14.3323C50.6527 14.2976 50.6651 14.2631 50.6776 14.2285C51.9569 10.6901 54.2851 7.68248 57.3158 5.65595C57.3677 5.62127 57.4197 5.58692 57.4719 5.55288C60.4873 3.58556 64.0203 2.68763 67.555 2.99262C67.568 2.99374 67.5809 2.99487 67.5939 2.99602C71.1053 3.30776 74.4295 4.79058 77.0884 7.2262C77.2241 7.35049 77.4171 7.39187 77.5904 7.33007L78.0187 7.17733C78.1655 7.12501 78.2052 6.93651 78.0901 6.83155C77.5931 6.37833 77.0622 5.94729 76.5047 5.5429C73.9087 3.66016 70.7334 2.3549 67.706 2.07744C67.6931 2.07626 67.6801 2.07509 67.6672 2.07394C63.8683 1.73668 60.0691 2.7199 56.8476 4.87402C56.7958 4.90861 56.7443 4.94348 56.6929 4.97862C53.5471 7.1313 51.1371 10.2958 49.8205 14.0075C49.8082 14.0421 49.7961 14.0767 49.784 14.1113C48.4899 17.827 48.3589 21.8839 49.4104 25.6845C49.4185 25.7135 49.4266 25.7426 49.4347 25.7716C50.5046 29.5691 52.7002 32.9011 55.6956 35.2785C55.7457 35.3183 55.7961 35.3579 55.8467 35.3971C58.9193 37.7817 62.645 39.0405 66.4569 38.9819L66.4637 38.9818C70.2732 38.9217 73.96 37.5491 76.964 35.0726C77.0136 35.0317 77.063 34.9905 77.1122 34.9488C79.6815 32.7751 81.693 29.615 82.8006 26.2901C82.9018 25.9862 82.9954 25.681 83.0813 25.375Z" fill="#1D1E18"/>
<path d="M33.9068 32.1858L99.7168 9.08638L87.5545 4.28112" stroke="#1D1E18" stroke-width="4.86493" stroke-linecap="round"/>
</svg>
