<svg width="75" height="75" viewBox="0 0 75 75" fill="none" xmlns="http://www.w3.org/2000/svg">
<circle cx="37.0107" cy="37.8911" r="37.0005" fill="#282C75"/>
<path fill-rule="evenodd" clip-rule="evenodd" d="M43.537 27.2724C36.8567 30.926 30.8199 41.4912 26.3384 47.7358C25.1183 49.3447 23.7105 50.0687 24.039 47.0051C24.8233 42.3258 26.4389 37.9114 29.097 33.7114C34.5338 25.1373 45.1493 18.8491 55.024 23.3105C56.2743 23.7094 58.8485 25.1373 59.5893 24.6814L59.5993 24.6714C59.9412 24.0278 58.7714 22.8412 58.3357 22.3317C45.6722 9.65146 19.886 11.1531 14.9989 30.8422C10.1822 49.5492 25.7954 68.1254 44.9079 59.4071C53.7436 55.3145 60.2194 46.3515 59.891 36.5103C59.6295 27.6814 51.2632 22.8043 43.537 27.2724ZM38.7807 57.2452C33.0388 62.8965 29.4188 54.6709 28.3596 49.0062C28.2255 48.2989 28.3629 47.5716 28.7484 46.9481C32.2746 41.2465 40.8655 32.0489 43.6175 34.0232C47.2576 36.6377 46.4967 49.6464 38.7807 57.2418V57.2452Z" fill="white"/>
</svg>
