<svg width="167" height="167" viewBox="0 0 167 167" fill="none" xmlns="http://www.w3.org/2000/svg">
<circle cx="83.1637" cy="83.1637" r="83.1637" fill="#282C75" fill-opacity="0.8"/>
<path fill-rule="evenodd" clip-rule="evenodd" d="M78.5869 65.5795C75.7484 66.3401 73.2439 68.0241 71.4686 70.3659L46.9137 102.756C44.3761 106.103 47.5119 110.767 51.5691 109.68L86.7205 100.261C89.559 99.5002 92.0635 97.8162 93.8388 95.4744L118.394 63.0843C120.931 59.737 117.796 55.0736 113.738 56.1607L78.5869 65.5795ZM110.508 65.4834C111.967 63.7939 110.28 61.2549 108.157 61.9456L81.4833 70.625C80.0958 71.0765 79.5216 72.7268 80.3292 73.942L88.6697 86.4928C89.4772 87.708 91.2212 87.8178 92.1748 86.7135L110.508 65.4834Z" fill="#F6F4FF"/>
<mask id="path-3-inside-1_11447_24169" fill="white">
<path d="M83.1721 8.99957C124.136 8.99957 157.344 42.2075 157.344 83.1717C157.344 124.136 124.136 157.344 83.1721 157.344C42.208 157.344 9 124.136 9 83.1717C8.99999 42.2075 42.208 8.99957 83.1721 8.99957ZM83.1721 153.811C122.185 153.811 153.812 122.185 153.812 83.1717C153.812 44.1585 122.185 12.5321 83.1721 12.5321C44.1589 12.5321 12.5325 44.1585 12.5325 83.1717C12.5325 122.185 44.1589 153.811 83.1721 153.811Z"/>
</mask>
<path d="M83.1721 8.99957C124.136 8.99957 157.344 42.2075 157.344 83.1717C157.344 124.136 124.136 157.344 83.1721 157.344C42.208 157.344 9 124.136 9 83.1717C8.99999 42.2075 42.208 8.99957 83.1721 8.99957ZM83.1721 153.811C122.185 153.811 153.812 122.185 153.812 83.1717C153.812 44.1585 122.185 12.5321 83.1721 12.5321C44.1589 12.5321 12.5325 44.1585 12.5325 83.1717C12.5325 122.185 44.1589 153.811 83.1721 153.811Z" stroke="#F6F4FF" stroke-opacity="0.55" stroke-width="22.4764" mask="url(#path-3-inside-1_11447_24169)"/>
</svg>
