<svg width="23" height="23" viewBox="0 0 23 23" fill="none" xmlns="http://www.w3.org/2000/svg">
<g clip-path="url(#clip0_966_11996)">
<path d="M11.9141 19.9854C17.2298 19.9854 21.5391 15.6761 21.5391 10.3604C21.5391 5.04461 17.2298 0.735352 11.9141 0.735352C6.59832 0.735352 2.28906 5.04461 2.28906 10.3604C2.28906 15.6761 6.59832 19.9854 11.9141 19.9854Z" fill="#EBEBEB"/>
<path d="M11.9138 17.52C15.8681 17.52 19.0737 14.3144 19.0737 10.3601C19.0737 6.40579 15.8681 3.2002 11.9138 3.2002C7.9595 3.2002 4.75391 6.40579 4.75391 10.3601C4.75391 14.3144 7.9595 17.52 11.9138 17.52Z" fill="#F3F3F3"/>
<path d="M16.2333 6.50638L15.4771 14.1558H14.2192L13.5378 9.98458C13.3667 8.35658 14.2962 6.81218 15.8148 6.20113C16.0243 6.11698 16.2493 6.28088 16.2333 6.50638Z" fill="#B7B7B7"/>
<path d="M14.2188 14.1562L13.7112 20.8916C13.7007 21.3316 14.0544 21.6934 14.4944 21.6934H15.1989C15.6389 21.6934 15.9926 21.3316 15.9821 20.8916L15.4761 14.1562H14.2188Z" fill="#767676"/>
<path d="M9.12702 14.1553L8.61937 20.8906C8.60892 21.3306 8.96257 21.6925 9.40257 21.6925H10.1071C10.5471 21.6925 10.9008 21.3306 10.8903 20.8906L10.3843 14.1553H9.12647H9.12702Z" fill="#767676"/>
<path d="M10.361 13.8221C10.3643 13.348 10.735 13.2154 10.735 13.2154L10.7328 13.2132C10.7482 13.2055 10.7647 13.2017 10.7807 13.194L11.708 12.8651C12.2145 12.606 12.5231 11.962 12.4576 11.2987L11.8037 6.55161C11.774 6.33766 11.5914 6.17871 11.3758 6.17871C11.1349 6.17871 10.9407 6.37561 10.9435 6.61651L10.9946 10.7091C10.9946 10.8614 10.9204 10.9978 10.8049 11.0567C10.7279 11.0963 10.6404 11.0963 10.5634 11.0567C10.4485 10.9978 10.3737 10.8614 10.3737 10.7091L10.3038 6.60331C10.3 6.36736 10.1075 6.17871 9.87153 6.17871H9.63778C9.40183 6.17871 9.20988 6.36791 9.20548 6.60331L9.13563 10.7091C9.13563 10.8614 9.06138 10.9978 8.94533 11.0567C8.86888 11.0963 8.78088 11.0963 8.70388 11.0567C8.58893 10.9978 8.51413 10.8614 8.51413 10.7091L8.56583 6.61651C8.56913 6.37561 8.37443 6.17871 8.13353 6.17871C7.91738 6.17871 7.73478 6.33821 7.70563 6.55161L7.05168 11.2987C6.98623 11.9614 7.29478 12.6055 7.80133 12.8651L8.72863 13.194C8.74348 13.2017 8.75943 13.2055 8.77483 13.2127L8.77208 13.2154C8.77208 13.2154 9.15983 13.3513 9.14828 13.8485L9.12683 14.1554H10.3847L10.361 13.8221Z" fill="#B7B7B7"/>
</g>
<defs>
<clipPath id="clip0_966_11996">
<rect width="22" height="22" fill="white" transform="translate(0.914062 0.213867)"/>
</clipPath>
</defs>
</svg>
