<svg width="90" height="90" viewBox="0 0 90 90" fill="none" xmlns="http://www.w3.org/2000/svg">
<circle cx="45.0003" cy="45.001" r="42.9991" fill="#F9E5D2"/>
<circle cx="45.0003" cy="45.001" r="43.9804" stroke="#8B6546" stroke-opacity="0.45" stroke-width="1.96264"/>
<mask id="mask0_4039_19050" style="mask-type:alpha" maskUnits="userSpaceOnUse" x="2" y="2" width="86" height="86">
<circle cx="45" cy="45" r="43" fill="#D4AC90"/>
</mask>
<g mask="url(#mask0_4039_19050)">
<path d="M42.1104 53.4621C42.1104 53.4621 25.6121 55.7534 25.6882 84.7025C25.4598 84.8438 22.8911 86.4942 22.8048 89.4718C22.7896 89.9765 22.8048 91.9045 24.3074 93.4084C25.5207 94.6197 26.9827 94.8266 27.4142 94.8821C29.4854 95.1446 31.5718 94.1958 32.6327 92.8129C34.4044 90.5065 33.2521 86.9231 33.0084 86.0399C31.8104 81.7501 32.8764 72.9533 42.1053 53.457L42.1104 53.4621Z" fill="#FFCAA2"/>
<path d="M47.6143 53.4621C47.6143 53.4621 64.1126 55.7534 64.0364 84.7025C64.2649 84.8438 66.8335 86.4942 66.9198 89.4718C66.9351 89.9765 66.9198 91.9045 65.4172 93.4084C64.204 94.6197 62.742 94.8266 62.3105 94.8821C60.2393 95.1446 58.1529 94.1958 57.0919 92.8129C55.3202 90.5065 56.4726 86.9231 56.7163 86.0399C57.9143 81.7501 56.8482 72.9533 47.6193 53.457L47.6143 53.4621Z" fill="#FFCAA2"/>
<path d="M45.0397 91.1008C45.0397 91.1008 38.2983 91.0251 31.9883 91.2471C30.3842 91.3027 29.044 90.0813 29.0034 88.5268C28.8511 82.3948 29.1658 67.8345 34.8869 58.9721C38.9481 52.6786 44.923 53.047 44.923 53.047H44.8164C44.8164 53.047 50.7913 52.6786 54.8524 58.9721C60.5736 67.8395 60.8883 82.3948 60.736 88.5268C60.6954 90.0863 59.3552 91.3027 57.7511 91.2471C51.4411 91.0301 44.6996 91.1008 44.6996 91.1008" fill="#B3C127"/>
<path d="M56.9873 66.8366L51.4305 67.1948C51.0249 67.221 50.7174 67.5691 50.7437 67.9724L51.1266 73.8444C51.153 74.2477 51.5031 74.5534 51.9088 74.5273L57.4655 74.169C57.8712 74.1429 58.1787 73.7948 58.1524 73.3915L57.7694 67.5195C57.7431 67.1162 57.393 66.8105 56.9873 66.8366Z" fill="#C5A08A"/>
<path d="M47.4208 52.481C46.5172 52.274 45.6897 53.0513 45.8623 53.9597C46.172 55.605 46.4766 57.432 46.7507 59.4154C47.2228 62.8574 47.4309 65.5172 47.502 66.5366C47.7558 70.1098 47.7152 72.4012 47.7508 75.2274C47.8167 80.2945 47.3853 85.3566 47.1822 90.4187C47.1619 90.9183 47.101 91.9378 47.7508 92.6141C48.5782 93.472 50.0453 93.2803 53.0251 92.7907C57.0355 92.1346 59.0356 91.8066 59.3097 91.6249C60.1575 91.0647 62.0409 89.379 60.8073 76.6153C59.6296 64.4472 57.5939 60.6973 56.1725 58.6533C54.1826 55.7867 52.1774 54.5098 51.3601 54.0304C49.9539 53.2128 48.5833 52.7484 47.4259 52.481H47.4208Z" fill="#8F705B"/>
<path d="M40.6691 52.839C41.5829 52.5362 42.4814 53.3285 42.3088 54.2673C42.0042 55.9176 41.6793 57.8758 41.3798 60.0914C41.0956 62.1657 40.6742 64.7901 40.6133 67.2227C40.461 73.3295 41.4407 80.6929 42.3088 87.0722C42.5931 89.1768 42.9332 91.5236 41.6133 92.6188C41.0093 93.1184 40.7148 92.8156 36.339 92.7954C33.6891 92.7803 31.8616 92.8207 30.0544 91.6296C29.2066 91.0694 27.3233 89.3837 28.5568 76.6201C29.7345 64.452 31.7702 60.7021 33.1916 58.6581C33.9277 57.5932 35.3541 55.5795 38.004 54.0351C38.9432 53.49 39.8518 53.1065 40.6691 52.839Z" fill="#8F705B"/>
<path d="M32.887 57.3779C32.5012 57.7615 32.1103 58.1501 31.7245 58.5337C31.1864 59.0686 31.1153 59.9014 31.5417 60.5272C34.6028 64.9887 38.5218 70.0104 43.4865 75.1279C49.2533 81.0732 54.9795 85.6407 59.9595 89.0978C60.6549 89.5823 61.6093 89.4309 62.1169 88.7546C62.4164 88.3559 62.721 87.9572 63.0205 87.5534C63.5383 86.8671 63.4063 85.893 62.721 85.3782C57.7005 81.5829 52.1469 76.8388 46.5273 70.9693C42.0803 66.3261 38.3593 61.7738 35.2627 57.5596C34.6942 56.7874 33.5672 56.7067 32.887 57.383V57.3779Z" fill="#C08969"/>
<path d="M48.5219 71.6199L42.3493 64.8321C41.6437 64.0549 40.4407 63.9944 39.659 64.6959L37.1158 66.987C36.3341 67.6885 36.2732 68.8846 36.9787 69.6618L43.1514 76.4496C43.8569 77.2267 45.06 77.2873 45.8417 76.5858L48.3849 74.2946C49.1666 73.5931 49.2275 72.3971 48.5219 71.6199ZM46.0549 72.5182L44.2986 74.0978C43.7605 74.5823 42.928 74.5419 42.4407 74.007L38.1818 69.3237C37.6945 68.7887 37.7351 67.9611 38.2732 67.4766L40.0295 65.897C40.5676 65.4125 41.4001 65.4529 41.8874 65.9878L46.1463 70.6711C46.6336 71.2061 46.593 72.0337 46.0549 72.5182Z" fill="#87583E"/>
<path d="M50.2383 65.4467C50.7541 65.4467 51.1722 65.031 51.1722 64.5183C51.1722 64.0055 50.7541 63.5898 50.2383 63.5898C49.7225 63.5898 49.3044 64.0055 49.3044 64.5183C49.3044 65.031 49.7225 65.4467 50.2383 65.4467Z" fill="#5A3E2C"/>
<path d="M50.959 71.8764C51.4748 71.8764 51.8929 71.4607 51.8929 70.948C51.8929 70.4352 51.4748 70.0195 50.959 70.0195C50.4433 70.0195 50.0251 70.4352 50.0251 70.948C50.0251 71.4607 50.4433 71.8764 50.959 71.8764Z" fill="#5A3E2C"/>
<path d="M50.959 84.7924C51.4748 84.7924 51.8929 84.3767 51.8929 83.864C51.8929 83.3512 51.4748 82.9355 50.959 82.9355C50.4433 82.9355 50.0251 83.3512 50.0251 83.864C50.0251 84.3767 50.4433 84.7924 50.959 84.7924Z" fill="#5A3E2C"/>
<path d="M23.8962 36.6436C25.211 42.8108 26.5258 48.9729 27.8405 55.1401C27.8964 55.3925 28.074 55.5691 28.272 55.5741L30.0284 55.5994C30.1756 55.5994 30.2974 55.5085 30.3685 55.3672C30.4751 55.1553 30.4244 54.9181 30.4091 54.8525C30.2974 54.4134 28.607 46.611 26.2821 35.8613C25.4851 36.1187 24.6932 36.3811 23.8962 36.6385V36.6436Z" fill="#9A745B"/>
<path d="M65.8328 36.6436C64.518 42.8108 63.2033 48.9729 61.8885 55.1401C61.8327 55.3925 61.655 55.5691 61.457 55.5741L59.7006 55.5994C59.5534 55.5994 59.4316 55.5085 59.3605 55.3672C59.2539 55.1553 59.3047 54.9181 59.3199 54.8525C59.4316 54.4134 61.122 46.611 63.4469 35.8613C64.2439 36.1187 65.0358 36.3811 65.8328 36.6385V36.6436Z" fill="#9A745B"/>
<path d="M44.8973 56.9111C47.6166 56.9111 49.821 54.828 49.821 52.2583C49.821 49.6886 47.6166 47.6055 44.8973 47.6055C42.178 47.6055 39.9736 49.6886 39.9736 52.2583C39.9736 54.828 42.178 56.9111 44.8973 56.9111Z" fill="#FFCAA2"/>
<path d="M59.5285 43.2155C59.8534 43.2155 59.8534 42.7109 59.5285 42.7109C59.2037 42.7109 59.2037 43.2155 59.5285 43.2155Z" fill="#FCBE92"/>
<path d="M58.5843 26.0445C58.5843 26.0445 66.1431 25.2522 67.8487 31.6971C69.0062 36.0627 65.6253 38.9546 63.3104 40.0245C61.2799 40.9632 57.7213 41.1802 54.8937 38.0259C52.3505 35.1946 52.7413 32.6106 52.7413 32.6106" fill="#FFCAA2"/>
<path d="M31.4144 26.0445C31.4144 26.0445 23.8556 25.2522 22.1499 31.6971C20.9925 36.0627 24.3734 38.9546 26.6882 40.0245C28.7188 40.9632 32.2774 41.1802 35.1049 38.0259C37.6482 35.1946 37.2573 32.6106 37.2573 32.6106" fill="#FFCAA2"/>
<path d="M59.5122 20.0691C60.7051 19.7108 61.7306 18.8377 62.426 17.7475C63.7662 15.6581 62.7154 13.5283 60.5934 12.1808C58.4715 10.8383 56.0856 10.7878 54.7454 12.8773C54.2682 13.6192 53.9535 14.4569 53.857 15.3048C51.3391 13.9977 48.3339 13.2356 44.821 13.2356C41.3082 13.2356 38.3588 13.9775 35.8662 15.2544C35.7596 14.4216 35.45 13.604 34.9829 12.8773C33.6428 10.7878 31.2569 10.8333 29.1349 12.1808C27.013 13.5233 25.9672 15.6581 27.3023 17.7475C27.9877 18.8175 28.9877 19.6856 30.1553 20.054C27.2363 23.8795 25.8403 28.881 25.8403 33.8977C25.8403 44.2439 34.3586 49.4119 44.8616 49.4119C55.3647 49.4119 63.883 44.2439 63.883 33.8977C63.883 28.8911 62.4514 23.8997 59.5071 20.0742L59.5122 20.0691Z" fill="#FFCAA2"/>
<path d="M48.0153 35.326L48.0102 35.326C47.4469 35.3358 46.9982 35.7978 47.008 36.3578L47.042 38.2901C47.0518 38.8501 47.5164 39.2962 48.0797 39.2864L48.0848 39.2863C48.6481 39.2766 49.0968 38.8146 49.087 38.2546L49.0531 36.3223C49.0432 35.7623 48.5786 35.3162 48.0153 35.326Z" fill="#292929"/>
<path d="M41.6552 35.326L41.6501 35.326C41.0868 35.3358 40.6381 35.7978 40.6479 36.3578L40.6819 38.2901C40.6917 38.8501 41.1563 39.2962 41.7196 39.2864L41.7247 39.2863C42.288 39.2766 42.7367 38.8146 42.7269 38.2546L42.693 36.3223C42.6831 35.7623 42.2185 35.3162 41.6552 35.326Z" fill="#292929"/>
<path d="M33.8911 45.8339C36.7701 45.8339 39.104 43.5136 39.104 40.6513C39.104 37.7891 36.7701 35.4688 33.8911 35.4688C31.0121 35.4688 28.6782 37.7891 28.6782 40.6513C28.6782 43.5136 31.0121 45.8339 33.8911 45.8339Z" fill="#FFB089"/>
<path d="M55.9028 45.8339C58.7818 45.8339 61.1157 43.5136 61.1157 40.6513C61.1157 37.7891 58.7818 35.4688 55.9028 35.4688C53.0238 35.4688 50.6899 37.7891 50.6899 40.6513C50.6899 43.5136 53.0238 45.8339 55.9028 45.8339Z" fill="#FFB089"/>
<path d="M65.1672 28.0648C64.7306 26.4196 63.9286 23.9819 62.3752 21.1708C62.8473 20.8175 63.6443 20.1159 64.1519 18.9854C65.3703 16.2702 63.7763 13.6458 63.6443 13.4338C62.3295 11.3444 59.7507 10.1281 57.2176 10.5773C54.5575 11.0466 53.1818 13.131 52.9534 13.4944C51.9889 13.02 50.7756 12.5153 49.3237 12.1317C47.6079 11.6725 46.0748 11.516 44.8717 11.4807C43.6686 11.516 42.1355 11.6775 40.4197 12.1317C38.9679 12.5203 37.7546 13.02 36.7901 13.4944C36.5566 13.131 35.1809 11.0466 32.5259 10.5773C29.9877 10.1281 27.414 11.3495 26.0992 13.4338C25.9672 13.6458 24.3732 16.2652 25.5915 18.9854C26.0992 20.121 26.8962 20.8175 27.3683 21.1708C25.8149 23.9819 25.0128 26.4196 24.5762 28.0648C22.4492 36.0844 24.16 43.3772 25.3377 48.414C25.6575 49.7817 25.9773 50.9324 26.221 51.7601C26.3022 52.0276 26.5307 52.2244 26.8099 52.2648C27.881 52.4162 28.9521 52.5676 30.0232 52.719C30.5309 52.7897 30.9471 52.3355 30.8253 51.8459C30.1603 49.1408 29.5765 45.83 29.3988 42.0246C29.2059 37.9417 29.5257 34.3836 29.9775 31.5472C31.9573 30.7246 34.4651 29.8767 37.4348 29.2862C40.2674 28.726 42.8006 28.5494 44.8768 28.5342C46.9531 28.5443 49.4862 28.726 52.3188 29.2862C55.2885 29.8716 57.7963 30.7246 59.7761 31.5472C60.2279 34.3836 60.5477 37.9417 60.3548 42.0246C60.172 45.83 59.5933 49.1458 58.9232 51.851C58.8014 52.3405 59.2177 52.7897 59.7202 52.719C60.7914 52.5676 61.8675 52.4162 62.9387 52.2598C63.2179 52.2194 63.4463 52.0276 63.5275 51.7551C63.7712 50.9274 64.091 49.7817 64.4108 48.409C65.5886 43.3722 67.2993 36.0794 65.1723 28.0598L65.1672 28.0648Z" fill="#D4AC90"/>
<path d="M64.8123 24.4953C64.4671 23.3194 64.0509 22.315 63.6448 21.4823C63.5839 21.3561 63.4925 21.2552 63.3859 21.1896C63.3859 21.1896 63.3148 21.1441 63.2234 21.1139C57.1673 19.1052 51.7609 18.6812 51.7609 18.6812C49.9283 18.5399 47.5881 18.4037 44.862 18.3633C42.136 18.4037 39.7958 18.5399 37.9632 18.6812C37.9632 18.6812 32.5619 19.1052 26.5007 21.1139C26.4144 21.1441 26.3382 21.1896 26.3382 21.1896C26.2265 21.2602 26.1402 21.3612 26.0793 21.4823C25.6783 22.31 25.257 23.3194 24.9118 24.4953C24.5107 25.858 24.3026 27.1045 24.196 28.1392C24.1757 28.3562 24.2417 28.5682 24.3838 28.7297C25.4143 29.8904 27.8205 32.2272 31.5517 32.9993C37.1916 34.1601 41.603 30.8645 43.0396 29.6179C43.3442 29.3555 43.7249 29.2142 44.1158 29.2142H45.588C45.9839 29.2142 46.3647 29.3555 46.6642 29.6179C48.1008 30.8645 52.5122 34.1601 58.1521 32.9993C61.8833 32.2322 64.2945 29.8955 65.32 28.7297C65.4621 28.5682 65.5281 28.3562 65.5078 28.1392C65.4063 27.1045 65.1982 25.858 64.792 24.4953H64.8123Z" fill="#80614E"/>
<path d="M42.3935 22.9654C43.2767 24.7973 40.8047 29.4905 37.2769 29.2129C34.2821 28.9758 32.2264 25.3019 32.9776 23.46C34.0436 20.8358 41.3022 20.6794 42.3986 22.9654H42.3935Z" fill="#614C40"/>
<path d="M47.4161 22.9674C46.5329 24.7992 49.0049 29.4924 52.5326 29.2149C55.5274 28.9777 57.5832 25.3039 56.832 23.4619C55.766 20.8378 48.5074 20.6813 47.411 22.9674H47.4161Z" fill="#614C40"/>
<path d="M37.7349 53.0966C37.4201 53.4903 36.5927 54.5349 36.8465 55.5039C37.3846 57.5227 42.2578 57.7548 43.4 57.7649C44.1564 57.7649 45.1513 57.775 46.3696 57.563C46.8163 57.4873 47.2681 57.3662 47.6641 57.2703C48.8469 56.9776 49.1261 56.8464 49.8063 56.6849C50.6033 56.5032 51.187 56.4628 52.0754 56.4023C54.375 56.2458 54.6085 56.5739 55.1516 56.2105C56.1821 55.5191 56.5273 53.5205 55.71 52.5616C55.4714 52.2841 55.2024 52.168 55.0196 52.0872C55.0196 52.0872 53.2734 51.3302 51.1007 53.3843C51.0195 53.46 51.0144 53.4903 51.0195 53.5004C51.0652 53.5761 51.786 53.248 52.5526 52.8745C52.3597 52.5919 51.9434 52.0721 51.2429 51.8147C51.0043 51.7289 50.649 51.5977 50.253 51.6986C49.7504 51.8248 49.5322 52.2286 49.2276 52.5717C48.6235 53.248 47.8621 53.4751 46.9788 53.7325C46.9331 53.7476 46.8722 53.7628 46.796 53.783C45.461 54.1362 44.1919 53.8839 43.8467 53.8082C42.3187 53.4701 40.6385 52.5415 39.9684 52.0418C39.9278 52.0115 39.8364 51.9409 39.6994 51.9056C38.8669 51.6684 37.8567 52.9452 37.7298 53.1017L37.7349 53.0966Z" fill="#FF8500"/>
</g>
</svg>
