<svg width="23" height="23" viewBox="0 0 23 23" fill="none" xmlns="http://www.w3.org/2000/svg">
<path fill-rule="evenodd" clip-rule="evenodd" d="M16.4492 9.75797L10.8662 15.342C10.6781 15.5288 10.4238 15.6336 10.1587 15.6336C9.8936 15.6336 9.63927 15.5288 9.45119 15.342L6.03519 11.926C5.94234 11.8331 5.86869 11.7229 5.81845 11.6016C5.7682 11.4803 5.74234 11.3503 5.74234 11.219C5.74234 10.9538 5.84768 10.6995 6.03519 10.512C6.2227 10.3245 6.47701 10.2191 6.74219 10.2191C7.00736 10.2191 7.26168 10.3245 7.44919 10.512L10.1582 13.221L15.0352 8.34397C15.128 8.25112 15.2383 8.17748 15.3596 8.12723C15.4809 8.07698 15.6109 8.05112 15.7422 8.05112C15.8735 8.05112 16.0035 8.07698 16.1248 8.12723C16.2461 8.17748 16.3563 8.25112 16.4492 8.34397C16.542 8.43681 16.6157 8.54704 16.6659 8.66834C16.7162 8.78965 16.742 8.91967 16.742 9.05097C16.742 9.18227 16.7162 9.31229 16.6659 9.43359C16.6157 9.5549 16.542 9.66512 16.4492 9.75797ZM11.2422 0.542969C5.16719 0.542969 0.242188 5.46797 0.242188 11.543C0.242188 17.618 5.16719 22.543 11.2422 22.543C17.3172 22.543 22.2422 17.618 22.2422 11.543C22.2422 5.46797 17.3172 0.542969 11.2422 0.542969Z" fill="#5E59FF"/>
</svg>
