<svg width="25" height="25" viewBox="0 0 25 25" fill="none" xmlns="http://www.w3.org/2000/svg">
<path d="M4.80859 8.65234H20.8086M4.80859 8.65234V17.4525C4.80859 18.5726 4.80859 19.1324 5.02658 19.5602C5.21833 19.9366 5.52407 20.2428 5.90039 20.4346C6.3278 20.6523 6.88759 20.6523 8.0055 20.6523H17.6117C18.7296 20.6523 19.2886 20.6523 19.716 20.4346C20.0923 20.2428 20.3991 19.9366 20.5908 19.5602C20.8086 19.1328 20.8086 18.5738 20.8086 17.4559V8.65234M4.80859 8.65234V7.85254C4.80859 6.73243 4.80859 6.17196 5.02658 5.74414C5.21833 5.36782 5.52407 5.06208 5.90039 4.87033C6.32821 4.65234 6.88868 4.65234 8.00879 4.65234H8.80859M20.8086 8.65234V7.84925C20.8086 6.73134 20.8086 6.17155 20.5908 5.74414C20.3991 5.36782 20.0923 5.06208 19.716 4.87033C19.2882 4.65234 18.7289 4.65234 17.6088 4.65234H16.8086M8.80859 4.65234H16.8086M8.80859 4.65234V2.65234M16.8086 4.65234V2.65234M15.8086 12.6523L11.8086 16.6523L9.80859 14.6523" stroke="#282C75" stroke-opacity="0.8" stroke-width="2" stroke-linecap="round" stroke-linejoin="round"/>
<rect x="5.55078" y="5.45703" width="14.8496" height="2.60156" fill="#515491"/>
</svg>
