<svg width="155" height="281" viewBox="0 0 155 281" fill="none" xmlns="http://www.w3.org/2000/svg">
<path d="M71.6593 111.075C71.6593 111.075 38.2986 115.765 38.4526 175.019C37.9907 175.308 32.7966 178.686 32.6221 184.781C32.5913 185.814 32.6221 189.76 35.6605 192.839C38.1138 195.318 41.0701 195.742 41.9426 195.855C46.1307 196.392 50.3495 194.45 52.4949 191.62C56.0773 186.899 53.7472 179.564 53.2545 177.757C50.832 168.976 52.9876 150.97 71.6491 111.064L71.6593 111.075Z" fill="#FFCAA2"/>
<path d="M82.7861 111.075C82.7861 111.075 116.147 115.765 115.993 175.019C116.455 175.308 121.649 178.686 121.823 184.781C121.854 185.814 121.823 189.76 118.785 192.839C116.332 195.318 113.375 195.742 112.503 195.855C108.315 196.392 104.096 194.45 101.951 191.62C98.3682 186.899 100.698 179.564 101.191 177.757C103.613 168.976 101.458 150.97 82.7964 111.064L82.7861 111.075Z" fill="#FFCAA2"/>
<path d="M74.9646 179.632L73.815 255.704C73.7739 263.421 72.9322 268.318 68.4259 268.256C62.9753 268.183 57.5247 268.101 52.0638 268.028C50.7499 238.432 49.436 208.846 48.1221 179.25L74.9544 179.632H74.9646Z" fill="#FFCAA2"/>
<path d="M56.0261 280.061H68.5492C72.2568 280.061 75.2625 277.036 75.2625 273.305V250.619C75.2625 246.888 72.2568 243.863 68.5492 243.863H56.0261C52.3185 243.863 49.3129 246.888 49.3129 250.619V273.305C49.3129 277.036 52.3185 280.061 56.0261 280.061Z" fill="#8F705B"/>
<path d="M52.6183 280.299H71.8546C73.7084 280.299 75.2112 278.786 75.2112 276.921V265.434C75.2112 263.568 73.7084 262.056 71.8546 262.056H52.6183C50.7645 262.056 49.2617 263.568 49.2617 265.434V276.921C49.2617 278.786 50.7645 280.299 52.6183 280.299Z" fill="#C08969"/>
<path d="M79.4912 179.632L80.6409 255.704C80.6819 263.421 81.5237 268.318 86.0299 268.256C91.4805 268.183 96.9312 268.101 102.392 268.028C103.706 238.432 105.02 208.846 106.334 179.25L79.5015 179.632H79.4912Z" fill="#FFCAA2"/>
<path d="M98.4407 243.863H85.9176C82.21 243.863 79.2043 246.888 79.2043 250.619V273.305C79.2043 277.036 82.21 280.061 85.9176 280.061H98.4407C102.148 280.061 105.154 277.036 105.154 273.305V250.619C105.154 246.888 102.148 243.863 98.4407 243.863Z" fill="#8F705B"/>
<path d="M101.828 262.066H82.5917C80.7379 262.066 79.2351 263.579 79.2351 265.444V276.932C79.2351 278.797 80.7379 280.31 82.5917 280.31H101.828C103.682 280.31 105.185 278.797 105.185 276.932V265.444C105.185 263.579 103.682 262.066 101.828 262.066Z" fill="#C08969"/>
<path d="M105.718 184.565C97.5369 185.051 89.3456 185.526 81.1645 186.012C80.0662 186.074 79.2039 187.241 79.2039 188.667V188.129H75.2622V188.667C75.2622 187.251 74.4 186.084 73.3017 186.012C65.1206 185.526 56.9292 185.051 48.7482 184.565C47.5369 184.493 46.5412 185.784 46.6028 187.344C47.0955 200.278 47.5882 213.211 48.0809 226.134C48.1323 227.56 49.0458 228.665 50.1442 228.655L73.2195 228.428C74.3487 228.417 75.252 227.229 75.252 225.773V200.319C75.293 199.265 76.1758 198.418 77.2228 198.418C78.2801 198.418 79.1526 199.265 79.1937 200.319V225.773C79.1937 227.229 80.1073 228.417 81.2261 228.428L104.301 228.655C105.4 228.665 106.313 227.55 106.365 226.134C106.857 213.201 107.35 200.267 107.843 187.344C107.904 185.784 106.909 184.493 105.697 184.565H105.718Z" fill="#5A3E2C"/>
<path d="M77.5824 188.123C77.5824 188.123 63.9507 187.968 51.1915 188.423C47.9478 188.536 45.2379 186.036 45.1558 182.855C44.8478 170.303 45.4842 140.501 57.0527 122.361C65.2646 109.479 77.3463 110.233 77.3463 110.233H77.1307C77.1307 110.233 89.2125 109.479 97.4243 122.361C108.993 140.511 109.629 170.303 109.321 182.855C109.239 186.047 106.529 188.536 103.286 188.423C90.5264 187.978 76.8947 188.123 76.8947 188.123" fill="#B3C127"/>
<path d="M101.741 138.455L90.5036 139.188C89.6833 139.242 89.0614 139.954 89.1146 140.78L89.8891 152.8C89.9423 153.625 90.6504 154.251 91.4707 154.198L102.708 153.464C103.528 153.411 104.15 152.698 104.097 151.873L103.322 139.853C103.269 139.027 102.561 138.401 101.741 138.455Z" fill="#C5A08A"/>
<path d="M82.3965 109.073C80.5693 108.649 78.8962 110.24 79.2452 112.1C79.8713 115.467 80.4872 119.207 81.0415 123.267C81.9962 130.312 82.417 135.756 82.5607 137.843C83.074 145.156 82.9919 149.846 83.0637 155.631C83.1971 166.003 82.3246 176.364 81.914 186.725C81.873 187.748 81.7498 189.835 83.0637 191.219C84.7369 192.975 87.7034 192.583 93.7289 191.581C101.838 190.238 105.882 189.566 106.437 189.194C108.151 188.048 111.959 184.597 109.465 158.472C107.083 133.566 102.967 125.891 100.093 121.707C96.0693 115.839 92.0146 113.226 90.362 112.244C87.5186 110.571 84.7471 109.62 82.4068 109.073H82.3965Z" fill="#8F705B"/>
<path d="M68.7439 109.806C70.5916 109.186 72.4085 110.808 72.0595 112.73C71.4436 116.108 70.7866 120.116 70.181 124.651C69.6062 128.896 68.7542 134.268 68.631 139.247C68.3231 151.747 70.3042 166.819 72.0595 179.876C72.6343 184.184 73.322 188.988 70.6532 191.229C69.4317 192.252 68.8363 191.632 59.988 191.591C54.6298 191.56 50.9344 191.642 47.2801 189.204C45.5659 188.058 41.7577 184.608 44.252 158.482C46.6335 133.576 50.7497 125.901 53.6238 121.717C55.1122 119.537 57.9966 115.415 63.3549 112.254C65.2539 111.139 67.0913 110.354 68.7439 109.806Z" fill="#8F705B"/>
<path d="M53.0079 119.094C52.2278 119.879 51.4374 120.674 50.6573 121.459C49.5692 122.554 49.4255 124.259 50.2878 125.54C56.4775 134.672 64.4019 144.95 74.4409 155.425C86.1018 167.594 97.6805 176.943 107.75 184.019C109.157 185.011 111.086 184.701 112.113 183.317C112.719 182.501 113.334 181.685 113.94 180.858C114.987 179.453 114.72 177.46 113.334 176.406C103.182 168.637 91.9527 158.927 80.5896 146.913C71.5976 137.409 64.0734 128.091 57.8119 119.465C56.6622 117.885 54.3834 117.72 53.0079 119.104V119.094Z" fill="#C08969"/>
<path d="M84.6239 148.244L72.1418 134.35C70.715 132.759 68.2822 132.635 66.7015 134.071L61.5588 138.761C59.978 140.197 59.8548 142.645 61.2816 144.236L73.7637 158.13C75.1905 159.721 77.6232 159.845 79.204 158.409L84.3467 153.719C85.9275 152.283 86.0507 149.835 84.6239 148.244ZM79.6351 150.083L76.0835 153.316C74.9954 154.308 73.312 154.225 72.3266 153.13L63.7144 143.544C62.729 142.449 62.8111 140.755 63.8992 139.763L67.4508 136.53C68.5389 135.538 70.2223 135.62 71.2077 136.715L79.8199 146.302C80.8053 147.397 80.7232 149.091 79.6351 150.083Z" fill="#87583E"/>
<path d="M88.0931 135.616C89.1362 135.616 89.9818 134.765 89.9818 133.715C89.9818 132.665 89.1362 131.814 88.0931 131.814C87.05 131.814 86.2043 132.665 86.2043 133.715C86.2043 134.765 87.05 135.616 88.0931 135.616Z" fill="#5A3E2C"/>
<path d="M89.5508 148.772C90.594 148.772 91.4396 147.921 91.4396 146.871C91.4396 145.822 90.594 144.971 89.5508 144.971C88.5077 144.971 87.6621 145.822 87.6621 146.871C87.6621 147.921 88.5077 148.772 89.5508 148.772Z" fill="#5A3E2C"/>
<path d="M89.5508 175.206C90.594 175.206 91.4396 174.355 91.4396 173.305C91.4396 172.255 90.594 171.404 89.5508 171.404C88.5077 171.404 87.6621 172.255 87.6621 173.305C87.6621 174.355 88.5077 175.206 89.5508 175.206Z" fill="#5A3E2C"/>
<path d="M34.8291 76.6539C37.4877 89.2775 40.1463 101.891 42.8049 114.514C42.9178 115.031 43.2771 115.392 43.6774 115.403L47.229 115.454C47.5267 115.454 47.7731 115.268 47.9168 114.979C48.1323 114.545 48.0297 114.06 47.9989 113.926C47.7731 113.027 44.3549 97.0562 39.6536 75.0527C38.042 75.5796 36.4407 76.1168 34.8291 76.6436V76.6539Z" fill="#9A745B"/>
<path d="M119.627 76.6539C116.968 89.2775 114.309 101.891 111.651 114.514C111.538 115.031 111.179 115.392 110.778 115.403L107.227 115.454C106.929 115.454 106.683 115.268 106.539 114.979C106.323 114.545 106.426 114.06 106.457 113.926C106.683 113.027 110.101 97.0562 114.802 75.0527C116.414 75.5796 118.015 76.1168 119.627 76.6436V76.6539Z" fill="#9A745B"/>
<path d="M77.2948 118.147C82.7938 118.147 87.2517 113.882 87.2517 108.622C87.2517 103.362 82.7938 99.0977 77.2948 99.0977C71.7957 99.0977 67.3379 103.362 67.3379 108.622C67.3379 113.882 71.7957 118.147 77.2948 118.147Z" fill="#FFCAA2"/>
<path d="M106.878 90.1072C107.535 90.1072 107.535 89.0742 106.878 89.0742C106.221 89.0742 106.221 90.1072 106.878 90.1072Z" fill="#FCBE92"/>
<path d="M104.969 54.9636C104.969 54.9636 120.253 53.3417 123.702 66.5335C126.042 75.4691 119.206 81.3884 114.525 83.5784C110.419 85.4998 103.224 85.944 97.5061 79.4876C92.3634 73.6923 93.1538 68.4032 93.1538 68.4032" fill="#FFCAA2"/>
<path d="M50.0313 54.9636C50.0313 54.9636 34.7469 53.3417 31.298 66.5335C28.9576 75.4691 35.794 81.3884 40.4747 83.5784C44.5807 85.4998 51.7763 85.944 57.4938 79.4876C62.6365 73.6923 61.8461 68.4032 61.8461 68.4032" fill="#FFCAA2"/>
<path d="M106.847 42.736C109.259 42.0025 111.333 40.2154 112.739 37.9841C115.449 33.7073 113.324 29.348 109.033 26.5898C104.743 23.8419 99.9182 23.7386 97.2082 28.0154C96.2433 29.5339 95.6069 31.2487 95.4119 32.9842C90.3205 30.3087 84.2437 28.7488 77.1405 28.7488C70.0372 28.7488 64.0733 30.2674 59.0333 32.8809C58.8177 31.1764 58.1916 29.5029 57.2472 28.0154C54.5373 23.7386 49.7128 23.8316 45.4221 26.5898C41.1314 29.3376 39.0169 33.7073 41.7165 37.9841C43.1023 40.1741 45.1245 41.9509 47.4854 42.705C41.5831 50.5353 38.7603 60.7726 38.7603 71.0409C38.7603 92.2179 55.9847 102.796 77.2226 102.796C98.4606 102.796 115.685 92.2179 115.685 71.0409C115.685 60.7933 112.79 50.5767 106.837 42.7463L106.847 42.736Z" fill="#FFCAA2"/>
<path d="M83.6702 73.957H83.6599C82.5204 73.957 81.5965 74.8867 81.5962 76.0334L81.5953 79.9899C81.5951 81.1366 82.5186 82.0663 83.6581 82.0663H83.6684C84.8079 82.0663 85.7318 81.1366 85.7321 79.9899L85.733 76.0334C85.7332 74.8867 84.8097 73.957 83.6702 73.957Z" fill="#292929"/>
<path d="M70.8103 73.957H70.8001C69.6606 73.957 68.7366 74.8867 68.7364 76.0334L68.7355 79.9899C68.7352 81.1366 69.6588 82.0663 70.7983 82.0663H70.8085C71.948 82.0663 72.872 81.1366 72.8722 79.9899L72.8731 76.0334C72.8733 74.8867 71.9498 73.957 70.8103 73.957Z" fill="#292929"/>
<path d="M55.0405 95.4684C60.8627 95.4684 65.5825 90.7185 65.5825 84.8592C65.5825 78.9999 60.8627 74.25 55.0405 74.25C49.2183 74.25 44.4985 78.9999 44.4985 84.8592C44.4985 90.7185 49.2183 95.4684 55.0405 95.4684Z" fill="#FFB089"/>
<path d="M99.5488 95.4684C105.371 95.4684 110.091 90.7185 110.091 84.8592C110.091 78.9999 105.371 74.25 99.5488 74.25C93.7266 74.25 89.0068 78.9999 89.0068 84.8592C89.0068 90.7185 93.7266 95.4684 99.5488 95.4684Z" fill="#FFB089"/>
<path d="M118.282 59.0998C117.399 55.7321 115.778 50.7426 112.637 44.9886C113.591 44.2655 115.203 42.8296 116.229 40.5156C118.693 34.9579 115.47 29.5862 115.203 29.1523C112.544 24.8756 107.33 22.386 102.207 23.3054C96.8287 24.2661 94.0469 28.5325 93.585 29.2763C91.6347 28.3052 89.1814 27.2722 86.2457 26.4871C82.7762 25.5471 79.6762 25.2268 77.2434 25.1545C74.8106 25.2268 71.7107 25.5574 68.2411 26.4871C65.3054 27.2825 62.8521 28.3052 60.9018 29.2763C60.4296 28.5325 57.6478 24.2661 52.2793 23.3054C47.1469 22.386 41.9426 24.8859 39.284 29.1523C39.0171 29.5862 35.794 34.9476 38.2575 40.5156C39.284 42.8399 40.8956 44.2655 41.8502 44.9886C38.7092 50.7426 37.0874 55.7321 36.2046 59.0998C31.9036 75.5145 35.3629 90.4418 37.7443 100.751C38.391 103.551 39.0377 105.906 39.5304 107.6C39.6946 108.148 40.1565 108.551 40.7211 108.633C42.887 108.943 45.0529 109.253 47.2187 109.563C48.2452 109.708 49.0869 108.778 48.8406 107.776C47.4959 102.239 46.3154 95.4623 45.9562 87.6733C45.5661 79.3161 46.2128 72.0332 47.1264 66.2276C51.1297 64.5438 56.2005 62.8083 62.2054 61.5997C67.9332 60.453 73.0553 60.0915 77.2537 60.0605C81.452 60.0811 86.5741 60.453 92.3019 61.5997C98.3069 62.798 103.378 64.5438 107.381 66.2276C108.295 72.0332 108.941 79.3161 108.551 87.6733C108.182 95.4623 107.011 102.249 105.656 107.786C105.41 108.788 106.252 109.708 107.268 109.563C109.434 109.253 111.61 108.943 113.776 108.623C114.341 108.54 114.802 108.148 114.967 107.59C115.459 105.896 116.106 103.551 116.753 100.741C119.134 90.4314 122.593 75.5042 118.292 59.0894L118.282 59.0998Z" fill="#D4AC90"/>
<path d="M117.564 51.7935C116.866 49.3865 116.024 47.3308 115.203 45.6263C115.079 45.368 114.895 45.1614 114.679 45.0271C114.679 45.0271 114.535 44.9342 114.351 44.8722C102.105 40.7607 91.1726 39.893 91.1726 39.893C87.467 39.6037 82.7349 39.3248 77.2227 39.2422C71.7105 39.3248 66.9784 39.6037 63.2728 39.893C63.2728 39.893 52.351 40.7607 40.0948 44.8722C39.9203 44.9342 39.7663 45.0271 39.7663 45.0271C39.5405 45.1718 39.366 45.3784 39.2428 45.6263C38.4319 47.3205 37.5799 49.3865 36.8819 51.7935C36.0709 54.5826 35.6501 57.1342 35.4345 59.2519C35.3935 59.6961 35.5269 60.13 35.8143 60.4606C37.8981 62.8365 42.7636 67.6194 50.3083 69.2C61.7125 71.5759 70.6327 64.8303 73.5376 62.2787C74.1535 61.7415 74.9234 61.4523 75.7138 61.4523H78.6906C79.4912 61.4523 80.2611 61.7415 80.8667 62.2787C83.7717 64.8303 92.6918 71.5759 104.096 69.2C111.641 67.6298 116.516 62.8468 118.59 60.4606C118.877 60.13 119.011 59.6961 118.97 59.2519C118.764 57.1342 118.344 54.5826 117.522 51.7935H117.564Z" fill="#80614E"/>
<path d="M72.2339 48.6625C74.0199 52.4123 69.021 62.0195 61.8869 61.4513C55.8306 60.9658 51.6734 53.4454 53.1926 49.6748C55.3482 44.3031 70.0269 43.9828 72.2441 48.6625H72.2339Z" fill="#614C40"/>
<path d="M82.386 48.6625C80.5999 52.4123 85.5989 62.0195 92.7329 61.4513C98.7892 60.9658 102.946 53.4454 101.427 49.6748C99.2717 44.3031 84.5929 43.9828 82.3757 48.6625H82.386Z" fill="#614C40"/>
<path d="M62.811 110.333C62.1745 111.139 60.5014 113.277 61.0146 115.26C62.1027 119.392 71.9569 119.868 74.2665 119.888C75.796 119.888 77.8079 119.909 80.2714 119.475C81.1748 119.32 82.0883 119.072 82.889 118.876C85.2807 118.277 85.8452 118.008 87.2207 117.678C88.8323 117.306 90.0128 117.223 91.8091 117.099C96.4591 116.779 96.9313 117.45 98.0296 116.707C100.113 115.291 100.811 111.2 99.1587 109.238C98.6763 108.67 98.1323 108.432 97.7627 108.267C97.7627 108.267 94.2316 106.717 89.8383 110.922C89.674 111.077 89.6638 111.139 89.674 111.159C89.7664 111.314 91.224 110.643 92.774 109.878C92.384 109.3 91.5422 108.236 90.1257 107.709C89.6432 107.533 88.9247 107.265 88.124 107.471C87.1078 107.73 86.6664 108.556 86.0505 109.258C84.829 110.643 83.2893 111.108 81.5032 111.634C81.4108 111.665 81.2877 111.696 81.1337 111.738C78.434 112.461 75.8678 111.944 75.1698 111.789C72.0801 111.097 68.6824 109.196 67.3275 108.174C67.2454 108.112 67.0606 107.967 66.7834 107.895C65.1 107.409 63.0573 110.023 62.8007 110.343L62.811 110.333Z" fill="#FF8500"/>
</svg>
