<svg width="15" height="17" viewBox="0 0 15 17" fill="none" xmlns="http://www.w3.org/2000/svg">
<path d="M1.8623 9.664C1.8623 12.7726 4.39131 15.3012 7.49994 15.3012C10.6086 15.3012 13.1376 12.7722 13.1376 9.664C13.1376 6.55581 10.6086 4.02637 7.49994 4.02637C4.39131 4.02637 1.8623 6.55538 1.8623 9.664ZM3.96635 12.7817L6.31211 8.47618L10.6177 6.13041C10.6783 6.08492 10.7468 6.07886 10.8113 6.09489C11.0028 6.12564 11.1457 6.34398 11.0331 6.54585L8.68734 10.8514L4.38178 13.1972C4.32114 13.2427 4.25269 13.2487 4.18814 13.2327C3.99667 13.2019 3.85372 12.9836 3.96635 12.7817Z" fill="#ECEFF1"/>
<path d="M8.33849 8.82528C8.55379 9.04058 8.68721 9.33732 8.68721 9.66439C8.68721 9.99145 8.56851 10.2878 8.33069 10.4957L8.36058 10.5256L8.68721 10.8522L11.033 6.54666C11.1452 6.34479 11.0027 6.12646 10.8112 6.0957C10.8727 6.1113 10.9303 6.14682 10.9736 6.19057L8.33849 8.82528Z" fill="#FF3D00"/>
<path d="M4.1883 13.2341C4.12679 13.2185 4.06917 13.1829 4.02585 13.1392L6.66099 10.504C6.44569 10.2887 6.31227 9.992 6.31227 9.66537C6.31227 9.33874 6.43097 9.042 6.66879 8.83406L6.31227 8.47754L3.9665 12.7831C3.8543 12.9854 3.99683 13.2033 4.1883 13.2341Z" fill="white"/>
<path d="M8.34035 8.82537C8.55262 9.04197 8.68691 9.33655 8.68691 9.66578C8.68691 9.99067 8.56995 10.2896 8.33169 10.4975L7.92015 10.0816C8.02845 9.97768 8.09343 9.82606 8.09343 9.66578C8.09343 9.33655 7.82485 9.07229 7.49995 9.07229C7.33534 9.07229 7.18805 9.13727 7.07975 9.24557L6.66821 8.83404L6.63789 8.80371L6.31299 8.47448L10.619 6.13088C10.6796 6.08323 10.7489 6.0789 10.8096 6.09623C10.8746 6.10922 10.9309 6.14821 10.9742 6.19153L8.34035 8.82537Z" fill="#DD2C00"/>
<path d="M8.68733 10.8517L4.38135 13.1953C4.3207 13.243 4.25139 13.2473 4.19074 13.23C4.12576 13.217 4.06944 13.1823 4.02612 13.139L6.65997 10.5008C6.4477 10.2886 6.31341 9.98965 6.31341 9.66475C6.31341 9.33552 6.43037 9.04094 6.66863 8.83301L7.08017 9.24455C6.97187 9.35284 6.90689 9.50013 6.90689 9.66475C6.90689 9.98965 7.17547 10.2582 7.50037 10.2582C7.66498 10.2582 7.81227 10.1889 7.92057 10.0806L8.33211 10.4965L8.36243 10.5225L8.68733 10.8517Z" fill="#99A5AB"/>
<path d="M7.50065 9.07031C7.33734 9.07031 7.18875 9.13702 7.08132 9.24489C6.97388 9.35276 6.90674 9.50091 6.90674 9.66423C6.90674 9.99086 7.17402 10.2581 7.50065 10.2581C7.66397 10.2581 7.81256 10.1914 7.91999 10.0836C8.02742 9.9757 8.09457 9.82754 8.09457 9.66423C8.09457 9.3376 7.82728 9.07031 7.50065 9.07031Z" fill="white"/>
<path d="M8.86889 2.95122C9.02484 2.7043 9.11581 2.41406 9.11581 2.10216C9.11581 1.20977 8.39237 0.486328 7.49998 0.486328C6.60759 0.486328 5.88415 1.20977 5.88415 2.10216C5.88415 2.41406 5.97512 2.7043 6.13108 2.95122C3.00772 3.58802 0.651123 6.35616 0.651123 9.66579C0.651123 13.4433 3.7225 16.5146 7.49998 16.5146C11.2775 16.5146 14.3488 13.4433 14.3488 9.66579C14.3488 6.35616 11.9922 3.58802 8.86889 2.95122ZM7.49998 1.40038C7.88553 1.40038 8.20176 1.71661 8.20176 2.10216C8.20176 2.4877 7.88553 2.80394 7.49998 2.80394C7.11443 2.80394 6.7982 2.4877 6.7982 2.10216C6.7982 1.71661 7.11443 1.40038 7.49998 1.40038ZM7.49998 15.3017C4.38962 15.3017 1.86408 12.7718 1.86408 9.66579C1.86408 6.55976 4.38962 4.02555 7.49998 4.02555C10.6103 4.02555 13.1359 6.55543 13.1359 9.66579C13.1359 12.7762 10.6103 15.3017 7.49998 15.3017Z" fill="#4E5968"/>
</svg>
