<svg width="23" height="19" viewBox="0 0 23 19" fill="none" xmlns="http://www.w3.org/2000/svg">
<path d="M5.20146 12.8604C5.17816 12.9624 5.16406 13.0666 5.16406 13.1717C5.16406 14.7244 7.76083 15.9826 10.9645 15.9826C14.1682 15.9826 16.7649 14.7239 16.7649 13.1717C16.7649 13.066 16.7508 12.9624 16.7275 12.8604C15.1839 13.9847 13.172 14.671 10.9645 14.671C8.757 14.671 6.74444 13.9852 5.20146 12.8604Z" fill="#AFB7C0"/>
<path d="M10.9648 3.44485C7.39083 3.44485 4.40847 4.66975 3.7041 6.30038C5.008 7.53245 7.80462 8.40907 10.9648 8.40907C14.1249 8.40907 16.9221 7.53245 18.2254 6.30038C18.1856 6.20907 18.1359 6.11931 18.082 6.03006C17.1802 4.53638 14.3376 3.44434 10.9641 3.44434L10.9648 3.44485Z" fill="#6E4944"/>
<path d="M19.0086 4.77541C19.0086 4.95493 18.9657 5.12933 18.9044 5.30373C18.7879 5.65253 18.555 5.98594 18.2239 6.29883C18.1872 6.2065 18.1381 6.1193 18.0829 6.0321C17.1818 4.53432 14.3374 3.44689 10.9657 3.44689C7.3918 3.44689 4.40637 4.66769 3.70139 6.29883C3.21097 5.83206 2.92285 5.31399 2.92285 4.77541C2.92285 2.80572 6.60713 1.13867 10.9657 1.13867C15.3243 1.13867 19.0086 2.80572 19.0086 4.77541Z" fill="#D0D5DA"/>
<path d="M19.7502 5.32932V4.87793L19.7379 4.90871C19.7196 5.15492 19.6705 5.396 19.5724 5.63195C19.5173 5.77044 19.4437 5.90894 19.3579 6.0423C18.2422 7.77603 14.9073 9.03273 10.9656 9.03273C7.02382 9.03273 3.68284 7.77603 2.57327 6.0423C2.48745 5.90894 2.41388 5.77044 2.35258 5.63195C2.2545 5.396 2.20546 5.15492 2.18707 4.90871L2.1748 4.87793V7.31952C2.1748 8.15561 2.35258 8.95579 2.65909 9.70981C3.1679 10.9409 4.05066 12.0232 5.20314 12.8593C6.74796 13.9826 8.75868 14.6699 10.9656 14.6699C13.1725 14.6699 15.1832 13.9826 16.728 12.8593C17.4698 12.3155 18.1073 11.6692 18.5977 10.946H19.3088C19.7931 10.946 20.2529 10.8588 20.6697 10.7049C21.8529 10.2689 22.6866 9.27894 22.6866 8.12483C22.6866 6.69373 21.4054 5.51397 19.7502 5.32932ZM19.3088 9.72007H19.2598C19.2639 9.71665 19.2659 9.71323 19.2659 9.70981C19.5786 8.95579 19.7502 8.15561 19.7502 7.31952V6.58089C20.59 6.74503 21.2153 7.37594 21.2153 8.12483C21.2153 9.00708 20.3632 9.72007 19.3088 9.72007Z" fill="#D0D5DA"/>
<path d="M19.2665 9.70996C19.2647 9.71406 19.2629 9.71765 19.2617 9.72176H19.2885C19.2814 9.71765 19.273 9.71406 19.2665 9.70996Z" fill="#E5E8EB"/>
<path d="M19.3109 10.9487H18.5998C18.1069 11.6725 17.4718 12.3177 16.7257 12.8615C16.749 12.964 16.7631 13.0677 16.7631 13.1728C16.7631 14.7255 14.1664 15.9837 10.9627 15.9837C7.75904 15.9837 5.16227 14.725 5.16227 13.1728C5.16227 13.0671 5.17637 12.9635 5.19967 12.8615C4.05025 12.0238 3.16566 10.942 2.65868 9.70996C1.00536 10.6404 0 11.8484 0 13.1728C0 16.1068 4.90787 18.4858 10.9621 18.4858C17.0163 18.4858 21.9248 16.1073 21.9248 13.1728C21.9248 12.2823 21.4675 11.4447 20.6687 10.7076C20.2525 10.8615 19.7939 10.9487 19.3109 10.9487Z" fill="#E5E8EB"/>
<path d="M19.7073 4.34019C19.646 4.05295 19.5295 3.77596 19.3579 3.50923C19.1862 3.2425 18.9594 2.98604 18.6897 2.74495C18.5548 2.62185 18.4077 2.509 18.2544 2.39103C17.9357 2.16533 17.574 1.95503 17.1755 1.76524C15.5878 0.990705 13.3931 0.513672 10.9656 0.513672C8.53799 0.513672 6.33724 0.990705 4.74951 1.76524C4.35104 1.95503 3.99549 2.16533 3.67671 2.39103C3.51733 2.509 3.3702 2.62185 3.23534 2.74495C2.96561 2.98604 2.74492 3.2425 2.57327 3.50923C2.40162 3.77596 2.27902 4.05295 2.22385 4.34019C2.1932 4.48382 2.1748 4.62744 2.1748 4.77619C2.1748 4.82235 2.18707 4.86339 2.18707 4.90955C2.20546 5.15576 2.2545 5.39685 2.35258 5.6328C2.41388 5.77129 2.48745 5.90978 2.57327 6.04315C3.68284 7.77688 7.01769 9.03358 10.9656 9.03358C14.9134 9.03358 18.2422 7.77688 19.3579 6.04315C19.4437 5.90978 19.5173 5.77129 19.5724 5.6328C19.6705 5.39685 19.7196 5.15576 19.7379 4.90955C19.7441 4.86339 19.7502 4.82235 19.7502 4.77619C19.7502 4.62744 19.7379 4.48382 19.7073 4.34019ZM18.9042 5.30452C18.7878 5.65332 18.5548 5.98673 18.2238 6.29962C16.9242 7.53067 14.1226 8.40779 10.9656 8.40779C7.8085 8.40779 5.00698 7.53067 3.70123 6.29962C3.21082 5.83284 2.92269 5.31478 2.92269 4.77619C2.92269 2.80651 6.60697 1.13946 10.9656 1.13946C15.3242 1.13946 19.0084 2.80651 19.0084 4.77619C19.0084 4.95572 18.9655 5.13012 18.9042 5.30452Z" fill="#E5E8EB"/>
</svg>
