<svg width="25" height="24" viewBox="0 0 25 24" fill="none" xmlns="http://www.w3.org/2000/svg">
<g clip-path="url(#clip0_8805_93795)">
<path d="M21.0768 12C21.0768 10.923 21.9498 10.05 23.0268 10.05V5.1276C23.0268 4.5852 22.587 4.146 22.0452 4.146H2.40836C1.86596 4.146 1.42676 4.5858 1.42676 5.1276V10.05C2.50376 10.05 3.37676 10.923 3.37676 12C3.37676 13.077 2.50376 13.95 1.42676 13.95V18.8724C1.42676 19.4148 1.86656 19.854 2.40836 19.854H22.0446C22.587 19.854 23.0262 19.4142 23.0262 18.8724V13.95C21.9492 13.95 21.0768 13.077 21.0768 12Z" fill="#C0BFED"/>
<path d="M15.5301 10.7672L13.2471 10.4354L12.2265 8.36719L11.2059 10.4354L8.92285 10.7672L10.5747 12.3776L10.1847 14.651L12.2265 13.5776L14.2683 14.651L13.8783 12.3776L15.5301 10.7672Z" fill="#817FE0"/>
</g>
<defs>
<clipPath id="clip0_8805_93795">
<rect width="24" height="24" fill="white" transform="translate(0.226562)"/>
</clipPath>
</defs>
</svg>
