<svg width="22" height="21" viewBox="0 0 22 21" fill="none" xmlns="http://www.w3.org/2000/svg">
<path d="M14.6549 9.65979H4.53467V5.65599C4.53467 2.86599 6.80507 0.596191 9.59507 0.596191C12.3851 0.596191 14.6555 2.86539 14.6555 5.65599L14.6549 9.65979ZM6.28427 7.91019H12.9047V5.65599C12.9047 3.83079 11.4197 2.34579 9.59447 2.34579C7.76927 2.34579 6.28427 3.83079 6.28427 5.65599V7.91019Z" fill="#BCC0C5"/>
<path d="M16.2071 6.85791H2.98252C1.65704 6.85791 0.58252 7.93243 0.58252 9.25791V18.2765C0.58252 19.602 1.65704 20.6765 2.98252 20.6765H16.2071C17.5326 20.6765 18.6071 19.602 18.6071 18.2765V9.25791C18.6071 7.93243 17.5326 6.85791 16.2071 6.85791Z" fill="#D2D7DC"/>
<path d="M20.0957 1.77406C17.7059 -0.615738 13.8029 -0.587538 11.3777 1.83706C9.63169 3.58306 9.13549 6.09346 9.88249 8.25586L4.10029 14.0387C3.07009 15.0689 3.07009 16.7393 4.10029 17.7695C5.13049 18.7997 6.80089 18.7997 7.83109 17.7695L8.51749 17.0831L7.40629 15.9719C7.10449 15.6707 7.10449 15.1811 7.40629 14.8793C7.70809 14.5781 8.19709 14.5781 8.49889 14.8793L9.61009 15.9905L10.7027 14.8985L9.59149 13.7873C9.28969 13.4855 9.28969 12.9965 9.59149 12.6947C9.89329 12.3929 10.3823 12.3929 10.6841 12.6947L11.7953 13.8059L13.6145 11.9867C15.7769 12.7343 18.2873 12.2375 20.0333 10.4915C22.4579 8.06686 22.4867 4.16386 20.0963 1.77346L20.0957 1.77406ZM18.6905 5.96986C17.9087 6.75166 16.6505 6.76066 15.8795 5.99026C15.1091 5.21986 15.1181 3.96106 15.8999 3.17926C16.6817 2.39746 17.9399 2.38846 18.7109 3.15886C19.4819 3.92926 19.4723 5.18806 18.6905 5.96986Z" fill="#5E59FF"/>
</svg>
