<svg width="33" height="37" viewBox="0 0 33 37" fill="none" xmlns="http://www.w3.org/2000/svg">
<path d="M25.7537 16.6534H7.1709V9.29141C7.1709 4.16829 11.3392 0 16.4623 0C21.5854 0 25.7537 4.16829 25.7537 9.29141V16.6534ZM10.4634 13.3609H22.4612V9.29141C22.4612 5.98356 19.7702 3.29249 16.4623 3.29249C13.1545 3.29249 10.4634 5.98356 10.4634 9.29141V13.3609Z" fill="#FFFBF4"/>
<path d="M28.5349 11.4863H4.38999C1.96547 11.4863 0 13.4518 0 15.8763V32.3388C0 34.7633 1.96547 36.7288 4.38999 36.7288H28.5349C30.9595 36.7288 32.9249 34.7633 32.9249 32.3388V15.8763C32.9249 13.4518 30.9595 11.4863 28.5349 11.4863Z" fill="#FFFBF4"/>
<path d="M16.4624 24.7022C18.2808 24.7022 19.7549 23.2281 19.7549 21.4097C19.7549 19.5913 18.2808 18.1172 16.4624 18.1172C14.644 18.1172 13.1699 19.5913 13.1699 21.4097C13.1699 23.2281 14.644 24.7022 16.4624 24.7022Z" fill="#BEBEBE"/>
<path d="M16.4624 29.9154C15.5526 29.9154 14.8162 29.1779 14.8162 28.2691V22.324C14.8162 21.4153 15.5526 20.6777 16.4624 20.6777C17.3722 20.6777 18.1087 21.4153 18.1087 22.324V28.2691C18.1087 29.1779 17.3722 29.9154 16.4624 29.9154Z" fill="#BEBEBE"/>
</svg>
