<svg width="157" height="269" viewBox="0 0 157 269" fill="none" xmlns="http://www.w3.org/2000/svg">
<path d="M63.0558 69.3222C63.0558 68.0948 64.0159 67.0818 65.2416 67.016L83.1755 66.0525C84.4046 65.9864 85.4696 66.8959 85.5968 68.1202L86.9371 81.0241C87.0786 82.3868 86.0098 83.5725 84.6397 83.5725H65.3646C64.0889 83.5725 63.0548 82.5383 63.0549 81.2626L63.0558 69.3222Z" fill="#FFDBB1"/>
<path fill-rule="evenodd" clip-rule="evenodd" d="M99.9091 42.5641C99.9091 44.9079 99.6534 47.1904 99.1689 49.3838C100.458 50.2233 101.297 51.5868 101.297 53.1261C101.297 55.6773 98.9934 57.7455 96.1522 57.7455C96.1024 57.7455 96.0528 57.7449 96.0033 57.7436C90.848 67.025 81.1022 73.2836 69.8877 73.2836C57.5298 73.2836 48.2965 66.8183 43.7125 57.2852C43.4883 57.312 43.2596 57.3258 43.0272 57.3258C40.186 57.3258 37.8828 55.2576 37.8828 52.7063C37.8828 50.8144 39.1494 49.1881 40.9627 48.4739C40.6477 46.5615 40.4862 44.5856 40.4862 42.5641C40.4862 28.3913 53.3073 23.0996 69.8877 23.0996C86.4681 23.0996 98.0621 27.6857 99.9091 42.5641Z" fill="url(#paint0_linear_1489_20601)"/>
<rect x="46.0508" y="184.78" width="25.407" height="48.9242" rx="4.82942" fill="#FFDBB1"/>
<rect x="79.4336" y="184.78" width="25.407" height="48.9242" rx="4.82942" fill="#FFDBB1"/>
<path d="M38.0158 164.357C38.0464 163.8 38.5067 163.364 39.0641 163.364H41.4299C42.0098 163.364 42.4798 163.834 42.4798 164.414V180.582C42.4798 181.162 42.0098 181.632 41.4299 181.632H38.1756C37.5731 181.632 37.0942 181.126 37.1273 180.525L38.0158 164.357Z" fill="#BBAC57"/>
<path d="M40.2658 144.77C40.329 142.149 42.472 140.057 45.0938 140.057H68.7288C71.4241 140.057 73.5977 142.263 73.5577 144.958L72.9741 184.223C72.9349 186.862 70.7845 188.981 68.1453 188.981H44.1466C41.4337 188.981 39.2531 186.747 39.3185 184.035L40.2658 144.77Z" fill="#8B8446"/>
<path d="M113.065 164.311C113.013 163.773 112.561 163.362 112.02 163.362H109.463C108.884 163.362 108.414 163.832 108.414 164.412V180.58C108.414 181.16 108.884 181.63 109.463 181.63H113.586C114.206 181.63 114.69 181.096 114.631 180.479L113.065 164.311Z" fill="#BBAC57"/>
<path d="M110.754 144.705C110.657 142.109 108.525 140.056 105.928 140.056H82.2061C79.5063 140.056 77.3309 142.269 77.3773 144.968L78.0527 184.233C78.098 186.868 80.2466 188.98 82.8814 188.98H107.397C110.135 188.98 112.325 186.706 112.223 183.97L110.754 144.705Z" fill="#8B8446"/>
<rect x="38.8164" y="90.1377" width="18.1944" height="90.9063" rx="9.09721" transform="rotate(16.7821 38.8164 90.1377)" fill="#FFDBB1"/>
<path d="M116.845 97.9351C116.049 94.4036 112.726 92.0345 109.129 92.4338C104.997 92.8924 102.14 96.7834 102.939 100.863L113.92 156.917C114.763 161.218 118.943 164.013 123.24 163.149C127.592 162.274 130.371 157.989 129.396 153.659L116.845 97.9351Z" fill="#FFDBB1"/>
<rect width="22.5802" height="22.7653" rx="11.2901" transform="matrix(-0.980899 0.194519 0.194519 0.980899 132.938 152.204)" fill="#FFDBB1"/>
<path fill-rule="evenodd" clip-rule="evenodd" d="M37.6697 116.328L28.4351 106.54C27.0339 105.055 27.0086 102.668 28.3779 101.15L41.5439 86.547C41.9084 86.1428 42.3648 85.8751 42.8508 85.7518C45.9965 83.1075 50.0596 81.5046 54.5229 81.5046H76.3642L94.2639 79.8565C100.18 79.3117 105.637 81.6571 109.322 85.676L125.326 101.135C126.841 102.599 126.928 105.078 125.519 106.646L113.773 119.714L113.28 153.848C113.248 156.101 111.154 157.756 108.954 157.268C88.0765 152.635 66.4385 152.623 45.5555 157.231L45.132 157.325C42.9996 157.795 40.9421 156.276 40.7638 154.1L37.6697 116.328Z" fill="url(#paint1_linear_1489_20601)"/>
<path fill-rule="evenodd" clip-rule="evenodd" d="M96.4758 79.6542C96.8782 79.2071 97.0207 78.7095 97.0064 78.2192C97.9984 78.2648 99.1106 78.3034 100.354 78.334C120.485 78.829 113.417 61.619 112.509 63.5992C111.033 66.8198 108.297 67.5923 105.899 68.2692C104.808 68.5773 103.786 68.8656 102.986 69.356C102.714 69.523 102.403 69.7086 102.064 69.9107C99.8563 71.2265 96.4765 73.2413 95.035 75.3628C92.5408 74.1925 90.5832 75.5558 89.4418 77.0312C89.3311 76.4631 88.6881 75.9029 88.1371 76.0352C80.7718 77.8043 66.3744 80.8873 63.4735 76.7123C63.3008 76.4638 63.0192 76.2866 62.7467 76.4181C61.5437 76.9985 59.6845 79.2606 59.6524 81.6846C59.6503 81.843 59.7054 81.9946 59.8143 82.1098C62.5811 85.0366 73.611 86.266 89.123 81.487C89.5424 81.3578 89.8533 80.8149 89.9096 80.3201C92.0606 82.4697 95.0322 80.9399 96.4758 79.6542Z" fill="#FF901C"/>
<rect x="43.9492" y="221.526" width="29.6065" height="35.9057" rx="4.82942" fill="#8B6546"/>
<rect x="43.9492" y="248.192" width="29.6065" height="19.9476" rx="4.82942" fill="#353028"/>
<circle cx="49.9571" cy="229.847" r="1.60159" fill="#1D1E18"/>
<circle cx="67.8047" cy="229.847" r="1.60159" fill="#1D1E18"/>
<circle cx="49.9571" cy="235.659" r="1.60159" fill="#1D1E18"/>
<circle cx="67.8047" cy="235.659" r="1.60159" fill="#1D1E18"/>
<circle cx="49.9571" cy="241.395" r="1.60159" fill="#1D1E18"/>
<circle cx="67.8047" cy="241.395" r="1.60159" fill="#1D1E18"/>
<path d="M49.9297 229.925L66.5291 235.198C66.9184 235.321 66.9199 235.872 66.5312 235.997L49.9297 241.368" stroke="#353028" stroke-width="1.46982" stroke-linecap="round"/>
<path d="M67.8828 241.368L51.2834 236.095C50.8941 235.972 50.8926 235.421 51.2813 235.296L67.8828 229.925" stroke="#353028" stroke-width="1.46982" stroke-linecap="round"/>
<rect x="77.3359" y="221.526" width="29.6065" height="35.9057" rx="4.82942" fill="#8B6546"/>
<rect x="77.3359" y="248.192" width="29.6065" height="19.9476" rx="4.82942" fill="#353028"/>
<circle cx="83.3477" cy="229.847" r="1.60159" fill="#1D1E18"/>
<circle cx="101.195" cy="229.847" r="1.60159" fill="#1D1E18"/>
<circle cx="83.3477" cy="235.659" r="1.60159" fill="#1D1E18"/>
<circle cx="101.195" cy="235.659" r="1.60159" fill="#1D1E18"/>
<circle cx="83.3477" cy="241.395" r="1.60159" fill="#1D1E18"/>
<circle cx="101.195" cy="241.395" r="1.60159" fill="#1D1E18"/>
<path d="M83.3203 229.925L99.9197 235.198C100.309 235.321 100.311 235.872 99.9218 235.997L83.3203 241.368" stroke="#353028" stroke-width="1.46982" stroke-linecap="round"/>
<path d="M101.273 241.368L84.674 236.095C84.2847 235.972 84.2832 235.421 84.6719 235.296L101.273 229.925" stroke="#353028" stroke-width="1.46982" stroke-linecap="round"/>
<rect x="80.9062" y="97.4307" width="22.8873" height="24.3571" rx="1.46982" fill="#A49850"/>
<rect x="82.5859" y="99.1104" width="19.5277" height="3.94136" rx="0.629925" fill="#8B8446"/>
<rect width="1.58822" height="2.9118" rx="0.794109" transform="matrix(0.958156 -0.286245 0.274972 0.961452 61.5156 54.8955)" fill="#1D1E18"/>
<rect width="1.58822" height="2.9118" rx="0.794109" transform="matrix(0.958156 -0.286245 0.274972 0.961452 66.6484 54.9814)" fill="#1D1E18"/>
<path d="M39.8321 37.5364L40.1311 37.0125C41.9739 33.7838 45.4516 31.8396 49.1672 31.9611L93.7361 33.4176C97.1339 33.5286 100.179 35.5453 101.607 38.6304L101.709 38.8507C101.838 39.1285 101.988 39.3958 102.158 39.6503L103.362 41.4508C106.259 45.782 101.749 51.2288 96.9536 49.1916L84.4746 45.325C77.8445 43.2706 70.7223 43.4566 64.2084 45.8544L53.0612 49.9576C49.574 51.2412 45.6692 50.6032 42.7718 48.2766L41.7111 47.4247C39.8786 45.9532 38.8125 43.7298 38.8125 41.3796C38.8125 40.0317 39.1639 38.7071 39.8321 37.5364Z" fill="url(#paint2_linear_1489_20601)"/>
<path d="M110.13 44.8862C75.5669 31.7352 46.1683 33.8951 34.7045 36.8305C34.0161 37.0067 33.1291 36.8739 33.3966 36.215C34.1564 34.343 38.9459 30.1373 42.208 27.5031C42.6878 27.1156 43.0744 26.5978 43.3249 26.0348C59.8871 -11.1858 100.901 5.79541 102.608 31.777C102.671 32.7242 103.043 33.6363 103.695 34.3218C109.513 40.4339 110.34 43.8219 110.13 44.8862Z" fill="#C4A576"/>
<path d="M42.7134 25.5964L47.0324 17.9377C47.308 17.449 47.8978 17.2423 48.4323 17.403C55.5233 19.5354 84.9684 21.4052 99.2892 20.2818C99.7761 20.2437 100.216 20.5334 100.376 20.9935C101.513 24.2775 103.077 29.0879 103.957 32.1972C104.197 33.0474 103.347 33.7738 102.52 33.4648C88.356 28.1745 57.964 26.5773 43.6979 27.2116C42.8486 27.2493 42.2947 26.339 42.7134 25.5964Z" fill="#8B6546"/>
<path d="M70.1953 149.379H81.114V167.857L77.4879 167.117C76.2641 166.867 75.0023 166.868 73.7789 167.12L70.1953 167.857V149.379Z" fill="#8B8446"/>
<path d="M110.182 159.427C78.888 152.926 52.2871 156.014 41.8492 159.06C40.9478 159.323 39.9175 159.278 39.4674 158.453C38.151 156.043 38.5612 150.768 40.4316 149.925C40.4529 149.915 40.4749 149.908 40.4977 149.903C68.45 143.335 98.2732 147.352 111.381 150.29C112.832 150.615 113.906 151.84 113.995 153.324C114.063 154.46 114.089 155.551 114.078 156.545C114.054 158.561 112.156 159.837 110.182 159.427Z" fill="#8B6546"/>
<path d="M66.5902 155.174L66.5899 147.833C66.5899 146.79 67.436 145.943 68.4797 145.943L82.3913 145.943C83.435 145.943 84.2811 146.79 84.2811 147.833V155.174C84.2811 156.217 83.435 157.064 82.3913 157.064H68.48C67.4364 157.064 66.5903 156.217 66.5902 155.174Z" fill="#EDC662"/>
<circle cx="71.9808" cy="97.7396" r="2.39093" fill="#55462A"/>
<circle cx="71.9808" cy="113.231" r="2.39093" fill="#55462A"/>
<circle cx="71.9808" cy="128.722" r="2.39093" fill="#55462A"/>
<rect x="38.6992" y="180.58" width="35.6957" height="8.399" rx="2.5197" fill="#827B3F"/>
<rect x="77.3359" y="180.58" width="35.0658" height="8.399" rx="2.5197" fill="#827B3F"/>
<path d="M25.3399 194.771C25.6139 194.472 26.0628 194.411 26.4065 194.627L32.8643 198.685C33.208 198.901 33.348 199.332 33.197 199.709L29.4654 209.019C29.2704 209.506 28.6826 209.697 28.2389 209.418L18.7426 203.45C18.2989 203.172 18.216 202.559 18.5697 202.172L25.3399 194.771Z" fill="#8B6546"/>
<path d="M8.98443 184.492C9.2584 184.192 9.70736 184.132 10.051 184.348L16.5088 188.406C16.8525 188.622 16.9926 189.053 16.8416 189.429L13.1099 198.74C12.915 199.226 12.3271 199.417 11.8834 199.139L2.3871 193.171C1.94341 192.892 1.86057 192.28 2.21426 191.893L8.98443 184.492Z" fill="#8B6546"/>
<rect x="28.1172" y="171.646" width="9.2389" height="15.1182" rx="0.8399" transform="rotate(32.1455 28.1172 171.646)" fill="#736D63"/>
<rect x="24.875" y="159.44" width="9.2389" height="9.86882" rx="0.8399" transform="rotate(32.1455 24.875 159.44)" fill="#353028"/>
<rect x="28.5664" y="170.935" width="9.2389" height="4.1995" rx="0.8399" transform="rotate(32.1455 28.5664 170.935)" fill="#353028"/>
<rect x="21.6367" y="181.957" width="9.2389" height="4.1995" rx="0.8399" transform="rotate(32.1455 21.6367 181.957)" fill="#353028"/>
<rect x="41.2305" y="169.719" width="9.2389" height="9.86882" rx="0.8399" transform="rotate(32.1455 41.2305 169.719)" fill="#353028"/>
<rect x="36.4375" y="173.402" width="13.2284" height="23.9371" rx="0.8399" transform="rotate(32.1455 36.4375 173.402)" fill="#353028"/>
<rect x="20.082" y="163.123" width="13.2284" height="23.9371" rx="0.8399" transform="rotate(32.1455 20.082 163.123)" fill="#353028"/>
<rect x="20.0898" y="154.544" width="9.5608" height="19.6335" rx="4.7804" transform="rotate(10.0907 20.0898 154.544)" fill="#FFDBB1"/>
<defs>
<linearGradient id="paint0_linear_1489_20601" x1="69.5898" y1="23.0996" x2="81.2251" y2="73.2838" gradientUnits="userSpaceOnUse">
<stop offset="0.380425" stop-color="#FFDBAF"/>
<stop offset="1" stop-color="#FFCA97"/>
</linearGradient>
<linearGradient id="paint1_linear_1489_20601" x1="75.1688" y1="79.7783" x2="75.1688" y2="1131.36" gradientUnits="userSpaceOnUse">
<stop stop-color="#8B8446"/>
<stop offset="1" stop-color="#252313"/>
</linearGradient>
<linearGradient id="paint2_linear_1489_20601" x1="77.0768" y1="6.5663" x2="77.0768" y2="60.9502" gradientUnits="userSpaceOnUse">
<stop stop-color="#FF9D42"/>
<stop offset="0.83913" stop-color="#FF4D34"/>
</linearGradient>
</defs>
</svg>
