<svg width="22" height="23" viewBox="0 0 22 23" fill="none" xmlns="http://www.w3.org/2000/svg">
<g clip-path="url(#clip0_14908_27437)">
<path d="M11 20.6133C16.3157 20.6133 20.625 16.304 20.625 10.9883C20.625 5.67254 16.3157 1.36328 11 1.36328C5.68426 1.36328 1.375 5.67254 1.375 10.9883C1.375 16.304 5.68426 20.6133 11 20.6133Z" fill="#EBEBEB"/>
<path d="M10.9997 18.144C14.954 18.144 18.1596 14.9384 18.1596 10.9841C18.1596 7.02981 14.954 3.82422 10.9997 3.82422C7.04544 3.82422 3.83984 7.02981 3.83984 10.9841C3.83984 14.9384 7.04544 18.144 10.9997 18.144Z" fill="#F3F3F3"/>
<path d="M15.3173 7.13626L14.561 14.7857H13.3032L12.6217 10.6145C12.4507 8.98646 13.3802 7.44206 14.8987 6.83101C15.1083 6.74686 15.3332 6.91076 15.3173 7.13626Z" fill="#B7B7B7"/>
<path d="M13.3048 14.7852L12.7971 21.5205C12.7867 21.9605 13.1403 22.3224 13.5803 22.3224H14.2849C14.7249 22.3224 15.0785 21.9605 15.0681 21.5205L14.5621 14.7852H13.3048Z" fill="#767676"/>
<path d="M8.211 14.7852L7.70335 21.5205C7.6929 21.9605 8.04655 22.3224 8.48655 22.3224H9.1911C9.6311 22.3224 9.98475 21.9605 9.9743 21.5205L9.4683 14.7852H8.21045H8.211Z" fill="#767676"/>
<path d="M9.44697 14.4519C9.45027 13.9778 9.82097 13.8453 9.82097 13.8453L9.81877 13.8431C9.83417 13.8354 9.85067 13.8315 9.86662 13.8238L10.7939 13.4949C11.3005 13.2359 11.609 12.5918 11.5436 11.9285L10.8896 7.18149C10.8599 6.96754 10.6773 6.80859 10.4617 6.80859C10.2208 6.80859 10.0267 7.00549 10.0294 7.24639L10.0806 11.3389C10.0806 11.4913 10.0063 11.6277 9.89082 11.6865C9.81382 11.7261 9.72637 11.7261 9.64937 11.6865C9.53442 11.6277 9.45962 11.4913 9.45962 11.3389L9.38977 7.23319C9.38592 6.99724 9.19342 6.80859 8.95747 6.80859H8.72372C8.48777 6.80859 8.29582 6.99779 8.29142 7.23319L8.22157 11.3389C8.22157 11.4913 8.14732 11.6277 8.03127 11.6865C7.95482 11.7261 7.86682 11.7261 7.78982 11.6865C7.67487 11.6277 7.60007 11.4913 7.60007 11.3389L7.65177 7.24639C7.65507 7.00549 7.46037 6.80859 7.21947 6.80859C7.00332 6.80859 6.82072 6.96809 6.79157 7.18149L6.13762 11.9285C6.07217 12.5913 6.38072 13.2353 6.88727 13.4949L7.81457 13.8238C7.82942 13.8315 7.84537 13.8354 7.86077 13.8425L7.85802 13.8453C7.85802 13.8453 8.24577 13.9811 8.23422 14.4783L8.21277 14.7852H9.47062L9.44697 14.4519Z" fill="#B7B7B7"/>
</g>
<defs>
<clipPath id="clip0_14908_27437">
<rect width="22" height="22" fill="white" transform="translate(0 0.839844)"/>
</clipPath>
</defs>
</svg>
