<svg width="297" height="686" viewBox="0 0 297 686" fill="none" xmlns="http://www.w3.org/2000/svg">
<path d="M98.1857 0H198.816L297 660H0L98.1857 0Z" fill="url(#paint0_linear_2538_7020)" fill-opacity="0.4"/>
<ellipse cx="148.5" cy="660" rx="148.5" ry="26" fill="#FBE1C4"/>
<path d="M152.132 616.449V617.189C151.65 617.558 150.6 618.241 149.154 618.241C147.736 618.241 146.686 617.558 146.204 617.189V616.449H121.016C122.59 629.404 124.15 642.359 125.724 655.314C131.099 655.541 136.46 655.783 141.836 656.011C146.062 656.011 146.204 653.252 146.133 648.9L146.175 628.892C146.133 627.129 147.58 625.693 149.267 625.749C150.884 625.806 152.217 627.2 152.16 628.892C152.175 635.562 152.189 642.231 152.203 648.9C152.132 653.252 152.274 656.011 156.5 656.011C161.875 655.783 167.236 655.541 172.612 655.314C174.186 642.359 175.746 629.404 177.32 616.449H152.132Z" fill="#FFDF5A"/>
<path d="M148.7 561.473C148.7 561.473 113.314 559.781 109.201 606.808C109.201 606.808 102.833 608.287 102.011 615.298C101.897 616.322 102.039 617.374 102.45 618.313C105.145 624.3 112.79 625.963 118.193 620.119C123.951 613.89 148.7 561.473 148.7 561.473Z" fill="#F79928"/>
<path d="M111.002 624.215C116.242 624.215 120.49 619.955 120.49 614.701C120.49 609.447 116.242 605.188 111.002 605.188C105.762 605.188 101.514 609.447 101.514 614.701C101.514 619.955 105.762 624.215 111.002 624.215Z" fill="#FFDF5A"/>
<path d="M149.125 561.473C149.125 561.473 184.51 559.781 188.623 606.808C188.623 606.808 194.991 608.287 195.814 615.298C195.927 616.322 195.786 617.374 195.374 618.313C192.68 624.3 185.035 625.963 179.632 620.119C173.874 613.89 149.125 561.473 149.125 561.473Z" fill="#F79928"/>
<path d="M186.822 624.215C192.062 624.215 196.31 619.955 196.31 614.701C196.31 609.447 192.062 605.188 186.822 605.188C181.582 605.188 177.334 609.447 177.334 614.701C177.334 619.955 181.582 624.215 186.822 624.215Z" fill="#FFDF5A"/>
<path d="M114.307 491.665C114.307 491.665 92.7777 489.39 87.9131 507.89C84.6086 520.433 94.2527 528.738 100.848 531.809C106.634 534.511 116.76 535.123 124.816 526.064C132.063 517.93 130.957 510.507 130.957 510.507" fill="#FFDF5A"/>
<path d="M185.12 491.665C185.12 491.665 206.649 489.39 211.514 507.89C214.818 520.433 205.174 528.738 198.579 531.809C192.793 534.511 182.666 535.123 174.611 526.064C167.363 517.93 168.47 510.507 168.47 510.507" fill="#FFDF5A"/>
<path d="M140.658 636.871H128.887C125.245 636.871 122.292 639.832 122.292 643.484V661.387C122.292 665.039 125.245 668 128.887 668H140.658C144.301 668 147.253 665.039 147.253 661.387V643.484C147.253 639.832 144.301 636.871 140.658 636.871Z" fill="#8F6340"/>
<path d="M144.417 654.291H125.185C123.603 654.291 122.32 655.577 122.32 657.164V665.127C122.32 666.714 123.603 668 125.185 668H144.417C145.999 668 147.282 666.714 147.282 665.127V657.164C147.282 655.577 145.999 654.291 144.417 654.291Z" fill="#CEA169"/>
<path d="M157.677 667.999H169.449C173.091 667.999 176.043 665.038 176.043 661.386V643.483C176.043 639.831 173.091 636.87 169.449 636.87H157.677C154.035 636.87 151.082 639.831 151.082 643.483V661.386C151.082 665.038 154.035 667.999 157.677 667.999Z" fill="#8F6340"/>
<path d="M153.919 667.999H173.15C174.732 667.999 176.015 666.713 176.015 665.126V657.163C176.015 655.577 174.732 654.29 173.15 654.29H153.919C152.337 654.29 151.054 655.577 151.054 657.163V665.126C151.054 666.713 152.337 667.999 153.919 667.999Z" fill="#CEA169"/>
<path d="M148.969 577.187C155.65 577.187 161.066 571.52 161.066 564.53C161.066 557.54 155.65 551.874 148.969 551.874C142.287 551.874 136.871 557.54 136.871 564.53C136.871 571.52 142.287 577.187 148.969 577.187Z" fill="#FFDF5A"/>
<path d="M124.206 602.216C126.036 602.216 126.036 599.372 124.206 599.372C122.377 599.372 122.377 602.216 124.206 602.216Z" fill="#303030"/>
<path d="M124.859 602.998C126.689 602.998 126.689 600.154 124.859 600.154C123.029 600.154 123.029 602.998 124.859 602.998Z" fill="#303030"/>
<path d="M149.38 618.512C149.38 618.512 134.971 618.398 121.483 618.725C118.051 618.81 115.186 616.976 115.101 614.629C114.775 605.414 115.442 583.543 127.681 570.219C136.361 560.762 149.125 561.317 149.125 561.317H148.898C148.898 561.317 161.662 560.762 170.342 570.219C182.567 583.543 183.248 605.414 182.922 614.629C182.837 616.976 179.972 618.796 176.54 618.725C163.052 618.398 148.643 618.512 148.643 618.512" fill="#FFB300"/>
<path d="M218.761 467.519L207.898 456.228C207.472 455.773 206.564 456.029 206.111 456.74L196.325 470.007L195.459 458.176C195.573 457.522 195.247 456.868 194.821 456.882L184 457.18C183.56 457.18 183.277 457.877 183.433 458.531L186.936 473.193C178.355 462.869 165.534 456.029 148.189 456.029C132.134 456.029 120.065 461.816 111.612 470.761L114.534 458.531C114.69 457.877 114.406 457.195 113.967 457.18L103.145 456.882C102.72 456.882 102.394 457.522 102.507 458.176L101.642 470.007L91.8561 456.74C91.4023 456.043 90.4946 455.787 90.0691 456.228L79.2053 467.519C78.7656 467.974 79.0635 468.884 79.8009 469.311L93.5438 478.127L81.5879 479.919C80.9355 479.834 80.2973 480.175 80.3257 480.616L81.0065 491.438C81.0348 491.878 81.7298 492.134 82.368 491.964L101.5 486.645C98.139 494.737 96.508 503.753 96.508 512.768C96.508 541.195 119.711 555.401 148.331 555.401C176.951 555.401 200.154 541.195 200.154 512.768C200.154 503.582 198.409 494.395 194.85 486.19L215.641 491.978C216.279 492.163 216.974 491.893 217.003 491.452L217.684 480.63C217.712 480.203 217.074 479.848 216.421 479.933L204.465 478.141L218.208 469.325C218.932 468.898 219.229 467.988 218.804 467.533L218.761 467.519Z" fill="#FFDF5A"/>
<path d="M157.554 516.855L157.54 516.856C156.005 516.883 154.782 518.152 154.809 519.691L154.901 524.995C154.928 526.534 156.194 527.76 157.729 527.733L157.743 527.732C159.278 527.706 160.501 526.436 160.474 524.897L160.382 519.594C160.355 518.054 159.089 516.829 157.554 516.855Z" fill="#292929"/>
<path d="M140.226 516.846L140.211 516.846C138.676 516.873 137.454 518.142 137.481 519.681L137.573 524.985C137.6 526.524 138.866 527.75 140.401 527.723L140.416 527.723C141.951 527.696 143.173 526.427 143.146 524.887L143.054 519.584C143.027 518.045 141.761 516.819 140.226 516.846Z" fill="#292929"/>
<path d="M115.045 541.409C123.379 541.409 130.135 534.634 130.135 526.278C130.135 517.922 123.379 511.147 115.045 511.147C106.711 511.147 99.9546 517.922 99.9546 526.278C99.9546 534.634 106.711 541.409 115.045 541.409Z" fill="#FFCA45"/>
<path d="M181.674 541.409C190.008 541.409 196.764 534.634 196.764 526.278C196.764 517.922 190.008 511.147 181.674 511.147C173.34 511.147 166.584 517.922 166.584 526.278C166.584 534.634 173.34 541.409 181.674 541.409Z" fill="#FFCA45"/>
<path d="M148.97 578.34C150.121 578.34 151.054 577.404 151.054 576.25C151.054 575.095 150.121 574.159 148.97 574.159C147.818 574.159 146.885 575.095 146.885 576.25C146.885 577.404 147.818 578.34 148.97 578.34Z" fill="#644D31"/>
<path d="M148.97 592.46C150.121 592.46 151.054 591.524 151.054 590.37C151.054 589.215 150.121 588.279 148.97 588.279C147.818 588.279 146.885 589.215 146.885 590.37C146.885 591.524 147.818 592.46 148.97 592.46Z" fill="#644D31"/>
<path d="M182.951 601.305C182.653 600.708 181.958 600.424 181.32 600.609C176.696 601.931 171.236 603.154 165.067 603.936C159.011 604.704 153.536 604.889 148.813 604.775C148.813 604.775 148.728 604.775 148.686 604.775C148.643 604.775 148.601 604.775 148.558 604.775C143.835 604.889 138.361 604.704 132.305 603.936C126.135 603.154 120.675 601.931 116.052 600.609C115.413 600.424 114.719 600.708 114.421 601.305C113.967 602.187 113.499 603.495 113.47 605.102C113.442 606.524 113.768 607.705 114.08 608.515C114.251 608.942 114.619 609.255 115.073 609.354C120.278 610.52 126.164 611.558 132.617 612.241C138.332 612.838 143.637 613.066 148.459 613.08C148.459 613.08 148.601 613.08 148.672 613.08C148.742 613.08 148.813 613.08 148.884 613.08C153.706 613.08 159.011 612.838 164.726 612.241C171.193 611.558 177.065 610.52 182.27 609.354C182.724 609.255 183.093 608.942 183.263 608.515C183.575 607.705 183.901 606.524 183.873 605.102C183.844 603.495 183.362 602.201 182.922 601.305H182.951Z" fill="#8F6340"/>
<path d="M173.989 596.52L152.448 597.373C150.358 597.455 148.731 599.221 148.813 601.316L149.201 611.164C149.283 613.259 151.044 614.89 153.134 614.808L174.675 613.955C176.764 613.873 178.392 612.107 178.309 610.012L177.922 600.165C177.839 598.069 176.078 596.438 173.989 596.52Z" fill="#694009"/>
<path d="M173.512 598.824L153.077 599.632C152.279 599.664 151.657 600.338 151.688 601.139L151.697 601.366C151.729 602.167 152.402 602.79 153.2 602.758L173.635 601.95C174.434 601.918 175.055 601.244 175.024 600.443L175.015 600.216C174.983 599.415 174.31 598.792 173.512 598.824Z" fill="#805734"/>
<path d="M111.414 471.602C109.584 473.464 107.556 475.825 105.613 478.74C103.982 481.186 102.777 483.504 101.869 485.538" stroke="#FFB339" stroke-width="3.46281" stroke-miterlimit="10" stroke-linecap="round"/>
<path d="M186.539 471.602C188.368 473.464 190.396 475.825 192.339 478.74C193.97 481.186 195.176 483.504 196.083 485.538" stroke="#FFB339" stroke-width="3.46281" stroke-miterlimit="10" stroke-linecap="round"/>
<path d="M149.494 562.854C135.382 562.612 126.617 571.727 125.256 573.178C126.078 572.054 135.113 559.995 149.494 560.408C158.996 560.678 166.002 566.252 168.073 568.058C170.512 570.177 172.186 572.31 173.264 573.875C171.945 572.367 163.52 563.095 149.494 562.854Z" fill="#FFC239"/>
<defs>
<linearGradient id="paint0_linear_2538_7020" x1="148.5" y1="-523.384" x2="148.5" y2="660" gradientUnits="userSpaceOnUse">
<stop offset="0.551975" stop-color="#452B0F"/>
<stop offset="0.768932" stop-color="#68523C" stop-opacity="0.888307"/>
<stop offset="1" stop-color="white" stop-opacity="0.4"/>
</linearGradient>
</defs>
</svg>
