<svg width="41" height="22" viewBox="0 0 41 22" fill="none" xmlns="http://www.w3.org/2000/svg">
<rect x="0.505859" y="0.5" width="40" height="21" rx="10.5" stroke="#E57A2C"/>
<path d="M19.3809 5.49609V10.9219H18.2559V5.49609H19.3809ZM19.3809 11.4023V14.0039H13.5332V15H19.7441V15.8906H12.4434V13.1953H18.2793V12.2812H12.4082V11.4023H19.3809ZM16.8145 6.1875V7.06641H15.8066V9.55078C16.3164 9.51562 16.8203 9.46875 17.2949 9.41016L17.3418 10.2188C15.2441 10.5352 12.7949 10.6055 10.9551 10.6055L10.8262 9.71484L12.1035 9.70312V7.06641H11.1074V6.1875H16.8145ZM13.1699 9.67969C13.6855 9.66211 14.2129 9.64453 14.7402 9.60938V7.06641H13.1699V9.67969ZM26.4004 6.42188C26.3887 7.81641 28.0996 9.12891 30.1621 9.39844L29.7285 10.3125C28.0117 10.0371 26.5 9.14648 25.8262 7.91016C25.1348 9.15234 23.6289 10.0371 21.9238 10.3125L21.4785 9.39844C23.541 9.12891 25.2285 7.82812 25.2402 6.42188V5.84766H26.4004V6.42188ZM30.5957 11.3438V12.2578H26.3301V15.9961H25.2402V12.2578H21.0215V11.3438H30.5957Z" fill="#E57A2C"/>
</svg>
