<svg width="41" height="23" viewBox="0 0 41 23" fill="none" xmlns="http://www.w3.org/2000/svg">
<rect x="0.5" y="0.910156" width="40" height="21" rx="10.5" stroke="#5E59FF"/>
<path d="M19.375 5.90625V11.332H18.25V5.90625H19.375ZM19.375 11.8125V14.4141H13.5273V15.4102H19.7383V16.3008H12.4375V13.6055H18.2734V12.6914H12.4023V11.8125H19.375ZM16.8086 6.59766V7.47656H15.8008V9.96094C16.3105 9.92578 16.8145 9.87891 17.2891 9.82031L17.3359 10.6289C15.2383 10.9453 12.7891 11.0156 10.9492 11.0156L10.8203 10.125L12.0977 10.1133V7.47656H11.1016V6.59766H16.8086ZM13.1641 10.0898C13.6797 10.0723 14.207 10.0547 14.7344 10.0195V7.47656H13.1641V10.0898ZM26.3945 6.83203C26.3828 8.22656 28.0938 9.53906 30.1562 9.80859L29.7227 10.7227C28.0059 10.4473 26.4941 9.55664 25.8203 8.32031C25.1289 9.5625 23.623 10.4473 21.918 10.7227L21.4727 9.80859C23.5352 9.53906 25.2227 8.23828 25.2344 6.83203V6.25781H26.3945V6.83203ZM30.5898 11.7539V12.668H26.3242V16.4062H25.2344V12.668H21.0156V11.7539H30.5898Z" fill="#5E59FF"/>
</svg>
