<svg width="27" height="27" viewBox="0 0 27 27" fill="none" xmlns="http://www.w3.org/2000/svg">
<path d="M25.8092 11.8473V6.41371C25.8092 6.04951 25.6644 5.70037 25.407 5.44228L21.084 1.11923C20.8266 0.861859 20.4767 0.717041 20.1125 0.717041H14.679C14.3148 0.717041 13.9657 0.861859 13.7076 1.11923L0.402194 14.4253C-0.134065 14.9616 -0.134065 15.8312 0.402194 16.3675L10.1588 26.1241C10.6951 26.6603 11.5647 26.6603 12.1009 26.1241L25.407 12.818C25.6644 12.5606 25.8092 12.2115 25.8092 11.8473ZM18.3167 8.2096C17.6191 7.51203 17.6191 6.38073 18.3167 5.68316C19.0142 4.9856 20.1455 4.9856 20.8431 5.68316C21.5407 6.38073 21.5407 7.51203 20.8431 8.2096C20.1455 8.90716 19.0142 8.90716 18.3167 8.2096Z" fill="#FFC84D"/>
<path d="M19.5811 9.34752C18.966 9.34752 18.3501 9.1138 17.882 8.64565C16.9449 7.70864 16.9449 6.18446 17.882 5.24744C18.819 4.31042 20.3424 4.31042 21.2802 5.24744C22.2172 6.18518 22.2172 7.70935 21.2802 8.64565C20.8113 9.1138 20.1955 9.34752 19.5811 9.34752ZM19.5811 5.61952C19.2405 5.61952 18.9014 5.74857 18.6419 6.00738C18.1243 6.52571 18.1243 7.36738 18.6419 7.885C19.1595 8.40262 20.0012 8.40262 20.5195 7.885C21.0371 7.36738 21.0371 6.52571 20.5195 6.00738C20.2607 5.74929 19.9209 5.61952 19.5811 5.61952Z" fill="#FF8800"/>
<path d="M20.5628 6.68046C20.3793 6.68046 20.1957 6.61021 20.0559 6.47041C19.7756 6.19009 19.7756 5.73699 20.0559 5.45668L25.3024 0.210238C25.5827 -0.0700792 26.0358 -0.0700792 26.3161 0.210238C26.5964 0.490554 26.5964 0.943649 26.3161 1.22397L21.0697 6.47041C20.9299 6.61021 20.7463 6.68046 20.5628 6.68046Z" fill="#6E4944"/>
</svg>
