<svg width="27" height="28" viewBox="0 0 27 28" fill="none" xmlns="http://www.w3.org/2000/svg">
<path d="M26.0358 12.349V6.91542C26.0358 6.55122 25.891 6.20208 25.6336 5.94399L21.3105 1.62094C21.0532 1.36357 20.7033 1.21875 20.3391 1.21875H14.9056C14.5414 1.21875 14.1922 1.36357 13.9341 1.62094L0.628756 14.927C0.0924979 15.4633 0.0924979 16.3329 0.628756 16.8692L10.3854 26.6258C10.9216 27.162 11.7912 27.162 12.3275 26.6258L25.6336 13.3197C25.891 13.0623 26.0358 12.7132 26.0358 12.349ZM18.5432 8.71131C17.8457 8.01374 17.8457 6.88244 18.5432 6.18487C19.2408 5.48731 20.3721 5.48731 21.0697 6.18487C21.7672 6.88244 21.7672 8.01374 21.0697 8.71131C20.3721 9.40887 19.2408 9.40887 18.5432 8.71131Z" fill="#C0BFED"/>
<path d="M19.8071 9.84972C19.192 9.84972 18.5762 9.616 18.108 9.14785C17.171 8.21083 17.171 6.68666 18.108 5.74964C19.0451 4.81262 20.5685 4.81262 21.5062 5.74964C22.4433 6.68737 22.4433 8.21155 21.5062 9.14785C21.0374 9.616 20.4215 9.84972 19.8071 9.84972ZM19.8071 6.12172C19.4666 6.12172 19.1275 6.25077 18.868 6.50958C18.3504 7.02791 18.3504 7.86958 18.868 8.3872C19.3856 8.90481 20.2273 8.90481 20.7456 8.3872C21.2632 7.86958 21.2632 7.02791 20.7456 6.50958C20.4868 6.25148 20.147 6.12172 19.8071 6.12172Z" fill="#6360C5"/>
<path d="M20.7894 7.18046C20.6058 7.18046 20.4223 7.11021 20.2825 6.97041C20.0022 6.69009 20.0022 6.23699 20.2825 5.95668L25.5289 0.710238C25.8093 0.429921 26.2624 0.429921 26.5427 0.710238C26.823 0.990554 26.823 1.44365 26.5427 1.72397L21.2962 6.97041C21.1564 7.11021 20.9729 7.18046 20.7894 7.18046Z" fill="#282C75"/>
</svg>
