<svg width="22" height="23" viewBox="0 0 22 23" fill="none" xmlns="http://www.w3.org/2000/svg">
<path d="M1.91699 1.93579V18.149C8.4541 18.3494 14.9919 9.3263 21.529 10.8779C14.9919 5.16589 8.4541 9.23388 1.91699 1.93579Z" fill="#FF901C"/>
<path d="M1.34943 22.522C0.976362 22.522 0.674805 22.2204 0.674805 21.8474V1.82721C0.674805 1.45415 0.976362 1.15259 1.34943 1.15259C1.7225 1.15259 2.02405 1.45415 2.02405 1.82721V21.8474C2.02405 22.2204 1.7225 22.522 1.34943 22.522Z" fill="#333D4B"/>
<path d="M1.34925 3.17653C2.09442 3.17653 2.6985 2.57245 2.6985 1.82728C2.6985 1.08211 2.09442 0.478027 1.34925 0.478027C0.604079 0.478027 0 1.08211 0 1.82728C0 2.57245 0.604079 3.17653 1.34925 3.17653Z" fill="#333D4B"/>
</svg>
