<svg width="23" height="23" viewBox="0 0 23 23" fill="none" xmlns="http://www.w3.org/2000/svg">
<path d="M2.6438 1.82812V18.0414C9.18091 18.2417 15.7187 9.21864 22.2558 10.7703C15.7187 5.05823 9.18091 9.12621 2.6438 1.82812Z" fill="#5E59FF"/>
<path d="M2.07624 22.4085C1.70317 22.4085 1.40161 22.1069 1.40161 21.7338V1.71369C1.40161 1.34062 1.70317 1.03906 2.07624 1.03906C2.4493 1.03906 2.75086 1.34062 2.75086 1.71369V21.7338C2.75086 22.1069 2.4493 22.4085 2.07624 22.4085Z" fill="#333D4B"/>
<path d="M2.07581 3.06569C2.82098 3.06569 3.42506 2.46161 3.42506 1.71644C3.42506 0.971267 2.82098 0.367188 2.07581 0.367188C1.33064 0.367188 0.726562 0.971267 0.726562 1.71644C0.726562 2.46161 1.33064 3.06569 2.07581 3.06569Z" fill="#333D4B"/>
</svg>
