<svg width="25" height="24" viewBox="0 0 25 24" fill="none" xmlns="http://www.w3.org/2000/svg">
<g clip-path="url(#clip0_8034_169757)">
<path d="M6.58009 17.0771H2.09072C1.33661 17.0771 0.725586 16.466 0.725586 15.7119V8.287C0.725586 7.5329 1.33661 6.92188 2.09072 6.92188H6.58009V17.0771Z" fill="#817FE0"/>
<path d="M6.58057 17.0778V6.92256L19.3499 0.867606C20.2554 0.438368 21.2998 1.09847 21.2998 2.10141V21.8996C21.2998 22.9018 20.2554 23.5626 19.3499 23.1334L6.58057 17.0778Z" fill="#C0BFED"/>
<path d="M21.2993 9.46094H22.8614C23.6155 9.46094 24.2266 10.072 24.2266 10.8261V13.1734C24.2266 13.9275 23.6155 14.5385 22.8614 14.5385H21.2993" fill="#5E59FF"/>
</g>
<defs>
<clipPath id="clip0_8034_169757">
<rect width="24" height="24" fill="white" transform="translate(0.226562)"/>
</clipPath>
</defs>
</svg>
