<svg width="87" height="90" viewBox="0 0 87 90" fill="none" xmlns="http://www.w3.org/2000/svg">
<path fill-rule="evenodd" clip-rule="evenodd" d="M55.4546 25.0034C42.9287 31.854 31.6096 51.664 23.2066 63.3728C20.9189 66.3896 18.2792 67.7472 18.8952 62.0027C20.3658 53.229 23.3952 44.9517 28.3791 37.0767C38.5733 20.9999 58.4776 9.20938 76.993 17.5746C79.3373 18.3225 84.1641 20.9999 85.5531 20.1451L85.5719 20.1263C86.213 18.9196 84.0195 16.6947 83.2025 15.7394C59.4581 -8.03646 11.1081 -5.22081 1.94473 31.6968C-7.08671 66.773 22.1885 101.604 58.0251 85.257C74.5922 77.5831 86.7346 60.7772 86.1187 42.3246C85.6285 25.7702 69.9413 16.6256 55.4546 25.0034ZM46.5363 81.2032C35.7702 91.7996 28.9825 76.3764 26.9964 65.7548C26.745 64.4287 27.0027 63.0649 27.7255 61.8959C34.3372 51.2052 50.4455 33.9594 55.6054 37.6612C62.4308 42.5635 61.0042 66.9553 46.5363 81.1969V81.2032Z" fill="url(#paint0_linear_10049_4093)" fill-opacity="0.1"/>
<defs>
<linearGradient id="paint0_linear_10049_4093" x1="14.7734" y1="-4.11543" x2="136.964" y2="195.752" gradientUnits="userSpaceOnUse">
<stop offset="0.210679" stop-color="#5E59FF"/>
<stop offset="1" stop-color="#282C75"/>
</linearGradient>
</defs>
</svg>
