<svg width="21" height="22" viewBox="0 0 21 22" fill="none" xmlns="http://www.w3.org/2000/svg">
<g clip-path="url(#clip0_14908_27408)">
<path d="M14.9458 11.1641L15.3858 14.8795H5.68359L6.04177 11.2506L14.9458 11.1641Z" fill="#333333"/>
<path d="M17.9381 18.8938L10.6084 15.6797L4.26137 18.4166L2.94772 18.2089L2.65352 19.7806C2.64041 19.9059 2.73848 20.015 2.86486 20.015H18.6335C18.6335 19.5215 18.3581 19.0784 17.9381 18.8938Z" fill="#D1D1D1"/>
<path d="M15.727 12.3012C15.727 12.941 15.2288 13.4602 14.6048 13.5074C13.9231 15.1908 12.3446 16.3707 10.4986 16.3707C8.66843 16.3707 7.09519 15.2065 6.4082 13.5389C5.81562 13.4602 5.35938 12.9568 5.35938 12.3432C5.35938 11.8607 5.63731 11.4517 6.04111 11.2524C6.04111 11.2524 6.41869 11.1685 6.75432 11.8555L7.30495 11.3783L10.0686 8.99219C10.0686 8.99219 11.9303 10.9954 13.7815 11.3363C14.0017 11.373 14.2272 11.3992 14.4422 11.3835C14.4894 11.3783 14.5419 11.3678 14.5891 11.3468C14.7254 11.2734 14.8355 11.1475 14.9404 11.1685C15.3967 11.3416 15.727 11.7821 15.727 12.3012Z" fill="#FFCCA8"/>
<path d="M9.43789 12.2775C9.67972 12.2775 9.87577 12.0422 9.87577 11.752C9.87577 11.4618 9.67972 11.2266 9.43789 11.2266C9.19605 11.2266 9 11.4618 9 11.752C9 12.0422 9.19605 12.2775 9.43789 12.2775Z" fill="black"/>
<path d="M11.7504 12.2775C11.9922 12.2775 12.1883 12.0422 12.1883 11.752C12.1883 11.4618 11.9922 11.2266 11.7504 11.2266C11.5085 11.2266 11.3125 11.4618 11.3125 11.752C11.3125 12.0422 11.5085 12.2775 11.7504 12.2775Z" fill="black"/>
<path d="M14.8861 20.0124L14.3339 18.3667C14.2526 18.0904 14.4104 17.7999 14.6868 17.7186C14.7869 17.6892 14.8892 17.6913 14.9826 17.7191L14.863 17.3127C14.7817 17.0363 14.9396 16.7458 15.2159 16.6645C15.3711 16.6189 15.5306 16.6488 15.6549 16.7327C15.5809 16.4532 15.7487 16.1632 16.0345 16.0929C16.3072 16.0258 16.5836 16.1941 16.6628 16.4642L16.7247 16.6745C16.742 16.4663 16.8841 16.2796 17.097 16.2172C17.3734 16.1359 17.6639 16.2937 17.7452 16.5701L18.161 18.2341C18.1663 18.2556 18.1799 18.2739 18.1977 18.286C18.2114 18.2949 18.2308 18.2881 18.2344 18.2718L18.3225 17.9063C18.3939 17.61 18.6923 17.428 18.9886 17.4999C19.2849 17.5712 19.4668 17.8696 19.395 18.1659L18.9692 20.0124H14.885H14.8861Z" fill="#FFCCA8"/>
<path d="M11.5626 16.6042V15.6797H9.51953V16.6042L10.3853 17.233C10.4782 17.3007 10.604 17.3007 10.6968 17.233L11.5626 16.6042Z" fill="#FFCCA8"/>
<path d="M11.4788 13.9531C11.4788 14.412 11.1065 14.7843 10.6476 14.7843C10.1887 14.7843 9.81641 14.412 9.81641 13.9531H11.4788Z" fill="#FF7D7D"/>
<path d="M11.6385 16.508L10.6279 17.0062C10.5765 17.0377 10.5089 17.0377 10.4575 17.0062L9.44692 16.508C9.34676 16.4472 9.21094 16.5107 9.21094 16.6187V18.0388C9.21094 18.1463 9.34676 18.2103 9.44692 18.1495L10.4575 17.6513C10.5089 17.6198 10.5765 17.6198 10.6279 17.6513L11.6385 18.1495C11.7386 18.2103 11.8744 18.1468 11.8744 18.0388V16.6187C11.8744 16.5112 11.7386 16.4472 11.6385 16.508Z" fill="#5E59FF"/>
<path d="M3.01536 12.3901C3.8156 12.3901 4.46432 11.7414 4.46432 10.9411C4.46432 10.1409 3.8156 9.49219 3.01536 9.49219C2.21513 9.49219 1.56641 10.1409 1.56641 10.9411C1.56641 11.7414 2.21513 12.3901 3.01536 12.3901Z" fill="#5E59FF"/>
<path d="M11.8747 4.56197C12.675 4.56197 13.3237 3.91325 13.3237 3.11302C13.3237 2.31278 12.675 1.66406 11.8747 1.66406C11.0745 1.66406 10.4258 2.31278 10.4258 3.11302C10.4258 3.91325 11.0745 4.56197 11.8747 4.56197Z" fill="#5E59FF"/>
<path d="M17.7849 15.187C18.5851 15.187 19.2338 14.5383 19.2338 13.738C19.2338 12.9378 18.5851 12.2891 17.7849 12.2891C16.9847 12.2891 16.3359 12.9378 16.3359 13.738C16.3359 14.5383 16.9847 15.187 17.7849 15.187Z" fill="#1D1E18"/>
<path d="M6.05951 10.658C6.03959 10.8567 6.03434 11.0523 6.04326 11.2453C6.04326 11.2453 6.04326 11.2459 6.04326 11.2464C6.04326 11.2464 6.42083 11.1619 6.75698 11.8474L7.30657 11.3722L7.95632 10.8106C7.23368 10.7571 6.59074 10.6936 6.06318 10.6328C6.06214 10.6412 6.06004 10.6496 6.05951 10.658Z" fill="#333333"/>
<path d="M13.7874 11.3293C14.0087 11.3697 14.23 11.3912 14.4481 11.378C14.4932 11.3754 14.5451 11.3607 14.5965 11.3398C14.7303 11.269 14.843 11.14 14.9463 11.163C14.9479 11.163 14.95 11.1625 14.9516 11.163C14.9542 11.0078 14.9474 10.8542 14.9322 10.7031C14.1545 10.8043 13.3657 10.8683 12.5859 10.9019C12.974 11.0985 13.3804 11.2553 13.7874 11.3293Z" fill="#333333"/>
<path d="M15.035 8.4919C14.6402 6.389 12.7974 4.79688 10.5801 4.79688H10.5046C8.29003 4.79688 6.44829 6.38533 6.05078 8.48456C6.14622 8.49137 10.416 8.78924 15.035 8.4919Z" fill="#333333"/>
<path d="M15.1174 9.28306C15.1163 9.01298 15.0917 8.7492 15.0466 8.49277C15.0434 8.49277 15.0403 8.49277 15.0377 8.49277C10.4186 8.79011 6.14886 8.49172 6.05342 8.4849C6.05237 8.4849 6.0445 8.48438 6.0445 8.48438C5.9994 8.73976 5.97423 9.0025 5.97266 9.271C9.92097 9.83631 13.3003 9.54212 15.1179 9.28253L15.1174 9.28306Z" fill="#BFBFBF"/>
<path d="M15.9797 9.14975C15.7547 9.19013 15.4605 9.23785 15.117 9.28715C13.2994 9.54673 9.9206 9.8404 5.97176 9.27561C5.68543 9.2347 5.397 9.19013 5.10491 9.13979C4.80861 9.08892 4.53906 9.32281 4.53906 9.63064V9.7759C4.53906 10.1582 4.81438 10.4812 5.18409 10.5321C5.4206 10.5646 5.72057 10.6029 6.06511 10.6422C6.59267 10.7031 7.2356 10.7665 7.95824 10.82C9.30179 10.9191 10.9165 10.9794 12.5836 10.9081C13.3634 10.8745 14.1526 10.8111 14.9298 10.7094C15.2681 10.6653 15.6042 10.6165 15.9356 10.5573C16.2907 10.4933 16.5492 10.1755 16.5492 9.80579V9.6406C16.5492 9.3312 16.277 9.09626 15.9797 9.14975Z" fill="#333333"/>
<path d="M6.98156 16.3567C7.07438 16.084 6.92912 15.7871 6.6559 15.6943C6.55679 15.6608 6.45505 15.6587 6.36065 15.6823L6.49753 15.2811C6.59035 15.0084 6.44509 14.7116 6.17186 14.6188C6.01874 14.5663 5.85827 14.5894 5.73031 14.668C5.81579 14.3917 5.66056 14.0954 5.3779 14.0125C5.10835 13.9339 4.82517 14.0907 4.73445 14.3565L4.66365 14.5642C4.65526 14.355 4.52101 14.163 4.31124 14.0917C4.03855 13.9989 3.74173 14.1442 3.64891 14.4174L3.16278 16.0625C3.15648 16.0834 3.14233 16.1013 3.12345 16.1128C3.10929 16.1212 3.09041 16.1133 3.08726 16.0971L3.01489 15.7279C2.95616 15.429 2.66563 15.2344 2.36672 15.2937C2.0678 15.3524 1.87324 15.6429 1.9325 15.9418L2.30903 17.9278C2.43751 18.6006 2.95039 19.2053 3.69348 19.4586C4.75647 19.8209 5.88711 19.3275 6.21854 18.3552C6.22378 18.3405 6.22745 18.3258 6.23217 18.3112L6.98156 16.3567Z" fill="#FFCCA8"/>
<path d="M6.76562 17.3407L7.84592 16.875L8.64198 20.0183H7.39282L6.76562 17.3407Z" fill="#5E59FF"/>
<path d="M14.3959 17.3407L13.3156 16.875L12.5195 20.0183H13.7687L14.3959 17.3407Z" fill="#5E59FF"/>
</g>
<defs>
<clipPath id="clip0_14908_27408">
<rect width="20.9766" height="20.9766" fill="white" transform="translate(0 0.351562)"/>
</clipPath>
</defs>
</svg>
