<svg width="198" height="190" viewBox="0 0 198 190" fill="none" xmlns="http://www.w3.org/2000/svg">
<g style="mix-blend-mode:soft-light" opacity="0.3">
<path d="M100.479 41.8777C89.3488 36.5213 75.315 34.5258 63.5639 37.181C51.8128 39.8362 41.3364 46.463 33.7284 56.0534C26.1204 65.6438 21.7973 77.6728 21.4167 90.3103C21.0361 102.948 24.6189 115.502 31.62 126.064C38.6211 136.625 48.6574 144.616 60.2019 148.819C71.7464 153.023 84.1673 153.21 95.5751 149.352C106.983 145.494 116.753 137.801 123.399 127.445C130.046 117.089 133.157 103.393 132.347 90.7377L129.821 92.7102C130.591 104.732 127.388 115.934 121.075 125.771C114.761 135.609 105.48 142.916 94.6431 146.581C83.8063 150.247 72.0071 150.069 61.0404 146.076C50.0737 142.082 40.5398 134.492 33.8891 124.459C27.2384 114.426 23.8349 102.5 24.1965 90.4951C24.558 78.4901 28.6648 67.0632 35.892 57.9528C43.1191 48.8424 53.0712 42.5473 64.2341 40.025C75.397 37.5026 87.1598 38.8913 97.733 43.9796L100.479 41.8777Z" fill="#FEFBF6"/>
<path fill-rule="evenodd" clip-rule="evenodd" d="M107.796 37.7664C110.242 38.9432 110.585 42.2862 108.43 43.9358L99.92 50.4496C98.8309 51.2832 97.3657 51.4338 96.1298 50.839L93.7635 49.7003C84.5361 45.2596 74.5924 44.1883 65.4272 46.2593C56.2855 48.3249 47.9636 53.5029 41.7809 61.2965C35.5661 69.1307 31.855 79.2056 31.5279 90.0652C31.2011 100.919 34.2864 111.746 40.3142 120.839C46.3451 129.937 54.8661 136.623 64.3678 140.083C73.83 143.528 83.7047 143.589 92.5767 140.589C101.453 137.587 109.296 131.529 114.762 123.012C120.321 114.351 123.185 104.444 122.496 93.6625L122.408 92.2928C122.331 91.0927 122.852 89.9322 123.8 89.192L133.447 81.6587C135.753 79.8584 139.132 81.3757 139.319 84.2948L139.67 89.782C140.543 103.429 137.242 118.464 129.709 130.202C122.215 141.878 111.007 150.82 97.6384 155.341C84.2658 159.864 69.9204 159.561 56.8713 154.809C43.8618 150.072 32.8127 141.177 25.1918 129.681C17.5678 118.18 13.6669 104.526 14.0821 90.737C14.4972 76.9539 19.216 63.573 27.8363 52.7064C36.4888 41.7993 48.5954 34.0553 62.3677 30.9434C76.2548 27.8055 92.1053 30.2151 104.445 36.1537L107.796 37.7664ZM132.428 92.3687C132.403 91.6753 131.604 91.3151 131.057 91.7422L130.371 92.2784C130.026 92.5475 129.838 92.9702 129.86 93.4069C130.464 105.164 127.264 116.123 121.073 125.77C120.963 125.941 120.852 126.112 120.74 126.282C114.435 135.861 105.289 142.979 94.6415 146.58L94.6211 146.587C83.9782 150.181 72.4083 150.07 61.6111 146.279C61.4201 146.212 61.2293 146.143 61.0388 146.074C50.1589 142.112 40.6892 134.61 34.046 124.695C33.993 124.616 33.9402 124.537 33.8875 124.457C27.2368 114.425 23.8334 102.498 24.1949 90.4935C24.1984 90.3775 24.2022 90.2615 24.2064 90.1457C24.6361 78.2678 28.733 66.9735 35.8904 57.9512C36.0128 57.7968 36.1361 57.6432 36.2601 57.4904C43.4289 48.6609 53.1872 42.5476 64.1124 40.0506C64.1525 40.0415 64.1925 40.0324 64.2326 40.0233C75.0946 37.569 86.5246 38.8176 96.8739 43.5745C97.402 43.8172 98.0224 43.7552 98.4839 43.4019L99.6246 42.5288C100.015 42.2298 99.9527 41.6245 99.5051 41.42C97.5728 40.537 95.5598 39.7534 93.4922 39.0758C83.8661 35.9209 73.0557 35.0625 63.6826 37.1523C63.6425 37.1613 63.6024 37.1703 63.5624 37.1793C51.8113 39.8345 41.3348 46.4614 33.7269 56.0518C33.6047 56.2058 33.4833 56.3604 33.3628 56.5157C25.981 66.0287 21.7896 77.8741 21.4151 90.3087C21.4117 90.4246 21.4085 90.5405 21.4057 90.6564C21.1029 103.081 24.6274 115.409 31.4611 125.824C31.5134 125.903 31.5658 125.983 31.6184 126.062C38.5043 136.45 48.3261 144.35 59.6313 148.607C59.8206 148.678 60.0102 148.749 60.2003 148.818C71.7448 153.021 84.1658 153.208 95.5735 149.35L95.594 149.343C106.993 145.483 116.755 137.793 123.398 127.444C123.507 127.273 123.616 127.101 123.724 126.928C129.352 117.909 132.349 106.462 132.468 95.392C132.479 94.3804 132.466 93.3719 132.428 92.3687Z" fill="#FEFBF6"/>
<path d="M-8.88699 160.356L166.726 27.315L125.506 24.6111" stroke="#FEFBF6" stroke-width="15.3676" stroke-linecap="round"/>
</g>
</svg>
