<svg width="155" height="281" viewBox="0 0 155 281" fill="none" xmlns="http://www.w3.org/2000/svg">
<path d="M80.9115 228.277V229.02C80.4304 229.392 79.3835 230.077 77.9405 230.077C76.5258 230.077 75.4789 229.392 74.9979 229.02V228.277H49.8723C51.4427 241.291 52.9989 254.305 54.5692 267.318C59.931 267.547 65.2787 267.79 70.6405 268.018C74.8564 268.018 74.9979 265.247 74.9272 260.876L74.9696 240.777C74.9272 239.005 76.3702 237.563 78.0537 237.62C79.6665 237.677 80.9963 239.077 80.9398 240.777C80.9539 247.476 80.968 254.176 80.9822 260.876C80.9115 265.247 81.0529 268.018 85.2688 268.018C90.6306 267.79 95.9783 267.547 101.34 267.318C102.91 254.305 104.467 241.291 106.037 228.277H80.9115Z" fill="#FFDF5A"/>
<path d="M77.4879 173.051C77.4879 173.051 42.1904 171.351 38.0877 218.591C38.0877 218.591 31.7356 220.077 30.915 227.12C30.8018 228.148 30.9433 229.205 31.3536 230.148C34.0416 236.162 41.6669 237.833 47.0571 231.962C52.8009 225.705 77.4879 173.051 77.4879 173.051Z" fill="#F79928"/>
<path d="M39.8842 236.07C45.1113 236.07 49.3487 231.792 49.3487 226.514C49.3487 221.236 45.1113 216.957 39.8842 216.957C34.6571 216.957 30.4197 221.236 30.4197 226.514C30.4197 231.792 34.6571 236.07 39.8842 236.07Z" fill="#FFDF5A"/>
<path d="M77.9126 173.051C77.9126 173.051 113.21 171.351 117.313 218.591C117.313 218.591 123.665 220.077 124.485 227.12C124.599 228.148 124.457 229.205 124.047 230.148C121.359 236.162 113.734 237.833 108.343 231.962C102.6 225.705 77.9126 173.051 77.9126 173.051Z" fill="#F79928"/>
<path d="M115.516 236.07C120.743 236.07 124.98 231.792 124.98 226.514C124.98 221.236 120.743 216.957 115.516 216.957C110.289 216.957 106.051 221.236 106.051 226.514C106.051 231.792 110.289 236.07 115.516 236.07Z" fill="#FFDF5A"/>
<path d="M43.1805 102.923C43.1805 102.923 21.7049 100.637 16.8524 119.222C13.556 131.822 23.1762 140.164 29.7547 143.25C35.5268 145.964 45.6279 146.578 53.6636 137.479C60.8929 129.308 59.7894 121.851 59.7894 121.851" fill="#FFDF5A"/>
<path d="M113.818 102.923C113.818 102.923 135.294 100.637 140.146 119.222C143.442 131.822 133.822 140.164 127.244 143.25C121.472 145.964 111.37 146.578 103.335 137.479C96.1055 129.308 97.209 121.851 97.209 121.851" fill="#FFDF5A"/>
<path d="M69.4665 248.787H57.7242C54.091 248.787 51.1458 251.761 51.1458 255.43V273.415C51.1458 277.083 54.091 280.057 57.7242 280.057H69.4665C73.0997 280.057 76.045 277.083 76.045 273.415V255.43C76.045 251.761 73.0997 248.787 69.4665 248.787Z" fill="#8F6340"/>
<path d="M73.2153 266.291H54.0316C52.4533 266.291 51.1738 267.583 51.1738 269.177V277.176C51.1738 278.77 52.4533 280.062 54.0316 280.062H73.2153C74.7936 280.062 76.073 278.77 76.073 277.176V269.177C76.073 267.583 74.7936 266.291 73.2153 266.291Z" fill="#CEA169"/>
<path d="M86.4432 280.059H98.1854C101.819 280.059 104.764 277.085 104.764 273.416V255.431C104.764 251.763 101.819 248.789 98.1854 248.789H86.4432C82.81 248.789 79.8647 251.763 79.8647 255.431V273.416C79.8647 277.085 82.81 280.059 86.4432 280.059Z" fill="#8F6340"/>
<path d="M82.6941 280.059H101.878C103.456 280.059 104.736 278.767 104.736 277.173V269.173C104.736 267.58 103.456 266.288 101.878 266.288H82.6941C81.1158 266.288 79.8364 267.58 79.8364 269.173V277.173C79.8364 278.767 81.1158 280.059 82.6941 280.059Z" fill="#CEA169"/>
<path d="M77.7571 188.832C84.4219 188.832 89.8247 183.14 89.8247 176.118C89.8247 169.096 84.4219 163.404 77.7571 163.404C71.0923 163.404 65.6895 169.096 65.6895 176.118C65.6895 183.14 71.0923 188.832 77.7571 188.832Z" fill="#FFDF5A"/>
<path d="M53.0555 213.972C54.8805 213.972 54.8805 211.115 53.0555 211.115C51.2305 211.115 51.2305 213.972 53.0555 213.972Z" fill="#303030"/>
<path d="M53.7062 214.761C55.5312 214.761 55.5312 211.904 53.7062 211.904C51.8812 211.904 51.8812 214.761 53.7062 214.761Z" fill="#303030"/>
<path d="M78.1668 230.347C78.1668 230.347 63.7932 230.233 50.3391 230.562C46.9154 230.647 44.0577 228.805 43.9728 226.448C43.6474 217.191 44.3123 195.22 56.5215 181.835C65.1796 172.336 77.9121 172.893 77.9121 172.893H77.6858C77.6858 172.893 90.4183 172.336 99.0765 181.835C111.271 195.22 111.951 217.191 111.625 226.448C111.54 228.805 108.682 230.633 105.259 230.562C91.8048 230.233 77.4311 230.347 77.4311 230.347" fill="#FFB300"/>
<path d="M147.375 78.6687L136.539 67.3263C136.114 66.8692 135.209 67.1263 134.756 67.8406L124.994 81.1685L124.131 69.2834C124.245 68.6263 123.919 67.9692 123.495 67.9834L112.7 68.2834C112.262 68.2834 111.979 68.9834 112.135 69.6405L115.629 84.3684C107.07 73.9975 94.2807 67.1263 76.9786 67.1263C60.9639 67.1263 48.9245 72.9404 40.4927 81.9257L43.4071 69.6405C43.5627 68.9834 43.2798 68.2977 42.8412 68.2834L32.0468 67.9834C31.6224 67.9834 31.297 68.6263 31.4102 69.2834L30.5472 81.1685L20.7856 67.8406C20.3329 67.1406 19.4274 66.8835 19.003 67.3263L8.16619 78.6687C7.72763 79.1258 8.02472 80.04 8.76038 80.4686L22.4691 89.3253L10.5429 91.1252C9.89216 91.0395 9.25553 91.3824 9.28383 91.8252L9.9629 102.696C9.99119 103.139 10.6844 103.396 11.321 103.225L30.4057 97.8821C27.0528 106.01 25.4259 115.067 25.4259 124.124C25.4259 152.68 48.5708 166.95 77.1201 166.95C105.669 166.95 128.814 152.68 128.814 124.124C128.814 114.896 127.074 105.667 123.523 97.425L144.263 103.239C144.9 103.425 145.593 103.153 145.621 102.71L146.3 91.8395C146.329 91.4109 145.692 91.0538 145.041 91.1395L133.115 89.3396L146.824 80.4829C147.545 80.0543 147.842 79.1401 147.418 78.6829L147.375 78.6687Z" fill="#FFDF5A"/>
<path d="M86.4159 128.227H86.4018C84.8704 128.227 83.6285 129.48 83.628 131.026L83.6262 136.355C83.6256 137.901 84.8667 139.155 86.3981 139.155H86.4122C87.9437 139.155 89.1855 137.901 89.1861 136.355L89.1879 131.026C89.1884 129.48 87.9474 128.227 86.4159 128.227Z" fill="#292929"/>
<path d="M69.1303 128.219H69.1161C67.5847 128.219 66.343 129.472 66.3426 131.019L66.3413 136.347C66.3409 137.893 67.582 139.147 69.1135 139.147H69.1276C70.659 139.147 71.9008 137.893 71.9012 136.347L71.9025 131.019C71.9028 129.472 70.6617 128.219 69.1303 128.219Z" fill="#292929"/>
<path d="M43.9165 152.895C52.2299 152.895 58.9692 146.09 58.9692 137.695C58.9692 129.301 52.2299 122.496 43.9165 122.496C35.6031 122.496 28.8638 129.301 28.8638 137.695C28.8638 146.09 35.6031 152.895 43.9165 152.895Z" fill="#FFCA45"/>
<path d="M110.381 152.895C118.694 152.895 125.433 146.09 125.433 137.695C125.433 129.301 118.694 122.496 110.381 122.496C102.067 122.496 95.3279 129.301 95.3279 137.695C95.3279 146.09 102.067 152.895 110.381 152.895Z" fill="#FFCA45"/>
<path d="M77.7567 189.991C78.9052 189.991 79.8363 189.051 79.8363 187.891C79.8363 186.731 78.9052 185.791 77.7567 185.791C76.6081 185.791 75.677 186.731 75.677 187.891C75.677 189.051 76.6081 189.991 77.7567 189.991Z" fill="#644D31"/>
<path d="M77.7567 204.174C78.9052 204.174 79.8363 203.234 79.8363 202.075C79.8363 200.915 78.9052 199.975 77.7567 199.975C76.6081 199.975 75.677 200.915 75.677 202.075C75.677 203.234 76.6081 204.174 77.7567 204.174Z" fill="#644D31"/>
<path d="M111.654 213.063C111.356 212.463 110.663 212.177 110.027 212.363C105.415 213.691 99.9679 214.92 93.8138 215.705C87.7729 216.477 82.312 216.663 77.601 216.548C77.601 216.548 77.5161 216.548 77.4737 216.548C77.4312 216.548 77.3888 216.548 77.3463 216.548C72.6353 216.663 67.1744 216.477 61.1336 215.705C54.9795 214.92 49.5328 213.691 44.9208 212.363C44.2841 212.177 43.5909 212.463 43.2938 213.063C42.8411 213.948 42.3743 215.263 42.346 216.877C42.3177 218.305 42.6431 219.491 42.9543 220.305C43.1241 220.734 43.4919 221.048 43.9446 221.148C49.1367 222.319 55.0078 223.362 61.4448 224.048C67.1462 224.648 72.4372 224.876 77.2473 224.891C77.2473 224.891 77.3888 224.891 77.4595 224.891C77.5303 224.891 77.601 224.891 77.6717 224.891C82.4818 224.891 87.7729 224.648 93.4742 224.048C99.9254 223.362 105.782 222.319 110.974 221.148C111.427 221.048 111.795 220.734 111.965 220.305C112.276 219.491 112.601 218.305 112.573 216.877C112.545 215.263 112.064 213.963 111.625 213.063H111.654Z" fill="#8F6340"/>
<path d="M102.714 208.257L81.2268 209.113C79.1422 209.196 77.5191 210.97 77.6013 213.075L77.988 222.967C78.0702 225.072 79.8268 226.71 81.9113 226.627L103.398 225.771C105.483 225.688 107.106 223.914 107.024 221.81L106.637 211.918C106.555 209.813 104.798 208.174 102.714 208.257Z" fill="#694009"/>
<path d="M102.239 210.566L81.854 211.378C81.0577 211.41 80.4376 212.087 80.469 212.891L80.4779 213.12C80.5094 213.924 81.1804 214.55 81.9767 214.518L102.361 213.706C103.158 213.674 103.778 212.997 103.746 212.193L103.737 211.964C103.706 211.16 103.035 210.534 102.239 210.566Z" fill="#805734"/>
<path d="M40.2948 82.7695C38.4698 84.6409 36.4467 87.0122 34.5086 89.9406C32.8816 92.3977 31.6791 94.7261 30.7737 96.7689" stroke="#FFB339" stroke-width="3.4542" stroke-miterlimit="10" stroke-linecap="round"/>
<path d="M115.233 82.7695C117.058 84.6409 119.081 87.0122 121.019 89.9406C122.646 92.3977 123.849 94.7261 124.754 96.7689" stroke="#FFB339" stroke-width="3.4542" stroke-miterlimit="10" stroke-linecap="round"/>
<path d="M78.2798 174.438C64.2032 174.195 55.4602 183.352 54.1021 184.809C54.9226 183.681 63.9344 171.567 78.2798 171.981C87.7584 172.253 94.7472 177.852 96.8127 179.666C99.246 181.795 100.915 183.938 101.991 185.509C100.675 183.995 92.2714 174.681 78.2798 174.438Z" fill="#FFC239"/>
</svg>
