<svg width="25" height="25" viewBox="0 0 25 25" fill="none" xmlns="http://www.w3.org/2000/svg">
<g clip-path="url(#clip0_8034_169645)">
<path d="M22.8762 7.20162C22.2942 5.02902 20.0676 2.80302 17.9016 2.22942C16.8204 1.94262 15.9588 2.12382 15.4404 2.64762L11.136 7.68342C11.364 7.70862 11.5968 7.74702 11.8392 7.81122C14.2494 8.44902 16.6458 10.8442 17.2938 13.2622C17.361 13.5136 17.4018 13.756 17.4276 13.9924L22.4742 9.67902C22.9932 9.15522 23.1684 8.28762 22.8774 7.20102L22.8762 7.20162Z" fill="#E5E9EE"/>
<path d="M15.7477 15.4256L15.7849 15.3938C16.1143 15.0224 16.1917 14.381 15.9853 13.6106C15.4687 11.6834 13.4107 9.62536 11.4913 9.11716C10.7263 8.91556 10.0921 8.99656 9.72729 9.32836L9.69189 9.36976L9.64869 9.40696L8.00649 10.8416L1.97949 16.1054C2.49789 15.5816 3.35889 15.401 4.44069 15.6872C6.60669 16.2608 8.83269 18.4874 9.41529 20.6594C9.70569 21.7442 9.53169 22.61 9.01449 23.1344L14.2843 17.1002L15.7159 15.461L15.7477 15.4244V15.4256Z" fill="#E5E9EE"/>
<path d="M17.4525 14.4334C17.4525 15.2194 17.2065 15.8974 16.7145 16.3894V16.3954C16.2165 16.8814 15.5445 17.1334 14.7525 17.1334C14.6025 17.1334 14.4465 17.1214 14.2845 17.1034L15.7185 15.4594C15.7305 15.4534 15.7425 15.4474 15.7545 15.4414C15.7545 15.4374 15.7565 15.4354 15.7605 15.4354C15.7665 15.4234 15.7725 15.4054 15.7845 15.3934C16.1145 15.0214 16.1925 14.3794 15.9885 13.6114C15.4665 11.6854 13.4085 9.6274 11.4945 9.1174C10.7265 8.9134 10.0905 8.9974 9.73054 9.3274C9.71254 9.3394 9.69454 9.3454 9.68254 9.3574L9.20254 8.8834L9.68254 9.3634C9.66454 9.3754 9.65854 9.3934 9.64654 9.4054L8.00854 10.8394C7.88854 9.8434 8.12854 8.9974 8.72254 8.4094V8.4034H8.72854C9.31054 7.8154 10.1505 7.5694 11.1345 7.6834C11.3625 7.7074 11.5965 7.7434 11.8365 7.8094C14.2485 8.4454 16.6425 10.8394 17.2905 13.2634C17.3625 13.5094 17.3985 13.7554 17.4285 13.9894C17.4465 14.1394 17.4525 14.2894 17.4525 14.4334Z" fill="#6260C4"/>
<path d="M9.41466 20.6623C8.83266 18.4897 6.60666 16.2637 4.44006 15.6901C3.35886 15.4039 2.49726 15.5845 1.97886 16.1083C1.46046 16.6321 1.28526 17.4997 1.57626 18.5863C2.15826 20.7589 4.38426 22.9849 6.54786 23.5579C7.63086 23.8447 8.49246 23.6641 9.01086 23.1403C9.01146 23.1397 9.01266 23.1385 9.01326 23.1373C9.52986 22.6129 9.70446 21.7471 9.41406 20.6623H9.41466ZM5.75886 20.6077C5.21826 20.4643 4.66146 19.9081 4.51566 19.3645C4.36986 18.8215 4.69086 18.4969 5.23146 18.6403C5.77326 18.7837 6.32946 19.3405 6.47526 19.8835C6.62106 20.4265 6.30006 20.7511 5.75886 20.6077Z" fill="#A3ADB7"/>
<path d="M6.47572 19.8787C6.32992 19.3357 5.77372 18.7789 5.23192 18.6355C4.69132 18.4921 4.37032 18.8167 4.51612 19.3597C4.66192 19.9027 5.21812 20.4595 5.75932 20.6029C6.30112 20.7463 6.62152 20.4217 6.47572 19.8787Z" fill="#5E6773"/>
</g>
<defs>
<clipPath id="clip0_8034_169645">
<rect width="24" height="24" fill="white" transform="translate(0.226562 0.890625)"/>
</clipPath>
</defs>
</svg>
