<svg width="25" height="25" viewBox="0 0 25 25" fill="none" xmlns="http://www.w3.org/2000/svg">
<path d="M12.6699 23.2949C18.7871 23.2949 23.7461 18.3359 23.7461 12.2188C23.7461 6.10155 18.7871 1.14258 12.6699 1.14258C6.55272 1.14258 1.59375 6.10155 1.59375 12.2188C1.59375 18.3359 6.55272 23.2949 12.6699 23.2949Z" fill="#C7C5FF"/>
<path d="M11.2151 8.49277L12.0466 6.23971C12.2423 5.70937 12.9903 5.70353 13.1942 6.23075L14.0838 8.53017C14.4605 9.50398 15.2331 10.272 16.2091 10.6429L18.5932 11.5488C19.122 11.7498 19.1201 12.4985 18.5903 12.6968L16.2504 13.5725C15.2503 13.9469 14.462 14.7371 14.0902 15.7382L13.1972 18.1423C12.9976 18.6798 12.2354 18.674 12.0439 18.1336L11.2081 15.7746C10.8458 14.752 10.0509 13.9414 9.03556 13.5591L6.74389 12.6964C6.21556 12.4975 6.21368 11.7508 6.741 11.5492L9.0762 10.6566C10.0679 10.2776 10.8476 9.48878 11.2151 8.49277Z" fill="#817FE0"/>
</svg>
