<svg width="163" height="289" viewBox="0 0 163 289" fill="none" xmlns="http://www.w3.org/2000/svg">
<ellipse cx="81.418" cy="274" rx="81" ry="15" fill="#A9977D"/>
<path d="M68.1639 80.8976C68.164 79.7069 69.0953 78.7242 70.2843 78.6603L87.6823 77.7256C88.8747 77.6615 89.9079 78.5438 90.0312 79.7315L91.3315 92.2498C91.4688 93.5718 90.4319 94.722 89.1028 94.722H70.4037C69.1661 94.722 68.1629 93.7187 68.163 92.4811L68.1639 80.8976Z" fill="#FFD1A5"/>
<path d="M51.7983 197.722C51.724 195.084 53.8424 192.905 56.4815 192.905H71.4644C74.1139 192.905 76.2363 195.1 76.1469 197.748L74.8608 235.84C74.7756 238.365 72.7044 240.367 70.1784 240.367H57.5537C55.0176 240.367 52.9418 238.349 52.8705 235.814L51.7983 197.722Z" fill="url(#paint0_radial_11_190)"/>
<path d="M84.0121 197.722C83.9379 195.084 86.0562 192.905 88.6954 192.905H103.678C106.328 192.905 108.45 195.1 108.361 197.748L107.075 235.84C106.989 238.365 104.918 240.367 102.392 240.367H89.7676C87.2314 240.367 85.1557 238.349 85.0843 235.814L84.0121 197.722Z" fill="url(#paint1_radial_11_190)"/>
<path d="M43.8664 173.089C43.8961 172.549 44.3426 172.126 44.8834 172.126H47.1785C47.741 172.126 48.197 172.582 48.197 173.145V188.83C48.197 189.392 47.741 189.848 47.1785 189.848H44.0214C43.4369 189.848 42.9723 189.358 43.0044 188.774L43.8664 173.089Z" fill="#BBAC57"/>
<path d="M46.0454 154.087C46.1067 151.544 48.1856 149.515 50.7291 149.515H75.1482C77.763 149.515 79.8716 151.655 79.8328 154.27L79.2667 192.362C79.2286 194.922 77.1425 196.977 74.5821 196.977H49.8101C47.1784 196.977 45.0629 194.81 45.1264 192.179L46.0454 154.087Z" fill="#8B8446"/>
<path d="M116.668 173.046C116.618 172.524 116.179 172.126 115.654 172.126H113.174C112.612 172.126 112.156 172.582 112.156 173.144V188.829C112.156 189.392 112.612 189.848 113.174 189.848H117.173C117.775 189.848 118.245 189.33 118.187 188.731L116.668 173.046Z" fill="#BBAC57"/>
<path d="M114.432 154.026C114.338 151.509 112.269 149.516 109.75 149.516H85.247C82.6279 149.516 80.5175 151.663 80.5626 154.282L81.2177 192.374C81.2617 194.929 83.346 196.978 85.9021 196.978H111.175C113.831 196.978 115.956 194.772 115.857 192.118L114.432 154.026Z" fill="#8B8446"/>
<path fill-rule="evenodd" clip-rule="evenodd" d="M105.412 104.139L118.987 102.633L132.994 164.822C135.553 166.381 137.48 168.974 138.105 172.128C139.282 178.061 135.443 183.913 129.51 185.09C123.576 186.266 117.795 182.322 116.618 176.389C116.06 173.574 116.631 170.777 118.018 168.489L105.412 104.139Z" fill="url(#paint2_linear_11_190)"/>
<path fill-rule="evenodd" clip-rule="evenodd" d="M61.377 106.357L48.1009 103.149L26.3552 163.077C23.621 164.301 21.3837 166.628 20.3654 169.677C18.4493 175.415 21.5186 181.705 27.2561 183.621C32.9936 185.537 39.2265 182.354 41.1427 176.616C42.0521 173.893 41.8386 171.046 40.7497 168.601L61.377 106.357Z" fill="url(#paint3_linear_11_190)"/>
<path fill-rule="evenodd" clip-rule="evenodd" d="M43.9486 128.182L34.6822 118.361C33.3229 116.92 33.2983 114.605 34.6267 113.131L46.193 100.303C49.3657 95.7299 54.6541 92.7162 60.6764 92.7162H81.0649L98.4297 91.1173C104.151 90.5906 109.43 92.8499 113.004 96.7263L128.569 111.762C130.039 113.182 130.123 115.587 128.756 117.108L117.356 129.792L116.883 162.504C116.849 164.893 114.629 166.648 112.297 166.13C92.2525 161.683 71.5261 161.247 51.3128 164.848L50.2257 165.042C47.9121 165.454 45.7613 163.744 45.6417 161.397L43.9486 128.182Z" fill="url(#paint4_linear_11_190)"/>
<path fill-rule="evenodd" clip-rule="evenodd" d="M100.571 90.9187C100.961 90.4849 101.099 90.0022 101.085 89.5265C102.048 89.5708 103.127 89.6083 104.333 89.6379C123.863 90.1181 117.006 73.4225 116.125 75.3434C114.693 78.4678 112.038 79.2173 109.712 79.8739C108.654 80.1728 107.663 80.4525 106.887 80.9282C106.622 81.0902 106.32 81.2703 105.992 81.4663C103.85 82.7428 100.571 84.6974 99.173 86.7556C96.7573 85.6221 94.8606 86.9384 93.7525 88.3669C93.6415 87.8181 93.0204 87.2794 92.488 87.4073C85.3429 89.1235 71.3757 92.1143 68.5615 88.0641C68.394 87.8231 68.1208 87.6511 67.8565 87.7787C66.6894 88.3417 64.8858 90.5362 64.8546 92.8878C64.8526 93.0415 64.9061 93.1886 65.0117 93.3003C67.6958 96.1397 78.3961 97.3323 93.4444 92.6961C93.8495 92.5714 94.1502 92.0489 94.2068 91.5707C96.293 93.6472 99.1717 92.1647 100.571 90.9187Z" fill="#E57A2C"/>
<path d="M50.1019 233.161C50.1424 230.603 52.2278 228.55 54.7864 228.55H72.8734C75.4135 228.55 77.4909 230.574 77.5569 233.114L78.2195 258.576C78.2881 261.21 76.1713 263.383 73.536 263.383H54.3829C51.7663 263.383 49.6569 261.24 49.6984 258.624L50.1019 233.161Z" fill="#8B6546"/>
<path d="M49.3434 258.809C49.4992 256.341 51.5463 254.419 54.0192 254.419H73.9686C76.4312 254.419 78.4734 256.326 78.6426 258.783L79.3299 268.764C79.5164 271.472 77.3701 273.771 74.6559 273.771H53.3893C50.6857 273.771 48.5432 271.489 48.7135 268.791L49.3434 258.809Z" fill="#353028"/>
<circle cx="55.4518" cy="236.623" r="1.55373" fill="#1D1E18"/>
<circle cx="72.7678" cy="236.623" r="1.55373" fill="#1D1E18"/>
<circle cx="55.4518" cy="242.261" r="1.55373" fill="#1D1E18"/>
<circle cx="72.7678" cy="242.261" r="1.55373" fill="#1D1E18"/>
<circle cx="55.4518" cy="247.827" r="1.55373" fill="#1D1E18"/>
<circle cx="72.7678" cy="247.827" r="1.55373" fill="#1D1E18"/>
<path d="M55.4305 236.699L71.5338 241.814C71.9115 241.934 71.9129 242.468 71.5359 242.59L55.4305 247.8" stroke="#353028" stroke-width="1.4259" stroke-linecap="round"/>
<path d="M72.842 247.801L56.7387 242.685C56.361 242.565 56.3596 242.032 56.7366 241.91L72.842 236.699" stroke="#353028" stroke-width="1.4259" stroke-linecap="round"/>
<path d="M82.8359 233.107C82.9053 230.571 84.9816 228.55 87.5193 228.55H104.953C107.474 228.55 109.544 230.546 109.635 233.066L110.555 258.529C110.65 261.181 108.526 263.383 105.872 263.383H86.8231C84.1855 263.383 82.0677 261.206 82.1398 258.57L82.8359 233.107Z" fill="#8B6546"/>
<path d="M81.7217 258.799C81.8832 256.336 83.9282 254.42 86.3968 254.42H106.415C108.853 254.42 110.884 256.291 111.084 258.722L111.905 268.703C112.129 271.433 109.974 273.772 107.235 273.772H85.7426C83.0345 273.772 80.8904 271.483 81.0675 268.78L81.7217 258.799Z" fill="#353028"/>
<circle cx="87.8403" cy="236.623" r="1.55373" fill="#1D1E18"/>
<circle cx="105.156" cy="236.623" r="1.55373" fill="#1D1E18"/>
<circle cx="87.8403" cy="242.261" r="1.55373" fill="#1D1E18"/>
<circle cx="105.156" cy="242.261" r="1.55373" fill="#1D1E18"/>
<circle cx="87.8403" cy="247.827" r="1.55373" fill="#1D1E18"/>
<circle cx="105.156" cy="247.827" r="1.55373" fill="#1D1E18"/>
<path d="M87.819 236.699L103.922 241.814C104.3 241.934 104.301 242.468 103.924 242.59L87.819 247.8" stroke="#353028" stroke-width="1.4259" stroke-linecap="round"/>
<path d="M105.23 247.8L89.1272 242.685C88.7495 242.565 88.7481 242.031 89.1251 241.909L105.23 236.698" stroke="#353028" stroke-width="1.4259" stroke-linecap="round"/>
<path d="M75.0863 158.559H85.6787V176.485L82.1609 175.767C80.9737 175.525 79.7496 175.525 78.5627 175.77L75.0863 176.485V158.559Z" fill="#8B8446"/>
<path d="M113.884 168.308C83.5249 162.002 57.7189 164.998 47.593 167.952C46.7185 168.207 45.7191 168.163 45.2824 167.364C44.0054 165.026 44.4032 159.908 46.2178 159.09C46.2384 159.081 46.2598 159.074 46.2819 159.069C73.3988 152.697 102.331 156.595 115.047 159.444C116.455 159.76 117.496 160.948 117.583 162.388C117.649 163.49 117.674 164.549 117.663 165.512C117.64 167.468 115.799 168.706 113.884 168.308Z" fill="#765132"/>
<path d="M71.5845 164.18L71.5842 157.058C71.5842 156.046 72.405 155.225 73.4175 155.225L86.9134 155.225C87.9259 155.225 88.7467 156.046 88.7467 157.058V164.18C88.7467 165.192 87.9259 166.013 86.9134 166.013H73.4178C72.4053 166.013 71.5845 165.192 71.5845 164.18Z" fill="#EDC662"/>
<path fill-rule="evenodd" clip-rule="evenodd" d="M105.154 61.3988C105.602 59.319 105.838 57.1575 105.838 54.9394C104.047 40.5057 92.7991 36.0566 76.7142 36.0566C60.6293 36.0566 48.1913 41.1902 48.1913 54.9394C48.1913 71.3983 59.2285 84.7409 76.7142 84.7409C87.5995 84.7409 97.0584 78.6627 102.058 69.6506C102.198 69.6613 102.34 69.6667 102.484 69.6667C105.24 69.6667 107.475 67.6603 107.475 65.1853C107.475 63.5924 106.549 62.1936 105.154 61.3988Z" fill="url(#paint5_linear_11_190)"/>
<path d="M96.5713 49C101.259 61.1539 108.159 80.9294 96.9078 89.6692C89.7718 95.2124 87.8845 101.933 88.826 106.853C88.9672 107.591 86.46 110.566 85.7679 110.273C69.9054 103.551 47.5884 89.9379 50.2118 67.0207" stroke="#353028" stroke-width="2.23574"/>
<path d="M44.1863 191.527C44.2957 190.263 45.3533 189.293 46.6216 189.293H77.0711C78.3777 189.293 79.4532 190.32 79.5129 191.626L79.6643 194.935C79.728 196.327 78.6163 197.491 77.2225 197.491H46.3351C44.9019 197.491 43.7762 196.263 43.8998 194.835L44.1863 191.527Z" fill="#827B3F"/>
<ellipse cx="50.9477" cy="64.7783" rx="4.99064" ry="4.4814" fill="#FFDBB1"/>
<path d="M80.721 191.554C80.8167 190.279 81.8795 189.293 83.1585 189.293H113.695C114.955 189.293 116.009 190.251 116.128 191.505L116.444 194.814C116.581 196.249 115.452 197.491 114.01 197.491H82.91C81.4879 197.491 80.366 196.281 80.4725 194.863L80.721 191.554Z" fill="#827B3F"/>
<rect width="1.82471" height="3.34538" rx="0.912356" transform="matrix(0.958156 -0.286245 0.274972 0.961452 65.5132 66.6836)" fill="#1D1E18"/>
<rect width="1.82471" height="3.34538" rx="0.912356" transform="matrix(0.958156 -0.286245 0.274972 0.961452 73.3921 66.7812)" fill="#1D1E18"/>
<path d="M45.6291 50.0604L45.9192 49.5521C47.7069 46.42 51.0808 44.5339 54.6853 44.6517L99.4331 46.1141C101.623 46.1856 103.397 47.9141 103.526 50.1011C103.577 50.9691 103.893 51.8005 104.433 52.4823L106.158 54.6613C108.955 58.1961 105.193 63.1298 101.044 61.3673L88.9376 57.6162C82.5055 55.6232 75.5962 55.8037 69.277 58.1298L58.4629 62.1104C55.0799 63.3556 51.2918 62.7368 48.4811 60.4796L47.452 59.6532C45.6743 58.2257 44.64 56.0687 44.64 53.7887C44.64 52.4811 44.981 51.1961 45.6291 50.0604Z" fill="url(#paint6_linear_11_190)"/>
<path d="M30.061 40.5189L49.2043 41.0471C50.1529 41.0733 51.0222 40.5202 51.4005 39.6498L57.2715 26.1406L62.7746 13.1676C62.8709 12.9407 62.9997 12.7289 63.1731 12.5537C64.2315 11.4843 66.3928 10.0118 68.3003 11.045C70.8948 12.4504 71.3791 14.2686 75.6817 15.0082C79.913 15.7355 101.765 11.639 106.453 19.9672C106.609 20.2452 106.68 20.5636 106.689 20.8824L107.501 49.9871C120.569 50.3727 129.794 56.0625 129.509 56.7268C129.258 57.314 117.336 56.9925 109.161 56.6732C107.566 56.6109 105.968 54.7342 104.735 53.7199C103.419 52.6376 100.913 51.5755 96.4376 50.9841C77.8474 54.9547 63.9292 54.3445 48.0003 52.4714C38.6112 51.3672 32.1213 47.1823 28.5121 43.6961C27.1806 42.41 28.2105 40.4678 30.061 40.5189Z" fill="#353028"/>
<path d="M50.2618 40.7811L52.0899 35.9257C52.1787 35.6896 52.4289 35.5641 52.6681 35.6441C64.683 39.66 93.9401 42.6647 107.484 43.6969C107.656 43.71 107.798 43.8151 107.863 43.9749C108.544 45.6554 109.349 48.7626 107.79 49.5538C106.162 50.3793 69.3465 44.5213 50.6091 41.4016C50.3201 41.3535 50.1586 41.0553 50.2618 40.7811Z" fill="#8B6546"/>
<g style="mix-blend-mode:soft-light">
<path d="M98.9549 139.213C100.363 139.213 101.396 140.198 101.396 141.56C101.396 142.912 100.363 143.907 98.9549 143.907H96.7669C96.679 143.907 96.6077 143.836 96.6077 143.748V139.372C96.6077 139.284 96.679 139.213 96.7669 139.213H98.9549ZM97.7058 140.058C97.6179 140.058 97.5466 140.129 97.5466 140.217V142.903C97.5466 142.991 97.6179 143.062 97.7058 143.062H98.9549C99.7999 143.062 100.41 142.433 100.41 141.56C100.41 140.696 99.7999 140.058 98.9549 140.058H97.7058Z" fill="#1D1E18"/>
<path d="M91.3991 143.808C91.3746 143.868 91.3163 143.907 91.2517 143.907H90.6007C90.4875 143.907 90.4104 143.792 90.4534 143.687L92.2475 139.311C92.272 139.252 92.3302 139.213 92.3949 139.213H93.5895C93.6542 139.213 93.7124 139.252 93.7369 139.311L95.531 143.687C95.574 143.792 95.4969 143.907 95.3837 143.907H94.7139C94.6493 143.907 94.5911 143.868 94.5665 143.808L94.2627 143.067C94.2381 143.007 94.1799 142.968 94.1153 142.968H91.8503C91.7857 142.968 91.7275 143.007 91.703 143.067L91.3991 143.808ZM92.1807 141.904C92.1378 142.008 92.2149 142.123 92.3281 142.123H93.6375C93.7507 142.123 93.8278 142.008 93.7849 141.904L93.0475 140.101C93.0368 140.075 93.0112 140.058 92.9828 140.058C92.9544 140.058 92.9288 140.075 92.9181 140.101L92.1807 141.904Z" fill="#1D1E18"/>
<path d="M87.4999 139.119C88.9082 139.119 89.941 140.152 89.941 141.56C89.941 142.968 88.9082 144.001 87.4999 144.001C86.0915 144.001 85.0588 142.968 85.0588 141.56C85.0588 140.152 86.0915 139.119 87.4999 139.119ZM87.4999 143.109C88.3449 143.109 88.9551 142.452 88.9551 141.56C88.9551 140.668 88.3449 140.011 87.4999 140.011C86.6549 140.011 86.0446 140.668 86.0446 141.56C86.0446 142.452 86.6549 143.109 87.4999 143.109Z" fill="#1D1E18"/>
<path d="M79.585 143.907C79.497 143.907 79.4257 143.836 79.4257 143.748V139.372C79.4257 139.284 79.497 139.213 79.585 139.213H82.8057C83.6507 139.213 84.214 139.776 84.214 140.621C84.214 141.274 83.8449 141.757 83.261 141.921C83.1472 141.953 83.0944 142.095 83.1531 142.198L84.063 143.664C84.1288 143.77 84.0526 143.907 83.9277 143.907H83.2418C83.1866 143.907 83.1354 143.878 83.1064 143.832L82.0074 142.058C81.9784 142.011 81.9272 141.982 81.872 141.982H80.5239C80.4359 141.982 80.3646 142.054 80.3646 142.141V143.748C80.3646 143.836 80.2933 143.907 80.2054 143.907H79.585ZM80.3646 140.978C80.3646 141.066 80.4359 141.137 80.5239 141.137H82.8057C83.0874 141.137 83.2751 140.949 83.2751 140.668V140.527C83.2751 140.245 83.0874 140.058 82.8057 140.058H80.5239C80.4359 140.058 80.3646 140.129 80.3646 140.217V140.978Z" fill="#1D1E18"/>
<path d="M74.68 140.978C74.68 141.066 74.7513 141.137 74.8392 141.137H77.1496C77.2376 141.137 77.3088 141.209 77.3088 141.296V141.823C77.3088 141.911 77.2376 141.982 77.1496 141.982H74.8392C74.7513 141.982 74.68 142.054 74.68 142.141V143.748C74.68 143.836 74.6087 143.907 74.5207 143.907H73.9004C73.8124 143.907 73.7411 143.836 73.7411 143.748V139.372C73.7411 139.284 73.8124 139.213 73.9004 139.213H78.0885C78.1764 139.213 78.2477 139.284 78.2477 139.372V139.898C78.2477 139.986 78.1764 140.058 78.0885 140.058H74.8392C74.7513 140.058 74.68 140.129 74.68 140.217V140.978Z" fill="#1D1E18"/>
<path d="M68.9958 140.978C68.9958 141.066 69.067 141.137 69.155 141.137H71.4654C71.5533 141.137 71.6246 141.209 71.6246 141.296V141.823C71.6246 141.911 71.5533 141.982 71.4654 141.982H69.155C69.067 141.982 68.9958 142.054 68.9958 142.141V143.748C68.9958 143.836 68.9245 143.907 68.8365 143.907H68.2161C68.1282 143.907 68.0569 143.836 68.0569 143.748V139.372C68.0569 139.284 68.1282 139.213 68.2161 139.213H72.4042C72.4922 139.213 72.5635 139.284 72.5635 139.372V139.898C72.5635 139.986 72.4922 140.058 72.4042 140.058H69.155C69.067 140.058 68.9958 140.129 68.9958 140.217V140.978Z" fill="#1D1E18"/>
<path d="M64.4411 139.119C65.8494 139.119 66.8822 140.152 66.8822 141.56C66.8822 142.968 65.8494 144.001 64.4411 144.001C63.0328 144.001 62 142.968 62 141.56C62 140.152 63.0328 139.119 64.4411 139.119ZM64.4411 143.109C65.2861 143.109 65.8964 142.452 65.8964 141.56C65.8964 140.668 65.2861 140.011 64.4411 140.011C63.5961 140.011 62.9858 140.668 62.9858 141.56C62.9858 142.452 63.5961 143.109 64.4411 143.109Z" fill="#1D1E18"/>
<path d="M85.6785 119.172C84.5024 118.055 82.8285 117.243 81.2532 117.103C79.6779 116.963 78.1026 117.371 76.7667 118.264C75.4309 119.157 74.4077 120.487 73.8528 122.051C73.2979 123.615 73.2418 125.328 73.6928 126.929C74.1439 128.53 75.0775 129.932 76.3517 130.921C77.6258 131.91 79.1707 132.432 80.7514 132.407C82.332 132.383 83.8619 131.814 85.1083 130.786C86.3547 129.759 87.2934 128.172 87.7002 126.558L87.3053 126.703C86.9188 128.236 86.069 129.508 84.885 130.484C83.701 131.46 82.2476 132 80.7461 132.024C79.2445 132.047 77.777 131.551 76.5666 130.611C75.3562 129.672 74.4693 128.341 74.0409 126.82C73.6124 125.299 73.6657 123.672 74.1928 122.186C74.7199 120.7 75.6919 119.437 76.9609 118.588C78.2298 117.74 79.7264 117.352 81.2228 117.485C82.7193 117.618 84.1337 118.264 85.2509 119.324L85.6785 119.172Z" fill="#1D1E18"/>
<path fill-rule="evenodd" clip-rule="evenodd" d="M86.7583 118.951C87.0167 119.196 86.9254 119.628 86.5899 119.747L85.2648 120.22C85.0952 120.28 84.906 120.24 84.7754 120.116L84.5254 119.879C83.5504 118.954 82.3506 118.421 81.1219 118.311C79.8965 118.203 78.6485 118.516 77.5629 119.242C76.4717 119.971 75.6034 121.082 75.1266 122.426C74.6501 123.769 74.6011 125.246 74.9895 126.625C75.378 128.004 76.1746 129.182 77.2233 129.995C78.2676 130.806 79.4993 131.21 80.7286 131.191C81.9585 131.172 83.1819 130.73 84.207 129.885C85.2494 129.025 86.0051 127.902 86.3517 126.527L86.3957 126.352C86.4343 126.199 86.546 126.075 86.6942 126.021L88.2023 125.466C88.5627 125.334 88.9242 125.659 88.8304 126.031L88.654 126.731C88.2153 128.472 87.1992 130.219 85.7864 131.383C84.3812 132.542 82.6214 133.21 80.7691 133.238C78.9161 133.266 77.1354 132.653 75.6952 131.535C74.2594 130.421 73.2355 128.865 72.7445 127.123C72.2533 125.379 72.3138 123.516 72.9192 121.809C73.5244 120.103 74.6513 118.62 76.1649 117.608C77.6841 116.592 79.5081 116.111 81.3543 116.274C83.216 116.44 85.1003 117.377 86.4042 118.615L86.7583 118.951ZM87.6451 126.764C87.6697 126.676 87.5843 126.599 87.4988 126.631L87.3915 126.67C87.3376 126.69 87.2971 126.735 87.2824 126.791C86.8859 128.284 86.0461 129.526 84.8851 130.483C84.8644 130.5 84.8437 130.517 84.8229 130.533C83.6504 131.478 82.2216 132 80.7462 132.023L80.7434 132.023C79.2689 132.045 77.8273 131.566 76.63 130.659C76.6088 130.643 76.5877 130.627 76.5667 130.611C75.3659 129.679 74.4835 128.361 74.0512 126.855C74.0478 126.843 74.0444 126.831 74.041 126.819C73.6125 125.298 73.6658 123.671 74.1929 122.185C74.198 122.171 74.2031 122.156 74.2083 122.142C74.7388 120.675 75.7042 119.427 76.961 118.587C76.9825 118.573 77.004 118.558 77.0257 118.544C78.2761 117.729 79.7411 117.356 81.2068 117.483C81.2122 117.483 81.2176 117.484 81.2229 117.484C82.679 117.613 84.0575 118.228 85.16 119.238C85.2163 119.29 85.2963 119.307 85.3682 119.281L85.5458 119.218C85.6066 119.196 85.6231 119.118 85.5754 119.075C85.3693 118.887 85.1492 118.708 84.9179 118.54C83.8415 117.76 82.5248 117.218 81.2694 117.103C81.2641 117.103 81.2587 117.102 81.2533 117.102C79.6781 116.962 78.1027 117.37 76.7668 118.263C76.7454 118.277 76.724 118.292 76.7027 118.306C75.3982 119.199 74.3989 120.511 73.8529 122.05C73.8478 122.065 73.8428 122.079 73.8378 122.093C73.3012 123.634 73.2468 125.316 73.6829 126.892C73.6862 126.904 73.6896 126.916 73.693 126.928C74.1366 128.503 75.047 129.885 76.2891 130.871C76.3099 130.887 76.3308 130.904 76.3518 130.92C77.6259 131.909 79.1708 132.431 80.7515 132.406L80.7543 132.406C82.334 132.381 83.8628 131.812 85.1084 130.785C85.129 130.768 85.1495 130.751 85.1699 130.734C86.2353 129.833 87.0694 128.522 87.5286 127.143C87.5706 127.017 87.6095 126.891 87.6451 126.764Z" fill="#1D1E18"/>
<path fill-rule="evenodd" clip-rule="evenodd" d="M88.711 116.651C88.3454 116.786 88.2869 117.279 88.6107 117.496L91.0648 119.141C91.3893 119.359 91.3296 119.853 90.9626 119.987C82.4256 123.1 69.6083 127.701 66.8424 128.69C66.5736 128.786 66.4566 129.092 66.5818 129.348L67.2747 130.768C67.3812 130.986 67.6313 131.09 67.8599 131.009C70.7299 129.983 86.8749 124.187 95.1134 121.16L96.3548 120.704C96.7211 120.569 96.7803 120.076 96.4561 119.858L95.2631 119.058L90.8226 116.081C90.6953 115.996 90.5347 115.976 90.3908 116.03L88.711 116.651Z" fill="#1D1E18"/>
</g>
<defs>
<radialGradient id="paint0_radial_11_190" cx="0" cy="0" r="1" gradientUnits="userSpaceOnUse" gradientTransform="translate(63.9865 216.636) rotate(90) scale(23.731)">
<stop stop-color="#F8C180"/>
<stop offset="1" stop-color="#FFDBAF"/>
</radialGradient>
<radialGradient id="paint1_radial_11_190" cx="0" cy="0" r="1" gradientUnits="userSpaceOnUse" gradientTransform="translate(96.2004 216.636) rotate(90) scale(23.731)">
<stop stop-color="#F8C180"/>
<stop offset="1" stop-color="#FFDBAF"/>
</radialGradient>
<linearGradient id="paint2_linear_11_190" x1="121.751" y1="157.166" x2="144.666" y2="223.648" gradientUnits="userSpaceOnUse">
<stop stop-color="#FFD19C"/>
<stop offset="0.774647" stop-color="#ECA552"/>
</linearGradient>
<linearGradient id="paint3_linear_11_190" x1="38.4772" y1="156.899" x2="7.35134" y2="219.957" gradientUnits="userSpaceOnUse">
<stop stop-color="#FFD19C"/>
<stop offset="0.774647" stop-color="#ECA552"/>
</linearGradient>
<linearGradient id="paint4_linear_11_190" x1="79.9116" y1="91.0416" x2="79.9116" y2="1109.4" gradientUnits="userSpaceOnUse">
<stop stop-color="#8B8446"/>
<stop offset="1" stop-color="#252313"/>
</linearGradient>
<linearGradient id="paint5_linear_11_190" x1="77.8329" y1="36.0566" x2="97.863" y2="92.7043" gradientUnits="userSpaceOnUse">
<stop offset="0.375733" stop-color="#FFDAAF"/>
<stop offset="0.845963" stop-color="#FFC48D"/>
</linearGradient>
<linearGradient id="paint6_linear_11_190" x1="81.7608" y1="37.9418" x2="81.7608" y2="72.7745" gradientUnits="userSpaceOnUse">
<stop stop-color="#BA8F4F"/>
<stop offset="0.937065" stop-color="#4A3A2F"/>
</linearGradient>
</defs>
</svg>
