<svg width="95" height="244" viewBox="0 0 95 244" fill="none" xmlns="http://www.w3.org/2000/svg">
<g clip-path="url(#clip0_1636_4076)">
<path d="M36.4094 35.6499C36.4094 35.6499 30.1794 21.6599 17.1394 25.2099C8.30945 27.6199 6.64945 36.4499 7.10945 41.5799C7.50945 46.0799 10.7194 52.4999 19.1094 54.2399C26.6494 55.7999 30.7894 52.4999 30.7894 52.4999" fill="#FFE2C4"/>
<path d="M37.1093 35.2394C35.8493 32.4394 33.7693 29.8094 31.4593 27.8194C26.8793 23.8794 20.7093 22.7194 15.0693 25.0794C9.4293 27.4394 6.5293 33.1995 6.2593 39.1195C6.0093 44.6495 8.5893 49.9194 13.3493 52.8594C18.1093 55.7994 26.4893 56.8895 31.3593 53.0795C32.1693 52.4395 31.0293 51.3095 30.2193 51.9395C30.5093 51.7095 30.1793 51.9695 30.0693 52.0295C29.8093 52.1895 29.5593 52.3395 29.2893 52.4795C28.3393 52.9695 27.3093 53.2995 26.2693 53.5295C22.8393 54.2795 18.9893 53.7994 15.7993 52.3394C11.0393 50.1694 7.9293 45.5095 7.8493 40.2795C7.7693 35.0495 9.8593 29.5695 14.6793 27.0195C19.4993 24.4695 25.7393 25.1494 30.0593 28.7194C32.4093 30.6594 34.4793 33.2495 35.7293 36.0495C36.1493 36.9895 37.5393 36.1794 37.1193 35.2394H37.1093Z" fill="#FFC59D"/>
<path d="M84.7217 40.3088C83.1017 61.7488 67.8617 78.4488 44.5817 77.6388C23.0917 76.8988 2.83171 65.5988 9.25171 45.5288C15.9917 24.4888 13.6717 3.37884 45.7817 1.76884C70.7217 0.518839 86.3217 19.0288 84.7217 40.3088Z" fill="#FFE2C4"/>
<path d="M83.9218 40.309C83.2818 48.439 80.6018 56.449 75.6018 62.949C70.6018 69.449 63.8118 73.759 56.0618 75.689C47.5118 77.829 38.1018 76.979 29.7118 74.479C22.4418 72.319 14.8518 68.359 11.0518 61.479C9.24176 58.199 8.58176 54.469 8.94176 50.749C9.30176 47.029 10.7918 43.379 11.7318 39.739C13.3918 33.329 14.5718 26.719 16.9718 20.529C19.2418 14.699 22.9218 9.66896 28.5018 6.65896C31.9418 4.80896 35.7718 3.77896 39.6118 3.17896C44.2718 2.44896 49.0818 2.24896 53.7618 2.86896C61.7918 3.92896 69.3918 7.52896 74.9318 13.489C80.4718 19.449 83.3218 26.679 83.9018 34.399C84.0518 36.369 84.0418 38.339 83.9018 40.309C83.8318 41.339 85.4318 41.339 85.5118 40.309C86.0918 32.159 84.2118 23.849 79.7018 16.989C75.1918 10.129 68.3818 5.15896 60.5818 2.72896C51.8118 -0.00104022 41.6118 0.28896 32.8818 3.09896C26.3118 5.20896 20.9218 9.36896 17.5718 15.439C14.2218 21.509 12.8818 28.199 11.3118 34.749C10.4318 38.419 9.46176 42.049 8.36176 45.659C7.17176 49.559 6.82176 53.739 7.83176 57.719C9.79176 65.439 16.4118 70.779 23.4218 73.889C31.7018 77.559 41.4318 79.159 50.4418 78.279C58.8518 77.459 66.8518 74.059 72.9918 68.219C79.1318 62.379 82.8918 54.869 84.5918 46.819C85.0418 44.679 85.3418 42.509 85.5118 40.329C85.5918 39.299 83.9918 39.299 83.9018 40.329L83.9218 40.309Z" fill="#FFC59D"/>
<path d="M33.8062 45.8431C34.0494 44.7317 33.3455 43.6336 32.2341 43.3904C31.1227 43.1473 30.0246 43.8512 29.7814 44.9626L28.9458 48.7823C28.7027 49.8937 29.4066 50.9918 30.518 51.2349C31.6294 51.4781 32.7275 50.7742 32.9706 49.6628L33.8062 45.8431Z" fill="#292929"/>
<path d="M25.8976 44.4935C26.1407 43.3821 25.4368 42.284 24.3254 42.0408C23.214 41.7977 22.1159 42.5016 21.8727 43.613L21.0371 47.4327C20.794 48.5441 21.4979 49.6422 22.6093 49.8853C23.7207 50.1285 24.8188 49.4246 25.0619 48.3132L25.8976 44.4935Z" fill="#292929"/>
<path d="M68.0015 30.136C71.9815 25.536 78.0915 23.586 83.5215 25.226C90.9315 27.466 94.1015 35.526 93.5615 41.606C93.1615 46.106 89.9515 52.526 81.5615 54.266C76.0415 55.406 69.9215 52.536 69.8815 52.526" fill="#FFE2C4"/>
<path d="M68.5716 30.6963C71.9616 26.8763 77.1216 24.6263 82.2416 25.7163C86.7516 26.6763 90.1316 30.0863 91.7216 34.3263C92.9816 37.6963 93.2616 41.4863 91.9616 44.8963C90.4716 48.8163 87.1816 51.7263 83.2116 52.9963C78.7816 54.4163 74.2716 53.4663 70.0816 51.7463C69.1216 51.3563 68.7116 52.9063 69.6516 53.2963C69.2916 53.1463 69.9516 53.4263 70.0416 53.4663C70.3116 53.5763 70.5916 53.6863 70.8716 53.7963C71.9816 54.2063 73.1216 54.5463 74.2816 54.8063C77.1416 55.4363 80.0616 55.5463 82.9016 54.7663C87.3416 53.5463 91.1616 50.5863 93.0716 46.3563C96.6916 38.3563 92.5916 27.3763 84.0516 24.5663C78.0516 22.5863 71.5116 24.9563 67.4116 29.5763C66.7316 30.3463 67.8616 31.4863 68.5516 30.7163L68.5716 30.6963Z" fill="#FFC59D"/>
<path d="M52.9419 86.1291C52.9419 86.1291 85.5519 89.8091 86.9119 147.149C87.3719 147.419 92.5119 150.549 92.8419 156.439C92.9019 157.439 92.9719 161.259 90.0819 164.319C87.7519 166.789 84.8919 167.269 84.0419 167.399C79.9819 168.029 75.8219 166.259 73.6619 163.569C70.0619 159.099 72.1319 151.939 72.5719 150.179C74.7019 141.619 72.1419 124.249 52.9419 86.1191V86.1291Z" fill="#FFE2C4"/>
<path d="M52.942 86.9288C52.992 86.9288 52.692 86.8788 52.992 86.9288C53.232 86.9688 53.472 87.0088 53.702 87.0688C54.572 87.2588 55.432 87.4988 56.272 87.7888C59.182 88.7688 61.912 90.2388 64.412 91.9988C73.982 98.7488 79.582 109.749 82.602 120.799C83.802 125.209 84.652 129.729 85.202 134.269C85.522 136.859 85.752 139.469 85.902 142.079C85.982 143.409 86.042 144.739 86.082 146.069C86.112 146.979 86.012 147.439 86.722 147.969C89.562 150.089 91.872 152.819 92.052 156.549C92.262 161.049 89.512 165.159 85.102 166.359C80.452 167.619 74.642 165.439 72.982 160.669C71.782 157.219 72.592 153.609 73.392 150.189C74.192 146.769 74.102 142.879 73.642 139.259C72.852 133.069 71.112 127.019 69.082 121.129C65.902 111.869 61.942 102.869 57.722 94.0388C56.392 91.2488 55.022 88.4788 53.632 85.7088C53.172 84.7888 51.782 85.5988 52.242 86.5188C57.552 97.0788 62.592 107.839 66.612 118.969C68.982 125.529 71.122 132.319 72.022 139.259C72.312 141.499 72.462 143.769 72.342 146.029C72.242 147.889 71.832 149.619 71.422 151.429C70.472 155.619 70.202 160.609 73.082 164.139C76.122 167.859 81.662 169.229 86.152 167.709C91.122 166.029 94.142 161.059 93.592 155.879C93.182 151.999 90.652 148.429 87.312 146.449L87.712 147.139C87.312 131.329 84.722 114.329 75.472 101.069C70.942 94.5788 64.712 89.0988 57.192 86.4088C55.822 85.9188 54.382 85.4788 52.932 85.3188C51.912 85.1988 51.912 86.8088 52.932 86.9288H52.942Z" fill="#FFC79F"/>
<path d="M40.7275 85.3401C40.7275 85.3401 8.22746 89.8801 8.37746 147.24C7.92746 147.52 2.86746 150.79 2.69746 156.69C2.66746 157.69 2.69746 161.51 5.65746 164.49C8.04746 166.89 10.9275 167.3 11.7775 167.41C15.8575 167.93 19.9675 166.05 22.0575 163.31C25.5475 158.74 23.2775 151.64 22.7975 149.89C20.4375 141.39 22.5375 123.96 40.7175 85.3301L40.7275 85.3401Z" fill="#FFE2C4"/>
<path d="M40.5172 84.5604C36.4772 85.1304 32.4372 87.3804 29.1772 89.7104C20.2472 96.0904 14.6772 106.02 11.5472 116.36C8.52724 126.33 7.56724 136.86 7.58724 147.24L7.98724 146.55C5.23724 148.28 2.98724 151.18 2.21724 154.35C1.18724 158.6 2.69724 163.37 6.21724 166.03C10.1272 168.99 15.6772 168.96 19.7872 166.41C24.1472 163.7 25.2472 158.91 24.5672 154.09C24.2372 151.7 23.3672 149.45 23.0472 147.06C22.7772 145.02 22.7772 142.94 22.8972 140.88C23.2972 134.32 24.9972 127.85 26.9472 121.6C30.7672 109.29 35.9472 97.4004 41.4272 85.7504C41.8672 84.8204 40.4772 84.0004 40.0372 84.9404C35.3972 94.8004 31.0272 104.81 27.4072 115.1C25.0972 121.67 23.0472 128.4 21.9372 135.29C21.2672 139.43 20.8972 143.69 21.5472 147.85C21.8872 150.01 22.6572 152.06 22.9772 154.22C23.2972 156.38 23.3172 158.85 22.4772 160.97C21.4872 163.47 19.2272 165.24 16.7272 166.1C12.1072 167.69 6.67724 166.01 4.47724 161.44C2.74724 157.84 3.40724 153.59 5.91724 150.54C6.71724 149.56 7.65724 148.81 8.64724 148.04C9.34724 147.49 9.18724 146.82 9.18724 145.96C9.18724 144.56 9.22724 143.17 9.27724 141.77C9.45724 136.76 9.90724 131.76 10.7572 126.82C12.8772 114.49 17.5572 101.85 27.1572 93.3704C29.7872 91.0504 32.7572 89.0904 35.9772 87.6904C37.4872 87.0304 39.0972 86.6104 40.7172 86.1704C40.7972 86.1504 40.8772 86.1404 40.9572 86.1304C41.9772 85.9904 41.5472 84.4404 40.5272 84.5804L40.5172 84.5604Z" fill="#FFC79F"/>
<path d="M50.3318 151.229L62.8418 242.659H31.1418L18.6318 151.229H50.3318Z" fill="#FFE2C4"/>
<path d="M49.5517 151.439C49.9617 154.459 50.3817 157.489 50.7917 160.509C51.7817 167.769 52.7817 175.039 53.7717 182.299C54.9817 191.129 56.1917 199.969 57.4017 208.799C58.4417 216.399 59.4817 223.999 60.5217 231.609L61.5517 239.129C61.7017 240.199 61.6317 241.699 62.0417 242.709C62.0617 242.759 62.0617 242.819 62.0617 242.869L62.8317 241.849H31.1317L31.9017 242.439C31.4917 239.419 31.0717 236.389 30.6617 233.369C29.6717 226.109 28.6717 218.839 27.6817 211.579C26.4717 202.749 25.2617 193.909 24.0617 185.079C23.0217 177.479 21.9817 169.879 20.9417 162.269L19.9117 154.749C19.7617 153.679 19.8317 152.179 19.4217 151.169C19.4017 151.119 19.4017 151.059 19.4017 151.009L18.6317 152.029H50.3217C51.3517 152.029 51.3517 150.419 50.3217 150.419H18.6317C18.0517 150.419 17.7917 150.929 17.8617 151.439C18.2717 154.459 18.6917 157.489 19.1017 160.509C20.0917 167.769 21.0917 175.039 22.0817 182.299C23.2917 191.129 24.5017 199.969 25.7017 208.799C26.7417 216.399 27.7817 223.999 28.8217 231.609L29.8517 239.129C30.0117 240.289 30.0317 241.579 30.3417 242.709C30.3517 242.759 30.3517 242.819 30.3617 242.869C30.4117 243.209 30.8217 243.459 31.1317 243.459H62.8317C63.4117 243.459 63.6717 242.949 63.6017 242.439C63.1917 239.419 62.7717 236.389 62.3617 233.369C61.3717 226.109 60.3717 218.839 59.3817 211.579C58.1717 202.749 56.9617 193.909 55.7517 185.079C54.7117 177.479 53.6717 169.879 52.6317 162.269L51.6017 154.749C51.4417 153.589 51.4217 152.299 51.1117 151.169C51.1017 151.119 51.1017 151.059 51.0917 151.009C50.9517 149.989 49.4017 150.419 49.5417 151.439H49.5517Z" fill="#FFCAA3"/>
<path d="M53.7414 242.659H12.4614C7.02141 235.099 6.72141 226.029 10.9514 221.059C15.2014 216.069 22.7714 216.679 24.9914 216.859C31.7914 217.409 36.3714 221.149 38.0014 222.629" fill="#FFE2C4"/>
<path d="M53.7417 241.849H12.4617L13.1517 242.249C9.10166 236.519 6.40166 227.029 11.8717 221.219C16.0217 216.809 23.7417 216.799 29.1717 218.459C32.2317 219.389 35.0517 221.049 37.4217 223.179C38.1917 223.869 39.3317 222.739 38.5617 222.039C34.7317 218.589 29.9417 216.429 24.7917 216.019C20.2317 215.659 15.2417 216.189 11.6117 219.249C7.13166 223.039 6.53166 229.589 7.92166 234.949C8.34166 236.559 8.94166 238.119 9.68166 239.609C10.0517 240.359 10.4717 241.089 10.9217 241.799C11.2517 242.329 11.6217 243.189 12.2417 243.419C13.0217 243.709 14.3717 243.449 15.1917 243.449H53.7417C54.7717 243.449 54.7717 241.839 53.7417 241.839V241.849Z" fill="#FFCAA3"/>
<path d="M74.2613 150.079L84.4113 228.909C85.6113 235.919 80.7813 242.659 75.6113 242.659H55.0713L42.5713 150.079H74.2613Z" fill="#FFE2C4"/>
<path d="M73.4614 150.079C74.0514 154.639 74.6414 159.209 75.2214 163.769C76.4814 173.539 77.7414 183.309 78.9914 193.079C80.1614 202.179 81.3314 211.269 82.5014 220.369L83.4514 227.729C83.5014 228.119 83.5514 228.509 83.6014 228.899C84.1014 232.639 83.2914 236.489 80.6714 239.319C79.1014 241.019 77.2014 241.859 74.9214 241.859H55.0614L55.8314 242.449C55.4214 239.379 55.0014 236.309 54.5914 233.249C53.5914 225.879 52.6014 218.509 51.6014 211.139C50.4014 202.219 49.1914 193.309 47.9914 184.389C46.9514 176.679 45.9114 168.969 44.8714 161.269L43.8414 153.669L43.5214 151.279C43.4714 150.899 43.4914 150.379 43.3514 150.029C43.3314 149.979 43.3414 149.919 43.3314 149.869L42.5614 150.889H74.2514C75.2814 150.889 75.2814 149.279 74.2514 149.279H42.5614C41.9814 149.279 41.7214 149.789 41.7914 150.299C42.2014 153.369 42.6214 156.439 43.0314 159.499C44.0314 166.869 45.0214 174.239 46.0214 181.609C47.2214 190.529 48.4314 199.439 49.6314 208.359C50.6714 216.069 51.7114 223.779 52.7514 231.479L53.7814 239.079C53.9414 240.259 53.9614 241.579 54.2714 242.729C54.2814 242.779 54.2814 242.839 54.2914 242.889C54.3414 243.229 54.7514 243.479 55.0614 243.479H73.1014C74.3714 243.479 75.7214 243.579 76.9714 243.339C83.2914 242.119 85.9714 234.459 85.1914 228.829C84.9514 227.119 84.7514 225.409 84.5314 223.699C83.4314 215.179 82.3414 206.649 81.2414 198.129C79.9314 187.929 78.6114 177.729 77.3014 167.519C76.5614 161.799 75.9514 156.049 75.0914 150.359C75.0814 150.269 75.0714 150.189 75.0614 150.099C74.9314 149.089 73.3214 149.079 73.4514 150.099L73.4614 150.079Z" fill="#FFCAA3"/>
<path d="M63.0815 222.619C61.4515 221.139 56.8715 217.399 50.0715 216.849C47.8615 216.669 40.2815 216.059 36.0315 221.049C31.8015 226.019 32.1015 235.099 37.5415 242.649H70.5815" fill="#FFE2C4"/>
<path d="M63.6515 222.049C59.8215 218.599 55.0315 216.439 49.8815 216.029C45.3215 215.669 40.3315 216.199 36.7015 219.259C32.2215 223.049 31.6215 229.599 33.0115 234.959C33.4315 236.569 34.0315 238.129 34.7715 239.619C35.1415 240.369 35.5615 241.099 36.0115 241.809C36.3415 242.339 36.7115 243.199 37.3315 243.429C38.0815 243.709 39.3815 243.459 40.1715 243.459H70.5815C71.6115 243.459 71.6115 241.849 70.5815 241.849H37.5415L38.2315 242.249C34.1815 236.519 31.4815 227.029 36.9515 221.219C41.1015 216.809 48.8215 216.799 54.2515 218.459C57.3115 219.389 60.1315 221.049 62.5015 223.179C63.2715 223.869 64.4115 222.739 63.6415 222.039L63.6515 222.049Z" fill="#FFCAA3"/>
<path d="M46.8019 150.979C46.8019 150.979 32.7319 150.849 19.5619 151.229C16.2219 151.329 13.4119 149.199 13.3319 146.479C13.0119 135.789 13.6719 110.409 25.6119 94.9591C34.0919 83.9891 46.5519 84.6291 46.5519 84.6291H46.3319C46.3319 84.6291 58.7919 83.9891 67.2719 94.9591C79.2119 110.409 79.8719 135.789 79.5519 146.479C79.4719 149.199 76.6718 151.319 73.3218 151.229C60.1518 150.849 46.0819 150.979 46.0819 150.979" fill="#FFE2C4"/>
<path d="M46.8021 150.169C39.7421 150.109 32.6721 150.149 25.6121 150.279C21.7421 150.349 14.2621 151.699 14.1221 145.899C14.0521 142.949 14.0721 139.989 14.2021 137.039C14.5421 129.079 15.5521 121.109 17.7121 113.429C20.0121 105.289 23.7421 96.5587 30.4921 91.1087C34.8221 87.6187 40.9021 85.1687 46.5621 85.4387V83.8287H46.3421V85.4387C50.9421 85.2187 55.8821 86.8787 59.7421 89.2387C67.3021 93.8587 71.6221 102.349 74.3021 110.519C76.9821 118.689 78.0721 126.409 78.5721 134.529C78.7621 137.679 78.8421 140.829 78.8121 143.989C78.8021 145.449 78.9921 147.119 78.0921 148.369C76.5221 150.529 73.8521 150.429 71.4821 150.369C63.0221 150.159 54.5621 150.089 46.1021 150.169C45.0721 150.169 45.0621 151.789 46.1021 151.779C53.9421 151.709 61.7821 151.769 69.6121 151.939C72.0621 151.989 74.6521 152.369 76.9321 151.289C78.6521 150.479 80.0521 148.939 80.3221 147.009C80.7221 144.059 80.4521 140.859 80.3421 137.889C80.0421 129.509 79.0121 121.079 76.7421 112.999C74.3421 104.479 70.3821 95.3787 63.2721 89.7487C58.6821 86.1187 52.3121 83.5487 46.3521 83.8287C45.3221 83.8787 45.3121 85.4387 46.3521 85.4387H46.5721C47.6121 85.4387 47.6021 83.8787 46.5721 83.8287C41.5921 83.5887 36.2321 85.4187 32.0721 88.0287C24.4121 92.8387 19.9621 101.399 17.1721 109.759C14.3821 118.119 13.1821 126.569 12.7021 135.139C12.5121 138.449 12.4521 141.769 12.5121 145.089C12.5421 146.749 12.6421 148.259 13.7521 149.599C15.0721 151.199 17.1521 151.989 19.1921 152.039C22.3921 152.129 25.6221 151.889 28.8321 151.849C32.0421 151.809 34.9121 151.779 37.9621 151.769C41.0121 151.759 43.8721 151.759 46.8221 151.789C47.8521 151.789 47.8521 150.189 46.8221 150.179L46.8021 150.169Z" fill="#FFC59D"/>
</g>
<defs>
<clipPath id="clip0_1636_4076">
<rect width="94.25" height="242.74" fill="white" transform="translate(0.151855 0.829102)"/>
</clipPath>
</defs>
</svg>
