<svg width="27" height="22" viewBox="0 0 27 22" fill="none" xmlns="http://www.w3.org/2000/svg">
<path d="M26.5941 11.2172C26.1299 9.41264 24.8986 8.58736 23.7504 8.21494C22.4675 3.93678 19.1573 0.5 13.6268 0.5C8.09623 0.5 4.7658 3.97126 3.52334 8.27701C2.42889 8.67701 1.29856 9.5069 0.858993 11.2172C0.206363 13.7506 2.11043 15.431 3.41569 16.0517C3.49194 16.0885 3.57492 16.123 3.6579 16.1552C5.20537 19.7184 9.09424 21.5 13.6514 21.5C18.2086 21.5 22.0526 19.7368 23.6181 16.2172C23.7661 16.169 23.9074 16.1138 24.0374 16.0517C25.3427 15.4287 27.2468 13.7506 26.5941 11.2172Z" fill="#C7C5FF"/>
<rect x="10.5288" y="11.8262" width="2" height="3.1377" rx="1" fill="black" fill-opacity="0.55"/>
<rect x="14.9243" y="11.8262" width="2" height="3.1377" rx="1" fill="black" fill-opacity="0.55"/>
</svg>
