<svg width="24" height="24" viewBox="0 0 24 24" fill="none" xmlns="http://www.w3.org/2000/svg">
<path d="M21.5358 12C21.5358 11.9958 21.5358 11.9924 21.5358 11.9882C21.5344 11.2319 21.8007 10.4971 22.3577 9.95267L23.6743 8.66721C24.0332 8.31744 24.1021 7.78552 23.8446 7.36373L22.1765 4.63696C21.9189 4.21517 21.3957 4.006 20.8952 4.12374L19.1684 4.53099C18.3523 4.72354 17.4886 4.60718 16.7613 4.20755L16.74 4.19578C16.0252 3.80307 15.4991 3.16449 15.2716 2.41371L14.7791 0.79095C14.6375 0.322752 14.184 0 13.6681 0H10.3319C9.81602 0 9.36249 0.322752 9.22086 0.79095L8.69541 2.52314C8.487 3.20951 8.00778 3.79545 7.34951 4.14729C7.28199 4.18331 7.21448 4.22071 7.14843 4.25811C6.49015 4.63004 5.70272 4.7367 4.95858 4.56078L3.10411 4.12374C2.60361 4.006 2.0811 4.21517 1.82278 4.63696L0.15471 7.36373C-0.102876 7.78552 -0.0338928 8.31744 0.324966 8.66721L1.64152 9.95267C2.19852 10.4971 2.46565 11.2312 2.46418 11.9882C2.46418 11.9924 2.46418 11.9965 2.46418 12C2.46418 12.0042 2.46418 12.0076 2.46418 12.0118C2.46565 12.7688 2.19852 13.5029 1.64152 14.0473L0.324966 15.3328C-0.0338928 15.6826 -0.102876 16.2145 0.15471 16.6363L1.82278 19.363C2.08037 19.7848 2.60361 19.994 3.10411 19.8763L4.95785 19.4392C5.70198 19.264 6.48942 19.37 7.14769 19.7419C7.21448 19.78 7.28199 19.8167 7.34951 19.8527C8.00778 20.2045 8.487 20.7905 8.69541 21.4769L9.22086 23.209C9.36249 23.6772 9.81602 24 10.3319 24H13.6681C14.184 24 14.6375 23.6772 14.7791 23.209L15.3046 21.4769C15.513 20.7905 15.9922 20.2045 16.6505 19.8527C16.718 19.8167 16.7855 19.7793 16.8523 19.7419C17.5106 19.37 18.298 19.2633 19.0422 19.4392L20.8959 19.8763C21.3964 19.994 21.9189 19.7848 22.1772 19.363L23.8453 16.6363C24.1029 16.2145 24.0339 15.6826 23.675 15.3328L22.3585 14.0473C21.8015 13.5036 21.5351 12.7688 21.5366 12.0118C21.5366 12.0076 21.5358 12.0042 21.5358 12Z" fill="#F4CFAB"/>
<path d="M11.9997 17.0376C9.05622 17.0376 6.66162 14.7769 6.66162 11.9996C6.66162 9.22228 9.05695 6.96094 11.9997 6.96094C14.9425 6.96094 17.3386 9.22159 17.3386 11.9996C17.3386 14.7776 14.9433 17.0376 11.9997 17.0376ZM11.9997 9.03805C10.2708 9.03805 8.86321 10.3665 8.86321 11.9989C8.86321 13.6314 10.2708 14.9591 11.9997 14.9591C13.7287 14.9591 15.137 13.6307 15.137 11.9989C15.137 10.3671 13.7295 9.03805 11.9997 9.03805Z" fill="#EAB98B"/>
</svg>
