<svg width="25" height="24" viewBox="0 0 25 24" fill="none" xmlns="http://www.w3.org/2000/svg">
<path d="M21.7624 12C21.7624 11.9958 21.7624 11.9924 21.7624 11.9882C21.7609 11.2319 22.0273 10.4971 22.5843 9.95267L23.9009 8.66721C24.2597 8.31744 24.3287 7.78552 24.0711 7.36373L22.403 4.63696C22.1455 4.21517 21.6222 4.006 21.1217 4.12374L19.3949 4.53099C18.5789 4.72354 17.7151 4.60718 16.9879 4.20755L16.9666 4.19578C16.2518 3.80307 15.7256 3.16449 15.4981 2.41371L15.0057 0.79095C14.8641 0.322752 14.4105 0 13.8946 0H10.5585C10.0426 0 9.58906 0.322752 9.44742 0.79095L8.92198 2.52314C8.71356 3.20951 8.23435 3.79545 7.57607 4.14729C7.50855 4.18331 7.44104 4.22071 7.37499 4.25811C6.71672 4.63004 5.92928 4.7367 5.18514 4.56078L3.33067 4.12374C2.83017 4.006 2.30766 4.21517 2.04934 4.63696L0.381273 7.36373C0.123686 7.78552 0.19267 8.31744 0.551529 8.66721L1.86808 9.95267C2.42508 10.4971 2.69221 11.2312 2.69074 11.9882C2.69074 11.9924 2.69074 11.9965 2.69074 12C2.69074 12.0042 2.69074 12.0076 2.69074 12.0118C2.69221 12.7688 2.42508 13.5029 1.86808 14.0473L0.551529 15.3328C0.19267 15.6826 0.123686 16.2145 0.381273 16.6363L2.04934 19.363C2.30693 19.7848 2.83017 19.994 3.33067 19.8763L5.18441 19.4392C5.92855 19.264 6.71598 19.37 7.37426 19.7419C7.44104 19.78 7.50855 19.8167 7.57607 19.8527C8.23435 20.2045 8.71356 20.7905 8.92198 21.4769L9.44742 23.209C9.58906 23.6772 10.0426 24 10.5585 24H13.8946C14.4105 24 14.8641 23.6772 15.0057 23.209L15.5311 21.4769C15.7396 20.7905 16.2188 20.2045 16.8771 19.8527C16.9446 19.8167 17.0121 19.7793 17.0789 19.7419C17.7371 19.37 18.5246 19.2633 19.2687 19.4392L21.1225 19.8763C21.6229 19.994 22.1455 19.7848 22.4038 19.363L24.0718 16.6363C24.3294 16.2145 24.2605 15.6826 23.9016 15.3328L22.585 14.0473C22.028 13.5036 21.7616 12.7688 21.7631 12.0118C21.7631 12.0076 21.7624 12.0042 21.7624 12Z" fill="#C0BFED"/>
<path d="M12.2268 17.0376C9.28327 17.0376 6.88867 14.7769 6.88867 11.9996C6.88867 9.22228 9.284 6.96094 12.2268 6.96094C15.1696 6.96094 17.5657 9.22159 17.5657 11.9996C17.5657 14.7776 15.1703 17.0376 12.2268 17.0376ZM12.2268 9.03805C10.4978 9.03805 9.09026 10.3665 9.09026 11.9989C9.09026 13.6314 10.4978 14.9591 12.2268 14.9591C13.9558 14.9591 15.3641 13.6307 15.3641 11.9989C15.3641 10.3671 13.9565 9.03805 12.2268 9.03805Z" fill="#817FE0"/>
</svg>
