<svg width="44" height="45" viewBox="0 0 44 45" fill="none" xmlns="http://www.w3.org/2000/svg">
<g clip-path="url(#clip0_13260_25134)">
<rect y="0.0742188" width="44" height="44" rx="22" fill="white"/>
<path d="M18 14.0742H17.2002C16.0801 14.0742 15.5196 14.0742 15.0918 14.2922C14.7155 14.484 14.4097 14.7897 14.218 15.166C14 15.5938 14 16.1543 14 17.2744V26.8744C14 27.9945 14 28.5543 14.218 28.9821C14.4097 29.3584 14.7155 29.6647 15.0918 29.8564C15.5192 30.0742 16.079 30.0742 17.1969 30.0742H18M18 14.0742H26.8002C27.9203 14.0742 28.4796 14.0742 28.9074 14.2922C29.2837 14.484 29.5905 14.7897 29.7822 15.166C30 15.5934 30 16.1532 30 17.2711V26.8778C30 27.9957 30 28.5547 29.7822 28.9821C29.5905 29.3584 29.2837 29.6647 28.9074 29.8564C28.48 30.0742 27.921 30.0742 26.8031 30.0742H18M18 14.0742V30.0742M22 21.0742H26M22 18.0742H26" stroke="#1D1E18" stroke-width="2" stroke-linecap="round" stroke-linejoin="round"/>
</g>
<rect x="0.5" y="0.574219" width="43" height="43" rx="21.5" stroke="black" stroke-opacity="0.15"/>
<defs>
<clipPath id="clip0_13260_25134">
<rect y="0.0742188" width="44" height="44" rx="22" fill="white"/>
</clipPath>
</defs>
</svg>
