<svg width="25" height="24" viewBox="0 0 25 24" fill="none" xmlns="http://www.w3.org/2000/svg">
<path d="M9.10156 5.99805L12.1016 2.99805M12.1016 2.99805L15.1016 5.99805M12.1016 2.99805V12.998M7.10179 9.99805C6.16991 9.99805 5.70397 9.99805 5.33643 10.1503C4.84637 10.3533 4.45679 10.7429 4.2538 11.2329C4.10156 11.6005 4.10156 12.0662 4.10156 12.998V17.798C4.10156 18.9182 4.10156 19.4778 4.31955 19.9056C4.5113 20.282 4.81704 20.5885 5.19336 20.7803C5.62076 20.998 6.18056 20.998 7.29847 20.998H16.9051C18.0231 20.998 18.582 20.998 19.0094 20.7803C19.3858 20.5885 19.692 20.282 19.8838 19.9056C20.1016 19.4782 20.1016 18.9191 20.1016 17.8011V12.998C20.1016 12.0662 20.1015 11.6005 19.9492 11.2329C19.7462 10.7429 19.357 10.3533 18.8669 10.1503C18.4994 9.99805 18.0334 9.99805 17.1016 9.99805" stroke="white" stroke-width="2" stroke-linecap="round" stroke-linejoin="round"/>
</svg>
