<svg width="25" height="25" viewBox="0 0 25 25" fill="none" xmlns="http://www.w3.org/2000/svg">
<path d="M12.9148 18.0899C13.2003 18.0899 13.4414 17.9914 13.6383 17.7944C13.8351 17.5972 13.9335 17.3558 13.9335 17.0701C13.9335 16.7846 13.8349 16.5434 13.6378 16.3466C13.4406 16.1499 13.1993 16.0516 12.9138 16.0516C12.6283 16.0516 12.3871 16.1502 12.1903 16.3474C11.9934 16.5445 11.895 16.7859 11.895 17.0714C11.895 17.3569 11.9936 17.598 12.1908 17.7949C12.3879 17.9915 12.6293 18.0899 12.9148 18.0899ZM12.9275 21.9746C11.6135 21.9746 10.3784 21.7253 9.22228 21.2266C8.06611 20.7279 7.06045 20.0512 6.20528 19.1964C5.35011 18.3415 4.67303 17.3363 4.17403 16.1806C3.6752 15.0249 3.42578 13.7902 3.42578 12.4764C3.42578 11.1624 3.67511 9.92728 4.17378 8.77111C4.67245 7.61494 5.3492 6.60928 6.20403 5.75411C7.05886 4.89894 8.06412 4.22186 9.21978 3.72286C10.3754 3.22403 11.6102 2.97461 12.924 2.97461C14.238 2.97461 15.4731 3.22394 16.6293 3.72261C17.7854 4.22128 18.7911 4.89803 19.6463 5.75286C20.5014 6.60769 21.1785 7.61294 21.6775 8.76861C22.1764 9.92428 22.4258 11.159 22.4258 12.4729C22.4258 13.7869 22.1764 15.0219 21.6778 16.1781C21.1791 17.3343 20.5024 18.3399 19.6475 19.1951C18.7927 20.0503 17.7874 20.7274 16.6318 21.2264C15.4761 21.7252 14.2414 21.9746 12.9275 21.9746ZM12.9258 20.4746C15.1591 20.4746 17.0508 19.6996 18.6008 18.1496C20.1508 16.5996 20.9258 14.7079 20.9258 12.4746C20.9258 10.2413 20.1508 8.34961 18.6008 6.79961C17.0508 5.24961 15.1591 4.47461 12.9258 4.47461C10.6924 4.47461 8.80078 5.24961 7.25078 6.79961C5.70078 8.34961 4.92578 10.2413 4.92578 12.4746C4.92578 14.7079 5.70078 16.5996 7.25078 18.1496C8.80078 19.6996 10.6924 20.4746 12.9258 20.4746ZM13.0068 8.19386C13.4681 8.19386 13.8674 8.33911 14.2045 8.62961C14.5419 8.92011 14.7105 9.28319 14.7105 9.71886C14.7105 10.0855 14.6028 10.4137 14.3873 10.7034C14.1719 10.9932 13.9258 11.2631 13.6488 11.5131C13.2858 11.8351 12.9662 12.1894 12.69 12.5759C12.4139 12.9622 12.2662 13.3925 12.247 13.8669C12.2405 14.049 12.3046 14.2016 12.4393 14.3246C12.5739 14.4476 12.7309 14.5091 12.9103 14.5091C13.1026 14.5091 13.2654 14.445 13.3988 14.3169C13.5321 14.1887 13.6174 14.0317 13.6545 13.8459C13.7212 13.5022 13.8632 13.1961 14.0805 12.9276C14.2979 12.6589 14.5333 12.4035 14.7868 12.1614C15.1513 11.806 15.4694 11.4187 15.741 10.9994C16.0129 10.5799 16.1488 10.112 16.1488 9.59586C16.1488 8.80353 15.8366 8.15253 15.2123 7.64286C14.5879 7.13336 13.8591 6.87861 13.0258 6.87861C12.4309 6.87861 11.87 7.01028 11.343 7.27361C10.8162 7.53711 10.4059 7.92144 10.1123 8.42661C10.0213 8.58178 9.99211 8.74503 10.0248 8.91636C10.0573 9.08786 10.1452 9.21803 10.2885 9.30686C10.471 9.40836 10.6584 9.43736 10.8508 9.39386C11.0431 9.35019 11.2065 9.24061 11.341 9.06511C11.5437 8.80228 11.7889 8.59136 12.0768 8.43236C12.3646 8.27336 12.6746 8.19386 13.0068 8.19386Z" fill="#7E7E7E"/>
</svg>
