<svg width="12" height="14" viewBox="0 0 12 14" fill="none" xmlns="http://www.w3.org/2000/svg">
<path d="M9.79578 3.4447C9.94664 4.4513 10.1219 5.02746 9.40184 5.02746C8.42217 5.02746 8.4218 2.70883 6.76379 1.38796C5.12349 0.0814768 3.9 0.399061 3.87418 0.406069C3.87381 0.406438 3.87307 0.407176 3.87271 0.407545C5.23895 1.54805 4.47689 3.42257 3.58279 3.93933C2.72483 4.43508 1.74552 3.80987 2.25823 2.3385C1.13064 3.88032 0.157227 5.74857 0.157227 7.61018C0.157227 10.6477 2.6197 13.1102 5.65723 13.1102C8.69475 13.1102 11.1572 10.6477 11.1572 7.61018C11.1572 6.17497 10.5774 4.73569 9.79578 3.4447Z" fill="#EF4452"/>
<path d="M5.65716 6.74512C5.65716 6.74512 8.04882 8.12242 8.04882 10.0467C8.04882 11.3676 6.97803 12.4384 5.65716 12.4384C4.33629 12.4384 3.2655 11.3676 3.2655 10.0467C3.2655 8.12242 5.65716 6.74512 5.65716 6.74512Z" fill="#FF7978"/>
</svg>
