<svg width="12" height="14" viewBox="0 0 12 14" fill="none" xmlns="http://www.w3.org/2000/svg">
<path d="M9.79578 3.4447C9.94664 4.4513 10.1219 5.02746 9.40184 5.02746C8.42217 5.02746 8.4218 2.70883 6.76379 1.38796C5.12349 0.0814768 3.9 0.399061 3.87418 0.406069C3.87381 0.406438 3.87307 0.407176 3.87271 0.407545C5.23895 1.54805 4.47689 3.42257 3.58279 3.93933C2.72483 4.43508 1.74552 3.80987 2.25823 2.3385C1.13064 3.88032 0.157227 5.74857 0.157227 7.61018C0.157227 10.6477 2.6197 13.1102 5.65723 13.1102C8.69475 13.1102 11.1572 10.6477 11.1572 7.61018C11.1572 6.17497 10.5774 4.73569 9.79578 3.4447Z" fill="#EF44B0"/>
<path d="M5.65728 6.74609C5.65728 6.74609 8.04894 8.1234 8.04894 10.0477C8.04894 11.3686 6.97815 12.4394 5.65728 12.4394C4.33641 12.4394 3.26562 11.3686 3.26562 10.0477C3.26562 8.1234 5.65728 6.74609 5.65728 6.74609Z" fill="#FF7897"/>
</svg>
