<?xml version="1.0" encoding="UTF-8"?><svg id="_레이어_1" xmlns="http://www.w3.org/2000/svg" xmlns:xlink="http://www.w3.org/1999/xlink" viewBox="0 0 44 44"><defs><style>.cls-1{fill:none;}.cls-2{clip-path:url(#clippath);}.cls-3{fill:#fff;}.cls-4{fill:#1d1e18;}.cls-5{opacity:.15;}</style><clipPath id="clippath"><path class="cls-1" d="m22,0h0c12.15,0,22,9.85,22,22h0c0,12.15-9.85,22-22,22h0C9.85,44,0,34.15,0,22h0C0,9.85,9.85,0,22,0Z"/></clipPath></defs><g class="cls-2"><path class="cls-3" d="m22,0h0c12.15,0,22,9.85,22,22h0c0,12.15-9.85,22-22,22h0C9.85,44,0,34.15,0,22h0C0,9.85,9.85,0,22,0Z"/><path class="cls-4" d="m19.8,23.33h0c.55,0,1,.45,1,1v1.14c0,.55-.45,1-1,1h0c-.55,0-1-.45-1-1v-1.14c0-.55.45-1,1-1Z"/><path class="cls-4" d="m24.2,23.33h0c.55,0,1,.45,1,1v1.14c0,.55-.45,1-1,1h0c-.55,0-1-.45-1-1v-1.14c0-.55.45-1,1-1Z"/><path class="cls-4" d="m21.92,35c-5.35,0-9.52-2.13-11.49-5.85-.66-.37-1.64-1.06-2.41-2.17-.68-1-1.38-2.63-.83-4.76h0c.44-1.71,1.45-3.04,2.92-3.87,1.91-5.31,6.18-8.35,11.78-8.35s9.8,2.99,11.73,8.22c1.21.61,2.6,1.78,3.17,4,.55,2.13-.15,3.77-.83,4.76-.84,1.23-1.94,1.93-2.62,2.28-2,3.65-6.14,5.73-11.43,5.73Zm-14.37-12.69l1.58.41c-.29,1.13-.11,2.18.54,3.13.66.96,1.58,1.49,1.95,1.67l.31.15.15.31c1.56,3.19,5.15,5.02,9.84,5.02s8.23-1.8,9.8-4.94l.17-.33.34-.14.57,1.02-.57-1.02c.38-.18,1.4-.74,2.08-1.73.65-.95.83-2,.54-3.13,0,0,0,0,0-.01-.32-1.22-1.15-2.15-2.47-2.77l-.39-.18-.13-.41c-.96-2.93-2.74-5.08-5.13-6.27-1.42-.71-3.05-1.08-4.83-1.08s-3.42.37-4.83,1.08c-2.39,1.19-4.18,3.34-5.14,6.27l-.13.41-.39.18c-1.17.55-1.96,1.56-2.29,2.85l-1.56-.48Z"/></g><path class="cls-5" d="m22,44C9.87,44,0,34.13,0,22S9.87,0,22,0s22,9.87,22,22-9.87,22-22,22Zm0-43C10.42,1,1,10.42,1,22s9.42,21,21,21,21-9.42,21-21S33.58,1,22,1Z"/></svg>