<svg width="44" height="44" viewBox="0 0 44 44" fill="none" xmlns="http://www.w3.org/2000/svg">
<g clip-path="url(#clip0_99_538)">
<g filter="url(#filter0_d_99_538)">
<g clip-path="url(#clip1_99_538)">
<rect width="44" height="44" rx="22" fill="white"/>
</g>
<rect x="0.5" y="0.5" width="43" height="43" rx="21.5" stroke="black" stroke-opacity="0.15"/>
</g>
<path fill-rule="evenodd" clip-rule="evenodd" d="M9.74687 26.3292C9.23276 24.6676 10.6961 23.0006 12.2194 21.9284C12.4888 16.7603 16.7645 12.6523 21.9996 12.6523C27.2346 12.6523 31.5104 16.7601 31.78 21.928C33.3035 23.0002 34.7672 24.6674 34.2531 26.3292C33.7177 27.6752 31.9031 28.2233 30.1635 27.5824C28.4092 29.9607 25.4078 31.3466 21.9997 31.3466C18.5917 31.3466 15.5903 29.9608 13.836 27.5825C12.0966 28.2232 10.2822 27.6751 9.74687 26.3292ZM13.0921 29.7964C11.0405 30.0296 8.76912 29.2827 7.88845 27.0683L7.85943 26.9954L7.83623 26.9204C7.34239 25.3243 7.85986 23.8697 8.54116 22.8194C9.02798 22.0689 9.66209 21.4146 10.31 20.8739C11.0795 15.1032 16.0191 10.6523 21.9996 10.6523C27.9799 10.6523 32.9196 15.1029 33.6894 20.8734C34.3374 21.4141 34.9716 22.0684 35.4585 22.819C36.14 23.8694 36.6576 25.3241 36.1637 26.9204L36.1405 26.9954L36.1115 27.0683C35.2307 29.2828 32.9591 30.0297 30.9073 29.7964C28.6862 32.1093 25.4531 33.3466 21.9997 33.3466C18.5464 33.3466 15.3133 32.1093 13.0921 29.7964Z" fill="#1D1E18"/>
<path d="M16.2644 22.0448C15.8092 22.014 15.4066 22.369 15.545 22.806C15.5555 22.839 15.5667 22.8718 15.5787 22.9045C15.6866 23.199 15.8534 23.4713 16.0695 23.7057C16.2855 23.9402 16.5466 24.1322 16.8379 24.2709C17.1292 24.4096 17.4449 24.4921 17.767 24.5139C18.0891 24.5356 18.4113 24.4962 18.7152 24.3977C19.0192 24.2993 19.2989 24.1438 19.5384 23.9401C19.7778 23.7364 19.9724 23.4886 20.111 23.2107C20.1264 23.1799 20.141 23.1488 20.1549 23.1174C20.3389 22.7022 19.977 22.2956 19.5219 22.2648L17.8932 22.1548L16.2644 22.0448Z" fill="#1D1E18"/>
<path d="M24.4789 22.2663C24.0237 22.297 23.6618 22.7037 23.8458 23.1189C23.8597 23.1502 23.8744 23.1813 23.8897 23.2121C24.0283 23.49 24.2229 23.7379 24.4624 23.9416C24.7019 24.1453 24.9816 24.3008 25.2855 24.3992C25.5894 24.4977 25.9117 24.5371 26.2338 24.5154C26.5559 24.4936 26.8716 24.4111 27.1628 24.2724C27.4541 24.1338 27.7152 23.9417 27.9312 23.7073C28.1473 23.4728 28.3141 23.2006 28.422 22.906C28.434 22.8734 28.4452 22.8405 28.4557 22.8075C28.5941 22.3706 28.1915 22.0155 27.7363 22.0463L26.1076 22.1563L24.4789 22.2663Z" fill="#1D1E18"/>
</g>
<defs>
<filter id="filter0_d_99_538" x="-4" y="-3" width="52" height="52" filterUnits="userSpaceOnUse" color-interpolation-filters="sRGB">
<feFlood flood-opacity="0" result="BackgroundImageFix"/>
<feColorMatrix in="SourceAlpha" type="matrix" values="0 0 0 0 0 0 0 0 0 0 0 0 0 0 0 0 0 0 127 0" result="hardAlpha"/>
<feOffset dy="1"/>
<feGaussianBlur stdDeviation="2"/>
<feComposite in2="hardAlpha" operator="out"/>
<feColorMatrix type="matrix" values="0 0 0 0 0 0 0 0 0 0 0 0 0 0 0 0 0 0 0.1 0"/>
<feBlend mode="normal" in2="BackgroundImageFix" result="effect1_dropShadow_99_538"/>
<feBlend mode="normal" in="SourceGraphic" in2="effect1_dropShadow_99_538" result="shape"/>
</filter>
<clipPath id="clip0_99_538">
<rect width="44" height="44" fill="white"/>
</clipPath>
<clipPath id="clip1_99_538">
<rect width="44" height="44" rx="22" fill="white"/>
</clipPath>
</defs>
</svg>
