<svg width="26" height="26" viewBox="0 0 26 26" fill="none" xmlns="http://www.w3.org/2000/svg">
<path d="M4.83928 20.0124L3.87053 19.627C3.80131 19.8011 3.78036 19.9907 3.80989 20.1758C3.83942 20.3609 3.91833 20.5346 4.03831 20.6785C4.15829 20.8225 4.31489 20.9315 4.49161 20.9939C4.66833 21.0563 4.85861 21.0699 5.0424 21.0332L4.83928 20.0124ZM9.74136 19.0374L10.2351 18.1197L9.9049 17.9426L9.53823 18.0155L9.74136 19.0374ZM6.53094 15.7592L7.49969 16.1447L7.66948 15.7134L7.46532 15.2978L6.53094 15.7592ZM20.4643 12.7207C20.4643 16.102 17.4924 18.9707 13.6622 18.9707V21.054C18.4966 21.054 22.5476 17.3936 22.5476 12.7207H20.4643ZM6.86115 12.7207C6.86115 9.33945 9.83407 6.4707 13.6632 6.4707V4.38737C8.82886 4.38737 4.77678 8.04779 4.77678 12.7207H6.86115ZM13.6632 6.4707C17.4924 6.4707 20.4643 9.33945 20.4643 12.7207H22.5476C22.5476 8.04779 18.4976 4.38737 13.6632 4.38737V6.4707ZM13.6622 18.9707C12.407 18.9707 11.2382 18.6582 10.2351 18.1197L9.24761 19.954C10.6052 20.6819 12.1218 21.0599 13.6622 21.054V18.9707ZM5.0424 21.0332L9.94448 20.0582L9.53823 18.0155L4.63615 18.9905L5.0424 21.0342V21.0332ZM7.46532 15.2978C7.06876 14.4965 6.86273 13.6148 6.86115 12.7207H4.77678C4.77678 13.9707 5.07053 15.1561 5.59553 16.2207L7.46532 15.2978ZM5.56323 15.3738L3.87053 19.628L5.80594 20.3967L7.49761 16.1436L5.56219 15.3738H5.56323Z" fill="#7E7E7E"/>
<path d="M10.0495 13.7624C10.6248 13.7624 11.0911 13.296 11.0911 12.7207C11.0911 12.1454 10.6248 11.679 10.0495 11.679C9.47418 11.679 9.00781 12.1454 9.00781 12.7207C9.00781 13.296 9.47418 13.7624 10.0495 13.7624Z" fill="#7E7E7E"/>
<path d="M13.694 13.7624C14.2693 13.7624 14.7357 13.296 14.7357 12.7207C14.7357 12.1454 14.2693 11.679 13.694 11.679C13.1187 11.679 12.6523 12.1454 12.6523 12.7207C12.6523 13.296 13.1187 13.7624 13.694 13.7624Z" fill="#7E7E7E"/>
<path d="M17.3385 13.7624C17.9138 13.7624 18.3802 13.296 18.3802 12.7207C18.3802 12.1454 17.9138 11.679 17.3385 11.679C16.7632 11.679 16.2969 12.1454 16.2969 12.7207C16.2969 13.296 16.7632 13.7624 17.3385 13.7624Z" fill="#7E7E7E"/>
</svg>
