<svg width="41" height="22" viewBox="0 0 41 22" fill="none" xmlns="http://www.w3.org/2000/svg">
<rect x="0.505859" y="0.5" width="40" height="21" rx="10.5" stroke="#B2B2B2"/>
<path d="M14.3535 7.41797C14.3535 8.83594 15.3027 10.2188 16.8848 10.7695L16.2754 11.6367C15.127 11.1973 14.2715 10.3301 13.8262 9.23438C13.3691 10.4531 12.4727 11.4141 11.2363 11.8828L10.6387 11.0039C12.2676 10.418 13.2402 8.96484 13.252 7.38281V6.14062H14.3535V7.41797ZM19.4043 5.50781V13.3359H18.291V8.8125H16.0762V7.89844H18.291V5.50781H19.4043ZM19.6387 14.8711V15.7734H12.5488V12.457H13.6738V14.8711H19.6387ZM25.5566 6.24609V7.14844H22.5215V8.32031H25.4395V9.17578H22.5215V10.4531C23.9277 10.4414 24.8535 10.3887 25.9316 10.1836L26.0371 11.0977C24.8066 11.332 23.8105 11.3789 22.1348 11.3672H21.4551V6.24609H25.5566ZM29.9746 5.50781V11.8828H28.9199V9.08203H27.6309V11.8008H26.5879V5.69531H27.6309V8.17969H28.9199V5.50781H29.9746ZM29.9746 12.3867V15.9961H28.873V13.2891H22.8379V12.3867H29.9746Z" fill="#B2B2B2"/>
</svg>
