<svg width="22" height="22" viewBox="0 0 22 22" fill="none" xmlns="http://www.w3.org/2000/svg">
<g clip-path="url(#clip0_970_4896)">
<path d="M16.0143 15.3879H2.88867V9.08232C3.41527 8.45754 4.20281 8.05957 5.0838 8.05957C6.16167 8.05957 7.09937 8.65442 7.59027 9.53279C7.78032 9.49499 7.97983 9.48396 8.18669 9.51126C8.61249 9.56797 8.98736 9.81945 9.27717 10.1366C9.80797 10.7193 9.85837 11.2333 9.76912 11.6969C10.082 11.729 10.376 11.8145 10.6449 11.9505C10.763 11.0853 11.4975 10.4164 12.3953 10.4164C13.0846 10.4164 13.6758 10.8138 13.9698 11.3882C14.1363 11.3131 14.3195 11.2696 14.5138 11.269C14.8981 11.269 15.2514 11.4854 15.5003 11.7783C15.9046 12.2545 15.8893 12.643 15.7817 12.9906C16.3351 12.9906 16.8701 13.2857 17.099 13.7897C17.3468 14.3352 17.2691 14.8665 17.0066 15.265C16.6879 15.3422 16.3566 15.3879 16.0143 15.3879Z" fill="white"/>
<path d="M15.9186 2.0498H6.99316C4.67346 2.0498 2.79297 3.9303 2.79297 6.25V15.1754C2.79297 17.4951 4.67346 19.3756 6.99316 19.3756H15.9186C18.2383 19.3756 20.1188 17.4951 20.1188 15.1754V6.25C20.1188 3.9303 18.2383 2.0498 15.9186 2.0498Z" fill="#B8E0FF"/>
<path d="M16.7488 6.03907C16.4732 5.51562 15.724 5.51562 15.4483 6.03907L10.5388 15.3646C10.281 15.8539 10.6359 16.4419 11.1888 16.4419H19.9242C20.0502 16.0424 20.1189 15.6176 20.1189 15.1761V12.4423L16.7488 6.03907Z" fill="#23B169"/>
<path d="M10.6716 9.68041L7.67944 15.3643C7.42165 15.8536 7.77657 16.4417 8.32942 16.4417H15.5312L11.972 9.68094C11.6964 9.15749 10.9472 9.15696 10.6716 9.68041Z" fill="#0A9F60"/>
<path d="M2.79297 10.4131V15.1766C2.79297 15.6177 2.86175 16.0429 2.98775 16.4425H4.74973C5.30259 16.4425 5.6575 15.8544 5.39971 15.3651L2.79297 10.4131Z" fill="#0A9F60"/>
<path d="M2.90077 15.3906C2.86769 15.3906 2.83724 15.3927 2.80469 15.3933C2.91914 17.611 4.7478 19.375 6.99386 19.375H15.9193C18.1664 19.375 19.9956 17.6094 20.1084 15.3906H2.90077Z" fill="#7BD58F"/>
<path d="M14.7673 10.0726C15.4304 10.0726 15.4304 10.764 16.0935 10.764C16.7567 10.764 16.7572 10.0726 17.4208 10.0726C18.0844 10.0726 18.085 10.764 18.7491 10.764C18.9313 10.764 19.062 10.7099 19.1718 10.6343L16.7572 6.04772C16.4768 5.51534 15.715 5.51534 15.4346 6.04772L13.0195 10.6349C13.1287 10.7099 13.2589 10.764 13.4406 10.764C14.1037 10.764 14.1042 10.0726 14.7673 10.0726Z" fill="#4FC578"/>
<path d="M5.40092 15.3658C5.40092 15.3658 6.29136 16.074 7.38498 16.3817C8.57994 16.7182 12.2966 16.8185 12.2966 17.9925C12.2966 19.0215 8.82407 19.3769 8.82407 19.3769H15.6772C15.6772 19.3769 16.4805 18.9186 16.3519 18.1164C16.24 17.4186 15.3853 16.7781 13.0846 16.3833C10.784 15.9884 8.03706 15.8577 7.67952 15.3652H5.40039L5.40092 15.3658Z" fill="#64A7FF"/>
</g>
<defs>
<clipPath id="clip0_970_4896">
<rect width="21.001" height="21.001" fill="white" transform="translate(0.957031 0.213867)"/>
</clipPath>
</defs>
</svg>
