<svg width="24" height="24" viewBox="0 0 24 24" fill="none" xmlns="http://www.w3.org/2000/svg">
<path d="M12 0C5.37257 0 0 4.89969 0 10.9436C0 13.3564 0.863314 15.5813 2.31634 17.3892C2.84846 18.0514 3.09189 18.9058 2.93143 19.7454L2.27657 23.1663C2.16686 23.7405 2.75657 24.1897 3.26606 23.9193L7.25211 21.8055C7.81509 21.5072 8.46309 21.4101 9.08229 21.5533C10.0162 21.7692 10.9927 21.8872 12 21.8872C18.6274 21.8872 24 16.9875 24 10.9436C24 4.89969 18.6274 0 12 0Z" fill="#5E59FF" fill-opacity="0.55"/>
<path d="M7.03142 9.92529C7.77337 9.92529 8.37405 10.5379 8.37405 11.2931C8.37405 11.6556 8.2328 12.0035 7.98045 12.2606C7.7288 12.5169 7.38731 12.6615 7.03074 12.6615C6.2888 12.6615 5.68811 12.0489 5.68811 11.2938C5.68811 10.5386 6.28948 9.92599 7.03074 9.92599L7.03142 9.92529Z" fill="white"/>
<path d="M16.9688 12.6608C17.7103 12.6608 18.3114 12.0485 18.3114 11.2931C18.3114 10.5377 17.7103 9.92529 16.9688 9.92529C16.2272 9.92529 15.6261 10.5377 15.6261 11.2931C15.6261 12.0485 16.2272 12.6608 16.9688 12.6608Z" fill="white"/>
<path d="M12 12.6608C12.7415 12.6608 13.3426 12.0485 13.3426 11.2931C13.3426 10.5377 12.7415 9.92529 12 9.92529C11.2585 9.92529 10.6574 10.5377 10.6574 11.2931C10.6574 12.0485 11.2585 12.6608 12 12.6608Z" fill="white"/>
</svg>
