<svg width="50" height="50" viewBox="0 0 50 50" fill="none" xmlns="http://www.w3.org/2000/svg">
<ellipse cx="24.9999" cy="24.9994" rx="24.9994" ry="24.9994" fill="#FFE1C5"/>
<mask id="mask0_4521_2843" style="mask-type:alpha" maskUnits="userSpaceOnUse" x="0" y="0" width="50" height="50">
<circle cx="25" cy="25" r="25" fill="#FFE1C5"/>
</mask>
<g mask="url(#mask0_4521_2843)">
<path d="M25.0445 40.8166C26.8049 40.8166 28.232 39.4612 28.232 37.7892C28.232 36.1172 26.8049 34.7617 25.0445 34.7617C23.284 34.7617 21.8569 36.1172 21.8569 37.7892C21.8569 39.4612 23.284 40.8166 25.0445 40.8166Z" fill="#FFB141"/>
<path d="M25.1381 61.1161C25.1381 61.1161 21.0549 61.0714 17.2323 61.2055C16.2634 61.238 15.4492 60.4984 15.4248 59.5516C15.3312 55.8211 15.5225 46.9663 18.991 41.5737C21.4498 37.7457 25.0689 37.9692 25.0689 37.9692H25.0037C25.0037 37.9692 28.6228 37.7457 31.0816 41.5737C34.5501 46.9663 34.7373 55.8211 34.6478 59.5516C34.6234 60.4984 33.8092 61.2421 32.8403 61.2055C29.0177 61.0714 24.9345 61.1161 24.9345 61.1161" fill="#FFB141"/>
<path d="M26.4653 38.1797C26.4653 38.1797 35.9954 39.1022 36.3944 53.4552C36.3944 53.4552 38.8736 54.1948 38.4583 56.2916C38.0756 58.2138 35.6901 58.7461 33.8459 57.2141C32.0018 55.678 26.4653 38.1838 26.4653 38.1838V38.1797Z" fill="#FFB141"/>
<path d="M23.5992 38.1797C23.5992 38.1797 14.0691 39.1022 13.6702 53.4552C13.6702 53.4552 11.191 54.1948 11.6062 56.2916C11.9889 58.2138 14.3745 58.7461 16.2186 57.2141C18.0627 55.678 23.5992 38.1838 23.5992 38.1838V38.1797Z" fill="#FFB141"/>
<path d="M21.2422 38.7365C21.4987 39.0819 22.4472 40.2604 24.1041 40.5855C25.822 40.9228 27.6336 40.2116 28.8264 38.7609C29.38 38.9803 29.8644 39.2566 30.296 39.5655C36.1459 43.7958 33.2067 56.2673 32.7996 57.9172H17.1957C16.5118 54.0567 16.467 50.826 16.5688 48.5382C16.8212 42.9262 18.0302 41.2316 18.8526 40.3823C19.6912 39.5127 20.6031 39.0169 21.2422 38.7324V38.7365Z" fill="#9E8930"/>
<path d="M19.1782 40.127C19.1782 40.127 15.1073 42.0735 13.7354 47.9943C13.6947 48.165 13.772 48.3478 13.9226 48.4413L15.6691 49.5101C15.9459 49.6807 16.0965 49.9936 16.0558 50.3187C15.836 52.0946 15.1602 57.8325 15.4248 59.8928C15.4574 60.1692 15.5592 60.6406 15.9215 61.0347C15.9215 61.0347 16.1942 61.3314 16.6339 61.5143C17.3829 61.8231 19.451 61.88 22.1866 61.5711C22.6385 61.5752 23.009 61.2095 23.009 60.7584L22.9805 46.4867C22.9805 46.4867 21.5638 40.196 19.1782 40.127Z" fill="#FF8500"/>
<path d="M30.8904 40.127C30.8904 40.127 34.9613 42.0735 36.3332 47.9943C36.374 48.169 36.2966 48.3478 36.146 48.4413L34.4036 49.5101C34.1268 49.6807 33.9762 49.9977 34.0169 50.3228C34.2367 52.0986 34.9125 57.8366 34.6479 59.8969C34.6153 60.1732 34.5135 60.6446 34.1512 61.0388C34.1512 61.0388 33.8785 61.3354 33.4388 61.5183C32.6898 61.8272 30.6217 61.8841 27.886 61.5752C27.4342 61.5793 27.0637 61.2135 27.0637 60.7625L27.0922 46.4907C27.0922 46.4907 28.5089 40.2001 30.8945 40.131L30.8904 40.127Z" fill="#FF8500"/>
<path d="M35.625 19.7583C35.625 19.7583 41.4586 19.1446 42.7776 24.1389C43.6732 27.524 41.0597 29.7631 39.2725 30.5921C37.7052 31.3195 34.9573 31.4861 32.7753 29.0438C30.8131 26.8494 31.1103 24.846 31.1103 24.846" fill="#FFB141"/>
<path d="M14.6476 19.7583C14.6476 19.7583 8.81393 19.1446 7.49495 24.1389C6.59934 27.524 9.21288 29.7631 11 30.5921C12.5673 31.3195 15.3152 31.4861 17.4972 29.0438C19.4594 26.8494 19.1623 24.846 19.1623 24.846" fill="#FFB141"/>
<path d="M34.2532 12.9474C34.6399 12.3297 35.4948 11.1594 36.7405 10.6067C38.3038 9.90777 39.464 10.6433 39.6879 10.176C39.981 9.56235 38.2793 7.74181 36.1421 7.04285C35.6414 6.8803 33.097 6.11632 30.8132 7.63615C30.5853 7.78651 29.0912 8.78618 28.5742 10.2044C27.4669 9.96059 26.2782 9.82649 24.9999 9.82649C14.9284 9.82649 10.3486 17.8198 10.3486 25.8375C10.3486 33.8552 16.9232 37.862 25.0325 37.862C33.1418 37.862 39.7164 33.8552 39.7164 25.8375C39.7164 20.9123 37.9374 16.0033 34.2491 12.9434L34.2532 12.9474Z" fill="#FFB141"/>
<path d="M27.4983 27.0176H27.4821C27.0504 27.0176 26.7005 27.3669 26.7005 27.7978L26.7006 29.3054C26.7006 29.7364 27.0506 30.0857 27.4823 30.0857H27.4985C27.9302 30.0857 28.2801 29.7364 28.2801 29.3054L28.28 27.7978C28.28 27.3669 27.93 27.0176 27.4983 27.0176Z" fill="#242424"/>
<path d="M22.5855 27.0176H22.5692C22.1375 27.0176 21.7876 27.3669 21.7876 27.7978V29.3054C21.7876 29.7364 22.1375 30.0857 22.5692 30.0857H22.5855C23.0172 30.0857 23.3671 29.7364 23.3671 29.3054V27.7978C23.3671 27.3669 23.0172 27.0176 22.5855 27.0176Z" fill="#242424"/>
<path opacity="0.55" d="M16.2109 34.7297C18.5199 34.7297 20.3917 32.8612 20.3917 30.5562C20.3917 28.2513 18.5199 26.3828 16.2109 26.3828C13.9019 26.3828 12.03 28.2513 12.03 30.5562C12.03 32.8612 13.9019 34.7297 16.2109 34.7297Z" fill="#FF840E"/>
<path opacity="0.55" d="M33.8583 34.7297C36.1674 34.7297 38.0392 32.8612 38.0392 30.5562C38.0392 28.2513 36.1674 26.3828 33.8583 26.3828C31.5493 26.3828 29.6775 28.2513 29.6775 30.5562C29.6775 32.8612 31.5493 34.7297 33.8583 34.7297Z" fill="#FF840E"/>
<path opacity="0.35" d="M19.4554 21.0171C21.8858 21.0171 23.8561 19.4852 23.8561 17.5955C23.8561 15.7057 21.8858 14.1738 19.4554 14.1738C17.0249 14.1738 15.0547 15.7057 15.0547 17.5955C15.0547 19.4852 17.0249 21.0171 19.4554 21.0171Z" fill="#81614D"/>
<path d="M10.7681 19.4892C10.7681 19.4892 11.912 18.075 14.8309 17.4492" stroke="#644C2D" stroke-width="1.62775" stroke-miterlimit="10" stroke-linecap="round"/>
<path d="M39.3257 19.4892C39.3257 19.4892 38.1818 18.075 35.2629 17.4492" stroke="#644C2D" stroke-width="1.62775" stroke-miterlimit="10" stroke-linecap="round"/>
<path opacity="0.35" d="M30.6832 21.0171C33.1136 21.0171 35.0838 19.4852 35.0838 17.5955C35.0838 15.7057 33.1136 14.1738 30.6832 14.1738C28.2527 14.1738 26.2825 15.7057 26.2825 17.5955C26.2825 19.4852 28.2527 21.0171 30.6832 21.0171Z" fill="#81614D"/>
<path d="M23.9619 17.5962C23.9619 17.5962 25.0692 16.9623 26.1806 17.5962" stroke="#644C2D" stroke-width="1.62775" stroke-miterlimit="10" stroke-linecap="round"/>
<path d="M21.6088 14.5273H17.2488C16.1247 14.5273 15.2134 15.437 15.2134 16.5592V18.6276C15.2134 19.7498 16.1247 20.6595 17.2488 20.6595H21.6088C22.733 20.6595 23.6443 19.7498 23.6443 18.6276V16.5592C23.6443 15.437 22.733 14.5273 21.6088 14.5273Z" stroke="#644C2D" stroke-width="1.62775" stroke-miterlimit="10"/>
<path d="M32.8366 14.5273H28.4766C27.3525 14.5273 26.4412 15.437 26.4412 16.5592V18.6276C26.4412 19.7498 27.3525 20.6595 28.4766 20.6595H32.8366C33.9608 20.6595 34.8721 19.7498 34.8721 18.6276V16.5592C34.8721 15.437 33.9608 14.5273 32.8366 14.5273Z" stroke="#644C2D" stroke-width="1.62775" stroke-miterlimit="10"/>
<path d="M20.5952 39.1829C20.4527 38.9675 20.1881 38.874 19.9479 38.9634C19.6223 39.0853 19.2477 39.256 18.8529 39.4917C18.6697 39.6014 18.5638 39.6746 18.4335 39.768C17.6316 40.341 16.1701 41.7186 16.3696 41.999C16.4103 42.0559 16.5283 42.0884 16.8947 41.9746C17.5217 41.8893 18.9506 41.7958 20.18 42.6573C21.2018 43.3685 21.5804 44.3844 22.13 45.8473C22.4638 46.7292 22.8261 47.9727 22.9523 49.5291C23.1111 48.3059 23.225 46.2984 22.647 43.9252C22.134 41.8161 21.2669 40.2191 20.5871 39.1829H20.5952Z" fill="#936032"/>
<path d="M29.3801 39.1829C29.5226 38.9675 29.7872 38.874 30.0274 38.9634C30.3531 39.0853 30.7276 39.256 31.1225 39.4917C31.3057 39.6014 31.4115 39.6746 31.5418 39.768C32.3438 40.341 33.8052 41.7186 33.6057 41.999C33.565 42.0559 33.447 42.0884 33.0806 41.9746C32.4537 41.8893 31.0248 41.7958 29.7953 42.6573C28.7735 43.3685 28.3949 44.3844 27.8454 45.8473C27.5116 46.7292 27.1492 47.9727 27.023 49.5291C26.8643 48.3059 26.7503 46.2984 27.3284 43.9252C27.8413 41.8161 28.7084 40.2191 29.3883 39.1829H29.3801Z" fill="#936032"/>
<path opacity="0.35" d="M32.0588 47.5098H29.0056C28.6863 47.5098 28.4275 47.7681 28.4275 48.0868V52.5081C28.4275 52.8268 28.6863 53.0852 29.0056 53.0852H32.0588C32.378 53.0852 32.6368 52.8268 32.6368 52.5081V48.0868C32.6368 47.7681 32.378 47.5098 32.0588 47.5098Z" fill="#BC5500"/>
<path d="M31.8673 47.9766H29.1968C29.0034 47.9766 28.8467 48.133 28.8467 48.326V48.834C28.8467 49.027 29.0034 49.1835 29.1968 49.1835H31.8673C32.0607 49.1835 32.2174 49.027 32.2174 48.834V48.326C32.2174 48.133 32.0607 47.9766 31.8673 47.9766Z" fill="#B76421"/>
<path d="M21.287 38.9958C21.8732 39.837 22.7443 40.4994 23.7173 40.8286C25.1828 41.3203 26.7502 40.922 27.9267 39.9589C28.2564 39.6866 28.5536 39.3737 28.8019 39.0243C28.9281 38.8455 28.8345 38.5732 28.6554 38.4675C28.4518 38.3497 28.2238 38.435 28.0976 38.6138C28.0773 38.6423 28.0569 38.6667 28.0366 38.6951C28.118 38.5894 27.9918 38.752 27.9592 38.7845C27.833 38.9308 27.6987 39.073 27.5562 39.2031C27.1654 39.5607 26.7013 39.8573 26.2006 40.0321C24.9793 40.4547 23.6562 40.154 22.6833 39.3209C22.5042 39.1665 22.3373 39.0039 22.1826 38.8251C22.15 38.7886 22.1215 38.752 22.0889 38.7114C22.0441 38.6585 22.0441 38.6545 22.0726 38.691C22.0441 38.6545 22.0197 38.6179 21.9912 38.5813C21.694 38.1546 20.9857 38.561 21.287 38.9918V38.9958Z" fill="#937E28"/>
</g>
</svg>
