<svg width="168" height="94" viewBox="0 0 168 94" fill="none" xmlns="http://www.w3.org/2000/svg">
<path d="M156.901 72.6758C162.881 72.6758 167.265 76.8614 167.265 82.6414C167.265 88.3816 162.881 92.6071 156.901 92.6071H147.612C147.238 92.6071 146.936 92.3044 146.936 91.9309V73.3519C146.936 72.9785 147.238 72.6758 147.612 72.6758H156.901ZM151.598 76.2634C151.225 76.2634 150.922 76.5661 150.922 76.9396V88.3433C150.922 88.7167 151.225 89.0194 151.598 89.0194H156.901C160.489 89.0194 163.08 86.3487 163.08 82.6414C163.08 78.9741 160.489 76.2634 156.901 76.2634H151.598Z" fill="#FFEDDB"/>
<path d="M124.821 92.1874C124.717 92.4413 124.47 92.6071 124.195 92.6071H121.432C120.951 92.6071 120.624 92.1193 120.806 91.6745L128.423 73.0954C128.527 72.8416 128.775 72.6758 129.049 72.6758H134.121C134.396 72.6758 134.643 72.8416 134.747 73.0954L142.364 91.6745C142.547 92.1193 142.22 92.6071 141.739 92.6071H138.895C138.621 92.6071 138.374 92.4413 138.269 92.1874L136.979 89.0405C136.875 88.7866 136.628 88.6208 136.354 88.6208H126.737C126.463 88.6208 126.215 88.7866 126.111 89.0405L124.821 92.1874ZM128.14 84.101C127.958 84.5459 128.285 85.0332 128.765 85.0332H134.325C134.806 85.0332 135.133 84.5459 134.951 84.101L131.82 76.4479C131.774 76.3363 131.666 76.2634 131.545 76.2634C131.425 76.2634 131.316 76.3363 131.27 76.4479L128.14 84.101Z" fill="#FFEDDB"/>
<path d="M108.267 72.2773C114.246 72.2773 118.631 76.6622 118.631 82.6416C118.631 88.621 114.246 93.0059 108.267 93.0059C102.287 93.0059 97.9025 88.621 97.9025 82.6416C97.9025 76.6622 102.287 72.2773 108.267 72.2773ZM108.267 89.219C111.854 89.219 114.445 86.4286 114.445 82.6416C114.445 78.8547 111.854 76.0643 108.267 76.0643C104.679 76.0643 102.088 78.8547 102.088 82.6416C102.088 86.4286 104.679 89.219 108.267 89.219Z" fill="#FFEDDB"/>
<path d="M74.6615 92.6071C74.2881 92.6071 73.9854 92.3044 73.9854 91.9309V73.3519C73.9854 72.9785 74.2881 72.6758 74.6615 72.6758H88.3359C91.9235 72.6758 94.3153 75.0675 94.3153 78.6552C94.3153 81.4279 92.7483 83.4774 90.2692 84.1748C89.7859 84.3108 89.5617 84.9162 89.8108 85.3521L93.674 91.5743C93.9537 92.0247 93.6298 92.6071 93.0996 92.6071H90.1873C89.9532 92.6071 89.7358 92.486 89.6125 92.287L84.9465 84.7553C84.8233 84.5563 84.6058 84.4353 84.3718 84.4353H78.6477C78.2743 84.4353 77.9716 84.738 77.9716 85.1114V91.9309C77.9716 92.3044 77.6689 92.6071 77.2955 92.6071H74.6615ZM77.9716 80.1715C77.9716 80.5449 78.2743 80.8476 78.6477 80.8476H88.3359C89.5318 80.8476 90.329 80.0504 90.329 78.8545V78.2565C90.329 77.0607 89.5318 76.2634 88.3359 76.2634H78.6477C78.2743 76.2634 77.9716 76.5661 77.9716 76.9396V80.1715Z" fill="#FFEDDB"/>
<path d="M53.8364 80.1715C53.8364 80.5449 54.1391 80.8476 54.5125 80.8476H64.3217C64.6952 80.8476 64.9979 81.1503 64.9979 81.5238V83.7591C64.9979 84.1325 64.6952 84.4353 64.3217 84.4353H54.5125C54.1391 84.4353 53.8364 84.738 53.8364 85.1114V91.9309C53.8364 92.3044 53.5336 92.6071 53.1602 92.6071H50.5262C50.1528 92.6071 49.8501 92.3044 49.8501 91.9309V73.3519C49.8501 72.9785 50.1528 72.6758 50.5262 72.6758H68.308C68.6814 72.6758 68.9841 72.9785 68.9841 73.3519V75.5873C68.9841 75.9607 68.6814 76.2634 68.308 76.2634H54.5125C54.1391 76.2634 53.8364 76.5661 53.8364 76.9396V80.1715Z" fill="#FFEDDB"/>
<path d="M29.7026 80.1715C29.7026 80.5449 30.0053 80.8476 30.3787 80.8476H40.188C40.5614 80.8476 40.8641 81.1503 40.8641 81.5238V83.7591C40.8641 84.1325 40.5614 84.4353 40.188 84.4353H30.3787C30.0053 84.4353 29.7026 84.738 29.7026 85.1114V91.9309C29.7026 92.3044 29.3999 92.6071 29.0264 92.6071H26.3924C26.019 92.6071 25.7163 92.3044 25.7163 91.9309V73.3519C25.7163 72.9785 26.019 72.6758 26.3924 72.6758H44.1742C44.5476 72.6758 44.8504 72.9785 44.8504 73.3519V75.5873C44.8504 75.9607 44.5476 76.2634 44.1742 76.2634H30.3787C30.0053 76.2634 29.7026 76.5661 29.7026 76.9396V80.1715Z" fill="#FFEDDB"/>
<path d="M10.3643 72.2773C16.3437 72.2773 20.7286 76.6622 20.7286 82.6416C20.7286 88.621 16.3437 93.0059 10.3643 93.0059C4.38489 93.0059 0 88.621 0 82.6416C0 76.6622 4.38489 72.2773 10.3643 72.2773ZM10.3643 89.219C13.9519 89.219 16.543 86.4286 16.543 82.6416C16.543 78.8547 13.9519 76.0643 10.3643 76.0643C6.77664 76.0643 4.18557 78.8547 4.18557 82.6416C4.18557 86.4286 6.77664 89.219 10.3643 89.219Z" fill="#FFEDDB"/>
<path d="M95.7681 8.70793C92.2701 5.38794 87.2916 2.97063 82.6064 2.55468C77.9211 2.13873 73.2355 3.35134 69.2624 6.00806C65.2893 8.66477 62.2461 12.6202 60.5958 17.2725C58.9455 21.9248 58.7785 27.0195 60.12 31.7814C61.4616 36.5433 64.2384 40.7118 68.028 43.6527C71.8175 46.5937 76.4125 48.1461 81.1137 48.0739C85.815 48.0016 90.3652 46.3087 94.0723 43.2525C97.7793 40.1963 100.571 35.4766 101.781 30.6755L100.607 31.1071C99.4572 35.6679 96.9295 39.4495 93.408 42.3527C89.8865 45.2559 85.564 46.8642 81.098 46.9328C76.6321 47.0014 72.2671 45.5267 68.6672 42.7329C65.0673 39.9391 62.4295 35.9793 61.1551 31.4557C59.8807 26.9322 60.0394 22.0925 61.6071 17.6731C63.1747 13.2536 66.0656 9.49617 69.8399 6.97242C73.6141 4.44868 78.0652 3.29676 82.516 3.69189C86.9667 4.08702 91.1735 6.00758 94.4964 9.1614L95.7681 8.70793Z" fill="#FFEDDB"/>
<path fill-rule="evenodd" clip-rule="evenodd" d="M98.9789 8.05359C99.7475 8.78304 99.476 10.0667 98.478 10.4226L94.5367 11.828C94.0324 12.0078 93.4697 11.8888 93.0813 11.5202L92.3376 10.8144C89.4377 8.06199 85.8692 6.47657 82.215 6.15215C78.5701 5.82857 74.8584 6.75982 71.6296 8.9188C68.3841 11.089 65.8017 14.3911 64.3836 18.3889C62.9662 22.3846 62.8205 26.7775 63.9756 30.8773C65.1313 34.9793 67.5005 38.4822 70.6195 40.9027C73.7255 43.3132 77.389 44.5149 81.0452 44.4587C84.7031 44.4025 88.3419 43.0872 91.3908 40.5736C94.491 38.0177 96.7387 34.677 97.7695 30.5868L97.9005 30.0672C98.0152 29.6119 98.3475 29.2427 98.7882 29.0808L103.274 27.4322C104.346 27.0382 105.421 28.0057 105.142 29.1131L104.617 31.1948C103.312 36.3721 100.29 41.5667 96.0884 45.0307C91.9088 48.4764 86.6748 50.4624 81.1655 50.547C75.6545 50.6317 70.3581 48.8062 66.0746 45.482C61.8042 42.1678 58.7588 37.5423 57.2984 32.3588C55.8375 27.1732 56.0176 21.6318 57.8182 16.5557C59.6181 11.4817 62.9698 7.07098 67.4716 4.06075C71.9902 1.03928 77.4151 -0.394011 82.9063 0.0934866C88.4431 0.585044 94.0476 3.37316 97.9258 7.05402L98.9789 8.05359ZM101.616 31.2918C101.69 31.031 101.436 30.8017 101.181 30.8952L100.862 31.0125C100.702 31.0714 100.581 31.2061 100.538 31.3711C99.3583 35.8138 96.8607 39.5053 93.4074 42.3522C93.346 42.4029 93.2844 42.4531 93.2225 42.503C89.7351 45.3111 85.4855 46.8649 81.0975 46.9323L81.0891 46.9324C76.7036 46.9979 72.416 45.5752 68.855 42.8768C68.792 42.8291 68.7292 42.781 68.6667 42.7324C65.0953 39.9608 62.4708 36.0414 61.1851 31.5626C61.1748 31.5269 61.1646 31.4911 61.1546 31.4553C59.8801 26.9317 60.0388 22.0921 61.6065 17.6726C61.6217 17.6299 61.6369 17.5873 61.6523 17.5447C63.2301 13.1806 66.1015 9.47132 69.8393 6.97196C69.9033 6.92919 69.9674 6.88682 70.0318 6.84484C73.7508 4.41851 78.1082 3.31109 82.4675 3.68723C82.4835 3.68861 82.4994 3.69001 82.5154 3.69143C86.8462 4.07591 90.946 5.90468 94.2252 8.90858C94.3925 9.06187 94.6306 9.1129 94.8443 9.03668L95.3726 8.8483C95.5535 8.78378 95.6025 8.5513 95.4606 8.42184C94.8477 7.86289 94.1929 7.33128 93.5053 6.83254C90.3036 4.51052 86.3875 2.90073 82.6537 2.55853C82.6378 2.55707 82.6218 2.55563 82.6058 2.55421C77.9206 2.13826 73.235 3.35088 69.2619 6.00759C69.198 6.05026 69.1345 6.09326 69.0712 6.1366C65.1913 8.79154 62.219 12.6944 60.5953 17.272C60.5801 17.3147 60.5651 17.3574 60.5502 17.4001C58.9542 21.9828 58.7926 26.9862 60.0895 31.6735C60.0994 31.7093 60.1094 31.7451 60.1195 31.7809C61.439 36.4644 64.1468 40.5739 67.8411 43.506C67.9029 43.5551 67.965 43.6038 68.0274 43.6522C71.817 46.5932 76.4119 48.1456 81.1132 48.0734L81.1216 48.0733C85.8199 47.9991 90.3669 46.3064 94.0718 43.252C94.1329 43.2016 94.1939 43.1507 94.2545 43.0994C97.4233 40.4184 99.9041 36.5211 101.27 32.4203C101.395 32.0456 101.51 31.6692 101.616 31.2918Z" fill="#FFEDDB"/>
<path d="M40.9684 39.6943L122.133 11.2054L107.133 5.27897" stroke="#FFEDDB" stroke-width="6" stroke-linecap="round"/>
</svg>
