<svg width="24" height="24" viewBox="0 0 24 24" fill="none" xmlns="http://www.w3.org/2000/svg">
<g clip-path="url(#clip0_3997_19710)">
<path d="M20.8502 12C20.8502 10.923 21.7232 10.05 22.8002 10.05V5.1276C22.8002 4.5852 22.3604 4.146 21.8186 4.146H2.1818C1.6394 4.146 1.2002 4.5858 1.2002 5.1276V10.05C2.2772 10.05 3.1502 10.923 3.1502 12C3.1502 13.077 2.2772 13.95 1.2002 13.95V18.8724C1.2002 19.4148 1.64 19.854 2.1818 19.854H21.818C22.3604 19.854 22.7996 19.4142 22.7996 18.8724V13.95C21.7226 13.95 20.8502 13.077 20.8502 12Z" fill="#FFCD00"/>
<path d="M15.3035 10.7669L13.0205 10.4351L11.9999 8.36694L10.9793 10.4351L8.69629 10.7669L10.3481 12.3773L9.95809 14.6507L11.9999 13.5773L14.0417 14.6507L13.6517 12.3773L15.3035 10.7669Z" fill="#FFAA00"/>
</g>
<defs>
<clipPath id="clip0_3997_19710">
<rect width="24" height="24" fill="white"/>
</clipPath>
</defs>
</svg>
