<svg width="22" height="21" viewBox="0 0 22 21" fill="none" xmlns="http://www.w3.org/2000/svg">
<path d="M14.4283 9.6593H4.30811V5.6555C4.30811 2.8655 6.57851 0.595703 9.36851 0.595703C12.1585 0.595703 14.4289 2.8649 14.4289 5.6555L14.4283 9.6593ZM6.05771 7.9097H12.6781V5.6555C12.6781 3.8303 11.1931 2.3453 9.36791 2.3453C7.54271 2.3453 6.05771 3.8303 6.05771 5.6555V7.9097Z" fill="#BCC0C5"/>
<path d="M15.9806 6.85742H2.75596C1.43047 6.85742 0.355957 7.93194 0.355957 9.25742V18.276C0.355957 19.6015 1.43047 20.676 2.75596 20.676H15.9806C17.306 20.676 18.3806 19.6015 18.3806 18.276V9.25742C18.3806 7.93194 17.306 6.85742 15.9806 6.85742Z" fill="#D2D7DC"/>
<path d="M19.8691 1.77406C17.4793 -0.615738 13.5763 -0.587538 11.1511 1.83706C9.40512 3.58306 8.90892 6.09346 9.65592 8.25586L3.87372 14.0387C2.84352 15.0689 2.84352 16.7393 3.87372 17.7695C4.90392 18.7997 6.57432 18.7997 7.60452 17.7695L8.29092 17.0831L7.17972 15.9719C6.87792 15.6707 6.87792 15.1811 7.17972 14.8793C7.48152 14.5781 7.97052 14.5781 8.27232 14.8793L9.38352 15.9905L10.4761 14.8985L9.36492 13.7873C9.06312 13.4855 9.06312 12.9965 9.36492 12.6947C9.66672 12.3929 10.1557 12.3929 10.4575 12.6947L11.5687 13.8059L13.3879 11.9867C15.5503 12.7343 18.0607 12.2375 19.8067 10.4915C22.2313 8.06686 22.2601 4.16386 19.8697 1.77346L19.8691 1.77406ZM18.4639 5.96986C17.6821 6.75166 16.4239 6.76066 15.6529 5.99026C14.8825 5.21986 14.8915 3.96106 15.6733 3.17926C16.4551 2.39746 17.7133 2.38846 18.4843 3.15886C19.2553 3.92926 19.2457 5.18806 18.4639 5.96986Z" fill="#FF901C"/>
</svg>
