<svg width="120" height="48" viewBox="0 0 120 48" fill="none" xmlns="http://www.w3.org/2000/svg">
<rect x="0.5" y="0.5" width="119" height="47" rx="4.5" stroke="#1D1E18"/>
<path d="M44.5532 18.1016C45.2026 18.1016 45.7812 18.2896 46.2891 18.6655C46.8018 19.0415 47.1997 19.5786 47.4829 20.2769C47.771 20.9702 47.9175 21.7783 47.9224 22.7012C47.9175 23.6289 47.771 24.4419 47.4829 25.1401C47.1997 25.8335 46.8018 26.3706 46.2891 26.7515C45.7812 27.1274 45.2026 27.3154 44.5532 27.3154C43.8989 27.3154 43.3179 27.1274 42.8101 26.7515C42.3022 26.3706 41.9043 25.8335 41.6162 25.1401C41.333 24.4419 41.1938 23.6289 41.1987 22.7012C41.1938 21.7783 41.333 20.9702 41.6162 20.2769C41.9043 19.5835 42.3022 19.0488 42.8101 18.6729C43.3179 18.292 43.8989 18.1016 44.5532 18.1016ZM44.5532 19.3467C44.1528 19.3467 43.7988 19.4834 43.4912 19.7568C43.1885 20.0303 42.9517 20.4209 42.7808 20.9287C42.6147 21.4316 42.5317 22.0225 42.5317 22.7012C42.5317 23.3848 42.6147 23.9805 42.7808 24.4883C42.9517 24.9961 43.1885 25.3867 43.4912 25.6602C43.7988 25.9336 44.1528 26.0703 44.5532 26.0703C44.9585 26.0703 45.3149 25.9336 45.6226 25.6602C45.9302 25.3867 46.167 24.9961 46.333 24.4883C46.5039 23.9805 46.5894 23.3848 46.5894 22.7012C46.5894 22.0225 46.5039 21.4316 46.333 20.9287C46.167 20.4209 45.9302 20.0303 45.6226 19.7568C45.3149 19.4834 44.9585 19.3467 44.5532 19.3467ZM51.2622 22.2617H53.3716V23.4336H51.2622V30.2451H49.8706V17.1201H51.2622V22.2617ZM64.8999 30.2451H63.5083V17.1201H64.8999V30.2451ZM56.1841 25.7041C58.3325 25.6895 60.3442 25.4893 62.2192 25.1035L62.4097 26.2754C61.2964 26.5 60.2075 26.6611 59.1431 26.7588C58.0786 26.8564 56.9995 26.9053 55.9058 26.9053H54.8071V18.3945H56.1841V25.7041ZM78.9771 28.6045H66.9653V27.4473H69.8364V24.0195C69.2896 23.7168 68.8647 23.3335 68.562 22.8696C68.2593 22.4058 68.1079 21.8857 68.1079 21.3096C68.1079 20.6309 68.313 20.0327 68.7231 19.5151C69.1382 18.9976 69.7119 18.5972 70.4443 18.314C71.1768 18.0259 72.0093 17.8818 72.9419 17.8818C73.8794 17.8818 74.7144 18.0259 75.4468 18.314C76.1841 18.5972 76.7578 18.9976 77.168 19.5151C77.583 20.0327 77.7905 20.6309 77.7905 21.3096C77.7905 21.8809 77.644 22.396 77.3511 22.855C77.0581 23.3091 76.6431 23.6875 76.106 23.9902V27.4473H78.9771V28.6045ZM72.9419 18.9951C72.2583 18.9951 71.6528 19.0903 71.1255 19.2808C70.5981 19.4663 70.188 19.7349 69.895 20.0864C69.6021 20.4331 69.4556 20.8408 69.4556 21.3096C69.4556 21.7734 69.6021 22.1812 69.895 22.5327C70.188 22.8843 70.5981 23.1577 71.1255 23.353C71.6528 23.5435 72.2583 23.6387 72.9419 23.6387C73.6206 23.6387 74.2236 23.5435 74.751 23.353C75.2832 23.1577 75.6982 22.8843 75.9961 22.5327C76.2939 22.1812 76.4429 21.7734 76.4429 21.3096C76.4429 20.8457 76.2939 20.438 75.9961 20.0864C75.7031 19.7349 75.2905 19.4663 74.7583 19.2808C74.231 19.0903 73.6255 18.9951 72.9419 18.9951ZM74.6997 27.4473V24.5249C74.1675 24.6567 73.5815 24.7227 72.9419 24.7227C72.3267 24.7227 71.7505 24.6592 71.2134 24.5322V27.4473H74.6997Z" fill="#1D1E18"/>
</svg>
