<svg width="30" height="35" viewBox="0 0 30 35" fill="none" xmlns="http://www.w3.org/2000/svg">
<path d="M23.4662 15.9792H6.53418V9.27118C6.53418 4.60318 10.3322 0.805176 15.0002 0.805176C19.6682 0.805176 23.4662 4.60318 23.4662 9.27118V15.9792ZM9.53418 12.9792H20.4662V9.27118C20.4662 6.25718 18.0142 3.80518 15.0002 3.80518C11.9862 3.80518 9.53418 6.25718 9.53418 9.27118V12.9792Z" fill="#FFFBF4"/>
<path d="M26 11.2712H4C1.79086 11.2712 0 13.0621 0 15.2712V30.2712C0 32.4804 1.79086 34.2712 4 34.2712H26C28.2091 34.2712 30 32.4804 30 30.2712V15.2712C30 13.0621 28.2091 11.2712 26 11.2712Z" fill="#FFFBF4"/>
<path d="M15 23.3132C16.6569 23.3132 18 21.9701 18 20.3132C18 18.6564 16.6569 17.3132 15 17.3132C13.3431 17.3132 12 18.6564 12 20.3132C12 21.9701 13.3431 23.3132 15 23.3132Z" fill="#B2B2B2"/>
<path d="M15 28.0632C14.171 28.0632 13.5 27.3912 13.5 26.5632V21.1462C13.5 20.3182 14.171 19.6462 15 19.6462C15.829 19.6462 16.5 20.3182 16.5 21.1462V26.5632C16.5 27.3912 15.829 28.0632 15 28.0632Z" fill="#B2B2B2"/>
</svg>
