<svg width="21" height="22" viewBox="0 0 21 22" fill="none" xmlns="http://www.w3.org/2000/svg">
<rect y="0.5" width="21" height="21" rx="10.5" fill="#463E32"/>
<path fill-rule="evenodd" clip-rule="evenodd" d="M6.27061 15.7624C6.27061 15.9061 6.32768 16.0439 6.42926 16.1455C6.53085 16.247 6.66862 16.3041 6.81228 16.3041H14.1882C14.3318 16.3041 14.4696 16.247 14.5712 16.1455C14.6728 16.0439 14.7298 15.9061 14.7298 15.7624V15.0854H6.27061V15.7624ZM14.8127 9.61669L12.7273 10.6946L10.9755 7.99982C10.924 7.92057 10.8536 7.85544 10.7705 7.81035C10.6875 7.76526 10.5945 7.74164 10.4999 7.74164C10.4054 7.74164 10.3124 7.76526 10.2294 7.81035C10.1463 7.85544 10.0758 7.92057 10.0244 7.99982L8.27261 10.6946L6.1872 9.61669C6.09217 9.56765 5.98522 9.54646 5.87866 9.55554C5.77211 9.56462 5.6703 9.60362 5.58494 9.66803C5.49958 9.73245 5.43415 9.81966 5.39619 9.91964C5.35822 10.0196 5.34927 10.1283 5.37036 10.2331L6.18828 14.2729H14.8116L15.6295 10.2331C15.7243 9.76619 15.2357 9.39786 14.8127 9.61669ZM10.4999 7.28482C10.7255 7.28482 10.9418 7.19522 11.1013 7.03574C11.2608 6.87625 11.3504 6.65995 11.3504 6.4344C11.3504 6.20886 11.2608 5.99255 11.1013 5.83307C10.9418 5.67358 10.7255 5.58398 10.4999 5.58398C10.2744 5.58398 10.0581 5.67358 9.89861 5.83307C9.73913 5.99255 9.64953 6.20886 9.64953 6.4344C9.64953 6.65995 9.73913 6.87625 9.89861 7.03574C10.0581 7.19522 10.2744 7.28482 10.4999 7.28482ZM16.1495 7.74198C15.924 7.74198 15.7077 7.83158 15.5482 7.99107C15.3887 8.15055 15.2991 8.36686 15.2991 8.5924C15.2991 8.81795 15.3887 9.03425 15.5482 9.19374C15.7077 9.35322 15.924 9.44282 16.1495 9.44282C16.3751 9.44282 16.5914 9.35322 16.7509 9.19374C16.9103 9.03425 16.9999 8.81795 16.9999 8.5924C16.9999 8.36686 16.9103 8.15055 16.7509 7.99107C16.5914 7.83158 16.3751 7.74198 16.1495 7.74198ZM5.70132 8.5924C5.70132 8.36686 5.61172 8.15055 5.45224 7.99107C5.29276 7.83158 5.07645 7.74198 4.8509 7.74198C4.62536 7.74198 4.40905 7.83158 4.24957 7.99107C4.09009 8.15055 4.00049 8.36686 4.00049 8.5924C4.00049 8.81795 4.09009 9.03425 4.24957 9.19374C4.40905 9.35322 4.62536 9.44282 4.8509 9.44282C5.07645 9.44282 5.29276 9.35322 5.45224 9.19374C5.61172 9.03425 5.70132 8.81795 5.70132 8.5924Z" fill="white"/>
</svg>
