<svg width="16" height="17" viewBox="0 0 16 17" fill="none" xmlns="http://www.w3.org/2000/svg">
<path fill-rule="evenodd" clip-rule="evenodd" d="M11.4668 7.32645L7.7335 11.0598C7.60016 11.1931 7.46683 11.2598 7.26683 11.2598C7.06683 11.2598 6.9335 11.1931 6.80016 11.0598L4.5335 8.79311C4.26683 8.52645 4.26683 8.12645 4.5335 7.85978C4.80016 7.59312 5.20016 7.59312 5.46683 7.85978L7.26683 9.65978L10.5335 6.39312C10.8002 6.12645 11.2002 6.12645 11.4668 6.39312C11.7335 6.65978 11.7335 7.05978 11.4668 7.32645Z" fill="#E57A2C"/>
<path d="M7.99984 2.52645C11.3332 2.52645 13.9998 5.19311 13.9998 8.52645C13.9998 11.8598 11.3332 14.5264 7.99984 14.5264C4.6665 14.5264 1.99984 11.8598 1.99984 8.52645C1.99984 5.19311 4.6665 2.52645 7.99984 2.52645ZM7.99984 1.19312C3.93317 1.19312 0.666504 4.45978 0.666504 8.52645C0.666504 12.5931 3.93317 15.8598 7.99984 15.8598C12.0665 15.8598 15.3332 12.5931 15.3332 8.52645C15.3332 4.45978 12.0665 1.19312 7.99984 1.19312Z" fill="#E57A2C"/>
</svg>
