<svg width="17" height="17" viewBox="0 0 17 17" fill="none" xmlns="http://www.w3.org/2000/svg">
<g clip-path="url(#clip0_8034_169715)">
<path fill-rule="evenodd" clip-rule="evenodd" d="M11.6934 6.82083L7.96006 10.5542C7.82673 10.6875 7.69339 10.7542 7.49339 10.7542C7.29339 10.7542 7.16006 10.6875 7.02672 10.5542L4.76006 8.2875C4.49339 8.02083 4.49339 7.62083 4.76006 7.35417C5.02673 7.0875 5.42672 7.0875 5.69339 7.35417L7.49339 9.15417L10.7601 5.8875C11.0267 5.62083 11.4267 5.62083 11.6934 5.8875C11.9601 6.15417 11.9601 6.55417 11.6934 6.82083Z" fill="#5E59FF"/>
<path d="M8.2264 2.02083C11.5597 2.02083 14.2264 4.6875 14.2264 8.02083C14.2264 11.3542 11.5597 14.0208 8.2264 14.0208C4.89307 14.0208 2.2264 11.3542 2.2264 8.02083C2.2264 4.6875 4.89307 2.02083 8.2264 2.02083ZM8.2264 0.6875C4.15973 0.6875 0.893066 3.95417 0.893066 8.02083C0.893066 12.0875 4.15973 15.3542 8.2264 15.3542C12.2931 15.3542 15.5597 12.0875 15.5597 8.02083C15.5597 3.95417 12.2931 0.6875 8.2264 0.6875Z" fill="#5E59FF"/>
</g>
<defs>
<clipPath id="clip0_8034_169715">
<rect width="16" height="16" fill="white" transform="translate(0.226562 0.0234375)"/>
</clipPath>
</defs>
</svg>
