<svg width="44" height="44" viewBox="0 0 44 44" fill="none" xmlns="http://www.w3.org/2000/svg">
<g clip-path="url(#clip0_13260_25105)">
<rect y="-0.00195312" width="44" height="44" rx="22" fill="white"/>
<path d="M31 17.9977C31.5333 17.9977 32 18.1977 32.4 18.5977C32.8 18.9977 33 19.4643 33 19.9977V21.9977C33 22.1143 32.9833 22.2393 32.95 22.3727C32.9167 22.506 32.8833 22.631 32.85 22.7477L29.85 29.7977C29.7 30.131 29.45 30.4143 29.1 30.6477C28.75 30.881 28.3833 30.9977 28 30.9977H17V17.9977L23 12.0477C23.25 11.7977 23.5458 11.6518 23.8875 11.6102C24.2292 11.5685 24.5583 11.631 24.875 11.7977C25.1917 11.9643 25.425 12.1977 25.575 12.4977C25.725 12.7977 25.7583 13.106 25.675 13.4227L24.5805 17.8738C24.565 17.9368 24.6127 17.9977 24.6776 17.9977H31ZM19.0293 18.8184C19.0105 18.8371 19 18.8626 19 18.8891V28.8977C19 28.9529 19.0448 28.9977 19.1 28.9977H27.9341C27.9741 28.9977 28.0102 28.9738 28.026 28.937L30.9919 22.0165C30.9972 22.0041 31 21.9907 31 21.9771V20.0977C31 20.0424 30.9552 19.9977 30.9 19.9977H22.1275C22.0626 19.9977 22.0149 19.9368 22.0304 19.8738L23.2646 14.8454C23.2888 14.7471 23.1684 14.6793 23.0968 14.7508L19.0293 18.8184ZM14 30.9977C13.45 30.9977 12.9792 30.8018 12.5875 30.4102C12.1958 30.0185 12 29.5477 12 28.9977V19.9977C12 19.4477 12.1958 18.9768 12.5875 18.5852C12.9792 18.1935 13.45 17.9977 14 17.9977H17V19.8977C17 19.9529 16.9552 19.9977 16.9 19.9977H14.1C14.0448 19.9977 14 20.0424 14 20.0977V28.8977C14 28.9529 14.0448 28.9977 14.1 28.9977H16.9C16.9552 28.9977 17 29.0424 17 29.0977V30.9977H14Z" fill="#1D1E18"/>
</g>
<rect x="0.5" y="0.498047" width="43" height="43" rx="21.5" stroke="black" stroke-opacity="0.15"/>
<defs>
<clipPath id="clip0_13260_25105">
<rect y="-0.00195312" width="44" height="44" rx="22" fill="white"/>
</clipPath>
</defs>
</svg>
