<svg width="52" height="52" viewBox="0 0 52 52" fill="none" xmlns="http://www.w3.org/2000/svg">
<g filter="url(#filter0_d_12583_53619)">
<g clip-path="url(#clip0_12583_53619)">
<rect x="4" y="2.99805" width="44" height="44" rx="22" fill="white"/>
<path d="M35 20.9977C35.5333 20.9977 36 21.1977 36.4 21.5977C36.8 21.9977 37 22.4643 37 22.9977V24.9977C37 25.1143 36.9833 25.2393 36.95 25.3727C36.9167 25.506 36.8833 25.631 36.85 25.7477L33.85 32.7977C33.7 33.131 33.45 33.4143 33.1 33.6477C32.75 33.881 32.3833 33.9977 32 33.9977H21V20.9977L27 15.0477C27.25 14.7977 27.5458 14.6518 27.8875 14.6102C28.2292 14.5685 28.5583 14.631 28.875 14.7977C29.1917 14.9643 29.425 15.1977 29.575 15.4977C29.725 15.7977 29.7583 16.106 29.675 16.4227L28.5805 20.8738C28.565 20.9368 28.6127 20.9977 28.6776 20.9977H35ZM23.0293 21.8184C23.0105 21.8371 23 21.8626 23 21.8891V31.8977C23 31.9529 23.0448 31.9977 23.1 31.9977H31.9341C31.9741 31.9977 32.0102 31.9738 32.026 31.937L34.9919 25.0165C34.9972 25.0041 35 24.9907 35 24.9771V23.0977C35 23.0424 34.9552 22.9977 34.9 22.9977H26.1275C26.0626 22.9977 26.0149 22.9368 26.0304 22.8738L27.2646 17.8454C27.2888 17.7471 27.1684 17.6793 27.0968 17.7508L23.0293 21.8184ZM18 33.9977C17.45 33.9977 16.9792 33.8018 16.5875 33.4102C16.1958 33.0185 16 32.5477 16 31.9977V22.9977C16 22.4477 16.1958 21.9768 16.5875 21.5852C16.9792 21.1935 17.45 20.9977 18 20.9977H21V22.8977C21 22.9529 20.9552 22.9977 20.9 22.9977H18.1C18.0448 22.9977 18 23.0424 18 23.0977V31.8977C18 31.9529 18.0448 31.9977 18.1 31.9977H20.9C20.9552 31.9977 21 32.0424 21 32.0977V33.9977H18Z" fill="#1D1E18"/>
</g>
<rect x="4.5" y="3.49805" width="43" height="43" rx="21.5" stroke="black" stroke-opacity="0.15"/>
</g>
<defs>
<filter id="filter0_d_12583_53619" x="0" y="-0.00195312" width="52" height="52" filterUnits="userSpaceOnUse" color-interpolation-filters="sRGB">
<feFlood flood-opacity="0" result="BackgroundImageFix"/>
<feColorMatrix in="SourceAlpha" type="matrix" values="0 0 0 0 0 0 0 0 0 0 0 0 0 0 0 0 0 0 127 0" result="hardAlpha"/>
<feOffset dy="1"/>
<feGaussianBlur stdDeviation="2"/>
<feComposite in2="hardAlpha" operator="out"/>
<feColorMatrix type="matrix" values="0 0 0 0 0 0 0 0 0 0 0 0 0 0 0 0 0 0 0.1 0"/>
<feBlend mode="normal" in2="BackgroundImageFix" result="effect1_dropShadow_12583_53619"/>
<feBlend mode="normal" in="SourceGraphic" in2="effect1_dropShadow_12583_53619" result="shape"/>
</filter>
<clipPath id="clip0_12583_53619">
<rect x="4" y="2.99805" width="44" height="44" rx="22" fill="white"/>
</clipPath>
</defs>
</svg>
