<?xml version="1.0" encoding="UTF-8"?>
<svg id="_레이어_1" data-name=" 레이어 1" xmlns="http://www.w3.org/2000/svg" version="1.1" viewBox="0 0 26 32">
  <defs>
    <style>
      .cls-1 {
        fill: #5e59ff;
        fill-rule: evenodd;
      }

      .cls-1, .cls-2 {
        stroke-width: 0px;
      }

      .cls-2 {
        fill: #fff;
      }
    </style>
  </defs>
  <g>
    <path class="cls-1" d="M13,17.1c-.5,0-.9,0-1.4-.2-.4-.2-.8-.4-1.2-.8s-.6-.7-.8-1.2c-.2-.4-.3-.9-.3-1.4s0-.9.3-1.4c.2-.4.4-.8.8-1.2.3-.3.7-.6,1.2-.8.4-.2.9-.3,1.4-.2.9,0,1.8.4,2.5,1.1.6.7,1,1.6,1,2.5s-.4,1.8-1,2.5c-.6.7-1.5,1-2.5,1.1ZM10.3,1.9C4.7,3.1.8,8.4,1,14.1c.2,4.5,2.9,8.5,11.1,16.3.5.5,1.3.5,1.9,0,8.5-8.1,11.1-12.1,11.1-16.8C25.1,6.1,18.1.1,10.3,1.9"/>
    <path class="cls-2" d="M13,17.1v1-1ZM13,10.1v-1,1ZM16.5,13.6h-1,1ZM1,14.1H0h1ZM12.1,30.4l-.7.7h0l.7-.7ZM14,30.4l.7.7h0l-.7-.7ZM13,16.1c-.3,0-.7,0-1-.2l-.7,1.9c.6.2,1.2.3,1.8.3v-2h-.1ZM12,16c-.3-.1-.6-.3-.8-.5l-1.4,1.4c.4.4.9.8,1.5,1l.7-1.9ZM11.2,15.4c-.2-.2-.4-.5-.6-.8l-1.8.8c.2.6.6,1.1,1,1.5l1.4-1.4h0ZM10.6,14.6c-.1-.3-.2-.6-.2-1h-2c0,.6.1,1.2.4,1.8l1.8-.8ZM10.4,13.6c0-.3,0-.7.2-1l-1.8-.8c-.2.6-.4,1.2-.4,1.8h2ZM10.6,12.6c.1-.3.3-.6.6-.8l-1.4-1.4c-.4.4-.8.9-1,1.5l1.8.8h0ZM11.2,11.8c.2-.2.5-.4.8-.5l-.7-1.9c-.6.2-1.1.6-1.5,1l1.4,1.4ZM12,11.2c.3-.1.6-.2,1-.2v-2c-.6,0-1.2,0-1.7.3l.7,1.9ZM13,11.1c.7,0,1.3.3,1.8.8l1.4-1.4c-.8-.8-2-1.3-3.2-1.4,0,0,0,2,0,2ZM14.8,11.8c.5.5.7,1.1.7,1.8h2c0-1.2-.5-2.3-1.3-3.2,0,0-1.4,1.4-1.4,1.4ZM15.5,13.6c0,.7-.3,1.3-.7,1.8l1.4,1.4c.8-.8,1.3-2,1.3-3.2,0,0-2,0-2,0ZM14.8,15.4c-.5.5-1.1.7-1.8.8v2c1.2,0,2.4-.5,3.2-1.4,0,0-1.4-1.4-1.4-1.4ZM10,.9C4,2.3-.2,7.9,0,14.1h2c-.2-5.3,3.4-10.1,8.5-11.2l-.4-2h-.1ZM0,14.1c.2,4.9,3.3,9.2,11.4,17l1.4-1.4C4.6,21.8,2.2,18,2,14H0ZM11.4,31.1c.9.9,2.3.9,3.2,0l-1.4-1.4c-.1.1-.3.1-.5,0l-1.4,1.4h0ZM14.7,31.1c8.4-8.1,11.4-12.4,11.4-17.5h-2c0,4.2-2.3,7.9-10.8,16.1,0,0,1.4,1.4,1.4,1.4ZM26.1,13.6C26.1,5.4,18.5-1,10,.9l.4,2c7.2-1.6,13.6,3.8,13.6,10.7h2.1Z"/>
  </g>
  <circle class="cls-2" cx="13" cy="12.9" r="4.4"/>
</svg>