<svg width="16" height="16" viewBox="0 0 16 16" fill="none" xmlns="http://www.w3.org/2000/svg">
<g clip-path="url(#clip0_4039_19826)">
<path fill-rule="evenodd" clip-rule="evenodd" d="M11.4666 6.79935L7.73325 10.5327C7.59992 10.666 7.46658 10.7327 7.26658 10.7327C7.06658 10.7327 6.93325 10.666 6.79992 10.5327L4.53325 8.26602C4.26659 7.99935 4.26659 7.59935 4.53325 7.33268C4.79992 7.06602 5.19992 7.06602 5.46658 7.33268L7.26658 9.13268L10.5333 5.86602C10.7999 5.59935 11.1999 5.59935 11.4666 5.86602C11.7333 6.13268 11.7333 6.53268 11.4666 6.79935Z" fill="#E57A2C"/>
<path d="M8.00008 1.99935C11.3334 1.99935 14.0001 4.66602 14.0001 7.99935C14.0001 11.3327 11.3334 13.9993 8.00008 13.9993C4.66675 13.9993 2.00008 11.3327 2.00008 7.99935C2.00008 4.66602 4.66675 1.99935 8.00008 1.99935ZM8.00008 0.666016C3.93341 0.666016 0.666748 3.93268 0.666748 7.99935C0.666748 12.066 3.93341 15.3327 8.00008 15.3327C12.0667 15.3327 15.3334 12.066 15.3334 7.99935C15.3334 3.93268 12.0667 0.666016 8.00008 0.666016Z" fill="#E57A2C"/>
</g>
<defs>
<clipPath id="clip0_4039_19826">
<rect width="16" height="16" fill="white"/>
</clipPath>
</defs>
</svg>
