<svg width="48" height="49" viewBox="0 0 48 49" fill="none" xmlns="http://www.w3.org/2000/svg">
<g filter="url(#filter0_d_970_5646)">
<mask id="path-1-outside-1_970_5646" maskUnits="userSpaceOnUse" x="11" y="7.63477" width="27" height="33" fill="black">
<rect fill="white" x="11" y="7.63477" width="27" height="33"/>
<path fill-rule="evenodd" clip-rule="evenodd" d="M24.0259 25.1994C23.5557 25.2084 23.0885 25.1236 22.6515 24.9499C22.2145 24.7763 21.8165 24.5172 21.4808 24.1879C21.1451 23.8586 20.8785 23.4656 20.6964 23.032C20.5144 22.5985 20.4206 22.1329 20.4206 21.6627C20.4206 21.1924 20.5144 20.7269 20.6964 20.2933C20.8785 19.8597 21.1451 19.4668 21.4808 19.1375C21.8165 18.8082 22.2145 18.5491 22.6515 18.3754C23.0885 18.2018 23.5557 18.1169 24.0259 18.126C24.9521 18.1438 25.8344 18.5242 26.4832 19.1855C27.1319 19.8468 27.4954 20.7363 27.4954 21.6627C27.4954 22.5891 27.1319 23.4785 26.4832 24.1399C25.8344 24.8012 24.9521 25.1816 24.0259 25.1994ZM21.2575 9.94338C15.6921 11.1855 11.7898 16.4238 12.0088 22.1221C12.1808 26.5979 14.927 30.6019 23.0979 38.4573C23.614 38.9526 24.4404 38.9552 24.9578 38.4587C33.4089 30.3347 36.0574 26.3307 36.0574 21.662C36.0574 14.1155 29.1065 8.19164 21.2575 9.94468"/>
</mask>
<path fill-rule="evenodd" clip-rule="evenodd" d="M24.0259 25.1994C23.5557 25.2084 23.0885 25.1236 22.6515 24.9499C22.2145 24.7763 21.8165 24.5172 21.4808 24.1879C21.1451 23.8586 20.8785 23.4656 20.6964 23.032C20.5144 22.5985 20.4206 22.1329 20.4206 21.6627C20.4206 21.1924 20.5144 20.7269 20.6964 20.2933C20.8785 19.8597 21.1451 19.4668 21.4808 19.1375C21.8165 18.8082 22.2145 18.5491 22.6515 18.3754C23.0885 18.2018 23.5557 18.1169 24.0259 18.126C24.9521 18.1438 25.8344 18.5242 26.4832 19.1855C27.1319 19.8468 27.4954 20.7363 27.4954 21.6627C27.4954 22.5891 27.1319 23.4785 26.4832 24.1399C25.8344 24.8012 24.9521 25.1816 24.0259 25.1994ZM21.2575 9.94338C15.6921 11.1855 11.7898 16.4238 12.0088 22.1221C12.1808 26.5979 14.927 30.6019 23.0979 38.4573C23.614 38.9526 24.4404 38.9552 24.9578 38.4587C33.4089 30.3347 36.0574 26.3307 36.0574 21.662C36.0574 14.1155 29.1065 8.19164 21.2575 9.94468" fill="#E57A2C"/>
<path d="M24.0259 25.1994L24.0451 26.1992L24.0259 25.1994ZM24.0259 18.126L24.0451 17.1262L24.0259 18.126ZM27.4954 21.6627H26.4954H27.4954ZM12.0088 22.1221L11.0095 22.1605L11.0095 22.1605L12.0088 22.1221ZM23.0979 38.4573L22.4048 39.1782L22.4055 39.1789L23.0979 38.4573ZM24.9578 38.4587L25.6502 39.1801L25.6508 39.1796L24.9578 38.4587ZM24.0067 24.1996C23.6695 24.2061 23.3343 24.1452 23.0208 24.0206L22.2822 25.8792C22.8427 26.102 23.442 26.2108 24.0451 26.1992L24.0067 24.1996ZM23.0208 24.0206C22.7074 23.8961 22.4219 23.7102 22.1811 23.474L20.7805 24.9017C21.2111 25.3241 21.7216 25.6564 22.2822 25.8792L23.0208 24.0206ZM22.1811 23.474C21.9403 23.2378 21.7491 22.9559 21.6185 22.6449L19.7744 23.4192C20.0079 23.9753 20.35 24.4793 20.7805 24.9017L22.1811 23.474ZM21.6185 22.6449C21.4879 22.3339 21.4206 22 21.4206 21.6627H19.4206C19.4206 22.2659 19.5409 22.863 19.7744 23.4192L21.6185 22.6449ZM21.4206 21.6627C21.4206 21.3254 21.4879 20.9915 21.6185 20.6804L19.7744 19.9062C19.5409 20.4624 19.4206 21.0595 19.4206 21.6627H21.4206ZM21.6185 20.6804C21.7491 20.3694 21.9403 20.0876 22.1811 19.8514L20.7805 18.4236C20.35 18.846 20.0079 19.3501 19.7744 19.9062L21.6185 20.6804ZM22.1811 19.8514C22.4219 19.6151 22.7074 19.4293 23.0208 19.3047L22.2822 17.4461C21.7216 17.6689 21.2111 18.0012 20.7805 18.4236L22.1811 19.8514ZM23.0208 19.3047C23.3343 19.1802 23.6695 19.1193 24.0067 19.1258L24.0451 17.1262C23.442 17.1146 22.8427 17.2234 22.2822 17.4461L23.0208 19.3047ZM24.0067 19.1258C24.6711 19.1385 25.304 19.4114 25.7693 19.8858L27.1971 18.4852C26.3649 17.6369 25.2332 17.149 24.0451 17.1262L24.0067 19.1258ZM25.7693 19.8858C26.2347 20.3602 26.4954 20.9982 26.4954 21.6627H28.4954C28.4954 20.4744 28.0292 19.3335 27.1971 18.4852L25.7693 19.8858ZM26.4954 21.6627C26.4954 22.3272 26.2347 22.9652 25.7693 23.4396L27.1971 24.8401C28.0292 23.9919 28.4954 22.851 28.4954 21.6627H26.4954ZM25.7693 23.4396C25.304 23.9139 24.6711 24.1868 24.0067 24.1996L24.0451 26.1992C25.2332 26.1764 26.3649 25.6884 27.1971 24.8401L25.7693 23.4396ZM21.0397 8.96739C14.9868 10.3183 10.7727 15.9966 11.0095 22.1605L13.008 22.0837C12.807 16.8509 16.3974 12.0527 21.4754 10.9194L21.0397 8.96739ZM11.0095 22.1605C11.199 27.0911 14.268 31.3555 22.4048 39.1782L23.791 37.7365C15.586 29.8483 13.1626 26.1048 13.008 22.0837L11.0095 22.1605ZM22.4055 39.1789C23.3066 40.0436 24.7439 40.05 25.6502 39.1801L24.2654 37.7372C24.1369 37.8605 23.9215 37.8617 23.7903 37.7358L22.4055 39.1789ZM25.6508 39.1796C34.0692 31.0871 37.0574 26.8084 37.0574 21.662H35.0574C35.0574 25.853 32.7486 29.5824 24.2648 37.7377L25.6508 39.1796ZM37.0574 21.662C37.0574 13.488 29.5256 7.07339 21.0396 8.96873L21.4755 10.9206C28.6874 9.30989 35.0574 14.743 35.0574 21.662H37.0574Z" fill="white" mask="url(#path-1-outside-1_970_5646)"/>
</g>
<circle cx="24.0001" cy="21.3917" r="4.38" fill="white"/>
<defs>
<filter id="filter0_d_970_5646" x="7" y="5.63379" width="34.0576" height="39.1963" filterUnits="userSpaceOnUse" color-interpolation-filters="sRGB">
<feFlood flood-opacity="0" result="BackgroundImageFix"/>
<feColorMatrix in="SourceAlpha" type="matrix" values="0 0 0 0 0 0 0 0 0 0 0 0 0 0 0 0 0 0 127 0" result="hardAlpha"/>
<feOffset dy="1"/>
<feGaussianBlur stdDeviation="2"/>
<feComposite in2="hardAlpha" operator="out"/>
<feColorMatrix type="matrix" values="0 0 0 0 0 0 0 0 0 0 0 0 0 0 0 0 0 0 0.1 0"/>
<feBlend mode="normal" in2="BackgroundImageFix" result="effect1_dropShadow_970_5646"/>
<feBlend mode="normal" in="SourceGraphic" in2="effect1_dropShadow_970_5646" result="shape"/>
</filter>
</defs>
</svg>
